<?xml version="1.0" encoding="UTF-8"?>
<svg id="_レイヤー_2" data-name="レイヤー 2" xmlns="http://www.w3.org/2000/svg" xmlns:xlink="http://www.w3.org/1999/xlink" viewBox="0 0 439 64">
  <defs>
    <style>
      .cls-1 {
        fill: #ff5267;
      }

      .cls-2 {
        fill: #fff;
      }

      .cls-3 {
        fill: url(#_名称未設定グラデーション);
      }
    </style>
    <linearGradient id="_名称未設定グラデーション" data-name="名称未設定グラデーション" x1="224.11" y1="418.84" x2="216.56" y2="337.33" gradientTransform="translate(0 401.06) scale(1 -1)" gradientUnits="userSpaceOnUse">
      <stop offset="0" stop-color="#ffabb5"/>
      <stop offset="1" stop-color="#fe5166"/>
    </linearGradient>
  </defs>
  <g id="_レイヤー_1-2" data-name="レイヤー 1">
    <g>
      <rect class="cls-3" width="439" height="64" rx="5" ry="5" shape-rendering="crispEdges"/>
      <path class="cls-2" d="M268.67,36v-.95l2.95-3.06c.32-.33,.58-.62,.78-.87,.21-.25,.36-.49,.46-.72,.1-.23,.15-.47,.15-.72,0-.29-.07-.54-.2-.75-.14-.21-.32-.38-.56-.49-.23-.12-.5-.17-.8-.17-.31,0-.58,.06-.82,.19s-.41,.31-.54,.54c-.12,.23-.19,.51-.19,.82h-1.26c0-.53,.12-1,.37-1.39,.25-.4,.58-.71,1.01-.92,.43-.22,.91-.33,1.45-.33s1.03,.11,1.45,.33c.42,.22,.75,.51,.98,.89,.24,.37,.35,.79,.35,1.26,0,.32-.06,.64-.18,.95-.12,.31-.33,.65-.63,1.04-.3,.38-.71,.84-1.24,1.38l-1.73,1.82v.06h3.93v1.13h-5.75Zm6.86-1.7v-1.07l3.77-5.96h.84v1.57h-.53l-2.7,4.27v.07h5.17v1.12h-6.55Zm4.14,1.7v-2.51s0-6.21,0-6.21h1.25v8.73h-1.26Zm6.44-8.45v2.66h-1.74v-2.66h1.74Zm-1.74,6.22v-2.77h1.74v2.77h-1.74Zm2.58-7.02h-3.4v8.8h.82v-.97h2.58v-7.82Zm.98,6.72c.61,.64,1.25,1.52,1.52,2.11l.76-.48c-.28-.59-.95-1.44-1.56-2.04l-.72,.41Zm6.19-2.98v-.79h-3.1v-1.52h2.58v-.79h-2.58v-1.43h-.88v1.43h-2.5v.79h2.5v1.52h-3.01v.79h4.6v1.36h-4.54v.79h4.54v3.2c0,.18-.06,.23-.26,.24-.19,.01-.85,.01-1.6-.01,.13,.23,.25,.59,.29,.83,.97,0,1.57-.01,1.94-.14,.36-.13,.49-.4,.49-.9v-3.22h1.39v-.79h-1.39v-1.36h1.52Zm4.93-3.32v1h-2.59v-1h2.59Zm-2.59,2.71v-1.06h2.59v1.06h-2.59Zm3.44,.68v-4.09h-4.33v10.45h.89v-6.36h3.44Zm1.93,1.6v1.1h-2.82v-1.1h2.82Zm-2.82,2.94v-1.16h2.82v1.16h-2.82Zm3.65,.71v-4.34h-4.45v4.94h.8v-.6h3.65Zm-.84-5.92v-1.07h2.69v1.07h-2.69Zm2.69-2.72v1h-2.69v-1h2.69Zm.9-.7h-4.44v4.1h3.54v5.15c0,.22-.07,.29-.28,.29-.22,.01-.95,.02-1.68-.01,.13,.24,.28,.66,.31,.91,1,0,1.63-.01,2.02-.16,.4-.16,.53-.46,.53-1.02v-9.26Zm3.59,1.15l-1.16-.02c.07,.29,.08,.79,.08,1.07,0,.7,.02,2.16,.13,3.2,.32,3.11,1.42,4.24,2.56,4.24,.8,0,1.54-.7,2.26-2.74l-.76-.85c-.31,1.2-.88,2.45-1.49,2.45-.85,0-1.44-1.33-1.63-3.34-.08-1-.1-2.09-.08-2.84,0-.31,.05-.88,.1-1.16Zm6.25,.34l-.94,.32c1.15,1.4,1.87,3.86,2.09,6.04l.96-.4c-.18-2.03-1.04-4.57-2.11-5.96Zm3.82,1.78l.44,1.06c.95-.38,4.01-1.69,5.98-1.69,1.62,0,2.56,.98,2.56,2.24,0,2.46-2.81,3.41-5.95,3.49l.43,1c3.7-.2,6.56-1.6,6.56-4.46,0-2.02-1.58-3.17-3.58-3.17-1.75,0-4.1,.86-5.12,1.19-.46,.14-.89,.26-1.32,.35Zm11.94-1.63l.11,1.04c1.3-.28,4.36-.56,5.64-.71-1.1,.66-2.24,2.18-2.24,4.06,0,2.68,2.53,3.86,4.75,3.95l.35-1c-1.96-.07-4.14-.82-4.14-3.16,0-1.43,1.04-3.25,2.75-3.8,.61-.18,1.67-.19,2.35-.19v-.96c-.8,.04-1.93,.11-3.24,.22-2.21,.18-4.48,.41-5.26,.49-.23,.02-.61,.05-1.07,.06Zm7.84,1.67l-.61,.26c.36,.49,.71,1.12,.98,1.69l.61-.29c-.25-.53-.71-1.27-.98-1.67Zm1.31-.5l-.59,.28c.37,.5,.72,1.09,1.01,1.68l.62-.3c-.28-.53-.76-1.26-1.04-1.66Zm7.09-2.7l-1.08-.07c.02,.23,.02,.44-.01,.85-.02,.35-.07,.78-.13,1.26-.89-.06-1.87-.2-2.63-.44l-.05,.88c.76,.19,1.7,.35,2.58,.42-.1,.71-.19,1.46-.26,2.17-.85-.07-1.76-.22-2.56-.49l-.05,.92c.73,.23,1.61,.36,2.51,.43-.06,.56-.1,1.04-.1,1.38,0,1.97,1.31,2.68,2.94,2.68,2.38,0,3.96-1.08,3.96-2.87,0-1.03-.4-1.86-1.22-2.77l-1.06,.22c.88,.74,1.31,1.64,1.31,2.45,0,1.24-1.16,2.04-2.99,2.04-1.37,0-2.02-.72-2.02-1.88,0-.29,.02-.71,.07-1.19h.43c.82,0,1.56-.04,2.35-.12l.02-.91c-.84,.12-1.68,.16-2.5,.16h-.23c.08-.71,.18-1.46,.26-2.17h.08c.97,0,1.67-.04,2.44-.11l.02-.9c-.7,.11-1.51,.16-2.44,.16,.07-.5,.13-.92,.17-1.24,.04-.26,.07-.52,.16-.84Zm10,2.8h1.72v-.84h-1.72v-2.57h-.84v2.57h-1.94v.84h1.84c-.42,1.66-1.27,3.52-2.1,4.51,.14,.22,.37,.56,.47,.82,.65-.82,1.27-2.15,1.74-3.53v5.74h.84v-5.46c.46,.59,1,1.34,1.22,1.74l.55-.73c-.25-.32-1.36-1.6-1.78-2.03v-1.06Zm3.1,5.92v-2.08h3.64v2.08h-3.64Zm3.64-7.78v2h-3.64v-2h3.64Zm-3.64,2.82h3.64v2.06h-3.64v-2.06Zm-.85-3.66v10.16h.85v-.72h3.64v.68h.88v-10.13h-5.36Zm16.55,.04c-.23,.59-.67,1.42-1.02,1.93l.66,.28c.37-.48,.82-1.24,1.2-1.91l-.84-.3Zm-4.26,.07c-.12,.76-.44,1.55-.95,1.96l.68,.34c.56-.49,.89-1.36,1.01-2.15l-.74-.14Zm5.34,3.84c-.68-.58-1.99-1.43-3.05-2.06,.2-.72,.29-1.57,.34-2.58h-.86c-.12,2.54-.46,3.96-2.92,4.72,.18,.17,.41,.48,.5,.7,1.39-.47,2.18-1.14,2.65-2.08,1.01,.64,2.15,1.44,2.75,1.98l.59-.67Zm-1.4,3.56c.41-.53,.9-1.36,1.31-2.08l-.86-.3c-.25,.62-.73,1.54-1.12,2.09l.67,.29Zm-4.46,.22c.65-.53,1.03-1.44,1.2-2.34l-.79-.17c-.17,.84-.54,1.67-1.12,2.09l.71,.42Zm-1.07-8.02h-3.41v.72h3.41v-.72Zm.43,1.57h-4.44v.73h4.44v-.73Zm-.41,1.62h-3.48v.71h3.48v-.71Zm-3.48,2.3h3.48v-.72h-3.48v.72Zm2.72,1.62v2.02h-1.96v-2.02h1.96Zm.77-.73h-3.5v4.02h.78v-.55h2.72v-3.47Zm4.13-1.85h-.89v1.72c0,.68-.42,2.62-3.2,3.58,.18,.18,.42,.53,.53,.72,2.1-.77,2.94-2.27,3.12-3,.18,.72,.98,2.27,2.81,3,.12-.2,.37-.55,.54-.76-2.48-.92-2.9-2.88-2.9-3.54v-1.72Zm9.12-.6v2.74h-3.13v-2.74h3.13Zm.88,3.59v-4.45h-4.87v5.41h.86v-.96h4.01Zm4.52-7.09h-10.62v.89h8.23v7.93c0,.25-.08,.34-.35,.35-.28,.01-1.26,.02-2.22-.02,.14,.25,.32,.7,.38,.95,1.18,0,2,0,2.48-.17,.46-.13,.61-.46,.61-1.09v-7.94h1.48v-.89Z"/>
      <path class="cls-2" d="M158.86,24.77l-2.68-.94c-.07,.47-.27,1.19-.43,1.66-.47,1.42-1.08,2.84-2,4.28-1.46-1.08-3.35-2.38-4.79-3.26l-1.53,1.84c1.84,1.12,3.56,2.39,4.86,3.42-1.78,2.14-3.91,3.89-6.84,5.31l2.02,1.82c3.04-1.66,5.11-3.65,6.7-5.56,1.44,1.24,2.74,2.5,4,3.98l1.85-2.05c-1.23-1.3-2.74-2.68-4.32-3.98,1.06-1.66,1.87-3.47,2.41-4.9,.18-.41,.52-1.21,.76-1.62Zm4.28,4.9v2.83c.67-.05,1.87-.09,2.9-.09h9.67c.76,0,1.67,.07,2.11,.09v-2.83c-.47,.04-1.26,.11-2.11,.11h-9.67c-.94,0-2.25-.05-2.9-.11Zm25.2,7.94l1.51,1.24c.16-.14,.38-.32,.77-.54,2.01-1.03,4.61-2.97,6.1-4.91l-1.39-1.98c-1.21,1.75-2.99,3.17-4.45,3.8v-9.41c0-.81,.11-1.51,.13-1.57h-2.68c.02,.05,.14,.74,.14,1.55v10.49c0,.49-.07,.99-.14,1.33Zm-8.33-.27l2.2,1.46c1.53-1.37,2.66-3.13,3.2-5.17,.49-1.82,.54-5.62,.54-7.74,0-.76,.11-1.55,.13-1.64h-2.65c.11,.45,.16,.94,.16,1.66,0,2.18-.02,5.58-.52,7.13-.5,1.53-1.48,3.19-3.06,4.3Zm18.32-11.68l.23,2.47c2.09-.45,5.76-.85,7.45-1.03-1.22,.92-2.68,2.97-2.68,5.56,0,3.91,3.56,5.92,7.34,6.17l.85-2.47c-3.06-.16-5.83-1.22-5.83-4.19,0-2.14,1.64-4.46,3.82-5.04,.95-.23,2.5-.23,3.47-.25l-.02-2.3c-1.28,.05-3.24,.16-5.09,.32-3.29,.27-6.26,.54-7.78,.67-.34,.04-1.04,.07-1.76,.09Zm12.08,2.99l-1.33,.56c.58,.81,.95,1.51,1.4,2.5l1.37-.61c-.34-.7-.99-1.8-1.44-2.45Zm2.02-.83l-1.31,.61c.58,.79,.99,1.46,1.48,2.43l1.35-.65c-.38-.7-1.06-1.76-1.51-2.39Zm7.96,.65h2.25v-2.02h-2.25v-3.69h-2.05v3.69h-2.57v2.02h2.32c-.58,2.14-1.62,4.59-2.79,6.01,.34,.54,.81,1.4,1.01,2.02,.77-.99,1.46-2.47,2.03-4.05v7.11h2.05v-7.49c.5,.81,1.03,1.66,1.3,2.23l1.22-1.75c-.36-.45-1.89-2.3-2.52-2.99v-1.1Zm4.93,7.97v-2.3h4.23v2.3h-4.23Zm4.23-6.53v2.29h-4.23v-2.29h4.23Zm0-4.16v2.23h-4.23v-2.23h4.23Zm-6.28-2.02v15.68h2.05v-1.03h4.23v.92h2.16v-15.57h-8.44Zm24.59-.02c-.27,.88-.83,2.14-1.3,2.93l1.58,.61c.5-.76,1.15-1.85,1.75-2.9l-2.03-.65Zm2.2,5.78c-.97-.81-2.79-1.93-4.27-2.79,.29-1.13,.4-2.43,.45-3.92h-2.07c-.14,3.56-.43,5.62-4.18,6.79,.45,.38,.97,1.17,1.19,1.69,1.94-.67,3.11-1.57,3.85-2.75,1.37,.86,2.84,1.89,3.6,2.61l1.42-1.62Zm-8.55,6.16c.88-.86,1.44-2.29,1.67-3.67l-1.87-.38c-.23,1.22-.77,2.48-1.57,3.17l1.76,.88Zm.02-11.83c-.2,1.12-.68,2.32-1.35,2.97l1.67,.72c.77-.81,1.24-2.14,1.42-3.33l-1.75-.36Zm-2.03-.5h-5.29v1.62h5.29v-1.62Zm.65,2.41h-6.84v1.69h6.84v-1.69Zm-.59,2.5h-5.4v1.64h5.4v-1.64Zm-5.4,4.07h5.4v-1.6h-5.4v1.6Zm3.6,2.57v2.07h-1.85v-2.07h1.85Zm1.82-1.69h-5.47v6.14h1.8v-.7h3.67v-5.44Zm8.6,2.03c.56-.77,1.26-1.96,1.89-3.1l-2.11-.65c-.32,.95-.92,2.25-1.42,3.11-.25-.58-.34-1.12-.34-1.51v-2.72h-2.18v2.72c0,1.21-.92,3.56-4.36,4.77,.38,.43,.95,1.26,1.17,1.75,2.48-.9,3.92-2.84,4.28-3.96,.32,1.12,1.62,3.11,3.89,3.96,.29-.52,.85-1.33,1.22-1.82-2.12-.79-3.2-2.05-3.69-3.15l1.64,.59Z"/>
      <path class="cls-2" d="M58.31,22h41c5.8,0,10.5,4.7,10.5,10.5h0c0,5.8-4.7,10.5-10.5,10.5H58.31c-5.8,0-10.5-4.7-10.5-10.5h0c0-5.8,4.7-10.5,10.5-10.5Z"/>
      <path class="cls-1" d="M74.67,31.18h-1.64v-2.37h1.64v2.37Zm0,3.32h-1.64v-2.39h1.64v2.39Zm-6.59-2.39h1.55v2.39h-1.55v-2.39Zm4.06,0v2.39h-1.62v-2.39h1.62Zm-1.62-.92v-2.37h1.62v2.37h-1.62Zm-2.44-2.37h1.55v2.37h-1.55v-2.37Zm-.94,2.37h-1.95v.92h1.95v2.39h-1.72v.94h12v-.94h-1.76v-2.39h1.96v-.92h-1.96v-2.37h1.44v-.92h-8.83c.28-.42,.53-.87,.74-1.32l-.99-.29c-.66,1.41-1.78,2.77-2.98,3.65,.25,.14,.66,.49,.85,.69,.42-.35,.85-.78,1.26-1.25v1.81Zm-1.06,7.9c.76-.66,1.39-1.76,1.72-2.81l-.97-.24c-.35,1.01-1.01,2.07-1.74,2.65l.98,.41Zm3.18-2.7c.17,.84,.28,1.92,.29,2.56l.99-.14c-.01-.63-.17-1.69-.34-2.52l-.95,.1Zm2.83,.01c.35,.83,.71,1.9,.85,2.56l1.01-.21c-.14-.66-.52-1.74-.9-2.53l-.97,.18Zm2.84-.1c.69,.87,1.48,2.06,1.82,2.8l1.04-.38c-.38-.76-1.2-1.9-1.9-2.74l-.95,.32Zm13.27-7.31c-.45-.52-1.41-1.23-2.2-1.71l-.53,.7c.8,.52,1.75,1.27,2.2,1.81l.53-.8Zm-.6,3.35c-.49-.5-1.53-1.13-2.35-1.57l-.49,.73c.84,.45,1.83,1.16,2.32,1.68l.52-.84Zm-4.05-5.21c-.21,.94-.6,2.32-.92,3.15l.67,.22c.38-.78,.81-2.1,1.15-3.15l-.9-.22Zm-2.91,3.12c-.1-.84-.42-2.1-.83-3.07l-.76,.18c.36,.98,.69,2.27,.76,3.11l.83-.22Zm1.53,1.69h2.28v-.98h-2.28v-4.62h-.97v4.62h-2.24v.98h1.96c-.49,1.57-1.37,3.37-2.18,4.35,.17,.25,.42,.71,.53,1.01,.7-.94,1.41-2.49,1.93-3.99v5.75h.97v-5.74c.5,.78,1.16,1.86,1.41,2.38l.69-.81c-.31-.48-1.71-2.32-2.1-2.76v-.2Zm9.55,2.87l-.15-.95-1.65,.29v-7.85h-.98v8.04l-4.51,.8,.17,.97,4.34-.78v3.75h.98v-3.93l1.81-.32Z"/>
      <path class="cls-2" d="M136.81,25.12h-16.25c-.34,0-.62,.28-.62,.62v12.5c0,.35,.28,.62,.62,.62h16.25c.35,0,.63-.28,.63-.62v-12.5c0-.35-.28-.62-.63-.62Zm-.78,2.16v10.18h-14.69v-10.18l-.54-.42,.77-.99,.84,.65h12.56l.84-.65,.77,.99-.54,.42h0Zm-1.06-.76l-6.28,4.88-6.28-4.88-.84-.65-.77,.99,.54,.42,6.67,5.19c.19,.15,.43,.23,.67,.23s.48-.08,.67-.23l6.68-5.19,.54-.42-.77-.99-.83,.65Z"/>
    </g>
  </g>
</svg>