<svg width="159" height="26" viewBox="0 0 159 26" fill="none" xmlns="http://www.w3.org/2000/svg">
<path d="M41.2902 7.05721C40.8548 7.05721 40.4677 6.91318 40.1613 6.57709C39.8549 6.27301 39.6775 5.88891 39.6775 5.4568V5.37678C39.6775 4.94467 39.8226 4.56057 40.1613 4.25649C40.4677 3.95241 40.8548 3.77637 41.2902 3.77637H58.7721C59.2076 3.77637 59.5946 3.9204 59.9172 4.25649C60.2236 4.56057 60.401 4.94467 60.401 5.37678V7.07322C59.8527 11.9065 58.2561 15.6994 55.6273 18.4522C52.9825 21.2049 49.1603 23.0774 44.1609 24.0536C43.7254 24.1336 43.3061 24.0536 42.9029 23.7975C42.4998 23.5415 42.2578 23.2054 42.1611 22.7733L42.1288 22.5652C42.032 22.1491 42.0804 21.765 42.3224 21.3809C42.5643 21.0288 42.9029 20.7888 43.3384 20.6927C47.3057 19.8125 50.3698 18.2761 52.5148 16.0675C54.6597 13.891 55.966 10.9462 56.4498 7.31328C56.4821 7.12123 56.4175 7.05721 56.2401 7.05721H41.2741L41.258 7.07322L41.2902 7.05721Z" fill="#1EADAC"/>
<path d="M67.1909 10.8669C66.7716 10.8669 66.4168 10.7229 66.1265 10.4348C65.8362 10.1467 65.691 9.79463 65.691 9.37852C65.691 8.96241 65.8362 8.61032 66.1265 8.32225C66.4168 8.03417 66.7716 7.89014 67.1909 7.89014H82.2537C82.673 7.89014 83.0278 8.03417 83.3181 8.32225C83.6084 8.61032 83.7536 8.96241 83.7536 9.37852C83.7536 10.4988 83.56 11.4591 83.173 12.2273C82.286 13.9557 81.0442 15.5561 79.4153 16.9645C79.0767 17.2686 78.6735 17.3966 78.2219 17.3486C77.7542 17.3006 77.3994 17.1085 77.093 16.7564L77.0124 16.6604C76.7221 16.3563 76.5931 15.9722 76.6576 15.5561C76.6898 15.14 76.8672 14.7879 77.2059 14.4998C78.367 13.4756 79.2863 12.3393 79.9314 11.107C79.9636 11.075 79.9798 11.0269 79.9637 10.9789C79.9314 10.9309 79.883 10.8989 79.8346 10.8989H67.207L67.1909 10.8669ZM72.787 12.6594H72.9967C73.4321 12.6594 73.8192 12.8034 74.1256 13.1235C74.432 13.4276 74.5933 13.8117 74.5933 14.2278C74.4965 16.9325 74.1095 18.997 73.3676 20.4374C72.6258 21.8778 71.4162 23.1261 69.7067 24.1503C69.3197 24.4064 68.9004 24.4544 68.4488 24.3424C68.0134 24.2144 67.6424 23.9903 67.4167 23.6062C67.1748 23.2541 67.1264 22.87 67.2231 22.4539C67.3199 22.0378 67.5779 21.7337 67.9489 21.4776C69.0778 20.7415 69.9003 19.8452 70.3357 18.821C70.8034 17.7967 71.0614 16.2763 71.1421 14.2598C71.1743 13.8277 71.3356 13.4596 71.6259 13.1555C71.9162 12.8194 72.3032 12.6754 72.7387 12.6754L72.787 12.6594Z" fill="#1EADAC"/>
<path d="M90.2368 22.7896C89.8014 22.7575 89.4305 22.5815 89.1563 22.2454C88.866 21.9413 88.737 21.5572 88.7692 21.1251V20.789C88.8015 20.3249 89.0112 19.9728 89.3498 19.6847C89.6885 19.3967 90.0917 19.2526 90.5432 19.2686C95.9459 19.5567 101.703 20.1969 107.799 21.2051C108.235 21.2852 108.574 21.4932 108.832 21.8453C109.09 22.1974 109.186 22.5815 109.138 23.0296L109.09 23.3817C109.041 23.8138 108.832 24.1499 108.461 24.406C108.106 24.662 107.719 24.7421 107.267 24.662C101.494 23.7338 95.8169 23.0936 90.253 22.8056L90.2368 22.7896ZM108.251 6.64138C108.17 7.07349 107.961 7.40958 107.606 7.69765C107.251 7.95372 106.864 8.04974 106.412 8.00173C101.219 7.31355 96.2523 6.84944 91.4948 6.59337C91.0271 6.56136 90.6723 6.38532 90.382 6.04923C90.0917 5.74515 89.9627 5.36105 89.9949 4.92894L90.0272 4.67287C90.0594 4.20875 90.2691 3.85666 90.6078 3.56858C90.9464 3.28051 91.3496 3.15248 91.8012 3.18449C96.8329 3.44055 101.897 3.90467 106.912 4.57685C107.348 4.62486 107.719 4.83291 107.977 5.20101C108.267 5.5531 108.332 5.9372 108.283 6.38532L108.251 6.64138ZM105.138 12.3228C105.606 12.4029 105.961 12.6109 106.219 12.963C106.509 13.3151 106.574 13.7312 106.525 14.1793L106.477 14.5154C106.429 14.9315 106.219 15.2836 105.848 15.5397C105.493 15.8278 105.106 15.8918 104.655 15.8438C100.687 15.1716 96.72 14.6915 92.7688 14.4354C92.3334 14.4034 91.9625 14.1953 91.656 13.8913C91.3496 13.5552 91.2206 13.1711 91.269 12.739L91.3012 12.4029C91.3335 11.9387 91.5431 11.5867 91.8818 11.2986C92.2205 11.0105 92.6237 10.8825 93.0752 10.9145C97.0264 11.1866 101.058 11.6347 105.155 12.3389L105.138 12.3228Z" fill="#1EADAC"/>
<path d="M118.975 25.2712C118.539 25.2712 118.169 25.1272 117.862 24.8071C117.556 24.503 117.394 24.1189 117.394 23.7028V4.03374C117.394 3.60162 117.54 3.23353 117.862 2.92945C118.169 2.62537 118.556 2.46533 118.975 2.46533H119.652C120.088 2.46533 120.459 2.60937 120.765 2.92945C121.071 3.23353 121.233 3.61763 121.233 4.03374V9.95527C121.233 10.1473 121.313 10.2433 121.475 10.2593C125.232 11.2836 128.893 12.5319 132.457 13.9883C132.877 14.1804 133.183 14.4524 133.344 14.8685C133.538 15.2846 133.538 15.6847 133.344 16.1169L133.247 16.3569C133.054 16.773 132.78 17.0451 132.393 17.2371C132.006 17.3812 131.586 17.3812 131.167 17.2051C128.135 15.9568 124.91 14.8525 121.491 13.8763C121.346 13.8443 121.249 13.9083 121.249 14.0683V23.7188C121.249 24.1509 121.104 24.519 120.781 24.8231C120.475 25.1272 120.088 25.2872 119.668 25.2872H118.991L118.975 25.2712Z" fill="#1EADAC"/>
<path d="M138.651 13.4587C138.215 13.4587 137.844 13.3146 137.538 12.9786C137.231 12.6745 137.07 12.2904 137.07 11.8583C137.07 11.4262 137.215 11.0421 137.538 10.738C137.844 10.4339 138.231 10.2579 138.651 10.2579H157.31C157.745 10.2579 158.116 10.4019 158.423 10.738C158.729 11.0421 158.89 11.4262 158.89 11.8583C158.89 13.0746 158.745 14.1309 158.423 15.0271C157.455 17.8278 155.858 20.0204 153.601 21.5888C151.359 23.1892 148.198 24.2935 144.215 24.9336C143.747 25.0137 143.328 24.9016 142.957 24.6296C142.602 24.3415 142.36 24.0054 142.263 23.5733V23.5413C142.183 23.1252 142.263 22.7411 142.521 22.389C142.779 22.0369 143.118 21.8128 143.553 21.7488C146.908 21.1727 149.488 20.2604 151.359 18.9481C153.197 17.6358 154.455 15.8753 155.1 13.6987C155.133 13.5707 155.068 13.4907 154.891 13.4907H138.635L138.651 13.4587ZM141.037 3.24805H155.213C155.649 3.24805 156.036 3.39208 156.342 3.71216C156.649 4.01624 156.826 4.40034 156.826 4.81645C156.826 5.23256 156.681 5.63266 156.342 5.93674C156.036 6.24082 155.649 6.41686 155.213 6.41686H141.037C140.602 6.41686 140.215 6.27283 139.892 5.93674C139.586 5.63266 139.409 5.24856 139.409 4.81645C139.409 4.38434 139.554 4.01624 139.892 3.71216C140.215 3.42409 140.602 3.24805 141.037 3.24805Z" fill="#1EADAC"/>
<path d="M29.4369 6.94579L16.5028 0.240064C16.1803 0.0960272 15.8577 0 15.5513 0H15.4707C15.1642 0 14.8256 0.0800231 14.503 0.240064L1.5851 6.94579C0.569084 7.47393 0.18205 8.72225 0.698121 9.73051C1.05292 10.4187 1.77865 10.8348 2.53663 10.8348C2.8753 10.8348 3.1817 10.7548 3.50425 10.5947L5.03633 9.79453V22.2778C5.03633 23.398 5.97172 24.3423 7.11676 24.3423C8.26179 24.3423 9.19716 23.414 9.19716 22.2778V16.8844H16.0996C17.2285 16.8844 18.18 15.9561 18.18 14.8198C18.18 13.6835 17.2447 12.7553 16.0996 12.7553H9.18104V7.60196L15.4868 4.33712L21.7925 7.60196V22.2457C21.7925 23.366 22.7279 24.3103 23.873 24.3103C25.018 24.3103 25.9534 23.382 25.9534 22.2457V9.76252L27.4854 10.5627C27.7919 10.7068 28.1305 10.8028 28.4531 10.8028C29.1949 10.8028 29.9207 10.3867 30.2916 9.69851C30.8238 8.70625 30.4206 7.47393 29.4046 6.92979L29.4369 6.94579Z" fill="#1EADAC"/>
</svg>
