<svg width="172" height="127" viewBox="0 0 172 127" fill="none" xmlns="http://www.w3.org/2000/svg">
<g filter="url(#filter0_d_230_166)">
<rect x="4" y="2" width="164" height="119" rx="5" fill="url(#paint0_linear_230_166)" shape-rendering="crispEdges"/>
<path d="M23.4878 88V87.0455L26.4409 83.9858C26.7562 83.6534 27.0162 83.3622 27.2207 83.1122C27.4281 82.8594 27.5829 82.6193 27.6852 82.392C27.7875 82.1648 27.8386 81.9233 27.8386 81.6676C27.8386 81.3778 27.7704 81.1278 27.6341 80.9176C27.4977 80.7045 27.3116 80.5412 27.0758 80.4276C26.84 80.3111 26.5744 80.2528 26.279 80.2528C25.9665 80.2528 25.6937 80.3168 25.4608 80.4446C25.2278 80.5724 25.0488 80.7528 24.9238 80.9858C24.7988 81.2187 24.7363 81.4915 24.7363 81.804H23.4792C23.4792 81.2727 23.6014 80.8082 23.8457 80.4105C24.09 80.0128 24.4253 79.7045 24.8514 79.4858C25.2775 79.2642 25.7619 79.1534 26.3045 79.1534C26.8528 79.1534 27.3358 79.2628 27.7534 79.4815C28.1738 79.6974 28.502 79.9929 28.7378 80.3679C28.9736 80.7401 29.0915 81.1605 29.0915 81.6293C29.0915 81.9531 29.0304 82.2699 28.9082 82.5795C28.7889 82.8892 28.5801 83.2344 28.2818 83.6151C27.9835 83.9929 27.5687 84.4517 27.0375 84.9915L25.3031 86.8068V86.8707H29.2321V88H23.4878ZM30.3444 86.2955V85.2301L34.1157 79.2727H34.9552V80.8409H34.4225L31.7251 85.1108V85.179H36.8941V86.2955H30.3444ZM34.4822 88V85.9716L34.4907 85.4858V79.2727H35.7393V88H34.4822ZM40.9237 79.552V82.216H39.1837V79.552H40.9237ZM39.1837 85.768V82.996H40.9237V85.768H39.1837ZM41.7637 78.748H38.3677V87.544H39.1837V86.572H41.7637V78.748ZM42.7477 85.468C43.3597 86.104 43.9957 86.992 44.2717 87.58L45.0277 87.1C44.7517 86.512 44.0797 85.66 43.4677 85.06L42.7477 85.468ZM48.9397 82.492V81.7H45.8437V80.176H48.4237V79.384H45.8437V77.956H44.9677V79.384H42.4717V80.176H44.9677V81.7H41.9557V82.492H46.5517V83.848H42.0157V84.64H46.5517V87.844C46.5517 88.024 46.4917 88.072 46.2877 88.084C46.0957 88.096 45.4357 88.096 44.6917 88.072C44.8237 88.3 44.9437 88.66 44.9797 88.9C45.9517 88.9 46.5517 88.888 46.9237 88.756C47.2837 88.624 47.4157 88.36 47.4157 87.856V84.64H48.8077V83.848H47.4157V82.492H48.9397ZM53.8717 79.168V80.164H51.2797V79.168H53.8717ZM51.2797 81.88V80.824H53.8717V81.88H51.2797ZM54.7237 82.564V78.472H50.3917V88.924H51.2797V82.564H54.7237ZM56.6557 84.16V85.264H53.8357V84.16H56.6557ZM53.8357 87.1V85.936H56.6557V87.1H53.8357ZM57.4837 87.808V83.464H53.0317V88.408H53.8357V87.808H57.4837ZM56.6437 81.892V80.824H59.3317V81.892H56.6437ZM59.3317 79.168V80.164H56.6437V79.168H59.3317ZM60.2317 78.472H55.7917V82.576H59.3317V87.724C59.3317 87.94 59.2597 88.012 59.0557 88.012C58.8397 88.024 58.1077 88.036 57.3757 88C57.5077 88.24 57.6517 88.66 57.6877 88.912C58.6837 88.912 59.3197 88.9 59.7037 88.756C60.0997 88.6 60.2317 88.3 60.2317 87.736V78.472ZM63.8197 79.624L62.6557 79.6C62.7277 79.888 62.7397 80.392 62.7397 80.668C62.7397 81.364 62.7637 82.828 62.8717 83.872C63.1957 86.98 64.2877 88.108 65.4277 88.108C66.2317 88.108 66.9637 87.412 67.6837 85.372L66.9277 84.52C66.6157 85.72 66.0517 86.968 65.4397 86.968C64.5877 86.968 63.9997 85.636 63.8077 83.632C63.7237 82.636 63.7117 81.544 63.7237 80.788C63.7237 80.476 63.7717 79.912 63.8197 79.624ZM70.0717 79.96L69.1357 80.284C70.2877 81.688 71.0077 84.148 71.2237 86.32L72.1837 85.924C72.0037 83.896 71.1397 81.352 70.0717 79.96ZM73.8877 81.736L74.3317 82.792C75.2797 82.408 78.3397 81.1 80.3077 81.1C81.9277 81.1 82.8637 82.084 82.8637 83.344C82.8637 85.804 80.0557 86.752 76.9117 86.836L77.3437 87.832C81.0397 87.628 83.9077 86.236 83.9077 83.368C83.9077 81.352 82.3237 80.2 80.3317 80.2C78.5797 80.2 76.2277 81.064 75.2077 81.388C74.7517 81.532 74.3197 81.652 73.8877 81.736ZM85.8277 80.104L85.9357 81.148C87.2317 80.872 90.2917 80.584 91.5757 80.44C90.4717 81.1 89.3317 82.624 89.3317 84.496C89.3317 87.172 91.8637 88.36 94.0837 88.444L94.4317 87.448C92.4757 87.376 90.2917 86.632 90.2917 84.292C90.2917 82.864 91.3357 81.04 93.0397 80.488C93.6517 80.308 94.7077 80.296 95.3917 80.296V79.336C94.5877 79.372 93.4597 79.444 92.1517 79.552C89.9437 79.732 87.6757 79.96 86.8957 80.044C86.6677 80.068 86.2837 80.092 85.8277 80.104ZM93.6637 81.772L93.0517 82.036C93.4117 82.528 93.7597 83.152 94.0357 83.728L94.6477 83.44C94.3957 82.912 93.9397 82.168 93.6637 81.772ZM94.9717 81.268L94.3837 81.544C94.7557 82.048 95.1037 82.636 95.3917 83.224L96.0157 82.924C95.7397 82.396 95.2597 81.664 94.9717 81.268ZM102.064 78.568L100.984 78.496C101.008 78.724 101.008 78.94 100.972 79.348C100.948 79.696 100.9 80.128 100.84 80.608C99.9517 80.548 98.9677 80.404 98.2117 80.164L98.1637 81.04C98.9197 81.232 99.8677 81.388 100.744 81.46C100.648 82.168 100.552 82.924 100.48 83.632C99.6277 83.56 98.7157 83.416 97.9237 83.14L97.8757 84.064C98.6077 84.292 99.4837 84.424 100.384 84.496C100.324 85.06 100.288 85.54 100.288 85.876C100.288 87.844 101.596 88.552 103.228 88.552C105.604 88.552 107.188 87.472 107.188 85.684C107.188 84.652 106.792 83.824 105.964 82.912L104.908 83.128C105.784 83.872 106.216 84.772 106.216 85.576C106.216 86.812 105.052 87.616 103.228 87.616C101.86 87.616 101.212 86.896 101.212 85.732C101.212 85.444 101.236 85.024 101.284 84.544C101.428 84.544 101.572 84.544 101.716 84.544C102.532 84.544 103.276 84.508 104.068 84.424L104.092 83.512C103.252 83.632 102.412 83.668 101.596 83.668C101.524 83.668 101.452 83.668 101.368 83.668C101.452 82.96 101.548 82.204 101.632 81.496C101.656 81.496 101.692 81.496 101.716 81.496C102.688 81.496 103.384 81.46 104.152 81.388L104.176 80.488C103.48 80.596 102.664 80.644 101.74 80.644C101.812 80.14 101.872 79.72 101.908 79.408C101.944 79.144 101.98 78.892 102.064 78.568ZM112.06 81.364H113.776V80.524H112.06V77.956H111.22V80.524H109.276V81.364H111.112C110.692 83.02 109.84 84.88 109.012 85.876C109.156 86.092 109.384 86.44 109.48 86.692C110.128 85.876 110.752 84.544 111.22 83.164V88.9H112.06V83.44C112.516 84.028 113.056 84.784 113.284 85.18L113.836 84.448C113.584 84.124 112.48 82.852 112.06 82.42V81.364ZM115.156 87.28V85.204H118.792V87.28H115.156ZM118.792 79.504V81.508H115.156V79.504H118.792ZM115.156 82.324H118.792V84.388H115.156V82.324ZM114.304 78.664V88.828H115.156V88.108H118.792V88.792H119.668V78.664H114.304ZM130.852 78.7C130.624 79.288 130.18 80.116 129.832 80.632L130.492 80.908C130.864 80.428 131.308 79.672 131.692 79L130.852 78.7ZM126.592 78.772C126.472 79.528 126.148 80.32 125.644 80.728L126.328 81.064C126.892 80.572 127.216 79.708 127.336 78.916L126.592 78.772ZM131.932 82.612C131.248 82.036 129.94 81.184 128.884 80.548C129.088 79.828 129.172 78.976 129.22 77.968H128.356C128.236 80.512 127.9 81.928 125.44 82.684C125.62 82.852 125.848 83.164 125.944 83.38C127.336 82.912 128.128 82.24 128.596 81.304C129.604 81.94 130.744 82.744 131.344 83.284L131.932 82.612ZM130.528 86.176C130.936 85.648 131.428 84.82 131.836 84.1L130.972 83.8C130.72 84.424 130.24 85.336 129.856 85.888L130.528 86.176ZM126.064 86.392C126.712 85.864 127.096 84.952 127.264 84.052L126.472 83.884C126.304 84.724 125.932 85.552 125.356 85.972L126.064 86.392ZM124.996 78.376H121.588V79.096H124.996V78.376ZM125.428 79.948H120.988V80.68H125.428V79.948ZM125.02 81.568H121.54V82.276H125.02V81.568ZM121.54 83.872H125.02V83.152H121.54V83.872ZM124.264 85.492V87.508H122.308V85.492H124.264ZM125.032 84.76H121.528V88.78H122.308V88.228H125.032V84.76ZM129.16 82.912H128.272V84.628C128.272 85.312 127.852 87.244 125.068 88.204C125.248 88.384 125.488 88.732 125.596 88.924C127.696 88.156 128.536 86.656 128.716 85.924C128.896 86.644 129.7 88.192 131.524 88.924C131.644 88.72 131.896 88.372 132.064 88.168C129.58 87.244 129.16 85.288 129.16 84.628V82.912ZM138.28 82.312V85.048H135.148V82.312H138.28ZM139.156 85.9V81.448H134.284V86.86H135.148V85.9H139.156ZM143.68 78.808H133.06V79.696H141.292V87.628C141.292 87.88 141.208 87.964 140.944 87.976C140.668 87.988 139.684 88 138.724 87.952C138.868 88.204 139.048 88.648 139.108 88.9C140.284 88.9 141.112 88.9 141.592 88.732C142.048 88.6 142.204 88.276 142.204 87.64V79.696H143.68V78.808Z" fill="white"/>
<path d="M59.169 48.77L56.487 47.834C56.415 48.302 56.217 49.022 56.055 49.49C55.587 50.912 54.975 52.334 54.057 53.774C52.599 52.694 50.709 51.398 49.269 50.516L47.739 52.352C49.575 53.468 51.303 54.746 52.599 55.772C50.817 57.914 48.693 59.66 45.759 61.082L47.775 62.9C50.817 61.244 52.887 59.246 54.471 57.338C55.911 58.58 57.207 59.84 58.467 61.316L60.321 59.264C59.097 57.968 57.585 56.582 56.001 55.286C57.063 53.63 57.873 51.812 58.413 50.39C58.593 49.976 58.935 49.184 59.169 48.77ZM63.453 53.666V56.492C64.119 56.438 65.325 56.402 66.351 56.402H76.017C76.773 56.402 77.691 56.474 78.123 56.492V53.666C77.655 53.702 76.863 53.774 76.017 53.774H66.351C65.415 53.774 64.101 53.72 63.453 53.666ZM88.653 61.604L90.165 62.846C90.327 62.702 90.543 62.522 90.939 62.306C92.955 61.28 95.547 59.336 97.041 57.392L95.655 55.412C94.449 57.158 92.667 58.58 91.209 59.21V49.796C91.209 48.986 91.317 48.284 91.335 48.23H88.653C88.671 48.284 88.797 48.968 88.797 49.778V60.272C88.797 60.758 88.725 61.262 88.653 61.604ZM80.319 61.334L82.515 62.792C84.045 61.424 85.179 59.66 85.719 57.626C86.205 55.808 86.259 52.01 86.259 49.886C86.259 49.13 86.367 48.338 86.385 48.248H83.739C83.847 48.698 83.901 49.184 83.901 49.904C83.901 52.082 83.883 55.484 83.379 57.032C82.875 58.562 81.903 60.218 80.319 61.334ZM98.643 49.652L98.877 52.118C100.965 51.668 104.637 51.272 106.329 51.092C105.105 52.01 103.647 54.062 103.647 56.654C103.647 60.56 107.211 62.576 110.991 62.828L111.837 60.362C108.777 60.2 106.005 59.138 106.005 56.168C106.005 54.026 107.643 51.704 109.821 51.128C110.775 50.894 112.323 50.894 113.295 50.876L113.277 48.572C111.999 48.626 110.037 48.734 108.183 48.896C104.889 49.166 101.919 49.436 100.407 49.562C100.065 49.598 99.363 49.634 98.643 49.652ZM110.721 52.64L109.389 53.198C109.965 54.008 110.343 54.71 110.793 55.7L112.161 55.088C111.819 54.386 111.171 53.288 110.721 52.64ZM112.737 51.812L111.423 52.424C111.999 53.216 112.413 53.882 112.899 54.854L114.249 54.206C113.871 53.504 113.187 52.442 112.737 51.812ZM120.693 52.46H122.943V50.444H120.693V46.754H118.641V50.444H116.067V52.46H118.389C117.813 54.602 116.769 57.05 115.599 58.472C115.941 59.012 116.409 59.876 116.607 60.488C117.381 59.498 118.065 58.022 118.641 56.438V63.548H120.693V56.06C121.197 56.87 121.719 57.716 121.989 58.292L123.213 56.546C122.853 56.096 121.323 54.242 120.693 53.558V52.46ZM125.625 60.434V58.13H129.855V60.434H125.625ZM129.855 53.9V56.186H125.625V53.9H129.855ZM129.855 49.742V51.974H125.625V49.742H129.855ZM123.573 47.726V63.404H125.625V62.378H129.855V63.296H132.015V47.726H123.573ZM148.161 47.708C147.891 48.59 147.333 49.85 146.865 50.642L148.449 51.254C148.953 50.498 149.601 49.4 150.195 48.356L148.161 47.708ZM150.357 53.486C149.385 52.676 147.567 51.56 146.091 50.696C146.379 49.562 146.487 48.266 146.541 46.772H144.471C144.327 50.336 144.039 52.388 140.295 53.558C140.745 53.936 141.267 54.728 141.483 55.25C143.427 54.584 144.597 53.684 145.335 52.496C146.703 53.36 148.179 54.386 148.935 55.106L150.357 53.486ZM141.807 59.642C142.689 58.778 143.247 57.356 143.481 55.97L141.609 55.592C141.375 56.816 140.835 58.076 140.043 58.76L141.807 59.642ZM141.825 47.816C141.627 48.932 141.141 50.138 140.475 50.786L142.149 51.506C142.923 50.696 143.391 49.364 143.571 48.176L141.825 47.816ZM139.791 47.312H134.499V48.932H139.791V47.312ZM140.439 49.724H133.599V51.416H140.439V49.724ZM139.845 52.226H134.445V53.864H139.845V52.226ZM134.445 56.294H139.845V54.692H134.445V56.294ZM138.045 58.868V60.938H136.191V58.868H138.045ZM139.863 57.176H134.391V63.314H136.191V62.612H139.863V57.176ZM148.467 59.21C149.025 58.436 149.727 57.248 150.357 56.114L148.251 55.466C147.927 56.42 147.333 57.716 146.829 58.58C146.577 58.004 146.487 57.464 146.487 57.068V54.35H144.309V57.068C144.309 58.274 143.391 60.632 139.953 61.838C140.331 62.27 140.907 63.098 141.123 63.584C143.607 62.684 145.047 60.74 145.407 59.624C145.731 60.74 147.027 62.738 149.295 63.584C149.583 63.062 150.141 62.252 150.519 61.766C148.395 60.974 147.315 59.714 146.829 58.616L148.467 59.21Z" fill="white"/>
<rect x="53" y="15" width="62" height="21" rx="10.5" fill="white"/>
<path d="M79.853 24.182H78.215V21.816H79.853V24.182ZM79.853 27.5H78.215V25.106H79.853V27.5ZM73.259 25.106H74.813V27.5H73.259V25.106ZM77.319 25.106V27.5H75.695V25.106H77.319ZM75.695 24.182V21.816H77.319V24.182H75.695ZM73.259 21.816H74.813V24.182H73.259V21.816ZM72.321 24.182H70.375V25.106H72.321V27.5H70.599V28.438H82.597V27.5H80.833V25.106H82.793V24.182H80.833V21.816H82.275V20.892H73.441C73.721 20.472 73.973 20.024 74.183 19.576L73.189 19.282C72.531 20.696 71.411 22.054 70.207 22.936C70.459 23.076 70.865 23.426 71.061 23.622C71.481 23.272 71.915 22.838 72.321 22.376V24.182ZM71.257 32.078C72.013 31.42 72.643 30.314 72.979 29.264L72.013 29.026C71.663 30.034 71.005 31.098 70.277 31.672L71.257 32.078ZM74.435 29.376C74.603 30.216 74.715 31.294 74.729 31.938L75.723 31.798C75.709 31.168 75.555 30.104 75.387 29.278L74.435 29.376ZM77.263 29.39C77.613 30.216 77.977 31.294 78.117 31.952L79.125 31.742C78.985 31.084 78.607 30.006 78.229 29.208L77.263 29.39ZM80.105 29.292C80.791 30.16 81.589 31.35 81.925 32.092L82.961 31.714C82.583 30.958 81.757 29.81 81.057 28.97L80.105 29.292ZM93.377 21.984C92.929 21.466 91.963 20.752 91.179 20.276L90.647 20.976C91.445 21.494 92.397 22.25 92.845 22.782L93.377 21.984ZM92.775 25.33C92.285 24.826 91.249 24.196 90.423 23.762L89.933 24.49C90.773 24.938 91.767 25.652 92.257 26.17L92.775 25.33ZM88.729 20.122C88.519 21.06 88.127 22.446 87.805 23.272L88.477 23.496C88.855 22.712 89.289 21.396 89.625 20.346L88.729 20.122ZM85.817 23.244C85.719 22.404 85.397 21.144 84.991 20.178L84.235 20.36C84.599 21.34 84.921 22.628 84.991 23.468L85.817 23.244ZM87.343 24.938H89.625V23.958H87.343V19.338H86.377V23.958H84.137V24.938H86.097C85.607 26.506 84.725 28.312 83.913 29.292C84.081 29.544 84.333 30.006 84.445 30.3C85.145 29.362 85.859 27.808 86.377 26.31V32.064H87.343V26.324C87.847 27.108 88.505 28.186 88.757 28.704L89.443 27.892C89.135 27.416 87.735 25.568 87.343 25.134V24.938ZM96.891 27.808L96.737 26.856L95.085 27.15V19.296H94.105V27.332L89.597 28.13L89.765 29.096L94.105 28.312V32.064H95.085V28.13L96.891 27.808Z" fill="#FF5267"/>
<path d="M37.125 49.125H20.875C20.5293 49.125 20.25 49.4043 20.25 49.75V62.25C20.25 62.5957 20.5293 62.875 20.875 62.875H37.125C37.4707 62.875 37.75 62.5957 37.75 62.25V49.75C37.75 49.4043 37.4707 49.125 37.125 49.125ZM36.3438 51.2891V61.4688H21.6562V51.2891L21.1172 50.8691L21.8848 49.8828L22.7207 50.5332H35.2812L36.1172 49.8828L36.8848 50.8691L36.3438 51.2891ZM35.2812 50.5312L29 55.4141L22.7188 50.5312L21.8828 49.8809L21.1152 50.8672L21.6543 51.2871L28.3262 56.4746C28.518 56.6237 28.7541 56.7046 28.9971 56.7046C29.24 56.7046 29.4761 56.6237 29.668 56.4746L36.3438 51.2891L36.8828 50.8691L36.1152 49.8828L35.2812 50.5312Z" fill="white"/>
</g>
<defs>
<filter id="filter0_d_230_166" x="0" y="0" width="172" height="127" filterUnits="userSpaceOnUse" color-interpolation-filters="sRGB">
<feFlood flood-opacity="0" result="BackgroundImageFix"/>
<feColorMatrix in="SourceAlpha" type="matrix" values="0 0 0 0 0 0 0 0 0 0 0 0 0 0 0 0 0 0 127 0" result="hardAlpha"/>
<feOffset dy="2"/>
<feGaussianBlur stdDeviation="2"/>
<feComposite in2="hardAlpha" operator="out"/>
<feColorMatrix type="matrix" values="0 0 0 0 0 0 0 0 0 0 0 0 0 0 0 0 0 0 0.1 0"/>
<feBlend mode="normal" in2="BackgroundImageFix" result="effect1_dropShadow_230_166"/>
<feBlend mode="normal" in="SourceGraphic" in2="effect1_dropShadow_230_166" result="shape"/>
</filter>
<linearGradient id="paint0_linear_230_166" x1="134.611" y1="-9.4633" x2="76.5387" y2="116.643" gradientUnits="userSpaceOnUse">
<stop stop-color="#FFABB5"/>
<stop offset="1" stop-color="#FE5166"/>
</linearGradient>
</defs>
</svg>
