<?xml version="1.0" encoding="UTF-8"?>
<svg width="60" height="20" viewBox="0 0 60 20" fill="none" xmlns="http://www.w3.org/2000/svg">
<path d="M10.5355 19.276C8.64349 19.3053 7.06683 19.078 5.8055 18.594C4.55883 18.1247 3.64216 17.45 3.0555 16.57C2.46883 15.69 2.21216 14.656 2.28549 13.468C2.35883 12.368 2.72549 11.4953 3.38549 10.85C4.06016 10.19 4.93283 9.75 6.0035 9.53C7.07416 9.29533 8.25483 9.27333 9.5455 9.464C9.13483 9.03867 8.7095 8.53267 8.26949 7.946C7.84416 7.35933 7.44083 6.736 7.05949 6.076C6.19416 6.208 5.32149 6.32533 4.44149 6.428C3.57616 6.516 2.72549 6.582 1.88949 6.626C1.52283 6.64067 1.20749 6.538 0.943495 6.318C0.679495 6.08333 0.540161 5.78267 0.525494 5.416C0.510828 5.04933 0.628161 4.74133 0.877495 4.492C1.12683 4.228 1.43483 4.08867 1.80149 4.074C2.44683 4.04467 3.11416 4.00067 3.80349 3.942C4.50749 3.88333 5.21149 3.81 5.91549 3.722C5.76883 3.37 5.64416 3.02533 5.54149 2.688C5.43883 2.336 5.35083 1.99867 5.27749 1.676C5.21883 1.324 5.28483 0.993999 5.47549 0.685999C5.66616 0.377999 5.93749 0.187333 6.28949 0.113999C6.65616 0.0406662 6.98616 0.106666 7.2795 0.312C7.5875 0.517333 7.77816 0.795999 7.85149 1.148C8.01283 1.86667 8.23283 2.58533 8.5115 3.304C9.23016 3.15733 9.91949 3.00333 10.5795 2.842C11.2542 2.68067 11.8775 2.50467 12.4495 2.314C12.7868 2.19667 13.1168 2.21867 13.4395 2.38C13.7768 2.54133 13.9968 2.79067 14.0995 3.128C14.2168 3.48 14.1875 3.81 14.0115 4.118C13.8502 4.426 13.5935 4.63867 13.2415 4.756C12.6988 4.90267 12.1268 5.04933 11.5255 5.196C10.9388 5.34267 10.3228 5.482 9.6775 5.614C10.2202 6.50867 10.8435 7.352 11.5475 8.144C12.2515 8.92133 13.0068 9.58133 13.8135 10.124C14.0922 10.3147 14.2682 10.564 14.3415 10.872C14.4295 11.18 14.4002 11.4807 14.2535 11.774C14.1068 12.0673 13.8868 12.2873 13.5935 12.434C13.3002 12.566 12.9995 12.5807 12.6915 12.478C10.2568 11.6713 8.3575 11.4 6.99349 11.664C5.64416 11.928 4.93283 12.61 4.85949 13.71C4.72749 15.7193 6.60483 16.6947 10.4915 16.636C10.8582 16.6213 11.1662 16.746 11.4155 17.01C11.6795 17.2593 11.8188 17.5673 11.8335 17.934C11.8335 18.3007 11.7088 18.6087 11.4595 18.858C11.2102 19.122 10.9022 19.2613 10.5355 19.276ZM27.8055 18.792C27.4388 18.792 27.1235 18.6673 26.8595 18.418C26.6102 18.1687 26.4782 17.8607 26.4635 17.494C26.4635 17.1273 26.5882 16.8193 26.8375 16.57C27.0868 16.306 27.3948 16.1667 27.7615 16.152C31.8682 16.0787 33.9215 14.9053 33.9215 12.632C33.9215 11.884 33.6648 11.2973 33.1515 10.872C32.6382 10.4467 31.9562 10.234 31.1055 10.234C30.1668 10.234 29.1915 10.4687 28.1795 10.938C27.1822 11.3927 26.2728 12.082 25.4515 13.006C25.2608 13.226 25.0115 13.3653 24.7035 13.424C24.4102 13.468 24.1388 13.424 23.8895 13.292C23.6402 13.1747 23.4568 12.9913 23.3395 12.742C23.2222 12.478 23.1855 12.2067 23.2295 11.928C23.3322 11.312 23.4422 10.6447 23.5595 9.926C23.6915 9.20733 23.8308 8.48133 23.9775 7.748C24.1242 7 24.2708 6.31067 24.4175 5.68C24.4908 5.31333 24.6815 5.042 24.9895 4.866C25.3122 4.67533 25.6495 4.624 26.0015 4.712C26.3535 4.8 26.6248 5.00533 26.8155 5.328C27.0062 5.636 27.0575 5.966 26.9695 6.318C26.8668 6.72867 26.7422 7.20533 26.5955 7.748C26.4635 8.276 26.3242 8.84067 26.1775 9.442C27.8642 8.298 29.5288 7.726 31.1715 7.726C32.2568 7.726 33.2028 7.93133 34.0095 8.342C34.8162 8.75267 35.4395 9.32467 35.8795 10.058C36.3342 10.7913 36.5615 11.6493 36.5615 12.632C36.5615 14.4653 35.8428 15.9393 34.4055 17.054C32.9682 18.1687 30.7682 18.748 27.8055 18.792ZM31.3255 5.02C30.8562 4.78533 30.3208 4.536 29.7195 4.272C29.1328 3.99333 28.5388 3.72933 27.9375 3.48C27.3508 3.216 26.8302 2.996 26.3755 2.82C26.0528 2.688 25.8328 2.446 25.7155 2.094C25.5982 1.742 25.6128 1.40467 25.7595 1.082C25.9208 0.744665 26.1702 0.524666 26.5075 0.421999C26.8448 0.304666 27.1822 0.311999 27.5195 0.443999C28.0035 0.634666 28.5242 0.854666 29.0815 1.104C29.6535 1.33867 30.2255 1.588 30.7975 1.852C31.3695 2.10133 31.8902 2.34333 32.3595 2.578C32.6822 2.73933 32.9095 2.98867 33.0415 3.326C33.1882 3.64867 33.1955 3.97867 33.0635 4.316C32.9168 4.63867 32.6748 4.87333 32.3375 5.02C32.0002 5.16667 31.6628 5.16667 31.3255 5.02ZM44.9875 18.352C44.6208 18.4107 44.2908 18.3373 43.9975 18.132C43.7042 17.9267 43.5208 17.648 43.4475 17.296C43.3155 16.548 43.2128 15.6827 43.1395 14.7C43.0662 13.7027 43.0295 12.654 43.0295 11.554C43.0295 10.454 43.0588 9.34667 43.1175 8.232C43.1762 7.11733 43.2642 6.054 43.3815 5.042C43.5135 4.01533 43.6675 3.09867 43.8435 2.292C43.9168 1.94 44.1075 1.66867 44.4155 1.478C44.7235 1.27267 45.0535 1.20667 45.4055 1.28C45.7575 1.368 46.0288 1.566 46.2195 1.874C46.4248 2.16733 46.4908 2.49733 46.4175 2.864C46.1828 3.90533 45.9995 5.03467 45.8675 6.252C45.7355 7.46933 45.6475 8.70867 45.6035 9.97C45.5742 11.2167 45.5962 12.434 45.6695 13.622C45.7428 14.7953 45.8675 15.866 46.0435 16.834C46.1168 17.186 46.0435 17.5087 45.8235 17.802C45.6182 18.0953 45.3395 18.2787 44.9875 18.352ZM54.0075 17.164C52.1008 17.164 50.6782 16.8193 49.7395 16.13C48.8155 15.4407 48.2582 14.4287 48.0675 13.094C48.0088 12.742 48.0822 12.4193 48.2875 12.126C48.5075 11.8327 48.8008 11.6567 49.1675 11.598C49.5195 11.554 49.8422 11.642 50.1355 11.862C50.4288 12.0673 50.6048 12.3533 50.6635 12.72C50.7515 13.3507 51.0522 13.82 51.5655 14.128C52.0788 14.436 52.9148 14.59 54.0735 14.59C55.1735 14.59 56.5008 14.4213 58.0555 14.084C58.4075 13.996 58.7375 14.0547 59.0455 14.26C59.3535 14.4653 59.5442 14.744 59.6175 15.096C59.6908 15.448 59.6248 15.778 59.4195 16.086C59.2142 16.3793 58.9355 16.57 58.5835 16.658C57.7915 16.8487 56.9995 16.9807 56.2075 17.054C55.4302 17.1273 54.6968 17.164 54.0075 17.164ZM49.9815 6.274C49.6295 6.34733 49.2995 6.28867 48.9915 6.098C48.6982 5.89267 48.5148 5.60667 48.4415 5.24C48.3682 4.888 48.4268 4.558 48.6175 4.25C48.8228 3.942 49.1088 3.75867 49.4755 3.7C50.2968 3.53867 51.2135 3.436 52.2255 3.392C53.2375 3.33333 54.2422 3.326 55.2395 3.37C56.2368 3.39933 57.1168 3.48 57.8795 3.612C58.2462 3.67067 58.5322 3.854 58.7375 4.162C58.9428 4.45533 59.0088 4.78533 58.9355 5.152C58.8768 5.51867 58.6935 5.80467 58.3855 6.01C58.0922 6.20067 57.7695 6.26667 57.4175 6.208C56.2295 6.00267 54.9975 5.90733 53.7215 5.922C52.4455 5.922 51.1988 6.03933 49.9815 6.274Z" fill="#CA7900"/>
</svg>
