<?xml version="1.0" encoding="UTF-8"?>
<svg width="166" height="196" viewBox="0 0 166 196" fill="none" xmlns="http://www.w3.org/2000/svg">
<rect width="166" height="196" rx="6" fill="white"/>
<path d="M52.66 46.94C52.44 46.7 51.9 46.18 51.3 45.6C51.84 45.04 52.46 44.32 53.16 43.64L51.64 42.38C51.3 43.02 50.72 43.92 50.2 44.6C50 44.42 49.82 44.26 49.66 44.12C50.66 42.64 51.52 41.02 52.12 39.38L50.78 38.5L50.4 38.6H49.54V35.08H47.2V38.6H44.62V40.74H49.18C47.96 43.12 46 45.46 44.06 46.82C44.44 47.24 45.06 48.4 45.28 48.98C45.92 48.48 46.56 47.9 47.2 47.22V53.74H49.54V46.56C50.2 47.32 50.86 48.16 51.24 48.74L52.66 46.94ZM51.94 36.6V38.84H54.82C54.72 43.94 54.42 49 50.32 51.88C50.94 52.34 51.68 53.12 52.08 53.76C56.54 50.38 57.08 44.62 57.24 38.84H60.14C60 47.02 59.78 50.24 59.22 50.9C59 51.2 58.8 51.28 58.48 51.28C58 51.28 57.06 51.28 56.02 51.2C56.44 51.9 56.72 52.96 56.76 53.66C57.84 53.68 58.94 53.7 59.66 53.56C60.42 53.42 60.92 53.16 61.44 52.36C62.22 51.28 62.4 47.8 62.58 37.8C62.6 37.48 62.6 36.6 62.6 36.6H51.94ZM67.82 45.56H70.3V46.92H67.82V45.56ZM70.3 39.5V40.66H67.82V39.5H70.3ZM67.82 42.48H70.3V43.74H67.82V42.48ZM73.7 46.92H72.48V39.5H73.84V37.42H72.48V35.3H70.3V37.42H67.82V35.3H65.68V37.42H64.12V39.5H65.68V46.92H63.88V49H73.7V46.92ZM66.36 49.14C65.8 50.34 64.76 51.6 63.72 52.38C64.26 52.7 65.18 53.38 65.62 53.8C66.7 52.82 67.88 51.26 68.58 49.8L66.36 49.14ZM76.72 45C76.74 44.38 76.74 43.8 76.74 43.28V42.54H79.62V45H76.72ZM79.62 38.1V40.44H76.74V38.1H79.62ZM81.92 35.94H74.52V43.28C74.52 45.88 74.42 49.26 73.26 51.76C72.76 50.94 71.82 49.84 71.1 49.04L69.3 50.02C70.08 50.94 71.04 52.26 71.44 53.04L73.1 52.1C73.04 52.22 72.96 52.32 72.9 52.44C73.42 52.64 74.4 53.36 74.78 53.78C75.86 51.98 76.36 49.48 76.58 47.12H79.62V51.06C79.62 51.38 79.52 51.48 79.22 51.48C78.94 51.48 77.98 51.5 77.12 51.44C77.42 52.04 77.72 53.08 77.8 53.7C79.28 53.72 80.3 53.66 81 53.28C81.7 52.9 81.92 52.28 81.92 51.1V35.94ZM88.58 48.52H97.18V49.34H88.58V48.52ZM93.86 41.7V43.02H90.22C90.66 42.62 90.98 42.18 91.2 41.7H93.86ZM87.42 39.52H89.46C89.46 39.8 89.42 40.06 89.34 40.3H87.16L87.42 39.52ZM91.64 37.34H93.86V38.14H91.64V37.34ZM98.2 37.34V38.14H96.12V37.34H98.2ZM93.86 40.3H91.58C91.6 40.04 91.62 39.78 91.64 39.52H93.86V40.3ZM99.32 41.7C99.28 42 99.22 42.18 99.14 42.28C99.02 42.42 98.9 42.42 98.72 42.42C98.5 42.44 98.08 42.42 97.62 42.36C97.7 42.54 97.8 42.78 97.86 43.02H96.12V41.7H99.32ZM97.18 45.16H88.58V44.38H97.18V45.16ZM97.18 47.24H88.58V46.44H97.18V47.24ZM99.6 50.7V43.8C99.72 43.8 99.82 43.78 99.9 43.78C100.32 43.76 100.76 43.6 101.06 43.3C101.4 42.94 101.52 42.22 101.62 40.92C101.64 40.7 101.66 40.3 101.66 40.3H96.12V39.52H100.36V35.94H96.12V35.08H93.86V35.94H91.64V35.08H89.48V35.94H84.94V37.34H89.48V38.14H85.68C85.34 39.32 84.86 40.76 84.42 41.74L86.58 41.88L86.64 41.7H88.4C87.58 42.36 86.14 42.86 83.66 43.18C84.02 43.62 84.58 44.52 84.78 45.02C85.32 44.94 85.8 44.86 86.26 44.76V50.7H88.98C87.58 51.28 85.54 51.78 83.68 52.1C84.18 52.5 85.02 53.34 85.4 53.8C87.44 53.3 89.98 52.4 91.64 51.42L90.06 50.7H95.4L93.88 51.64C95.96 52.32 98.04 53.16 99.22 53.76L101.86 52.62C100.6 52.08 98.5 51.32 96.58 50.7H99.6ZM113.74 45.66V43.2H117.96V45.66H113.74ZM107.52 45.66C107.56 44.92 107.58 44.2 107.58 43.56V43.2H111.34V45.66H107.52ZM111.34 38.66V40.98H107.58V38.66H111.34ZM117.96 40.98H113.74V38.66H117.96V40.98ZM120.32 36.4H105.22V43.54C105.22 46.34 105.04 49.9 102.86 52.3C103.4 52.58 104.36 53.4 104.74 53.84C106.18 52.28 106.9 50.08 107.26 47.9H111.34V53.48H113.74V47.9H117.96V50.9C117.96 51.26 117.82 51.38 117.44 51.38C117.08 51.38 115.76 51.4 114.64 51.34C114.94 51.96 115.32 52.98 115.4 53.62C117.2 53.64 118.42 53.6 119.24 53.2C120.04 52.84 120.32 52.2 120.32 50.92V36.4Z" fill="#1EADAC"/>
<path d="M43.2266 106.44C43.2266 108.78 44.1746 110.688 45.6146 112.152L46.3346 111.78C44.9546 110.352 44.1026 108.576 44.1026 106.44C44.1026 104.304 44.9546 102.528 46.3346 101.1L45.6146 100.728C44.1746 102.192 43.2266 104.1 43.2266 106.44ZM56.6906 100.956C56.4506 101.58 55.9826 102.468 55.6106 103.032L56.3546 103.332C56.7386 102.804 57.1946 102 57.5906 101.268L56.6906 100.956ZM54.0866 102.984C53.9186 102.444 53.4506 101.604 53.0186 100.98L52.2746 101.292C52.7066 101.94 53.1386 102.804 53.3066 103.356L54.0866 102.984ZM51.8306 107.532C51.5906 107.256 50.5706 106.2 50.1986 105.888V105.156H51.6986V104.316H50.1986V102.288C50.7626 102.156 51.2906 101.988 51.7226 101.808L51.0986 101.136C50.2226 101.532 48.6506 101.88 47.3066 102.096C47.4146 102.3 47.5346 102.588 47.5826 102.792C48.1346 102.708 48.7466 102.612 49.3346 102.492V104.316H47.3786V105.156H49.2146C48.7346 106.524 47.9066 108.072 47.1506 108.912C47.2946 109.128 47.5106 109.476 47.5946 109.728C48.2066 108.996 48.8426 107.796 49.3346 106.584V111.888H50.1986V106.752C50.6066 107.244 51.0986 107.904 51.2906 108.24L51.8306 107.532ZM52.9946 104.148H56.7506V106.488H52.9946V104.148ZM56.4146 110.964C56.1506 110.964 56.1146 110.916 56.1146 110.616V107.28H57.6386V103.368H52.1426V107.28H53.3666C53.1746 108.984 52.6946 110.484 50.8226 111.24C51.0146 111.408 51.2666 111.732 51.3626 111.924C53.4386 111.012 54.0266 109.296 54.2426 107.28H55.2626V110.616C55.2626 111.504 55.4546 111.768 56.2826 111.768H57.3026C58.0106 111.768 58.2386 111.36 58.3226 109.824C58.0826 109.764 57.7226 109.62 57.5426 109.464C57.5186 110.772 57.4586 110.964 57.2066 110.964H56.4146ZM63.4946 101.568V102.408H65.6786C65.7386 102.936 65.7986 103.44 65.8826 103.932L65.4986 103.872C65.0186 106.32 64.0106 108.192 62.2586 109.308C62.4626 109.452 62.8106 109.8 62.9546 109.968C64.4906 108.888 65.5106 107.256 66.1346 105.108C66.6746 107.292 67.6466 108.984 69.3266 109.968C69.5066 109.752 69.8186 109.44 70.0346 109.296C67.6346 108.06 66.6986 105.228 66.4106 101.568H63.4946ZM62.1266 103.104C61.7066 102.528 60.8066 101.76 60.0386 101.256L59.3786 101.796C60.1586 102.324 61.0466 103.116 61.4186 103.692L62.1266 103.104ZM61.7906 105.66H59.2466V106.5H60.9146V109.536C60.3146 110.04 59.6426 110.544 59.0906 110.904L59.5706 111.804C60.2066 111.288 60.8066 110.772 61.3826 110.268C62.1506 111.192 63.2186 111.624 64.7786 111.684C66.0986 111.732 68.5586 111.708 69.8666 111.66C69.9026 111.384 70.0586 110.964 70.1546 110.748C68.7506 110.844 66.0866 110.88 64.7786 110.832C63.3986 110.772 62.3546 110.364 61.7906 109.488V105.66ZM73.7906 105.744C74.6626 105.744 75.3586 105.964 75.8786 106.404C76.4066 106.844 76.6706 107.464 76.6706 108.264C76.6706 109.152 76.3866 109.852 75.8186 110.364C75.2586 110.868 74.4746 111.12 73.4666 111.12C73.0186 111.12 72.6026 111.08 72.2186 111C71.8346 110.92 71.5106 110.804 71.2466 110.652V109.656C71.5346 109.832 71.8826 109.972 72.2906 110.076C72.7066 110.172 73.1026 110.22 73.4786 110.22C74.1106 110.22 74.6186 110.072 75.0026 109.776C75.3946 109.472 75.5906 109.004 75.5906 108.372C75.5906 107.812 75.4186 107.384 75.0746 107.088C74.7306 106.784 74.1866 106.632 73.4426 106.632C73.2186 106.632 72.9626 106.652 72.6746 106.692C72.3866 106.732 72.1546 106.772 71.9786 106.812L71.4506 106.476L71.7746 102.432H76.0706V103.392H72.6746L72.4706 105.876C72.6066 105.852 72.7906 105.824 73.0226 105.792C73.2546 105.76 73.5106 105.744 73.7906 105.744ZM80.5258 105.744C81.3978 105.744 82.0938 105.964 82.6138 106.404C83.1418 106.844 83.4058 107.464 83.4058 108.264C83.4058 109.152 83.1218 109.852 82.5538 110.364C81.9938 110.868 81.2098 111.12 80.2018 111.12C79.7538 111.12 79.3378 111.08 78.9538 111C78.5698 110.92 78.2457 110.804 77.9817 110.652V109.656C78.2698 109.832 78.6178 109.972 79.0258 110.076C79.4418 110.172 79.8378 110.22 80.2138 110.22C80.8458 110.22 81.3538 110.072 81.7378 109.776C82.1298 109.472 82.3258 109.004 82.3258 108.372C82.3258 107.812 82.1538 107.384 81.8098 107.088C81.4658 106.784 80.9218 106.632 80.1778 106.632C79.9538 106.632 79.6978 106.652 79.4098 106.692C79.1218 106.732 78.8898 106.772 78.7138 106.812L78.1858 106.476L78.5098 102.432H82.8058V103.392H79.4098L79.2058 105.876C79.3418 105.852 79.5258 105.824 79.7578 105.792C79.9898 105.76 80.2458 105.744 80.5258 105.744ZM86.1809 109.608L86.2649 109.74C86.1529 110.164 86.0009 110.628 85.8089 111.132C85.6169 111.644 85.4249 112.116 85.2329 112.548H84.4529C84.5649 112.092 84.6769 111.592 84.7889 111.048C84.9089 110.504 84.9969 110.024 85.0529 109.608H86.1809ZM93.3159 106.704C93.3159 107.632 93.2199 108.424 93.0279 109.08C92.8359 109.736 92.5279 110.24 92.1039 110.592C91.6879 110.944 91.1399 111.12 90.4599 111.12C89.4919 111.12 88.7759 110.732 88.3119 109.956C87.8559 109.172 87.6279 108.088 87.6279 106.704C87.6279 105.776 87.7199 104.984 87.9039 104.328C88.0959 103.672 88.3999 103.172 88.8159 102.828C89.2319 102.476 89.7799 102.3 90.4599 102.3C91.4199 102.3 92.1359 102.688 92.6079 103.464C93.0799 104.232 93.3159 105.312 93.3159 106.704ZM88.6839 106.704C88.6839 107.88 88.8159 108.76 89.0799 109.344C89.3519 109.928 89.8119 110.22 90.4599 110.22C91.0999 110.22 91.5559 109.932 91.8279 109.356C92.1079 108.772 92.2479 107.888 92.2479 106.704C92.2479 105.536 92.1079 104.66 91.8279 104.076C91.5559 103.492 91.0999 103.2 90.4599 103.2C89.8119 103.2 89.3519 103.492 89.0799 104.076C88.8159 104.66 88.6839 105.536 88.6839 106.704ZM100.051 106.704C100.051 107.632 99.9551 108.424 99.7631 109.08C99.5711 109.736 99.2631 110.24 98.8391 110.592C98.4231 110.944 97.8751 111.12 97.1951 111.12C96.2271 111.12 95.5111 110.732 95.0471 109.956C94.5911 109.172 94.3631 108.088 94.3631 106.704C94.3631 105.776 94.4551 104.984 94.6391 104.328C94.8311 103.672 95.1351 103.172 95.5511 102.828C95.9671 102.476 96.5151 102.3 97.1951 102.3C98.1551 102.3 98.8711 102.688 99.3431 103.464C99.8151 104.232 100.051 105.312 100.051 106.704ZM95.4191 106.704C95.4191 107.88 95.5511 108.76 95.8151 109.344C96.0871 109.928 96.5471 110.22 97.1951 110.22C97.8351 110.22 98.2911 109.932 98.5631 109.356C98.8431 108.772 98.9831 107.888 98.9831 106.704C98.9831 105.536 98.8431 104.66 98.5631 104.076C98.2911 103.492 97.8351 103.2 97.1951 103.2C96.5471 103.2 96.0871 103.492 95.8151 104.076C95.5511 104.66 95.4191 105.536 95.4191 106.704ZM106.786 106.704C106.786 107.632 106.69 108.424 106.498 109.08C106.306 109.736 105.998 110.24 105.574 110.592C105.158 110.944 104.61 111.12 103.93 111.12C102.962 111.12 102.246 110.732 101.782 109.956C101.326 109.172 101.098 108.088 101.098 106.704C101.098 105.776 101.19 104.984 101.374 104.328C101.566 103.672 101.87 103.172 102.286 102.828C102.702 102.476 103.25 102.3 103.93 102.3C104.89 102.3 105.606 102.688 106.078 103.464C106.55 104.232 106.786 105.312 106.786 106.704ZM102.154 106.704C102.154 107.88 102.286 108.76 102.55 109.344C102.822 109.928 103.282 110.22 103.93 110.22C104.57 110.22 105.026 109.932 105.298 109.356C105.578 108.772 105.718 107.888 105.718 106.704C105.718 105.536 105.578 104.66 105.298 104.076C105.026 103.492 104.57 103.2 103.93 103.2C103.282 103.2 102.822 103.492 102.55 104.076C102.286 104.66 102.154 105.536 102.154 106.704ZM113.653 106.164V102.648H117.301V106.164H113.653ZM109.261 102.648H112.777V106.164H109.261V102.648ZM118.201 101.784H108.373V111.924H109.261V107.052H117.301V110.724C117.301 110.952 117.217 111.024 117.001 111.024C116.773 111.036 115.993 111.048 115.177 111.012C115.309 111.252 115.465 111.66 115.513 111.9C116.581 111.9 117.253 111.888 117.649 111.744C118.057 111.588 118.201 111.3 118.201 110.724V101.784ZM122.773 106.44C122.773 104.1 121.825 102.192 120.385 100.728L119.665 101.1C121.045 102.528 121.897 104.304 121.897 106.44C121.897 108.576 121.045 110.352 119.665 111.78L120.385 112.152C121.825 110.688 122.773 108.78 122.773 106.44Z" fill="#1EADAC"/>
<path d="M41.9886 85.2784C40.5833 85.2784 39.3305 85.0199 38.2301 84.5028C37.1364 83.9858 36.268 83.2732 35.625 82.3651C34.982 81.4569 34.6472 80.4162 34.6207 79.2429H38.7969C38.8433 80.0317 39.1747 80.6714 39.7912 81.1619C40.4077 81.6525 41.1401 81.8977 41.9886 81.8977C42.6648 81.8977 43.2614 81.7486 43.7784 81.4503C44.3021 81.1454 44.7097 80.7244 45.0014 80.1875C45.2997 79.6439 45.4489 79.0208 45.4489 78.3182C45.4489 77.6023 45.2964 76.9725 44.9915 76.429C44.6932 75.8854 44.2789 75.4612 43.7486 75.1562C43.2183 74.8513 42.6117 74.6955 41.929 74.6889C41.3324 74.6889 40.7524 74.8116 40.1889 75.0568C39.6321 75.3021 39.1979 75.6368 38.8864 76.0611L35.0582 75.375L36.0227 64.6364H48.4716V68.1562H39.5724L39.0454 73.2571H39.1648C39.5227 72.7533 40.063 72.3357 40.7855 72.0043C41.508 71.6728 42.3168 71.5071 43.2116 71.5071C44.438 71.5071 45.5317 71.7955 46.4929 72.3722C47.4541 72.9489 48.2131 73.741 48.7699 74.7486C49.3267 75.7495 49.6018 76.9029 49.5952 78.2088C49.6018 79.581 49.2836 80.8007 48.6406 81.8679C48.0043 82.9285 47.1127 83.7637 45.9659 84.3736C44.8258 84.9768 43.5 85.2784 41.9886 85.2784ZM51.9554 63.16V66.436H76.7074V63.16H51.9554ZM60.9154 71V74.248H72.1154V71H60.9154ZM70.9114 71V71.56C70.5754 79.428 70.1274 82.956 69.2874 83.712C68.9234 84.048 68.5594 84.104 67.9434 84.104C67.1314 84.104 65.1994 84.104 63.2394 83.908C63.9114 84.832 64.3874 86.26 64.4434 87.212C66.2914 87.296 68.2234 87.324 69.3714 87.184C70.6314 87.072 71.5274 86.764 72.3394 85.812C73.4594 84.552 73.9354 81.136 74.3554 72.484C74.4114 72.064 74.4394 71 74.4394 71H70.9114ZM58.5354 65.932C58.3114 72.848 58.2554 80.632 50.8634 84.748C51.7594 85.42 52.7674 86.568 53.2994 87.492C61.2794 82.676 61.8114 73.884 62.0634 65.932H58.5354ZM79.9274 62.992V87.52H83.3154V66.324H101.907V62.992H79.9274ZM100.283 62.992V83.544C100.283 84.048 100.115 84.216 99.5834 84.216C99.0234 84.216 97.2034 84.244 95.5794 84.16C96.0554 85.028 96.6434 86.568 96.7834 87.52C99.3034 87.52 100.983 87.436 102.131 86.904C103.307 86.344 103.699 85.392 103.699 83.572V62.992H100.283ZM81.7754 73.408V76.74H101.935V73.408H81.7754ZM89.9234 64.812V75.06H93.2834V64.812H89.9234ZM117.811 75.564C119.743 77.664 121.759 78.672 124.447 78.672C127.443 78.672 130.159 76.964 132.035 73.492L128.983 71.84C127.919 73.828 126.323 75.172 124.503 75.172C122.599 75.172 121.563 74.444 120.359 73.184C118.427 71.084 116.411 70.076 113.723 70.076C110.727 70.076 108.011 71.784 106.135 75.256L109.187 76.908C110.251 74.92 111.847 73.576 113.667 73.576C115.599 73.576 116.607 74.332 117.811 75.564Z" fill="#1EADAC"/>
<path d="M48.21 129.254V131.116H49.288V129.254H48.21ZM42.988 130.5V133.286H44.01V131.466H53.558V133.286H54.622V130.5H42.988ZM44.78 132.866V133.79H52.662V132.866H44.78ZM46.614 134.966C49.33 137.038 49.386 140.202 48.392 140.916C48.112 141.154 47.804 141.182 47.426 141.182C47.104 141.182 46.628 141.168 46.11 141.112C46.292 141.406 46.39 141.84 46.418 142.12C46.852 142.148 47.3 142.162 47.636 142.162C48.266 142.162 48.658 142.064 49.134 141.686C50.576 140.678 50.506 136.772 47.398 134.476L46.614 134.966ZM48.714 133.076C47.44 134.266 45.032 135.218 42.89 135.736C43.072 135.932 43.352 136.366 43.464 136.562C45.648 135.932 48.14 134.854 49.582 133.454L48.714 133.076ZM47.72 135.75C46.684 136.604 44.57 137.598 42.988 138.032C43.198 138.242 43.422 138.606 43.548 138.844C45.158 138.27 47.258 137.178 48.42 136.226L47.72 135.75ZM48.756 137.192C47.44 138.55 44.724 140.006 42.498 140.594C42.694 140.832 42.932 141.21 43.058 141.476C45.298 140.734 48.028 139.194 49.484 137.724L48.756 137.192ZM50.044 133.23L49.176 133.412C50.016 136.926 51.668 139.768 54.426 141.028C54.594 140.734 54.916 140.328 55.154 140.118C52.494 139.054 50.814 136.38 50.044 133.23ZM53.642 134.266C52.844 134.98 51.486 135.932 50.534 136.492L51.192 137.136C52.186 136.604 53.502 135.736 54.454 134.966L53.642 134.266ZM62.966 131.088V132.054H68.762V131.088H62.966ZM63.358 129.226C62.91 130.808 62.14 132.362 61.188 133.356C61.426 133.496 61.846 133.776 62.028 133.944C62.966 132.852 63.82 131.172 64.324 129.45L63.358 129.226ZM63.428 133.902V134.84H68.538V133.902H63.428ZM61.874 136.898V137.864H68.762V136.898H61.874ZM63.568 132.362C63.26 133.692 62.7 135.008 61.958 135.89C62.21 136.016 62.616 136.282 62.798 136.436C63.526 135.484 64.156 134.056 64.548 132.586L63.568 132.362ZM56.064 131.592V132.572H61.804V131.592H56.064ZM58.08 134.546V135.512H60.698V134.546H58.08ZM58.612 129.268V131.886H59.634V129.268H58.612ZM57.646 132.152C57.604 135.708 57.464 139.432 55.854 141.448C56.12 141.602 56.456 141.896 56.638 142.134C58.374 139.894 58.57 136.002 58.64 132.152H57.646ZM60.404 134.546V134.756C60.236 139.11 60.054 140.65 59.774 141.014C59.662 141.168 59.55 141.196 59.34 141.196C59.13 141.196 58.64 141.196 58.108 141.14C58.262 141.406 58.36 141.826 58.388 142.12C58.934 142.148 59.466 142.148 59.788 142.106C60.166 142.064 60.404 141.966 60.628 141.658C61.034 141.154 61.202 139.586 61.37 135.036C61.384 134.882 61.384 134.546 61.384 134.546H60.404ZM65.976 137.514L65.178 137.724C65.71 139.712 66.802 141.336 68.426 142.12C68.58 141.868 68.874 141.49 69.112 141.308C67.558 140.678 66.48 139.236 65.976 137.514ZM64.87 134.406V136.422C64.87 137.892 64.66 139.964 61.468 141.406C61.706 141.588 62 141.91 62.14 142.134C65.458 140.496 65.878 138.158 65.878 136.436V134.406H64.87ZM74.81 129.912V130.766H81.292V129.912H74.81ZM74.642 133.79V134.658H81.544V133.79H74.642ZM74.642 135.736V136.604H81.516V135.736H74.642ZM75.048 140.594V141.462H81.124V140.594H75.048ZM73.494 131.844V132.726H82.608V131.844H73.494ZM74.502 137.682V142.12H75.51V138.536H80.62V142.078H81.67V137.682H74.502ZM73.018 129.282C72.206 131.41 70.834 133.496 69.42 134.826C69.616 135.078 69.91 135.624 70.008 135.862C71.562 134.308 73.06 131.956 74.012 129.59L73.018 129.282ZM71.562 132.894V142.092H72.57V131.914L72.556 131.9L71.562 132.894ZM91.61 130.766V140.258C91.61 141.616 91.932 141.98 93.094 141.98C93.332 141.98 94.676 141.98 94.928 141.98C96.02 141.98 96.286 141.28 96.412 139.25C96.104 139.18 95.684 138.984 95.432 138.802C95.376 140.538 95.292 140.972 94.858 140.972C94.564 140.972 93.458 140.972 93.22 140.972C92.758 140.972 92.66 140.86 92.66 140.272V130.766H91.61ZM94.788 129.408C93.472 130.01 91.106 130.584 89.034 130.934C89.16 131.186 89.328 131.578 89.37 131.83C91.526 131.466 94.004 130.934 95.684 130.234L94.788 129.408ZM88.754 135.54L88.922 136.548L96.342 135.4L96.16 134.406L88.754 135.54ZM84.036 133.482V134.322H88.404V133.482H84.036ZM84.12 129.744V130.584H88.418V129.744H84.12ZM84.036 135.358V136.198H88.404V135.358H84.036ZM83.378 131.578V132.446H88.95V131.578H83.378ZM84.526 137.248V138.116H87.424V140.454H84.526V141.336H88.362V137.248H84.526ZM84.022 137.248V141.98H84.96V137.248H84.022ZM103.888 133.566V134.532H108.424V133.566H103.888ZM103.888 137.122V138.074H108.424V137.122H103.888ZM103.342 130.038V141.364H104.364V130.99H107.934V141.364H108.984V130.038H103.342ZM101.872 140.762V141.728H110.062V140.762H101.872ZM99.268 129.254C98.904 130.178 98.26 131.522 97.728 132.334L98.456 132.642C99.002 131.886 99.674 130.64 100.206 129.604L99.268 129.254ZM100.962 130.85C100.192 132.334 98.862 134.434 97.784 135.68L98.456 136.03C99.52 134.826 100.892 132.81 101.872 131.242L100.962 130.85ZM97.056 132.194C97.812 132.866 98.694 133.832 99.072 134.49L99.632 133.692C99.254 133.076 98.372 132.152 97.588 131.494L97.056 132.194ZM100.514 134.098C101.088 135.022 101.648 136.24 101.858 137.024L102.698 136.632C102.488 135.862 101.886 134.658 101.298 133.762L100.514 134.098ZM97.028 135.512L97.112 136.45C98.442 136.38 100.22 136.282 101.998 136.17V135.316C100.15 135.4 98.288 135.47 97.028 135.512ZM100.864 137.444C101.256 138.312 101.634 139.446 101.76 140.174L102.614 139.88C102.46 139.152 102.068 138.046 101.662 137.192L100.864 137.444ZM97.798 137.248C97.63 138.48 97.35 139.726 96.888 140.58C97.112 140.678 97.532 140.874 97.714 140.986C98.162 140.09 98.512 138.732 98.708 137.416L97.798 137.248ZM99.408 135.918V142.162H100.36V135.918H99.408ZM112.61 134.49V135.47H116.096V134.49H112.61ZM115.676 134.49V134.672C115.634 137.696 115.564 138.746 115.354 138.998C115.256 139.124 115.116 139.138 114.92 139.138C114.682 139.138 114.066 139.138 113.436 139.082C113.59 139.348 113.702 139.754 113.73 140.062C114.416 140.09 115.046 140.104 115.41 140.062C115.802 140.02 116.026 139.922 116.25 139.67C116.544 139.278 116.628 138.102 116.698 134.938C116.698 134.798 116.698 134.49 116.698 134.49H115.676ZM119.624 129.954C120.506 130.416 121.584 131.13 122.116 131.62L122.774 130.906C122.228 130.416 121.122 129.744 120.254 129.296L119.624 129.954ZM121.626 133.748C120.576 137.122 118.602 139.684 115.76 141.196C115.984 141.406 116.376 141.84 116.53 142.05C119.4 140.356 121.486 137.654 122.676 134L121.626 133.748ZM112.694 131.62V132.656H123.53V131.62H112.694ZM112.022 131.62V135.554C112.022 137.388 111.896 139.796 110.734 141.518C110.986 141.644 111.434 142.008 111.616 142.218C112.89 140.384 113.114 137.556 113.114 135.568V131.62H112.022ZM117.832 129.268C117.888 135.974 119.148 142.022 122.004 142.022C123.068 142.022 123.46 141.336 123.656 138.942C123.376 138.844 122.984 138.606 122.746 138.368C122.662 140.23 122.48 140.958 122.088 140.958C120.268 140.958 118.896 135.708 118.924 129.268H117.832ZM38.158 155.574V152.256C38.158 151.71 38.214 151.262 38.228 151.122H36.954C36.982 151.248 37.024 151.71 37.024 152.256V155.658C37.024 159.592 35.764 160.796 33.216 161.762L34.154 162.658C37.346 161.216 38.158 159.298 38.158 155.574ZM33.104 151.206H31.858C31.9 151.528 31.928 151.92 31.928 152.214V157.352C31.928 157.884 31.872 158.486 31.858 158.612H33.104C33.09 158.486 33.048 157.87 33.048 157.352V152.214C33.048 151.738 33.09 151.332 33.104 151.206ZM29.016 153.922V155.126C29.17 155.126 29.8 155.084 30.416 155.084H39.698C40.314 155.084 40.818 155.112 40.972 155.126V153.936C40.776 153.964 40.314 154.02 39.684 154.02H30.416C29.828 154.02 29.142 153.936 29.016 153.922ZM52.326 151.668C52.326 151.164 52.718 150.758 53.222 150.758C53.712 150.758 54.118 151.164 54.118 151.668C54.118 152.158 53.712 152.55 53.222 152.55C52.718 152.55 52.326 152.158 52.326 151.668ZM51.696 151.668C51.696 152.508 52.368 153.194 53.222 153.194C54.062 153.194 54.762 152.508 54.762 151.668C54.762 150.814 54.062 150.128 53.222 150.128C52.368 150.128 51.696 150.814 51.696 151.668ZM49.344 151.22H48.042C48.084 151.43 48.14 151.906 48.14 152.214C48.14 152.956 48.14 154.342 48.14 154.818C48.14 155.476 48.14 160.264 48.126 161.02C48.126 161.398 47.972 161.552 47.594 161.552C47.216 161.552 46.586 161.51 45.97 161.398L46.068 162.504C46.642 162.574 47.468 162.602 48.056 162.602C48.91 162.602 49.26 162.224 49.26 161.496C49.26 160.488 49.26 155.952 49.26 154.818C49.26 154.132 49.26 152.956 49.26 152.214C49.26 151.92 49.316 151.416 49.344 151.22ZM43.058 153.572V154.762C43.422 154.72 43.814 154.706 44.248 154.706C45.102 154.706 52.144 154.706 52.984 154.706C53.32 154.706 53.74 154.72 54.104 154.748V153.586C53.754 153.628 53.292 153.656 52.97 153.656C52.13 153.656 45.06 153.656 44.234 153.656C43.8 153.656 43.45 153.628 43.058 153.572ZM46.278 156.876L45.284 156.4C44.738 157.534 43.548 159.2 42.61 160.054L43.576 160.712C44.374 159.858 45.676 158.066 46.278 156.876ZM52.116 156.4L51.164 156.918C51.906 157.8 52.956 159.536 53.516 160.642L54.538 160.068C53.978 159.046 52.872 157.296 52.116 156.4ZM56.876 155.938V157.31C57.324 157.282 58.066 157.254 58.836 157.254C59.872 157.254 65.458 157.254 66.522 157.254C67.138 157.254 67.726 157.296 68.02 157.31V155.938C67.698 155.966 67.208 156.022 66.508 156.022C65.472 156.022 59.858 156.022 58.836 156.022C58.038 156.022 57.31 155.98 56.876 155.938ZM73.858 160.768C73.858 161.286 73.844 161.986 73.774 162.434H75.132C75.076 161.972 75.048 161.216 75.048 160.768C75.048 160.11 75.034 154.804 75.034 152.634C75.034 152.2 75.076 151.598 75.132 151.164H73.76C73.83 151.612 73.858 152.228 73.858 152.634C73.858 153.796 73.858 159.984 73.858 160.768ZM74.782 154.846V156.078C76.308 156.554 78.926 157.548 80.522 158.402L81.012 157.212C79.458 156.456 76.63 155.378 74.782 154.846ZM92.926 155.574V152.256C92.926 151.71 92.982 151.262 92.996 151.122H91.722C91.75 151.248 91.792 151.71 91.792 152.256V155.658C91.792 159.592 90.532 160.796 87.984 161.762L88.922 162.658C92.114 161.216 92.926 159.298 92.926 155.574ZM87.872 151.206H86.626C86.668 151.528 86.696 151.92 86.696 152.214V157.352C86.696 157.884 86.64 158.486 86.626 158.612H87.872C87.858 158.486 87.816 157.87 87.816 157.352V152.214C87.816 151.738 87.858 151.332 87.872 151.206ZM83.784 153.922V155.126C83.938 155.126 84.568 155.084 85.184 155.084H94.466C95.082 155.084 95.586 155.112 95.74 155.126V153.936C95.544 153.964 95.082 154.02 94.452 154.02H85.184C84.596 154.02 83.91 153.936 83.784 153.922ZM97.952 155.938V157.31C98.4 157.282 99.142 157.254 99.912 157.254C100.948 157.254 106.534 157.254 107.598 157.254C108.214 157.254 108.802 157.296 109.096 157.31V155.938C108.774 155.966 108.284 156.022 107.584 156.022C106.548 156.022 100.934 156.022 99.912 156.022C99.114 156.022 98.386 155.98 97.952 155.938ZM120.422 151.038L119.68 151.36C120.058 151.892 120.52 152.732 120.8 153.292L121.556 152.956C121.276 152.382 120.772 151.542 120.422 151.038ZM121.948 150.478L121.22 150.8C121.612 151.318 122.074 152.116 122.368 152.718L123.124 152.382C122.858 151.864 122.326 150.996 121.948 150.478ZM114.136 151.5H112.834C112.89 151.836 112.918 152.298 112.918 152.634C112.918 153.39 112.918 158.99 112.918 160.334C112.918 161.482 113.52 161.972 114.584 162.168C115.172 162.266 115.998 162.294 116.838 162.294C118.364 162.294 120.464 162.196 121.682 162.014V160.726C120.506 161.034 118.364 161.174 116.88 161.174C116.194 161.174 115.48 161.146 115.032 161.062C114.36 160.936 114.052 160.754 114.052 160.026C114.052 159.018 114.052 153.39 114.052 152.634C114.052 152.242 114.094 151.836 114.136 151.5ZM113.534 155.924L113.548 157.086C115.27 156.652 118.042 155.84 119.778 155.14C120.198 154.972 120.702 154.748 121.108 154.58L120.618 153.46C120.212 153.712 119.806 153.908 119.386 154.104C117.762 154.79 115.228 155.56 113.534 155.924ZM135.108 152.648L134.408 152.102C134.184 152.172 133.806 152.214 133.358 152.214C132.826 152.214 128.5 152.214 127.954 152.214C127.52 152.214 126.722 152.158 126.54 152.13V153.39C126.694 153.376 127.45 153.32 127.954 153.32C128.43 153.32 132.91 153.32 133.414 153.32C133.05 154.482 132.028 156.148 131.076 157.226C129.634 158.822 127.576 160.502 125.308 161.37L126.204 162.308C128.416 161.3 130.418 159.634 131.986 157.884C133.148 156.596 134.212 154.636 134.772 153.25C134.842 153.068 135.024 152.76 135.108 152.648ZM132.168 157.156L131.37 157.94C132.882 159.27 134.52 161.062 135.528 162.392L136.494 161.538C135.542 160.376 133.68 158.416 132.168 157.156Z" fill="#1EADAC"/>
</svg>
