<svg width="446" height="235" viewBox="0 0 446 235" fill="none" xmlns="http://www.w3.org/2000/svg">
<rect width="446" height="235" rx="6" fill="white"/>
<path d="M183.112 56.652C183.208 55.644 183.256 54.636 183.28 53.724H192.904V56.652H183.112ZM192.904 48.084V51.012H183.28V48.084H192.904ZM195.928 45.3H180.328V53.196C180.328 56.844 179.992 61.428 176.368 64.524C176.992 64.932 178.144 65.988 178.576 66.588C180.808 64.716 182.008 62.1 182.632 59.412H192.904V62.892C192.904 63.396 192.712 63.588 192.136 63.588C191.608 63.588 189.592 63.612 187.912 63.516C188.368 64.308 188.944 65.676 189.112 66.516C191.584 66.516 193.264 66.468 194.416 65.964C195.52 65.484 195.928 64.668 195.928 62.94V45.3ZM218.896 52.764H214.144V51.3H218.896V52.764ZM218.896 56.196H214.144V54.732H218.896V56.196ZM218.896 59.7H214.144V58.212H218.896V59.7ZM211.576 49.164V61.812H221.584V49.164H217.336C217.528 48.66 217.72 48.108 217.912 47.532H222.064V45.108H210.856V47.532H214.888C214.792 48.06 214.696 48.636 214.6 49.164H211.576ZM202.672 48.372H208.408V50.028H210.784V46.164H206.872V44.22H204.208V46.164H200.368V50.028H202.672V48.372ZM206.992 62.988H204.088V60.78H206.992V62.988ZM204.136 58.572C204.832 58.116 205.504 57.588 206.152 57.012C206.872 57.564 207.592 58.092 208.192 58.572H204.136ZM207.016 52.188C206.68 52.788 206.296 53.364 205.84 53.892L204.184 52.812C204.352 52.596 204.52 52.404 204.688 52.188H207.016ZM209.416 59.58L209.464 59.628L211.072 57.636C210.28 56.964 209.104 56.1 207.808 55.236C208.816 53.988 209.632 52.548 210.184 50.916L208.576 50.172L208.144 50.292H205.912C206.128 49.932 206.296 49.572 206.464 49.188L204.136 48.612C203.272 50.628 201.616 52.452 199.744 53.628C200.272 53.964 201.16 54.828 201.544 55.284C201.904 55.044 202.24 54.756 202.576 54.468L204.16 55.572C202.84 56.676 201.328 57.54 199.744 58.092C200.248 58.548 200.872 59.508 201.184 60.132L201.688 59.916V66.132H204.088V65.172H209.416C209.896 65.628 210.424 66.156 210.736 66.54C212.488 65.844 214.6 64.572 215.848 63.348L213.544 61.908C212.68 62.796 211 63.9 209.416 64.548V59.58ZM216.904 63.324C218.2 64.284 219.88 65.7 220.648 66.612L222.856 65.148C221.992 64.236 220.24 62.916 218.968 62.028L216.904 63.324ZM229.696 60.324H240.016V61.308H229.696V60.324ZM236.032 52.14V53.724H231.664C232.192 53.244 232.576 52.716 232.84 52.14H236.032ZM228.304 49.524H230.752C230.752 49.86 230.704 50.172 230.608 50.46H227.992L228.304 49.524ZM233.368 46.908H236.032V47.868H233.368V46.908ZM241.24 46.908V47.868H238.744V46.908H241.24ZM236.032 50.46H233.296C233.32 50.148 233.344 49.836 233.368 49.524H236.032V50.46ZM242.584 52.14C242.536 52.5 242.464 52.716 242.368 52.836C242.224 53.004 242.08 53.004 241.864 53.004C241.6 53.028 241.096 53.004 240.544 52.932C240.64 53.148 240.76 53.436 240.832 53.724H238.744V52.14H242.584ZM240.016 56.292H229.696V55.356H240.016V56.292ZM240.016 58.788H229.696V57.828H240.016V58.788ZM242.92 62.94V54.66C243.064 54.66 243.184 54.636 243.28 54.636C243.784 54.612 244.312 54.42 244.672 54.06C245.08 53.628 245.224 52.764 245.344 51.204C245.368 50.94 245.392 50.46 245.392 50.46H238.744V49.524H243.832V45.228H238.744V44.196H236.032V45.228H233.368V44.196H230.776V45.228H225.328V46.908H230.776V47.868H226.216C225.808 49.284 225.232 51.012 224.704 52.188L227.296 52.356L227.368 52.14H229.48C228.496 52.932 226.768 53.532 223.792 53.916C224.224 54.444 224.896 55.524 225.136 56.124C225.784 56.028 226.36 55.932 226.912 55.812V62.94H230.176C228.496 63.636 226.048 64.236 223.816 64.62C224.416 65.1 225.424 66.108 225.88 66.66C228.328 66.06 231.376 64.98 233.368 63.804L231.472 62.94H237.88L236.056 64.068C238.552 64.884 241.048 65.892 242.464 66.612L245.632 65.244C244.12 64.596 241.6 63.684 239.296 62.94H242.92ZM259.888 56.892V53.94H264.952V56.892H259.888ZM252.424 56.892C252.472 56.004 252.496 55.14 252.496 54.372V53.94H257.008V56.892H252.424ZM257.008 48.492V51.276H252.496V48.492H257.008ZM264.952 51.276H259.888V48.492H264.952V51.276ZM267.784 45.78H249.664V54.348C249.664 57.708 249.448 61.98 246.832 64.86C247.48 65.196 248.632 66.18 249.088 66.708C250.816 64.836 251.68 62.196 252.112 59.58H257.008V66.276H259.888V59.58H264.952V63.18C264.952 63.612 264.784 63.756 264.328 63.756C263.896 63.756 262.312 63.78 260.968 63.708C261.328 64.452 261.784 65.676 261.88 66.444C264.04 66.468 265.504 66.42 266.488 65.94C267.448 65.508 267.784 64.74 267.784 63.204V45.78Z" fill="#1EADAC"/>
<path d="M186.094 124.94C186.094 127.28 187.042 129.188 188.482 130.652L189.202 130.28C187.822 128.852 186.97 127.076 186.97 124.94C186.97 122.804 187.822 121.028 189.202 119.6L188.482 119.228C187.042 120.692 186.094 122.6 186.094 124.94ZM199.558 119.456C199.318 120.08 198.85 120.968 198.478 121.532L199.222 121.832C199.606 121.304 200.062 120.5 200.458 119.768L199.558 119.456ZM196.954 121.484C196.786 120.944 196.318 120.104 195.886 119.48L195.142 119.792C195.574 120.44 196.006 121.304 196.174 121.856L196.954 121.484ZM194.698 126.032C194.458 125.756 193.438 124.7 193.066 124.388V123.656H194.566V122.816H193.066V120.788C193.63 120.656 194.158 120.488 194.59 120.308L193.966 119.636C193.09 120.032 191.518 120.38 190.174 120.596C190.282 120.8 190.402 121.088 190.45 121.292C191.002 121.208 191.614 121.112 192.202 120.992V122.816H190.246V123.656H192.082C191.602 125.024 190.774 126.572 190.018 127.412C190.162 127.628 190.378 127.976 190.462 128.228C191.074 127.496 191.71 126.296 192.202 125.084V130.388H193.066V125.252C193.474 125.744 193.966 126.404 194.158 126.74L194.698 126.032ZM195.862 122.648H199.618V124.988H195.862V122.648ZM199.282 129.464C199.018 129.464 198.982 129.416 198.982 129.116V125.78H200.506V121.868H195.01V125.78H196.234C196.042 127.484 195.562 128.984 193.69 129.74C193.882 129.908 194.134 130.232 194.23 130.424C196.306 129.512 196.894 127.796 197.11 125.78H198.13V129.116C198.13 130.004 198.322 130.268 199.15 130.268H200.17C200.878 130.268 201.106 129.86 201.19 128.324C200.95 128.264 200.59 128.12 200.41 127.964C200.386 129.272 200.326 129.464 200.074 129.464H199.282ZM206.362 120.068V120.908H208.546C208.606 121.436 208.666 121.94 208.75 122.432L208.366 122.372C207.886 124.82 206.878 126.692 205.126 127.808C205.33 127.952 205.678 128.3 205.822 128.468C207.358 127.388 208.378 125.756 209.002 123.608C209.542 125.792 210.514 127.484 212.194 128.468C212.374 128.252 212.686 127.94 212.902 127.796C210.502 126.56 209.566 123.728 209.278 120.068H206.362ZM204.994 121.604C204.574 121.028 203.674 120.26 202.906 119.756L202.246 120.296C203.026 120.824 203.914 121.616 204.286 122.192L204.994 121.604ZM204.658 124.16H202.114V125H203.782V128.036C203.182 128.54 202.51 129.044 201.958 129.404L202.438 130.304C203.074 129.788 203.674 129.272 204.25 128.768C205.018 129.692 206.086 130.124 207.646 130.184C208.966 130.232 211.426 130.208 212.734 130.16C212.77 129.884 212.926 129.464 213.022 129.248C211.618 129.344 208.954 129.38 207.646 129.332C206.266 129.272 205.222 128.864 204.658 127.988V124.16ZM217.618 129.5H216.586V123.512C216.586 123.168 216.59 122.892 216.598 122.684C216.606 122.476 216.618 122.26 216.634 122.036C216.506 122.164 216.386 122.272 216.274 122.36C216.17 122.448 216.042 122.56 215.89 122.696L214.978 123.44L214.426 122.732L216.742 120.932H217.618V129.5ZM222.313 128.108L222.397 128.24C222.285 128.664 222.133 129.128 221.941 129.632C221.749 130.144 221.557 130.616 221.365 131.048H220.585C220.697 130.592 220.809 130.092 220.921 129.548C221.041 129.004 221.129 128.524 221.185 128.108H222.313ZM229.448 125.204C229.448 126.132 229.352 126.924 229.16 127.58C228.968 128.236 228.66 128.74 228.236 129.092C227.82 129.444 227.272 129.62 226.592 129.62C225.624 129.62 224.908 129.232 224.444 128.456C223.988 127.672 223.76 126.588 223.76 125.204C223.76 124.276 223.852 123.484 224.036 122.828C224.228 122.172 224.532 121.672 224.948 121.328C225.364 120.976 225.912 120.8 226.592 120.8C227.552 120.8 228.268 121.188 228.74 121.964C229.212 122.732 229.448 123.812 229.448 125.204ZM224.816 125.204C224.816 126.38 224.948 127.26 225.212 127.844C225.484 128.428 225.944 128.72 226.592 128.72C227.232 128.72 227.688 128.432 227.96 127.856C228.24 127.272 228.38 126.388 228.38 125.204C228.38 124.036 228.24 123.16 227.96 122.576C227.688 121.992 227.232 121.7 226.592 121.7C225.944 121.7 225.484 121.992 225.212 122.576C224.948 123.16 224.816 124.036 224.816 125.204ZM231.539 129.5L235.055 121.892H230.435V120.932H236.183V121.748L232.703 129.5H231.539ZM240.063 120.812C240.815 120.812 241.431 120.988 241.911 121.34C242.391 121.692 242.631 122.2 242.631 122.864C242.631 123.208 242.555 123.508 242.403 123.764C242.259 124.02 242.063 124.248 241.815 124.448C241.567 124.64 241.295 124.812 240.999 124.964C241.351 125.14 241.671 125.332 241.959 125.54C242.247 125.748 242.475 125.992 242.643 126.272C242.819 126.552 242.907 126.888 242.907 127.28C242.907 128 242.651 128.572 242.139 128.996C241.627 129.412 240.947 129.62 240.099 129.62C239.171 129.62 238.459 129.42 237.963 129.02C237.475 128.612 237.231 128.044 237.231 127.316C237.231 126.932 237.311 126.596 237.471 126.308C237.639 126.012 237.859 125.76 238.131 125.552C238.403 125.344 238.695 125.168 239.007 125.024C238.583 124.784 238.227 124.496 237.939 124.16C237.651 123.816 237.507 123.38 237.507 122.852C237.507 122.42 237.619 122.052 237.843 121.748C238.067 121.444 238.371 121.212 238.755 121.052C239.139 120.892 239.575 120.812 240.063 120.812ZM240.051 121.664C239.603 121.664 239.239 121.772 238.959 121.988C238.679 122.196 238.539 122.5 238.539 122.9C238.539 123.196 238.607 123.444 238.743 123.644C238.887 123.844 239.079 124.016 239.319 124.16C239.559 124.296 239.823 124.428 240.111 124.556C240.527 124.38 240.875 124.168 241.155 123.92C241.443 123.672 241.587 123.332 241.587 122.9C241.587 122.5 241.447 122.196 241.167 121.988C240.887 121.772 240.515 121.664 240.051 121.664ZM238.263 127.328C238.263 127.744 238.411 128.092 238.707 128.372C239.003 128.644 239.459 128.78 240.075 128.78C240.659 128.78 241.103 128.644 241.407 128.372C241.719 128.092 241.875 127.732 241.875 127.292C241.875 126.876 241.711 126.532 241.383 126.26C241.055 125.98 240.619 125.736 240.075 125.528L239.883 125.456C239.355 125.688 238.951 125.948 238.671 126.236C238.399 126.524 238.263 126.888 238.263 127.328ZM249.786 124.664V121.148H253.434V124.664H249.786ZM245.394 121.148H248.91V124.664H245.394V121.148ZM254.334 120.284H244.506V130.424H245.394V125.552H253.434V129.224C253.434 129.452 253.35 129.524 253.134 129.524C252.906 129.536 252.126 129.548 251.31 129.512C251.442 129.752 251.598 130.16 251.646 130.4C252.714 130.4 253.386 130.388 253.782 130.244C254.19 130.088 254.334 129.8 254.334 129.224V120.284ZM258.906 124.94C258.906 122.6 257.958 120.692 256.518 119.228L255.798 119.6C257.178 121.028 258.03 122.804 258.03 124.94C258.03 127.076 257.178 128.852 255.798 130.28L256.518 130.652C257.958 129.188 258.906 127.28 258.906 124.94Z" fill="#1EADAC"/>
<path d="M150.893 79.0625C152.539 79.0625 154.122 79.3385 155.643 79.8906C157.174 80.4427 158.539 81.3229 159.737 82.5312C160.945 83.7396 161.898 85.3437 162.596 87.3437C163.304 89.3333 163.664 91.776 163.674 94.6719C163.674 97.3906 163.367 99.8177 162.752 101.953C162.148 104.078 161.278 105.885 160.143 107.375C159.008 108.865 157.638 110 156.034 110.781C154.429 111.552 152.638 111.937 150.659 111.937C148.523 111.937 146.638 111.526 145.002 110.703C143.367 109.87 142.049 108.74 141.049 107.312C140.06 105.875 139.461 104.26 139.252 102.469H145.924C146.185 103.635 146.732 104.542 147.565 105.188C148.398 105.823 149.429 106.141 150.659 106.141C152.742 106.141 154.325 105.234 155.409 103.422C156.492 101.599 157.039 99.1042 157.049 95.9375H156.831C156.351 96.875 155.706 97.6823 154.893 98.3594C154.081 99.026 153.148 99.5417 152.096 99.9063C151.054 100.271 149.945 100.453 148.768 100.453C146.883 100.453 145.2 100.01 143.721 99.125C142.242 98.2396 141.075 97.0208 140.221 95.4687C139.367 93.9167 138.94 92.1458 138.94 90.1562C138.929 88.0104 139.424 86.099 140.424 84.4219C141.424 82.7448 142.82 81.4323 144.612 80.4844C146.414 79.526 148.508 79.0521 150.893 79.0625ZM150.94 84.375C149.888 84.375 148.95 84.625 148.127 85.125C147.315 85.625 146.669 86.2969 146.19 87.1406C145.721 87.9844 145.492 88.9271 145.502 89.9687C145.502 91.0208 145.732 91.9687 146.19 92.8125C146.659 93.6458 147.294 94.3125 148.096 94.8125C148.909 95.3021 149.836 95.5469 150.877 95.5469C151.659 95.5469 152.383 95.401 153.049 95.1094C153.716 94.8177 154.294 94.4167 154.784 93.9062C155.284 93.3854 155.674 92.7865 155.956 92.1094C156.237 91.4323 156.377 90.7135 156.377 89.9531C156.367 88.9427 156.127 88.0156 155.659 87.1719C155.19 86.3281 154.544 85.651 153.721 85.1406C152.898 84.6302 151.971 84.375 150.94 84.375ZM179.331 111.937C176.925 111.937 174.784 111.547 172.909 110.766C171.045 109.974 169.581 108.896 168.519 107.531C167.456 106.167 166.925 104.62 166.925 102.891C166.925 101.557 167.227 100.333 167.831 99.2188C168.446 98.0938 169.279 97.1615 170.331 96.4219C171.383 95.6719 172.56 95.1927 173.863 94.9844V94.7656C172.154 94.4219 170.769 93.5937 169.706 92.2812C168.644 90.9583 168.113 89.4219 168.113 87.6719C168.113 86.0156 168.597 84.5417 169.566 83.25C170.534 81.9479 171.863 80.9271 173.55 80.1875C175.248 79.4375 177.175 79.0625 179.331 79.0625C181.488 79.0625 183.409 79.4375 185.097 80.1875C186.795 80.9375 188.128 81.9635 189.097 83.2656C190.066 84.5573 190.555 86.026 190.566 87.6719C190.555 89.4323 190.014 90.9687 188.941 92.2812C187.868 93.5937 186.493 94.4219 184.816 94.7656V94.9844C186.097 95.1927 187.258 95.6719 188.3 96.4219C189.352 97.1615 190.185 98.0938 190.8 99.2188C191.425 100.333 191.743 101.557 191.753 102.891C191.743 104.62 191.206 106.167 190.144 107.531C189.081 108.896 187.613 109.974 185.738 110.766C183.873 111.547 181.738 111.937 179.331 111.937ZM179.331 106.969C180.404 106.969 181.342 106.776 182.144 106.391C182.946 105.995 183.571 105.453 184.019 104.766C184.477 104.068 184.706 103.266 184.706 102.359C184.706 101.432 184.472 100.615 184.003 99.9063C183.534 99.1875 182.899 98.625 182.097 98.2187C181.295 97.8021 180.373 97.5937 179.331 97.5937C178.3 97.5937 177.378 97.8021 176.566 98.2187C175.753 98.625 175.113 99.1875 174.644 99.9063C174.185 100.615 173.956 101.432 173.956 102.359C173.956 103.266 174.18 104.068 174.628 104.766C175.076 105.453 175.706 105.995 176.519 106.391C177.331 106.776 178.269 106.969 179.331 106.969ZM179.331 92.6719C180.227 92.6719 181.024 92.4896 181.722 92.125C182.42 91.7604 182.967 91.2552 183.363 90.6094C183.758 89.9635 183.956 89.2187 183.956 88.375C183.956 87.5417 183.758 86.8125 183.363 86.1875C182.967 85.5521 182.425 85.0573 181.738 84.7031C181.05 84.3385 180.248 84.1562 179.331 84.1562C178.425 84.1562 177.623 84.3385 176.925 84.7031C176.227 85.0573 175.68 85.5521 175.284 86.1875C174.899 86.8125 174.706 87.5417 174.706 88.375C174.706 89.2187 174.904 89.9635 175.3 90.6094C175.696 91.2552 176.243 91.7604 176.941 92.125C177.639 92.4896 178.435 92.6719 179.331 92.6719ZM208.062 112.203C205.375 112.193 203.062 111.531 201.125 110.219C199.198 108.906 197.714 107.005 196.672 104.516C195.641 102.026 195.13 99.0312 195.141 95.5312C195.141 92.0417 195.656 89.0677 196.687 86.6094C197.729 84.151 199.214 82.2812 201.141 81C203.078 79.7083 205.385 79.0625 208.062 79.0625C210.74 79.0625 213.042 79.7083 214.969 81C216.906 82.2917 218.396 84.1667 219.437 86.625C220.479 89.0729 220.995 92.0417 220.984 95.5312C220.984 99.0417 220.464 102.042 219.422 104.531C218.391 107.021 216.911 108.922 214.984 110.234C213.057 111.547 210.75 112.203 208.062 112.203ZM208.062 106.594C209.896 106.594 211.359 105.672 212.453 103.828C213.547 101.984 214.089 99.2187 214.078 95.5312C214.078 93.1042 213.828 91.0833 213.328 89.4687C212.839 87.8542 212.141 86.6406 211.234 85.8281C210.339 85.0156 209.281 84.6094 208.062 84.6094C206.24 84.6094 204.781 85.5208 203.687 87.3437C202.594 89.1667 202.042 91.8958 202.031 95.5312C202.031 97.9896 202.276 100.042 202.766 101.687C203.266 103.323 203.969 104.552 204.875 105.375C205.781 106.187 206.844 106.594 208.062 106.594ZM246.711 93.284V82.196H257.711V93.284H246.711ZM231.135 82.196H241.519V93.284H231.135V82.196ZM262.991 77.004H225.855V115.284H231.135V98.476H257.711V109.124C257.711 109.872 257.403 110.136 256.567 110.18C255.687 110.18 252.827 110.224 250.319 110.048C251.067 111.412 251.947 113.832 252.211 115.284C256.127 115.284 258.767 115.196 260.527 114.316C262.375 113.48 262.991 112.028 262.991 109.168V77.004ZM285.299 96.672C288.291 99.928 291.503 101.512 295.683 101.512C300.391 101.512 304.703 98.872 307.651 93.416L302.811 90.776C301.139 93.9 298.631 96.056 295.815 96.056C292.779 96.056 291.151 94.912 289.259 92.888C286.267 89.632 283.055 88.048 278.875 88.048C274.167 88.048 269.855 90.688 266.907 96.144L271.747 98.784C273.419 95.66 275.927 93.504 278.743 93.504C281.823 93.504 283.407 94.692 285.299 96.672Z" fill="#1EADAC"/>
<path d="M155.88 149.298H147.636V150.396H155.88V149.298ZM145.35 148.488C144.306 151.206 142.56 153.87 140.742 155.58C140.976 155.886 141.372 156.588 141.498 156.876C142.182 156.192 142.848 155.4 143.496 154.5V164.814H144.756V152.574C145.458 151.404 146.088 150.126 146.592 148.866L145.35 148.488ZM155.034 160.278V162.924H148.518V160.278H155.034ZM147.222 164.868H148.518V164.022H155.034V164.814H156.366V159.198H147.222V164.868ZM147.42 157.812H156.168V156.732H147.42V157.812ZM156.204 154.248H147.42V155.346H156.204V154.248ZM145.944 151.764V152.88H157.572V151.764H145.944ZM165.114 149.064H159.624V150.144H165.114V149.064ZM165.78 151.422H158.688V152.52H165.78V151.422ZM163.854 159.738V162.762H160.704V159.738H163.854ZM165.06 158.64H159.516V164.67H160.704V163.842H165.06V158.64ZM159.534 157.308H165.114V156.228H159.534V157.308ZM159.534 154.914H165.114V153.852H159.534V154.914ZM171.252 163.41C170.658 163.41 170.532 163.266 170.532 162.51V157.002L175.23 156.282L174.996 155.022L170.532 155.706V150.882C171.954 150.54 173.304 150.144 174.384 149.694L173.268 148.65C171.576 149.424 168.534 150.144 165.906 150.594C166.068 150.918 166.284 151.422 166.338 151.728C167.256 151.584 168.228 151.404 169.2 151.188V155.922L165.546 156.48L165.744 157.74L169.2 157.2V162.492C169.2 164.22 169.614 164.67 171.072 164.67H173.43C174.816 164.67 175.158 163.788 175.302 161.196C174.924 161.124 174.402 160.872 174.078 160.62C174.006 162.852 173.898 163.41 173.34 163.41H171.252ZM192.42 152.304V151.134H187.254C187.542 150.378 187.776 149.568 187.974 148.758L186.786 148.506C186.318 150.594 185.49 152.592 184.338 153.906C184.644 154.086 185.13 154.446 185.346 154.644C185.868 153.996 186.336 153.204 186.768 152.304H192.42ZM191.988 156.714V155.562H185.94V156.714H191.988ZM178.254 154.986H180.414V156.426H178.254V154.986ZM180.414 150.18V151.512H178.254V150.18H180.414ZM183.06 154.068H178.254V152.448H183.06V154.068ZM184.68 156.426H181.512V154.986H184.176V151.512H181.512V150.18H184.518V149.118H177.03V157.506H184.68V156.426ZM179.676 159.864H182.088V163.176H179.676V159.864ZM185.742 159.864V163.176H183.294V159.864H185.742ZM189.432 159.864V163.176H186.966V159.864H189.432ZM190.746 163.176V158.766H178.416V163.176H176.418V164.364H192.672V163.176H190.746ZM195.714 153.132C195.336 154.122 194.688 155.112 193.95 155.832C194.22 155.958 194.67 156.264 194.904 156.426C195.606 155.688 196.362 154.5 196.794 153.402L195.714 153.132ZM198.972 152.736H202.59V151.71H198.882V150.522H201.96V149.532H198.882V148.434H197.658V151.71H194.184V152.736H197.802V155.49C197.802 155.67 197.748 155.706 197.55 155.724C197.37 155.724 196.794 155.724 196.074 155.706C196.254 155.994 196.398 156.426 196.452 156.75C197.406 156.75 198.036 156.75 198.45 156.57C198.882 156.39 198.972 156.084 198.972 155.526V152.736ZM202.266 155.202C201.978 154.608 201.276 153.726 200.664 153.114L199.71 153.546C200.322 154.194 200.988 155.112 201.276 155.724L202.266 155.202ZM206.1 157.974V159.144H198.09V157.974H206.1ZM198.09 161.178V160.008H206.1V161.178H198.09ZM198.09 163.266V162.06H206.1V163.266H198.09ZM196.794 164.886H198.09V164.292H206.1V164.832H207.432V156.948H196.794V164.886ZM207.936 150.36C207.486 151.458 206.838 152.412 206.028 153.204C205.29 152.376 204.678 151.404 204.282 150.36H207.936ZM208.728 149.226L208.494 149.262H202.518V150.36H203.976L203.184 150.576C203.652 151.854 204.318 152.988 205.146 153.978C204.156 154.734 203.022 155.292 201.852 155.634C202.104 155.868 202.446 156.336 202.572 156.642C203.796 156.228 204.948 155.634 205.974 154.842C207 155.814 208.224 156.57 209.61 157.056C209.79 156.732 210.168 156.228 210.456 155.958C209.106 155.562 207.9 154.914 206.91 154.05C208.08 152.898 209.016 151.422 209.538 149.55L208.728 149.226ZM218.826 148.992C218.7 151.368 218.7 159.954 211.41 163.68C211.824 163.95 212.256 164.382 212.49 164.706C217.044 162.24 218.898 157.902 219.69 154.302C220.554 157.902 222.534 162.51 227.178 164.706C227.376 164.346 227.79 163.896 228.168 163.608C221.4 160.512 220.428 152.196 220.266 149.82C220.284 149.514 220.284 149.226 220.302 148.992H218.826ZM241.308 155.238V154.59H243.288C244.08 154.59 244.746 154.626 244.944 154.644V153.132C244.692 153.168 244.08 153.222 243.288 153.222H241.308V150.972C241.308 150.27 241.38 149.676 241.398 149.496H239.778C239.814 149.676 239.868 150.27 239.868 150.972V153.222H234.738V150.918C234.738 150.288 234.81 149.784 234.828 149.604H233.226C233.28 150.018 233.298 150.54 233.298 150.918V153.222H231.354C230.598 153.222 229.716 153.132 229.554 153.096V154.662C229.77 154.644 230.58 154.59 231.354 154.59H233.298V157.506C233.298 158.19 233.244 158.964 233.226 159.144H234.81C234.792 158.964 234.738 158.172 234.738 157.506V154.59H239.868V155.346C239.868 160.386 238.23 161.934 234.954 163.194L236.16 164.328C240.282 162.492 241.308 160.026 241.308 155.238ZM247.788 155.706V157.47C248.346 157.416 249.3 157.38 250.29 157.38H260.172C260.982 157.38 261.738 157.452 262.098 157.47V155.706C261.702 155.742 261.054 155.796 260.154 155.796H250.29C249.282 155.796 248.328 155.742 247.788 155.706ZM276.66 149.388L275.706 149.802C276.192 150.486 276.804 151.566 277.164 152.304L278.136 151.854C277.758 151.134 277.11 150.036 276.66 149.388ZM278.64 148.668L277.686 149.082C278.19 149.766 278.784 150.774 279.18 151.566L280.152 151.116C279.81 150.45 279.108 149.334 278.64 148.668ZM268.578 150H266.904C266.976 150.414 267.012 151.026 267.012 151.458V161.358C267.012 162.816 267.786 163.446 269.172 163.698C269.91 163.824 270.99 163.878 272.052 163.878C274.014 163.878 276.714 163.734 278.28 163.5V161.862C276.786 162.258 274.032 162.438 272.124 162.438C271.242 162.438 270.306 162.384 269.748 162.294C268.866 162.114 268.488 161.88 268.488 160.962V157.002C270.72 156.426 273.834 155.472 275.85 154.662C276.39 154.464 277.038 154.176 277.542 153.96L276.912 152.52C276.408 152.826 275.868 153.096 275.328 153.33C273.456 154.14 270.612 155.004 268.488 155.526V151.458C268.488 150.954 268.524 150.414 268.578 150ZM295.56 151.458L294.642 150.756C294.354 150.846 293.886 150.9 293.292 150.9H286.344C285.804 150.9 284.778 150.828 284.526 150.792V152.43C284.724 152.412 285.714 152.34 286.344 152.34H293.364C292.914 153.834 291.6 155.958 290.376 157.344C288.522 159.414 285.858 161.556 282.96 162.69L284.112 163.896C286.776 162.69 289.206 160.71 291.132 158.64C292.968 160.278 294.876 162.402 296.082 163.986L297.342 162.906C296.172 161.484 293.976 159.144 292.086 157.524C293.364 155.904 294.498 153.798 295.11 152.25C295.218 151.998 295.452 151.602 295.56 151.458ZM305.532 150.648L300.744 163.5H298.926L303.714 150.648H305.532ZM147.31 188.538C148.336 189.258 149.542 190.338 150.1 191.076L151.162 190.266C150.55 189.528 149.344 188.502 148.3 187.818L147.31 188.538ZM147.598 182.634H151.882V184.092H147.598V182.634ZM147.598 180.222H151.882V181.68H147.598V180.222ZM157.588 180.222V181.68H153.178V180.222H157.588ZM157.588 184.092H153.178V182.634H157.588V184.092ZM160.612 186.468H156.544V185.1H158.902V179.25H153.178V178.026H160.198V176.874H153.178V175.47H151.882V176.874H145.024V178.026H151.882V179.25H146.338V185.1H155.248V186.468H144.574V187.62H155.248V190.428C155.248 190.68 155.14 190.752 154.834 190.77C154.546 190.788 153.43 190.788 152.242 190.752C152.422 191.094 152.62 191.58 152.692 191.922C154.222 191.922 155.194 191.922 155.788 191.724C156.382 191.544 156.544 191.202 156.544 190.464V187.62H160.612V186.468ZM168.028 177.414V178.98H164.212V177.414H168.028ZM164.212 181.734V180.006H168.028V181.734H164.212ZM169.288 176.28H162.898V191.868H164.212V182.85H169.288V176.28ZM172.24 181.752V180.006H176.236V181.752H172.24ZM176.236 177.414V178.98H172.24V177.414H176.236ZM177.586 176.28H170.962V182.868H176.236V190.032C176.236 190.392 176.11 190.482 175.786 190.5C175.408 190.518 174.184 190.536 172.96 190.464C173.158 190.842 173.374 191.472 173.446 191.85C175.066 191.85 176.128 191.814 176.758 191.598C177.352 191.382 177.586 190.95 177.586 190.032V176.28ZM181.726 178.278H193.912V180.582H195.28V177.036H188.44V175.452H187.108V177.036H180.412V180.582H181.726V178.278ZM194.02 181.842C193.174 182.598 191.878 183.534 190.762 184.236C190.294 183.3 189.898 182.292 189.61 181.23H192.778V180.078H182.716V181.23H186.55C184.858 182.328 182.482 183.192 180.304 183.732C180.52 183.966 180.898 184.524 181.042 184.776C182.482 184.344 184.048 183.768 185.452 183.066C185.758 183.336 186.028 183.606 186.28 183.876C184.894 184.938 182.356 186.108 180.43 186.648C180.682 186.918 180.988 187.386 181.15 187.692C182.986 187.026 185.38 185.802 186.892 184.686C187.144 185.064 187.36 185.442 187.522 185.838C185.758 187.494 182.5 189.186 179.8 189.924C180.052 190.212 180.34 190.716 180.502 191.04C182.986 190.212 185.956 188.628 187.918 187.008C188.278 188.538 187.972 189.852 187.324 190.338C186.964 190.644 186.568 190.68 186.082 190.68C185.686 190.68 185.074 190.662 184.408 190.59C184.642 190.95 184.75 191.508 184.786 191.868C185.362 191.904 185.92 191.922 186.352 191.904C187.162 191.904 187.666 191.778 188.26 191.31C190.024 190.086 189.988 185.46 186.55 182.49C187.216 182.112 187.846 181.68 188.386 181.23H188.422C189.538 185.496 191.626 188.916 195.028 190.464C195.244 190.104 195.64 189.582 195.946 189.312C194.002 188.556 192.472 187.116 191.32 185.262C192.526 184.56 193.966 183.624 195.046 182.724L194.02 181.842ZM201.562 180.546H204.136V179.286H201.562V175.434H200.302V179.286H197.386V180.546H200.14C199.51 183.03 198.232 185.82 196.99 187.314C197.206 187.638 197.548 188.16 197.692 188.538C198.664 187.314 199.6 185.316 200.302 183.246V191.85H201.562V183.66C202.246 184.542 203.056 185.676 203.398 186.27L204.226 185.172C203.848 184.686 202.192 182.778 201.562 182.13V180.546ZM206.206 189.42V186.306H211.66V189.42H206.206ZM211.66 177.756V180.762H206.206V177.756H211.66ZM206.206 181.986H211.66V185.082H206.206V181.986ZM204.928 176.496V191.742H206.206V190.662H211.66V191.688H212.974V176.496H204.928ZM229.552 176.55C229.21 177.432 228.544 178.674 228.022 179.448L229.012 179.862C229.57 179.142 230.236 178.008 230.812 177L229.552 176.55ZM223.162 176.658C222.982 177.792 222.496 178.98 221.74 179.592L222.766 180.096C223.612 179.358 224.098 178.062 224.278 176.874L223.162 176.658ZM231.172 182.418C230.146 181.554 228.184 180.276 226.6 179.322C226.906 178.242 227.032 176.964 227.104 175.452H225.808C225.628 179.268 225.124 181.392 221.434 182.526C221.704 182.778 222.046 183.246 222.19 183.57C224.278 182.868 225.466 181.86 226.168 180.456C227.68 181.41 229.39 182.616 230.29 183.426L231.172 182.418ZM229.066 187.764C229.678 186.972 230.416 185.73 231.028 184.65L229.732 184.2C229.354 185.136 228.634 186.504 228.058 187.332L229.066 187.764ZM222.37 188.088C223.342 187.296 223.918 185.928 224.17 184.578L222.982 184.326C222.73 185.586 222.172 186.828 221.308 187.458L222.37 188.088ZM220.768 176.064H215.656V177.144H220.768V176.064ZM221.416 178.422H214.756V179.52H221.416V178.422ZM220.804 180.852H215.584V181.914H220.804V180.852ZM215.584 184.308H220.804V183.228H215.584V184.308ZM219.67 186.738V189.762H216.736V186.738H219.67ZM220.822 185.64H215.566V191.67H216.736V190.842H220.822V185.64ZM227.014 182.868H225.682V185.442C225.682 186.468 225.052 189.366 220.876 190.806C221.146 191.076 221.506 191.598 221.668 191.886C224.818 190.734 226.078 188.484 226.348 187.386C226.618 188.466 227.824 190.788 230.56 191.886C230.74 191.58 231.118 191.058 231.37 190.752C227.644 189.366 227.014 186.432 227.014 185.442V182.868ZM244.564 182.238V181.59H246.544C247.336 181.59 248.002 181.626 248.2 181.644V180.132C247.948 180.168 247.336 180.222 246.544 180.222H244.564V177.972C244.564 177.27 244.636 176.676 244.654 176.496H243.034C243.07 176.676 243.124 177.27 243.124 177.972V180.222H237.994V177.918C237.994 177.288 238.066 176.784 238.084 176.604H236.482C236.536 177.018 236.554 177.54 236.554 177.918V180.222H234.61C233.854 180.222 232.972 180.132 232.81 180.096V181.662C233.026 181.644 233.836 181.59 234.61 181.59H236.554V184.506C236.554 185.19 236.5 185.964 236.482 186.144H238.066C238.048 185.964 237.994 185.172 237.994 184.506V181.59H243.124V182.346C243.124 187.386 241.486 188.934 238.21 190.194L239.416 191.328C243.538 189.492 244.564 187.026 244.564 182.238ZM251.044 182.706V184.47C251.602 184.416 252.556 184.38 253.546 184.38H263.428C264.238 184.38 264.994 184.452 265.354 184.47V182.706C264.958 182.742 264.31 182.796 263.41 182.796H253.546C252.538 182.796 251.584 182.742 251.044 182.706ZM279.916 176.388L278.962 176.802C279.448 177.486 280.06 178.566 280.42 179.304L281.392 178.854C281.014 178.134 280.366 177.036 279.916 176.388ZM281.896 175.668L280.942 176.082C281.446 176.766 282.04 177.774 282.436 178.566L283.408 178.116C283.066 177.45 282.364 176.334 281.896 175.668ZM271.834 177H270.16C270.232 177.414 270.268 178.026 270.268 178.458V188.358C270.268 189.816 271.042 190.446 272.428 190.698C273.166 190.824 274.246 190.878 275.308 190.878C277.27 190.878 279.97 190.734 281.536 190.5V188.862C280.042 189.258 277.288 189.438 275.38 189.438C274.498 189.438 273.562 189.384 273.004 189.294C272.122 189.114 271.744 188.88 271.744 187.962V184.002C273.976 183.426 277.09 182.472 279.106 181.662C279.646 181.464 280.294 181.176 280.798 180.96L280.168 179.52C279.664 179.826 279.124 180.096 278.584 180.33C276.712 181.14 273.868 182.004 271.744 182.526V178.458C271.744 177.954 271.78 177.414 271.834 177ZM298.816 178.458L297.898 177.756C297.61 177.846 297.142 177.9 296.548 177.9H289.6C289.06 177.9 288.034 177.828 287.782 177.792V179.43C287.98 179.412 288.97 179.34 289.6 179.34H296.62C296.17 180.834 294.856 182.958 293.632 184.344C291.778 186.414 289.114 188.556 286.216 189.69L287.368 190.896C290.032 189.69 292.462 187.71 294.388 185.64C296.224 187.278 298.132 189.402 299.338 190.986L300.598 189.906C299.428 188.484 297.232 186.144 295.342 184.524C296.62 182.904 297.754 180.798 298.366 179.25C298.474 178.998 298.708 178.602 298.816 178.458Z" fill="#1EADAC"/>
</svg>
