<svg width="446" height="235" viewBox="0 0 446 235" fill="none" xmlns="http://www.w3.org/2000/svg">
<rect width="446" height="235" rx="6" fill="white"/>
<path d="M187.092 58.428C186.828 58.14 186.18 57.516 185.46 56.82C186.108 56.148 186.852 55.284 187.692 54.468L185.868 52.956C185.46 53.724 184.764 54.804 184.14 55.62C183.9 55.404 183.684 55.212 183.492 55.044C184.692 53.268 185.724 51.324 186.444 49.356L184.836 48.3L184.38 48.42H183.348V44.196H180.54V48.42H177.444V50.988H182.916C181.452 53.844 179.1 56.652 176.772 58.284C177.228 58.788 177.972 60.18 178.236 60.876C179.004 60.276 179.772 59.58 180.54 58.764V66.588H183.348V57.972C184.14 58.884 184.932 59.892 185.388 60.588L187.092 58.428ZM186.228 46.02V48.708H189.684C189.564 54.828 189.204 60.9 184.284 64.356C185.028 64.908 185.916 65.844 186.396 66.612C191.748 62.556 192.396 55.644 192.588 48.708H196.068C195.9 58.524 195.636 62.388 194.964 63.18C194.7 63.54 194.46 63.636 194.076 63.636C193.5 63.636 192.372 63.636 191.124 63.54C191.628 64.38 191.964 65.652 192.012 66.492C193.308 66.516 194.628 66.54 195.492 66.372C196.404 66.204 197.004 65.892 197.628 64.932C198.564 63.636 198.78 59.46 198.996 47.46C199.02 47.076 199.02 46.02 199.02 46.02H186.228ZM205.284 56.772H208.26V58.404H205.284V56.772ZM208.26 49.5V50.892H205.284V49.5H208.26ZM205.284 53.076H208.26V54.588H205.284V53.076ZM212.34 58.404H210.876V49.5H212.508V47.004H210.876V44.46H208.26V47.004H205.284V44.46H202.716V47.004H200.844V49.5H202.716V58.404H200.556V60.9H212.34V58.404ZM203.532 61.068C202.86 62.508 201.612 64.02 200.364 64.956C201.012 65.34 202.116 66.156 202.644 66.66C203.94 65.484 205.356 63.612 206.196 61.86L203.532 61.068ZM215.964 56.1C215.988 55.356 215.988 54.66 215.988 54.036V53.148H219.444V56.1H215.964ZM219.444 47.82V50.628H215.988V47.82H219.444ZM222.204 45.228H213.324V54.036C213.324 57.156 213.204 61.212 211.812 64.212C211.212 63.228 210.084 61.908 209.22 60.948L207.06 62.124C207.996 63.228 209.148 64.812 209.628 65.748L211.62 64.62C211.548 64.764 211.452 64.884 211.38 65.028C212.004 65.268 213.18 66.132 213.636 66.636C214.932 64.476 215.532 61.476 215.796 58.644H219.444V63.372C219.444 63.756 219.324 63.876 218.964 63.876C218.628 63.876 217.476 63.9 216.444 63.828C216.804 64.548 217.164 65.796 217.26 66.54C219.036 66.564 220.26 66.492 221.1 66.036C221.94 65.58 222.204 64.836 222.204 63.42V45.228ZM230.196 60.324H240.516V61.308H230.196V60.324ZM236.532 52.14V53.724H232.164C232.692 53.244 233.076 52.716 233.34 52.14H236.532ZM228.804 49.524H231.252C231.252 49.86 231.204 50.172 231.108 50.46H228.492L228.804 49.524ZM233.868 46.908H236.532V47.868H233.868V46.908ZM241.74 46.908V47.868H239.244V46.908H241.74ZM236.532 50.46H233.796C233.82 50.148 233.844 49.836 233.868 49.524H236.532V50.46ZM243.084 52.14C243.036 52.5 242.964 52.716 242.868 52.836C242.724 53.004 242.58 53.004 242.364 53.004C242.1 53.028 241.596 53.004 241.044 52.932C241.14 53.148 241.26 53.436 241.332 53.724H239.244V52.14H243.084ZM240.516 56.292H230.196V55.356H240.516V56.292ZM240.516 58.788H230.196V57.828H240.516V58.788ZM243.42 62.94V54.66C243.564 54.66 243.684 54.636 243.78 54.636C244.284 54.612 244.812 54.42 245.172 54.06C245.58 53.628 245.724 52.764 245.844 51.204C245.868 50.94 245.892 50.46 245.892 50.46H239.244V49.524H244.332V45.228H239.244V44.196H236.532V45.228H233.868V44.196H231.276V45.228H225.828V46.908H231.276V47.868H226.716C226.308 49.284 225.732 51.012 225.204 52.188L227.796 52.356L227.868 52.14H229.98C228.996 52.932 227.268 53.532 224.292 53.916C224.724 54.444 225.396 55.524 225.636 56.124C226.284 56.028 226.86 55.932 227.412 55.812V62.94H230.676C228.996 63.636 226.548 64.236 224.316 64.62C224.916 65.1 225.924 66.108 226.38 66.66C228.828 66.06 231.876 64.98 233.868 63.804L231.972 62.94H238.38L236.556 64.068C239.052 64.884 241.548 65.892 242.964 66.612L246.132 65.244C244.62 64.596 242.1 63.684 239.796 62.94H243.42ZM260.388 56.892V53.94H265.452V56.892H260.388ZM252.924 56.892C252.972 56.004 252.996 55.14 252.996 54.372V53.94H257.508V56.892H252.924ZM257.508 48.492V51.276H252.996V48.492H257.508ZM265.452 51.276H260.388V48.492H265.452V51.276ZM268.284 45.78H250.164V54.348C250.164 57.708 249.948 61.98 247.332 64.86C247.98 65.196 249.132 66.18 249.588 66.708C251.316 64.836 252.18 62.196 252.612 59.58H257.508V66.276H260.388V59.58H265.452V63.18C265.452 63.612 265.284 63.756 264.828 63.756C264.396 63.756 262.812 63.78 261.468 63.708C261.828 64.452 262.284 65.676 262.38 66.444C264.54 66.468 266.004 66.42 266.988 65.94C267.948 65.508 268.284 64.74 268.284 63.204V45.78Z" fill="#1EADAC"/>
<path d="M183.727 124.94C183.727 127.28 184.675 129.188 186.115 130.652L186.835 130.28C185.455 128.852 184.603 127.076 184.603 124.94C184.603 122.804 185.455 121.028 186.835 119.6L186.115 119.228C184.675 120.692 183.727 122.6 183.727 124.94ZM197.191 119.456C196.951 120.08 196.483 120.968 196.111 121.532L196.855 121.832C197.239 121.304 197.695 120.5 198.091 119.768L197.191 119.456ZM194.587 121.484C194.419 120.944 193.951 120.104 193.519 119.48L192.775 119.792C193.207 120.44 193.639 121.304 193.807 121.856L194.587 121.484ZM192.331 126.032C192.091 125.756 191.071 124.7 190.699 124.388V123.656H192.199V122.816H190.699V120.788C191.263 120.656 191.791 120.488 192.223 120.308L191.599 119.636C190.723 120.032 189.151 120.38 187.807 120.596C187.915 120.8 188.035 121.088 188.083 121.292C188.635 121.208 189.247 121.112 189.835 120.992V122.816H187.879V123.656H189.715C189.235 125.024 188.407 126.572 187.651 127.412C187.795 127.628 188.011 127.976 188.095 128.228C188.707 127.496 189.343 126.296 189.835 125.084V130.388H190.699V125.252C191.107 125.744 191.599 126.404 191.791 126.74L192.331 126.032ZM193.495 122.648H197.251V124.988H193.495V122.648ZM196.915 129.464C196.651 129.464 196.615 129.416 196.615 129.116V125.78H198.139V121.868H192.643V125.78H193.867C193.675 127.484 193.195 128.984 191.323 129.74C191.515 129.908 191.767 130.232 191.863 130.424C193.939 129.512 194.527 127.796 194.743 125.78H195.763V129.116C195.763 130.004 195.955 130.268 196.783 130.268H197.803C198.511 130.268 198.739 129.86 198.823 128.324C198.583 128.264 198.223 128.12 198.043 127.964C198.019 129.272 197.959 129.464 197.707 129.464H196.915ZM203.995 120.068V120.908H206.179C206.239 121.436 206.299 121.94 206.383 122.432L205.999 122.372C205.519 124.82 204.511 126.692 202.759 127.808C202.963 127.952 203.311 128.3 203.455 128.468C204.991 127.388 206.011 125.756 206.635 123.608C207.175 125.792 208.147 127.484 209.827 128.468C210.007 128.252 210.319 127.94 210.535 127.796C208.135 126.56 207.199 123.728 206.911 120.068H203.995ZM202.627 121.604C202.207 121.028 201.307 120.26 200.539 119.756L199.879 120.296C200.659 120.824 201.547 121.616 201.919 122.192L202.627 121.604ZM202.291 124.16H199.747V125H201.415V128.036C200.815 128.54 200.143 129.044 199.591 129.404L200.071 130.304C200.707 129.788 201.307 129.272 201.883 128.768C202.651 129.692 203.719 130.124 205.279 130.184C206.599 130.232 209.059 130.208 210.367 130.16C210.403 129.884 210.559 129.464 210.655 129.248C209.251 129.344 206.587 129.38 205.279 129.332C203.899 129.272 202.855 128.864 202.291 127.988V124.16ZM214.291 124.244C215.163 124.244 215.859 124.464 216.379 124.904C216.907 125.344 217.171 125.964 217.171 126.764C217.171 127.652 216.887 128.352 216.319 128.864C215.759 129.368 214.975 129.62 213.967 129.62C213.519 129.62 213.103 129.58 212.719 129.5C212.335 129.42 212.011 129.304 211.747 129.152V128.156C212.035 128.332 212.383 128.472 212.791 128.576C213.207 128.672 213.603 128.72 213.979 128.72C214.611 128.72 215.119 128.572 215.503 128.276C215.895 127.972 216.091 127.504 216.091 126.872C216.091 126.312 215.919 125.884 215.575 125.588C215.231 125.284 214.687 125.132 213.943 125.132C213.719 125.132 213.463 125.152 213.175 125.192C212.887 125.232 212.655 125.272 212.479 125.312L211.951 124.976L212.275 120.932H216.571V121.892H213.175L212.971 124.376C213.107 124.352 213.291 124.324 213.523 124.292C213.755 124.26 214.011 124.244 214.291 124.244ZM221.026 124.244C221.898 124.244 222.594 124.464 223.114 124.904C223.642 125.344 223.906 125.964 223.906 126.764C223.906 127.652 223.622 128.352 223.054 128.864C222.494 129.368 221.71 129.62 220.702 129.62C220.254 129.62 219.838 129.58 219.454 129.5C219.07 129.42 218.746 129.304 218.482 129.152V128.156C218.77 128.332 219.118 128.472 219.526 128.576C219.942 128.672 220.338 128.72 220.714 128.72C221.346 128.72 221.854 128.572 222.238 128.276C222.63 127.972 222.826 127.504 222.826 126.872C222.826 126.312 222.654 125.884 222.31 125.588C221.966 125.284 221.422 125.132 220.678 125.132C220.454 125.132 220.198 125.152 219.91 125.192C219.622 125.232 219.39 125.272 219.214 125.312L218.686 124.976L219.01 120.932H223.306V121.892H219.91L219.706 124.376C219.842 124.352 220.026 124.324 220.258 124.292C220.49 124.26 220.746 124.244 221.026 124.244ZM226.681 128.108L226.765 128.24C226.653 128.664 226.501 129.128 226.309 129.632C226.117 130.144 225.925 130.616 225.733 131.048H224.953C225.065 130.592 225.177 130.092 225.289 129.548C225.409 129.004 225.497 128.524 225.553 128.108H226.681ZM233.816 125.204C233.816 126.132 233.72 126.924 233.528 127.58C233.336 128.236 233.028 128.74 232.604 129.092C232.188 129.444 231.64 129.62 230.96 129.62C229.992 129.62 229.276 129.232 228.812 128.456C228.356 127.672 228.128 126.588 228.128 125.204C228.128 124.276 228.22 123.484 228.404 122.828C228.596 122.172 228.9 121.672 229.316 121.328C229.732 120.976 230.28 120.8 230.96 120.8C231.92 120.8 232.636 121.188 233.108 121.964C233.58 122.732 233.816 123.812 233.816 125.204ZM229.184 125.204C229.184 126.38 229.316 127.26 229.58 127.844C229.852 128.428 230.312 128.72 230.96 128.72C231.6 128.72 232.056 128.432 232.328 127.856C232.608 127.272 232.748 126.388 232.748 125.204C232.748 124.036 232.608 123.16 232.328 122.576C232.056 121.992 231.6 121.7 230.96 121.7C230.312 121.7 229.852 121.992 229.58 122.576C229.316 123.16 229.184 124.036 229.184 125.204ZM240.551 125.204C240.551 126.132 240.455 126.924 240.263 127.58C240.071 128.236 239.763 128.74 239.339 129.092C238.923 129.444 238.375 129.62 237.695 129.62C236.727 129.62 236.011 129.232 235.547 128.456C235.091 127.672 234.863 126.588 234.863 125.204C234.863 124.276 234.955 123.484 235.139 122.828C235.331 122.172 235.635 121.672 236.051 121.328C236.467 120.976 237.015 120.8 237.695 120.8C238.655 120.8 239.371 121.188 239.843 121.964C240.315 122.732 240.551 123.812 240.551 125.204ZM235.919 125.204C235.919 126.38 236.051 127.26 236.315 127.844C236.587 128.428 237.047 128.72 237.695 128.72C238.335 128.72 238.791 128.432 239.063 127.856C239.343 127.272 239.483 126.388 239.483 125.204C239.483 124.036 239.343 123.16 239.063 122.576C238.791 121.992 238.335 121.7 237.695 121.7C237.047 121.7 236.587 121.992 236.315 122.576C236.051 123.16 235.919 124.036 235.919 125.204ZM247.286 125.204C247.286 126.132 247.19 126.924 246.998 127.58C246.806 128.236 246.498 128.74 246.074 129.092C245.658 129.444 245.11 129.62 244.43 129.62C243.462 129.62 242.746 129.232 242.282 128.456C241.826 127.672 241.598 126.588 241.598 125.204C241.598 124.276 241.69 123.484 241.874 122.828C242.066 122.172 242.37 121.672 242.786 121.328C243.202 120.976 243.75 120.8 244.43 120.8C245.39 120.8 246.106 121.188 246.578 121.964C247.05 122.732 247.286 123.812 247.286 125.204ZM242.654 125.204C242.654 126.38 242.786 127.26 243.05 127.844C243.322 128.428 243.782 128.72 244.43 128.72C245.07 128.72 245.526 128.432 245.798 127.856C246.078 127.272 246.218 126.388 246.218 125.204C246.218 124.036 246.078 123.16 245.798 122.576C245.526 121.992 245.07 121.7 244.43 121.7C243.782 121.7 243.322 121.992 243.05 122.576C242.786 123.16 242.654 124.036 242.654 125.204ZM254.153 124.664V121.148H257.801V124.664H254.153ZM249.761 121.148H253.277V124.664H249.761V121.148ZM258.701 120.284H248.873V130.424H249.761V125.552H257.801V129.224C257.801 129.452 257.717 129.524 257.501 129.524C257.273 129.536 256.493 129.548 255.677 129.512C255.809 129.752 255.965 130.16 256.013 130.4C257.081 130.4 257.753 130.388 258.149 130.244C258.557 130.088 258.701 129.8 258.701 129.224V120.284ZM263.273 124.94C263.273 122.6 262.325 120.692 260.885 119.228L260.165 119.6C261.545 121.028 262.397 122.804 262.397 124.94C262.397 127.076 261.545 128.852 260.165 130.28L260.885 130.652C262.325 129.188 263.273 127.28 263.273 124.94Z" fill="#1EADAC"/>
<path d="M158.554 111.937C156.345 111.937 154.376 111.531 152.647 110.719C150.929 109.906 149.564 108.786 148.554 107.359C147.543 105.932 147.017 104.297 146.975 102.453H153.538C153.611 103.693 154.132 104.698 155.1 105.469C156.069 106.24 157.22 106.625 158.554 106.625C159.616 106.625 160.554 106.391 161.366 105.922C162.189 105.443 162.83 104.781 163.288 103.938C163.757 103.083 163.991 102.104 163.991 101C163.991 99.875 163.751 98.8854 163.272 98.0312C162.804 97.1771 162.153 96.5104 161.319 96.0312C160.486 95.5521 159.533 95.3073 158.46 95.2969C157.522 95.2969 156.611 95.4896 155.725 95.875C154.85 96.2604 154.168 96.7865 153.679 97.4531L147.663 96.375L149.179 79.5H168.741V85.0312H154.757L153.929 93.0469H154.116C154.679 92.2552 155.528 91.599 156.663 91.0781C157.798 90.5573 159.069 90.2969 160.475 90.2969C162.403 90.2969 164.121 90.75 165.632 91.6562C167.142 92.5625 168.335 93.8073 169.21 95.3906C170.085 96.9635 170.517 98.776 170.507 100.828C170.517 102.984 170.017 104.901 169.007 106.578C168.007 108.245 166.606 109.557 164.804 110.516C163.012 111.464 160.929 111.937 158.554 111.937ZM213.024 82.372V77.224H174.348V82.372H184.6C184.292 92.976 183.94 104.68 172.632 111.016C173.996 112.028 175.624 113.832 176.416 115.24C184.6 110.312 187.768 102.7 189.132 94.56H203.784C203.3 103.976 202.596 108.288 201.452 109.388C200.88 109.872 200.308 109.96 199.384 109.96C198.064 109.96 195.072 109.96 192.036 109.696C193.004 111.148 193.752 113.348 193.884 114.844C196.788 114.976 199.824 115.02 201.54 114.8C203.52 114.58 204.928 114.14 206.248 112.6C207.964 110.664 208.712 105.34 209.372 91.832C209.46 91.172 209.504 89.5 209.504 89.5H189.748C189.968 87.124 190.056 84.704 190.144 82.372H213.024ZM239.16 93.284V82.196H250.16V93.284H239.16ZM223.584 82.196H233.968V93.284H223.584V82.196ZM255.44 77.004H218.304V115.284H223.584V98.476H250.16V109.124C250.16 109.872 249.852 110.136 249.016 110.18C248.136 110.18 245.276 110.224 242.768 110.048C243.516 111.412 244.396 113.832 244.66 115.284C248.576 115.284 251.216 115.196 252.976 114.316C254.824 113.48 255.44 112.028 255.44 109.168V77.004ZM277.748 96.672C280.74 99.928 283.952 101.512 288.132 101.512C292.84 101.512 297.152 98.872 300.1 93.416L295.26 90.776C293.588 93.9 291.08 96.056 288.264 96.056C285.228 96.056 283.6 94.912 281.708 92.888C278.716 89.632 275.504 88.048 271.324 88.048C266.616 88.048 262.304 90.688 259.356 96.144L264.196 98.784C265.868 95.66 268.376 93.504 271.192 93.504C274.272 93.504 275.856 94.692 277.748 96.672Z" fill="#1EADAC"/>
<path d="M172.924 151.278H185.11V153.582H186.478V150.036H179.638V148.452H178.306V150.036H171.61V153.582H172.924V151.278ZM185.218 154.842C184.372 155.598 183.076 156.534 181.96 157.236C181.492 156.3 181.096 155.292 180.808 154.23H183.976V153.078H173.914V154.23H177.748C176.056 155.328 173.68 156.192 171.502 156.732C171.718 156.966 172.096 157.524 172.24 157.776C173.68 157.344 175.246 156.768 176.65 156.066C176.956 156.336 177.226 156.606 177.478 156.876C176.092 157.938 173.554 159.108 171.628 159.648C171.88 159.918 172.186 160.386 172.348 160.692C174.184 160.026 176.578 158.802 178.09 157.686C178.342 158.064 178.558 158.442 178.72 158.838C176.956 160.494 173.698 162.186 170.998 162.924C171.25 163.212 171.538 163.716 171.7 164.04C174.184 163.212 177.154 161.628 179.116 160.008C179.476 161.538 179.17 162.852 178.522 163.338C178.162 163.644 177.766 163.68 177.28 163.68C176.884 163.68 176.272 163.662 175.606 163.59C175.84 163.95 175.948 164.508 175.984 164.868C176.56 164.904 177.118 164.922 177.55 164.904C178.36 164.904 178.864 164.778 179.458 164.31C181.222 163.086 181.186 158.46 177.748 155.49C178.414 155.112 179.044 154.68 179.584 154.23H179.62C180.736 158.496 182.824 161.916 186.226 163.464C186.442 163.104 186.838 162.582 187.144 162.312C185.2 161.556 183.67 160.116 182.518 158.262C183.724 157.56 185.164 156.624 186.244 155.724L185.218 154.842ZM204.64 152.016V150.792H198.214C198.502 150.126 198.754 149.406 198.97 148.704L197.746 148.416C197.17 150.45 196.18 152.412 194.974 153.69C195.28 153.87 195.82 154.23 196.054 154.428C196.612 153.762 197.152 152.934 197.638 152.016H204.64ZM191.644 155.202C191.68 154.374 191.698 153.528 191.716 152.682H195.766V151.44H192.976V148.47H191.698V151.44H188.44V152.682H190.456C190.384 157.038 190.15 161.52 188.188 164.004C188.512 164.202 188.944 164.598 189.16 164.886C190.744 162.87 191.32 159.792 191.572 156.426H193.93C193.732 161.268 193.516 163.032 193.174 163.464C193.03 163.662 192.886 163.698 192.616 163.698C192.346 163.698 191.734 163.698 191.05 163.626C191.248 163.95 191.374 164.49 191.41 164.85C192.094 164.886 192.778 164.904 193.192 164.85C193.66 164.796 193.966 164.67 194.272 164.274C194.776 163.626 194.992 161.628 195.208 155.832C195.226 155.634 195.244 155.202 195.244 155.202H191.644ZM204.64 159.414V158.226H200.932C200.95 158.01 200.95 157.812 200.95 157.614V155.58H204.352V154.374H198.718C198.916 153.834 199.096 153.258 199.24 152.7L198.016 152.412C197.62 154.122 196.918 155.814 195.964 156.912C196.252 157.074 196.792 157.416 197.026 157.614C197.458 157.056 197.854 156.354 198.214 155.58H199.672V157.596C199.672 157.794 199.672 158.01 199.654 158.226H195.856V159.414H199.51C199.186 160.962 198.196 162.654 195.334 163.95C195.622 164.184 196.018 164.616 196.18 164.868C198.718 163.626 199.924 162.06 200.482 160.548C201.256 162.474 202.516 164.04 204.208 164.85C204.406 164.544 204.784 164.058 205.072 163.824C203.218 163.068 201.886 161.412 201.22 159.414H204.64ZM220.75 149.298H212.506V150.396H220.75V149.298ZM210.22 148.488C209.176 151.206 207.43 153.87 205.612 155.58C205.846 155.886 206.242 156.588 206.368 156.876C207.052 156.192 207.718 155.4 208.366 154.5V164.814H209.626V152.574C210.328 151.404 210.958 150.126 211.462 148.866L210.22 148.488ZM219.904 160.278V162.924H213.388V160.278H219.904ZM212.092 164.868H213.388V164.022H219.904V164.814H221.236V159.198H212.092V164.868ZM212.29 157.812H221.038V156.732H212.29V157.812ZM221.074 154.248H212.29V155.346H221.074V154.248ZM210.814 151.764V152.88H222.442V151.764H210.814ZM229.984 149.064H224.494V150.144H229.984V149.064ZM230.65 151.422H223.558V152.52H230.65V151.422ZM228.724 159.738V162.762H225.574V159.738H228.724ZM229.93 158.64H224.386V164.67H225.574V163.842H229.93V158.64ZM224.404 157.308H229.984V156.228H224.404V157.308ZM224.404 154.914H229.984V153.852H224.404V154.914ZM236.122 163.41C235.528 163.41 235.402 163.266 235.402 162.51V157.002L240.1 156.282L239.866 155.022L235.402 155.706V150.882C236.824 150.54 238.174 150.144 239.254 149.694L238.138 148.65C236.446 149.424 233.404 150.144 230.776 150.594C230.938 150.918 231.154 151.422 231.208 151.728C232.126 151.584 233.098 151.404 234.07 151.188V155.922L230.416 156.48L230.614 157.74L234.07 157.2V162.492C234.07 164.22 234.484 164.67 235.942 164.67H238.3C239.686 164.67 240.028 163.788 240.172 161.196C239.794 161.124 239.272 160.872 238.948 160.62C238.876 162.852 238.768 163.41 238.21 163.41H236.122ZM242.098 158.64C241.9 160.224 241.522 161.826 240.928 162.924C241.216 163.014 241.756 163.266 241.972 163.428C242.566 162.276 242.998 160.548 243.25 158.856L242.098 158.64ZM246.922 157.326C247.084 157.704 247.192 158.046 247.264 158.352L248.326 157.848C248.074 156.876 247.282 155.346 246.544 154.194L245.554 154.626C245.86 155.112 246.166 155.67 246.436 156.228C245.446 156.264 244.456 156.318 243.556 156.354C244.798 154.806 246.238 152.682 247.282 150.99L246.13 150.486C245.626 151.458 244.942 152.628 244.204 153.762C243.916 153.384 243.538 152.952 243.106 152.52C243.79 151.548 244.546 150.108 245.158 148.902L243.97 148.452C243.592 149.442 242.962 150.792 242.368 151.8C242.188 151.638 242.008 151.476 241.828 151.332L241.144 152.214C241.99 152.97 242.944 153.978 243.502 154.788C243.106 155.382 242.692 155.922 242.296 156.39C241.882 156.408 241.468 156.426 241.108 156.426L241.216 157.632L244.15 157.488V164.904H245.356V157.416L246.922 157.326ZM246.004 158.892C246.49 160.008 246.994 161.448 247.156 162.384L248.218 162.024C248.056 161.088 247.534 159.666 247.012 158.568L246.004 158.892ZM250.468 159.702H255.04V163.14H250.468V159.702ZM255.04 150.666V153.978H250.468V150.666H255.04ZM255.04 158.496H250.468V155.184H255.04V158.496ZM256.354 163.14V149.46H249.172V163.14H247.264V164.364H257.74V163.14H256.354ZM270.07 149.334C271.204 149.946 272.572 150.864 273.256 151.494L274.084 150.576C273.382 149.946 271.978 149.082 270.862 148.524L270.07 149.334ZM272.626 154.194C272.068 156.012 271.294 157.632 270.322 159.054C269.836 157.344 269.512 155.202 269.332 152.808H275.056V151.494H269.242C269.188 150.522 269.17 149.514 269.17 148.47H267.784C267.802 149.496 267.82 150.504 267.892 151.494H260.386V156.516C260.386 158.838 260.224 161.916 258.748 164.112C259.054 164.274 259.63 164.742 259.864 165.012C261.484 162.672 261.754 159.054 261.754 156.534V156.39H265.03C264.958 159.486 264.868 160.62 264.616 160.89C264.508 161.052 264.328 161.088 264.076 161.088C263.77 161.088 262.996 161.07 262.168 160.998C262.384 161.34 262.528 161.844 262.546 162.258C263.428 162.294 264.238 162.294 264.688 162.258C265.192 162.204 265.498 162.078 265.768 161.736C266.146 161.268 266.254 159.756 266.344 155.724V155.148H261.754V152.808H267.964C268.198 155.706 268.63 158.352 269.278 160.386C268.126 161.736 266.74 162.852 265.138 163.716C265.444 163.968 265.912 164.508 266.11 164.778C267.496 163.968 268.738 162.96 269.818 161.79C270.646 163.644 271.726 164.742 273.112 164.742C274.48 164.742 274.966 163.86 275.218 160.8C274.858 160.692 274.372 160.386 274.066 160.08C273.94 162.474 273.724 163.41 273.22 163.41C272.302 163.41 271.474 162.384 270.808 160.62C272.14 158.91 273.202 156.858 273.976 154.536L272.626 154.194ZM165.346 182.238V181.59H167.326C168.118 181.59 168.784 181.626 168.982 181.644V180.132C168.73 180.168 168.118 180.222 167.326 180.222H165.346V177.972C165.346 177.27 165.418 176.676 165.436 176.496H163.816C163.852 176.676 163.906 177.27 163.906 177.972V180.222H158.776V177.918C158.776 177.288 158.848 176.784 158.866 176.604H157.264C157.318 177.018 157.336 177.54 157.336 177.918V180.222H155.392C154.636 180.222 153.754 180.132 153.592 180.096V181.662C153.808 181.644 154.618 181.59 155.392 181.59H157.336V184.506C157.336 185.19 157.282 185.964 157.264 186.144H158.848C158.83 185.964 158.776 185.172 158.776 184.506V181.59H163.906V182.346C163.906 187.386 162.268 188.934 158.992 190.194L160.198 191.328C164.32 189.492 165.346 187.026 165.346 182.238ZM183.58 177.198C183.58 176.568 184.084 176.046 184.714 176.046C185.362 176.046 185.884 176.568 185.884 177.198C185.884 177.846 185.362 178.35 184.714 178.35C184.084 178.35 183.58 177.846 183.58 177.198ZM182.752 177.198C182.752 178.296 183.634 179.16 184.714 179.16C185.812 179.16 186.694 178.296 186.694 177.198C186.694 176.118 185.812 175.218 184.714 175.218C183.634 175.218 182.752 176.118 182.752 177.198ZM179.746 176.622H178.054C178.126 176.892 178.18 177.504 178.18 177.9V179.754H173.176C172.6 179.754 172.15 179.718 171.646 179.664V181.176C172.132 181.14 172.636 181.122 173.176 181.122H178.18V189.24C178.18 189.708 177.964 189.924 177.478 189.924C177.01 189.924 176.182 189.852 175.408 189.708L175.534 191.148C176.254 191.22 177.334 191.274 178.09 191.274C179.17 191.274 179.638 190.788 179.638 189.834V181.122H184.408C184.84 181.122 185.38 181.122 185.866 181.158V179.664C185.416 179.718 184.822 179.754 184.39 179.754H179.638V177.918C179.638 177.522 179.692 176.874 179.746 176.622ZM183.31 183.3L182.086 183.948C183.04 185.082 184.39 187.332 185.092 188.736L186.424 187.998C185.704 186.702 184.264 184.452 183.31 183.3ZM175.786 183.894L174.526 183.282C173.824 184.74 172.276 186.882 171.088 187.998L172.33 188.826C173.338 187.728 175.03 185.442 175.786 183.894ZM189.43 182.706V184.47C189.988 184.416 190.942 184.38 191.932 184.38H201.814C202.624 184.38 203.38 184.452 203.74 184.47V182.706C203.344 182.742 202.696 182.796 201.796 182.796H191.932C190.924 182.796 189.97 182.742 189.43 182.706ZM211.264 188.916C211.264 189.582 211.228 190.464 211.138 191.04H212.884C212.812 190.446 212.776 189.474 212.776 188.916C212.776 188.394 212.776 185.676 212.758 182.976C214.756 183.606 217.87 184.812 219.832 185.874L220.444 184.344C218.554 183.39 215.134 182.094 212.758 181.374C212.758 180.24 212.758 179.196 212.758 178.44C212.758 177.9 212.83 177.126 212.884 176.568H211.12C211.228 177.126 211.264 177.936 211.264 178.44V188.916ZM235.762 182.238V181.59H237.742C238.534 181.59 239.2 181.626 239.398 181.644V180.132C239.146 180.168 238.534 180.222 237.742 180.222H235.762V177.972C235.762 177.27 235.834 176.676 235.852 176.496H234.232C234.268 176.676 234.322 177.27 234.322 177.972V180.222H229.192V177.918C229.192 177.288 229.264 176.784 229.282 176.604H227.68C227.734 177.018 227.752 177.54 227.752 177.918V180.222H225.808C225.052 180.222 224.17 180.132 224.008 180.096V181.662C224.224 181.644 225.034 181.59 225.808 181.59H227.752V184.506C227.752 185.19 227.698 185.964 227.68 186.144H229.264C229.246 185.964 229.192 185.172 229.192 184.506V181.59H234.322V182.346C234.322 187.386 232.684 188.934 229.408 190.194L230.614 191.328C234.736 189.492 235.762 187.026 235.762 182.238ZM242.242 182.706V184.47C242.8 184.416 243.754 184.38 244.744 184.38H254.626C255.436 184.38 256.192 184.452 256.552 184.47V182.706C256.156 182.742 255.508 182.796 254.608 182.796H244.744C243.736 182.796 242.782 182.742 242.242 182.706ZM271.114 176.388L270.16 176.802C270.646 177.486 271.258 178.566 271.618 179.304L272.59 178.854C272.212 178.134 271.564 177.036 271.114 176.388ZM273.094 175.668L272.14 176.082C272.644 176.766 273.238 177.774 273.634 178.566L274.606 178.116C274.264 177.45 273.562 176.334 273.094 175.668ZM263.032 177H261.358C261.43 177.414 261.466 178.026 261.466 178.458V188.358C261.466 189.816 262.24 190.446 263.626 190.698C264.364 190.824 265.444 190.878 266.506 190.878C268.468 190.878 271.168 190.734 272.734 190.5V188.862C271.24 189.258 268.486 189.438 266.578 189.438C265.696 189.438 264.76 189.384 264.202 189.294C263.32 189.114 262.942 188.88 262.942 187.962V184.002C265.174 183.426 268.288 182.472 270.304 181.662C270.844 181.464 271.492 181.176 271.996 180.96L271.366 179.52C270.862 179.826 270.322 180.096 269.782 180.33C267.91 181.14 265.066 182.004 262.942 182.526V178.458C262.942 177.954 262.978 177.414 263.032 177ZM290.014 178.458L289.096 177.756C288.808 177.846 288.34 177.9 287.746 177.9H280.798C280.258 177.9 279.232 177.828 278.98 177.792V179.43C279.178 179.412 280.168 179.34 280.798 179.34H287.818C287.368 180.834 286.054 182.958 284.83 184.344C282.976 186.414 280.312 188.556 277.414 189.69L278.566 190.896C281.23 189.69 283.66 187.71 285.586 185.64C287.422 187.278 289.33 189.402 290.536 190.986L291.796 189.906C290.626 188.484 288.43 186.144 286.54 184.524C287.818 182.904 288.952 180.798 289.564 179.25C289.672 178.998 289.906 178.602 290.014 178.458Z" fill="#1EADAC"/>
</svg>
