<svg width="298" height="251" viewBox="0 0 298 251" fill="none" xmlns="http://www.w3.org/2000/svg">
<ellipse cx="44.2485" cy="110.621" rx="44.2485" ry="42.8939" fill="white"/>
<ellipse cx="251.945" cy="114.233" rx="46.0545" ry="44.7" fill="white"/>
<path d="M27.2526 97.6861V100.15H25.9646V97.6861H27.2526ZM25.9646 104.238V101.606H27.2526V104.238H25.9646ZM28.8066 96.2021H24.4246V106.954H25.9646V105.722H28.8066V96.2021ZM29.6326 104.546C30.2626 105.26 30.9766 106.254 31.2286 106.898L32.6566 106.072C32.3626 105.386 31.6066 104.462 30.9626 103.776L29.6326 104.546ZM37.0386 100.962V99.5061H33.8466V98.2741H36.6466V96.8181H33.8466V95.3481H32.2086V96.8181H29.5206V98.2741H32.2086V99.5061H29.0446V100.962H33.9866V102.166H29.0726V103.608H33.9866V106.618C33.9866 106.814 33.9166 106.87 33.6926 106.87C33.4826 106.87 32.6986 106.87 32.0266 106.842C32.2506 107.29 32.5026 107.948 32.5586 108.41C33.5946 108.41 34.3506 108.368 34.8966 108.13C35.4426 107.878 35.5966 107.458 35.5966 106.66V103.608H36.9406V102.166H35.5966V100.962H37.0386ZM42.1906 97.0841V97.8261H40.0346V97.0841H42.1906ZM40.0346 99.7441V98.9461H42.1906V99.7441H40.0346ZM43.7446 100.934V95.8801H38.3826V108.424H40.0346V100.934H43.7446ZM46.2926 99.7721V98.9461H48.5186V99.7721H46.2926ZM48.5186 97.0841V97.8261H46.2926V97.0841H48.5186ZM43.0586 105.904V105.036H45.3686V105.904H43.0586ZM45.3686 103.846H43.0586V103.006H45.3686V103.846ZM50.1986 95.8801H44.7106V100.962H48.5186V106.436C48.5186 106.66 48.4346 106.744 48.1826 106.744C48.0006 106.758 47.4826 106.758 46.9366 106.744V101.788L42.2326 101.774V101.788H41.5466V107.836H43.0586V107.122H46.5306C46.6986 107.556 46.8526 108.074 46.8946 108.424C48.0986 108.424 48.9106 108.382 49.4566 108.102C50.0166 107.836 50.1986 107.346 50.1986 106.45V95.8801ZM57.3526 96.2441L55.2666 96.0341C55.2946 96.9161 55.1686 97.9381 54.9726 98.9881C54.2586 99.0581 53.6006 99.1001 53.1666 99.1141C52.6486 99.1281 52.1866 99.1561 51.6686 99.1141L51.8366 101.018C52.2706 100.948 52.9986 100.85 53.4046 100.78C53.6566 100.752 54.1046 100.696 54.6086 100.64C54.0906 102.558 53.1246 105.386 51.7666 107.22L53.5866 107.948C54.8746 105.89 55.9106 102.572 56.4426 100.444C56.8486 100.416 57.1986 100.388 57.4226 100.388C58.2906 100.388 58.7806 100.542 58.7806 101.662C58.7806 103.048 58.5846 104.742 58.2066 105.54C57.9826 106.002 57.6326 106.142 57.1566 106.142C56.7926 106.142 55.9806 106.002 55.4486 105.848L55.7426 107.696C56.2186 107.794 56.8906 107.892 57.4226 107.892C58.4866 107.892 59.2566 107.584 59.7186 106.604C60.3206 105.386 60.5166 103.118 60.5166 101.466C60.5166 99.4501 59.4666 98.7921 57.9826 98.7921C57.6886 98.7921 57.2826 98.8201 56.8066 98.8481C56.9046 98.3441 57.0166 97.8261 57.1006 97.4061C57.1706 97.0561 57.2686 96.6081 57.3526 96.2441ZM63.5826 95.0821L62.4626 95.5301C62.8546 96.0621 63.3026 96.8881 63.5966 97.4621L64.7026 96.9861C64.4646 96.4961 63.9466 95.6141 63.5826 95.0821ZM61.9166 95.7121L60.8106 96.1741C61.1326 96.6221 61.4826 97.2941 61.7626 97.8261L60.5026 98.3721C61.4966 99.6041 62.4906 102.068 62.8546 103.622L64.6326 102.81C64.2406 101.564 63.1906 99.2261 62.3506 97.9241L63.0366 97.6301C62.7706 97.1121 62.2666 96.2301 61.9166 95.7121ZM24.1267 117.146L22.0407 116.936C22.0547 117.818 21.9427 118.84 21.7467 119.904C21.0327 119.96 20.3747 120.002 19.9407 120.016C19.4227 120.03 18.9467 120.058 18.4427 120.016L18.6107 121.92C19.0307 121.85 19.7727 121.752 20.1647 121.682C20.4307 121.654 20.8647 121.598 21.3687 121.542C20.8647 123.46 19.8987 126.288 18.5407 128.122L20.3607 128.85C21.6487 126.792 22.6847 123.474 23.2167 121.346C23.6087 121.318 23.9587 121.29 24.1827 121.29C25.0647 121.29 25.5407 121.444 25.5407 122.564C25.5407 123.95 25.3587 125.644 24.9807 126.442C24.7567 126.904 24.3927 127.044 23.9307 127.044C23.5527 127.044 22.7547 126.904 22.2087 126.75L22.5167 128.598C22.9927 128.696 23.6507 128.794 24.1967 128.794C25.2467 128.794 26.0307 128.486 26.4927 127.506C27.0947 126.288 27.2907 124.02 27.2907 122.368C27.2907 120.352 26.2407 119.694 24.7567 119.694C24.4627 119.694 24.0427 119.722 23.5807 119.75C23.6787 119.246 23.7767 118.728 23.8747 118.308C23.9447 117.958 24.0427 117.51 24.1267 117.146ZM28.9427 118.462L27.2767 119.176C28.2707 120.408 29.2647 122.942 29.6287 124.496L31.4067 123.67C30.9867 122.34 29.8107 119.666 28.9427 118.462ZM37.8607 117.146L35.7747 116.936C35.7887 117.818 35.6767 118.84 35.4807 119.904C34.7667 119.96 34.1087 120.002 33.6747 120.016C33.1567 120.03 32.6807 120.058 32.1767 120.016L32.3447 121.92C32.7647 121.85 33.5067 121.752 33.8987 121.682C34.1647 121.654 34.5987 121.598 35.1027 121.542C34.5987 123.46 33.6327 126.288 32.2747 128.122L34.0947 128.85C35.3827 126.792 36.4187 123.474 36.9507 121.346C37.3427 121.318 37.6927 121.29 37.9167 121.29C38.7987 121.29 39.2747 121.444 39.2747 122.564C39.2747 123.95 39.0927 125.644 38.7147 126.442C38.4907 126.904 38.1267 127.044 37.6647 127.044C37.2867 127.044 36.4887 126.904 35.9427 126.75L36.2507 128.598C36.7267 128.696 37.3847 128.794 37.9307 128.794C38.9807 128.794 39.7647 128.486 40.2267 127.506C40.8287 126.288 41.0247 124.02 41.0247 122.368C41.0247 120.352 39.9747 119.694 38.4907 119.694C38.1967 119.694 37.7767 119.722 37.3147 119.75C37.4127 119.246 37.5107 118.728 37.6087 118.308C37.6787 117.958 37.7767 117.51 37.8607 117.146ZM42.6767 118.462L41.0107 119.176C42.0047 120.408 42.9987 122.942 43.3627 124.496L45.1407 123.67C44.7207 122.34 43.5447 119.666 42.6767 118.462ZM50.5867 126.554C50.5867 126.204 50.9227 125.882 51.4547 125.882C52.2107 125.882 52.7287 126.47 52.8127 127.38C52.5607 127.408 52.2947 127.422 52.0007 127.422C51.1607 127.422 50.5867 127.072 50.5867 126.554ZM48.2067 117.538L48.2627 119.358C48.5847 119.316 49.0327 119.274 49.4107 119.246C50.1527 119.204 52.0847 119.12 52.7987 119.106C52.1127 119.708 50.6567 120.884 49.8727 121.528C49.0467 122.214 47.3527 123.642 46.3587 124.44L47.6327 125.756C49.1307 124.048 50.5307 122.914 52.6727 122.914C54.3247 122.914 55.5847 123.768 55.5847 125.028C55.5847 125.882 55.1927 126.526 54.4227 126.932C54.2267 125.602 53.1767 124.538 51.4407 124.538C49.9567 124.538 48.9347 125.588 48.9347 126.722C48.9347 128.122 50.4047 129.018 52.3507 129.018C55.7387 129.018 57.4187 127.268 57.4187 125.056C57.4187 123.012 55.6127 121.528 53.2327 121.528C52.7847 121.528 52.3647 121.57 51.9027 121.682C52.7847 120.982 54.2547 119.75 55.0107 119.218C55.3327 118.98 55.6687 118.784 55.9907 118.574L55.0807 117.328C54.9127 117.384 54.5907 117.426 54.0167 117.482C53.2187 117.552 50.2227 117.608 49.4807 117.608C49.0887 117.608 48.5987 117.594 48.2067 117.538ZM60.9438 128.335C60.6157 128.335 60.3339 128.219 60.0986 127.987C59.8666 127.752 59.7506 127.47 59.7506 127.142C59.7506 126.817 59.8666 126.539 60.0986 126.307C60.3339 126.075 60.6157 125.959 60.9438 125.959C61.262 125.959 61.5404 126.075 61.779 126.307C62.0177 126.539 62.137 126.817 62.137 127.142C62.137 127.361 62.0806 127.561 61.9679 127.744C61.8586 127.923 61.7144 128.067 61.5354 128.176C61.3564 128.282 61.1592 128.335 60.9438 128.335ZM64.8477 128.335C64.5196 128.335 64.2379 128.219 64.0025 127.987C63.7705 127.752 63.6545 127.47 63.6545 127.142C63.6545 126.817 63.7705 126.539 64.0025 126.307C64.2379 126.075 64.5196 125.959 64.8477 125.959C65.1659 125.959 65.4443 126.075 65.6829 126.307C65.9216 126.539 66.0409 126.817 66.0409 127.142C66.0409 127.361 65.9846 127.561 65.8719 127.744C65.7625 127.923 65.6183 128.067 65.4393 128.176C65.2604 128.282 65.0632 128.335 64.8477 128.335ZM68.7516 128.335C68.4235 128.335 68.1418 128.219 67.9065 127.987C67.6745 127.752 67.5584 127.47 67.5584 127.142C67.5584 126.817 67.6745 126.539 67.9065 126.307C68.1418 126.075 68.4235 125.959 68.7516 125.959C69.0698 125.959 69.3482 126.075 69.5869 126.307C69.8255 126.539 69.9448 126.817 69.9448 127.142C69.9448 127.361 69.8885 127.561 69.7758 127.744C69.6664 127.923 69.5222 128.067 69.3432 128.176C69.1643 128.282 68.9671 128.335 68.7516 128.335Z" fill="#333333"/>
<ellipse cx="136.358" cy="52.8273" rx="54.1818" ry="52.8273" fill="white"/>
<path d="M216.154 118.504C216.154 119.064 216.098 119.904 216.014 120.464H218.198C218.142 119.89 218.072 118.91 218.072 118.504V114.542C219.584 115.06 221.684 115.872 223.126 116.628L223.924 114.696C222.636 114.066 219.948 113.072 218.072 112.526V110.454C218.072 109.88 218.142 109.264 218.198 108.774H216.014C216.112 109.264 216.154 109.964 216.154 110.454V118.504ZM228.614 109.11V110.916C229.02 110.888 229.622 110.874 230.07 110.874H235.432C235.936 110.874 236.594 110.888 236.972 110.916V109.11C236.58 109.166 235.894 109.18 235.46 109.18H230.07C229.594 109.18 229.006 109.166 228.614 109.11ZM238.148 113.17L236.902 112.4C236.706 112.484 236.328 112.54 235.88 112.54H228.95C228.516 112.54 227.914 112.498 227.326 112.456V114.276C227.914 114.22 228.614 114.206 228.95 114.206H235.712C235.46 114.99 235.026 115.858 234.27 116.628C233.206 117.72 231.526 118.644 229.426 119.078L230.812 120.66C232.604 120.156 234.396 119.204 235.81 117.636C236.86 116.474 237.462 115.116 237.882 113.758C237.938 113.604 238.05 113.352 238.148 113.17ZM249.852 108.046L248.704 108.522C248.97 108.928 249.25 109.418 249.488 109.88C249.236 109.908 248.998 109.908 248.83 109.908H242.348C241.886 109.908 241.088 109.852 240.682 109.796V111.77C241.046 111.742 241.704 111.714 242.348 111.714H248.858C248.676 112.918 248.144 114.5 247.22 115.662C246.086 117.09 244.504 118.308 241.732 118.952L243.258 120.632C245.764 119.82 247.626 118.434 248.886 116.754C250.062 115.2 250.664 113.03 251 111.658C251.07 111.364 251.168 110.958 251.308 110.692L250.412 110.104L250.93 109.894C250.678 109.39 250.216 108.578 249.852 108.046ZM251.812 107.696L250.65 108.158C251.028 108.676 251.462 109.474 251.77 110.048L252.932 109.544C252.666 109.054 252.162 108.2 251.812 107.696ZM260.002 119.54L261.178 120.506C261.304 120.394 261.472 120.254 261.78 120.086C263.348 119.288 265.364 117.776 266.526 116.264L265.448 114.724C264.51 116.082 263.124 117.188 261.99 117.678V110.356C261.99 109.726 262.074 109.18 262.088 109.138H260.002C260.016 109.18 260.114 109.712 260.114 110.342V118.504C260.114 118.882 260.058 119.274 260.002 119.54ZM253.52 119.33L255.228 120.464C256.418 119.4 257.3 118.028 257.72 116.446C258.098 115.032 258.14 112.078 258.14 110.426C258.14 109.838 258.224 109.222 258.238 109.152H256.18C256.264 109.502 256.306 109.88 256.306 110.44C256.306 112.134 256.292 114.78 255.9 115.984C255.508 117.174 254.752 118.462 253.52 119.33ZM273.26 108.634L271.286 108.522C271.314 108.83 271.314 109.11 271.272 109.768C271.244 110.09 271.202 110.468 271.16 110.902C270.138 110.818 269.088 110.636 268.276 110.37L268.178 111.98C269.004 112.218 269.998 112.386 270.964 112.484C270.894 113.114 270.81 113.772 270.726 114.402C269.816 114.304 268.878 114.15 267.968 113.842L267.87 115.536C268.612 115.746 269.536 115.9 270.558 115.998C270.502 116.572 270.46 117.076 270.46 117.412C270.46 119.75 272.014 120.702 274.212 120.702C277.278 120.702 279.182 119.19 279.182 117.076C279.182 115.886 278.748 114.892 277.824 113.716L275.85 114.136C276.774 115.004 277.292 115.9 277.292 116.852C277.292 118 276.228 118.896 274.268 118.896C272.896 118.896 272.182 118.28 272.182 117.118C272.182 116.866 272.21 116.516 272.238 116.096C272.42 116.096 272.616 116.096 272.798 116.096C273.68 116.096 274.492 116.04 275.276 115.97L275.318 114.304C274.408 114.416 273.372 114.472 272.504 114.472C272.476 114.472 272.434 114.472 272.406 114.472C272.476 113.842 272.56 113.184 272.644 112.568C273.764 112.568 274.534 112.512 275.374 112.428L275.43 110.762C274.772 110.86 273.876 110.944 272.868 110.958C272.924 110.496 272.98 110.118 273.022 109.88C273.078 109.516 273.134 109.138 273.26 108.634ZM282.512 119.978C282.183 119.978 281.902 119.862 281.666 119.63C281.434 119.394 281.318 119.113 281.318 118.784C281.318 118.46 281.434 118.181 281.666 117.949C281.902 117.717 282.183 117.601 282.512 117.601C282.83 117.601 283.108 117.717 283.347 117.949C283.585 118.181 283.705 118.46 283.705 118.784C283.705 119.003 283.648 119.204 283.536 119.386C283.426 119.565 283.282 119.709 283.103 119.819C282.924 119.925 282.727 119.978 282.512 119.978ZM286.415 119.978C286.087 119.978 285.806 119.862 285.57 119.63C285.338 119.394 285.222 119.113 285.222 118.784C285.222 118.46 285.338 118.181 285.57 117.949C285.806 117.717 286.087 117.601 286.415 117.601C286.734 117.601 287.012 117.717 287.251 117.949C287.489 118.181 287.609 118.46 287.609 118.784C287.609 119.003 287.552 119.204 287.44 119.386C287.33 119.565 287.186 119.709 287.007 119.819C286.828 119.925 286.631 119.978 286.415 119.978ZM290.319 119.978C289.991 119.978 289.71 119.862 289.474 119.63C289.242 119.394 289.126 119.113 289.126 118.784C289.126 118.46 289.242 118.181 289.474 117.949C289.71 117.717 289.991 117.601 290.319 117.601C290.638 117.601 290.916 117.717 291.155 117.949C291.393 118.181 291.513 118.46 291.513 118.784C291.513 119.003 291.456 119.204 291.344 119.386C291.234 119.565 291.09 119.709 290.911 119.819C290.732 119.925 290.535 119.978 290.319 119.978Z" fill="#333333"/>
<path d="M121.133 45.0318H118.019V43.8618H121.133V45.0318ZM126.893 39.8478H112.457V47.9478H114.545V41.6298H124.733V45.6438C124.733 45.8598 124.661 45.9138 124.391 45.9318C124.193 45.9498 123.635 45.9498 123.023 45.9318V42.4398H116.147V47.2818H118.019V46.4718H122.663C122.861 46.9398 123.023 47.4978 123.077 47.9118C124.373 47.9118 125.327 47.8938 125.993 47.5698C126.695 47.2458 126.893 46.6698 126.893 45.6798V39.8478ZM122.339 37.6518H116.723V36.5538H122.339V37.6518ZM114.689 35.1318V39.0918H124.517V35.1318H114.689ZM120.575 32.6298V31.1178H118.397V32.6298H111.737V34.4478H127.469V32.6298H120.575ZM142.985 37.5798H139.421V36.4818H142.985V37.5798ZM142.985 40.1538H139.421V39.0558H142.985V40.1538ZM142.985 42.7818H139.421V41.6658H142.985V42.7818ZM137.495 34.8798V44.3658H145.001V34.8798H141.815C141.959 34.5018 142.103 34.0878 142.247 33.6558H145.361V31.8378H136.955V33.6558H139.979C139.907 34.0518 139.835 34.4838 139.763 34.8798H137.495ZM130.817 34.2858H135.119V35.5278H136.901V32.6298H133.967V31.1718H131.969V32.6298H129.089V35.5278H130.817V34.2858ZM134.057 45.2478H131.879V43.5918H134.057V45.2478ZM131.915 41.9358C132.437 41.5938 132.941 41.1978 133.427 40.7658C133.967 41.1798 134.507 41.5758 134.957 41.9358H131.915ZM134.075 37.1478C133.823 37.5978 133.535 38.0298 133.193 38.4258L131.951 37.6158C132.077 37.4538 132.203 37.3098 132.329 37.1478H134.075ZM135.875 42.6918L135.911 42.7278L137.117 41.2338C136.523 40.7298 135.641 40.0818 134.669 39.4338C135.425 38.4978 136.037 37.4178 136.451 36.1938L135.245 35.6358L134.921 35.7258H133.247C133.409 35.4558 133.535 35.1858 133.661 34.8978L131.915 34.4658C131.267 35.9778 130.025 37.3458 128.621 38.2278C129.017 38.4798 129.683 39.1278 129.971 39.4698C130.241 39.2898 130.493 39.0738 130.745 38.8578L131.933 39.6858C130.943 40.5138 129.809 41.1618 128.621 41.5758C128.999 41.9178 129.467 42.6378 129.701 43.1058L130.079 42.9438V47.6058H131.879V46.8858H135.875C136.235 47.2278 136.631 47.6238 136.865 47.9118C138.179 47.3898 139.763 46.4358 140.699 45.5178L138.971 44.4378C138.323 45.1038 137.063 45.9318 135.875 46.4178V42.6918ZM141.491 45.4998C142.463 46.2198 143.723 47.2818 144.299 47.9658L145.955 46.8678C145.307 46.1838 143.993 45.1938 143.039 44.5278L141.491 45.4998ZM153.983 33.7998V36.1038C156.251 36.3198 159.509 36.3018 161.723 36.1038V33.7818C159.779 34.0158 156.197 34.1058 153.983 33.7998ZM155.423 41.4858L153.353 41.2878C153.155 42.2058 153.047 42.9258 153.047 43.6278C153.047 45.4818 154.541 46.5798 157.637 46.5798C159.671 46.5798 161.111 46.4538 162.281 46.2378L162.245 43.8078C160.661 44.1318 159.329 44.2758 157.727 44.2758C155.891 44.2758 155.207 43.7898 155.207 42.9978C155.207 42.5118 155.279 42.0798 155.423 41.4858ZM151.211 32.5938L148.691 32.3778C148.673 32.9538 148.565 33.6378 148.511 34.1418C148.313 35.5278 147.755 38.5698 147.755 41.2698C147.755 43.7178 148.097 45.9138 148.457 47.1558L150.545 47.0118C150.527 46.7598 150.509 46.4718 150.509 46.2738C150.509 46.0938 150.545 45.6978 150.599 45.4278C150.797 44.4738 151.391 42.5118 151.895 41.0178L150.779 40.1358C150.527 40.7298 150.239 41.3598 149.969 41.9718C149.915 41.6118 149.897 41.1438 149.897 40.8018C149.897 39.0018 150.527 35.4018 150.761 34.1958C150.833 33.8718 151.067 32.9718 151.211 32.5938ZM110.27 58.8918L107.786 58.6398C107.75 59.5758 107.552 60.6558 107.3 61.6458C106.742 61.6998 106.202 61.7178 105.662 61.7178C104.996 61.7178 104.042 61.6818 103.268 61.5918L103.43 63.6798C104.204 63.7338 104.942 63.7518 105.68 63.7518C105.986 63.7518 106.292 63.7518 106.616 63.7338C105.824 65.6778 104.366 68.3238 102.944 70.0878L105.122 71.2038C106.58 69.1698 108.11 66.0198 108.974 63.4998C110.18 63.3198 111.296 63.0858 112.124 62.8698L112.052 60.7818C111.35 60.9978 110.504 61.1958 109.622 61.3578C109.892 60.3858 110.126 59.4678 110.27 58.8918ZM109.334 71.3478C109.334 70.7178 110 70.2498 111.044 70.2498C111.548 70.2498 112.034 70.3218 112.502 70.4298C112.502 70.5738 112.502 70.6818 112.502 70.7898C112.502 71.7798 112.124 72.4638 110.882 72.4638C109.892 72.4638 109.334 72.0138 109.334 71.3478ZM114.482 64.4898H112.232C112.268 65.5878 112.358 67.1898 112.43 68.5218C112.016 68.4858 111.62 68.4498 111.188 68.4498C108.686 68.4498 107.21 69.7998 107.21 71.5638C107.21 73.5438 108.974 74.5338 111.206 74.5338C113.762 74.5338 114.68 73.2378 114.68 71.5638C114.68 71.5098 114.68 71.4378 114.68 71.3838C115.67 71.9778 116.48 72.7338 117.11 73.3098L118.316 71.3838C117.398 70.5558 116.138 69.6558 114.59 69.0798C114.554 68.1798 114.5 67.3158 114.482 66.7938C114.464 66.0018 114.428 65.2458 114.482 64.4898ZM117.578 65.4438L118.856 63.5538C117.938 62.8878 115.706 61.6638 114.41 61.1058L113.258 62.8878C114.482 63.4458 116.534 64.6158 117.578 65.4438ZM125.93 58.9278L123.464 58.8198C123.464 59.3058 123.41 60.0258 123.32 60.7098C123.068 62.5638 122.816 64.7958 122.816 66.4698C122.816 67.6758 122.942 68.7738 123.05 69.4758L125.264 69.3318C125.156 68.4858 125.138 67.9098 125.174 67.4238C125.264 65.0478 127.118 61.8618 129.242 61.8618C130.754 61.8618 131.69 63.4098 131.69 66.1818C131.69 70.5378 128.864 71.8518 124.868 72.4638L126.236 74.5518C131.006 73.6878 134.12 71.2578 134.12 66.1638C134.12 62.2038 132.176 59.7558 129.674 59.7558C127.64 59.7558 126.074 61.2678 125.21 62.6718C125.318 61.6638 125.678 59.8098 125.93 58.9278ZM145.28 59.2878L142.598 59.0178C142.634 60.1518 142.472 61.4658 142.22 62.8158C141.302 62.9058 140.456 62.9598 139.898 62.9778C139.232 62.9958 138.638 63.0318 137.972 62.9778L138.188 65.4258C138.746 65.3358 139.682 65.2098 140.204 65.1198C140.528 65.0838 141.104 65.0118 141.752 64.9398C141.086 67.4058 139.844 71.0418 138.098 73.3998L140.438 74.3358C142.094 71.6898 143.426 67.4238 144.11 64.6878C144.632 64.6518 145.082 64.6158 145.37 64.6158C146.486 64.6158 147.116 64.8138 147.116 66.2538C147.116 68.0358 146.864 70.2138 146.378 71.2398C146.09 71.8338 145.64 72.0138 145.028 72.0138C144.56 72.0138 143.516 71.8338 142.832 71.6358L143.21 74.0118C143.822 74.1378 144.686 74.2638 145.37 74.2638C146.738 74.2638 147.728 73.8678 148.322 72.6078C149.096 71.0418 149.348 68.1258 149.348 66.0018C149.348 63.4098 147.998 62.5638 146.09 62.5638C145.712 62.5638 145.19 62.5998 144.578 62.6358C144.704 61.9878 144.848 61.3218 144.956 60.7818C145.046 60.3318 145.172 59.7558 145.28 59.2878ZM153.29 57.7938L151.85 58.3698C152.354 59.0538 152.93 60.1158 153.308 60.8538L154.73 60.2418C154.424 59.6118 153.758 58.4778 153.29 57.7938ZM151.148 58.6038L149.726 59.1978C150.14 59.7738 150.59 60.6378 150.95 61.3218L149.33 62.0238C150.608 63.6078 151.886 66.7758 152.354 68.7738L154.64 67.7298C154.136 66.1278 152.786 63.1218 151.706 61.4478L152.588 61.0698C152.246 60.4038 151.598 59.2698 151.148 58.6038ZM162.902 59.0358L160.346 58.9278C160.382 59.5218 160.364 59.9718 160.256 60.7458C160.22 60.9618 160.184 61.2138 160.148 61.4838C159.05 61.4658 157.7 61.3218 156.62 61.1418V63.3738C157.538 63.4638 158.6 63.5178 159.734 63.5358C159.266 65.5158 158.546 67.9098 157.682 69.5838L159.806 70.3398C159.986 70.0338 160.112 69.7998 160.31 69.5478C161.39 68.1798 163.226 67.4418 165.296 67.4418C167.06 67.4418 167.978 68.3418 167.978 69.4218C167.978 72.0678 164 72.5538 160.058 71.9058L160.688 74.2278C166.502 74.8578 170.408 73.3998 170.408 69.3498C170.408 67.0458 168.482 65.4978 165.566 65.4978C163.964 65.4978 162.56 65.8218 161.102 66.6318C161.372 65.7498 161.66 64.5978 161.912 63.4998C164.324 63.3738 167.186 63.0318 169.058 62.7258L169.022 60.5838C166.844 61.0518 164.414 61.3218 162.362 61.4298C162.398 61.2318 162.434 61.0338 162.47 60.8718C162.596 60.2778 162.704 59.6658 162.902 59.0358Z" fill="#333333"/>
<g clip-path="url(#clip0_108_224)">
<path d="M156.235 240.145C156.227 240.09 156.165 239.654 156.15 239.538C156.103 239.265 156.056 239.001 156.01 238.728C155.457 235.739 154.547 232.812 153.364 230.01C151.87 229.995 150.369 229.971 148.875 229.956C147.77 232.307 147.039 235.14 146.548 237.825C146.439 238.409 146.346 239.001 146.26 239.592C146.245 239.693 146.229 239.795 146.222 239.888C146.222 239.911 146.222 239.927 146.214 239.966C146.19 240.168 146.167 240.371 146.144 240.573C146.105 240.884 146.082 241.196 146.05 241.515C146.144 241.608 146.229 241.702 146.323 241.795C147.949 243.367 149.629 244.932 151.489 246.232C153.193 244.815 154.819 243.29 156.391 241.733C156.383 241.538 156.375 241.351 156.36 241.157C156.329 240.814 156.29 240.48 156.251 240.145H156.235Z" fill="#78C8E6"/>
<path d="M158.624 226.749C158.095 226.959 157.527 226.78 157.099 226.43C156.873 227.06 156.648 227.698 156.43 228.337C157.729 231.388 158.78 234.533 159.386 237.802C159.433 238.043 159.472 238.284 159.511 238.526C165.331 232.501 170.863 226.173 176.2 219.72C175.788 219.883 175.368 220.055 174.955 220.218C169.509 222.398 164.07 224.577 158.624 226.757V226.749Z" fill="white"/>
<path d="M143.561 226.757C142.705 226.367 141.849 225.978 140.993 225.597C136.068 223.371 131.143 221.144 126.218 218.91C126.257 218.965 126.303 219.019 126.342 219.066C130.412 224.157 134.582 229.177 138.939 234.034C140.238 235.482 141.553 236.907 142.899 238.316C143.397 234.898 144.315 231.505 145.747 228.407C145.568 227.87 145.389 227.325 145.21 226.788C144.72 227.006 144.129 227.006 143.568 226.749L143.561 226.757Z" fill="white"/>
<path d="M126.086 212.076C125.837 212.816 125.634 213.789 125.307 214.668C126.008 214.987 126.708 215.307 127.408 215.618C132.73 218.023 138.044 220.428 143.366 222.834C144.308 219.845 145.257 216.848 146.198 213.859C139.982 211.788 133.773 209.718 127.556 207.647C127.066 209.118 126.576 210.59 126.086 212.068V212.076Z" fill="white"/>
<path d="M169.843 204.292C169.727 203.242 169.61 202.183 169.493 201.132C166.218 204.285 161.798 206.402 157.527 207.499C151.652 209.002 145.56 208.597 139.966 206.27C136.527 204.837 133.244 203.234 130.544 200.891C130.489 202.23 130.435 203.569 130.38 204.915C132.559 205.639 134.737 206.363 136.916 207.095C140.993 208.457 145.078 209.811 149.155 211.173C149.591 211.321 150.104 211.422 150.517 211.625C150.532 211.625 150.548 211.633 150.563 211.64C150.594 211.64 150.602 211.64 150.641 211.64C150.937 211.617 151.248 211.64 151.544 211.64H151.995C152.049 211.625 152.104 211.609 152.15 211.586C152.648 211.376 153.185 211.228 153.691 211.049C159.114 209.165 164.545 207.289 169.968 205.406C169.968 205.367 169.952 205.328 169.952 205.289C169.913 204.962 169.882 204.627 169.843 204.3V204.292Z" fill="white"/>
<path d="M178.254 163.194C177.834 163.24 177.414 163.38 177.009 163.513C176.97 163.521 176.955 163.528 176.932 163.536C176.924 163.544 176.916 163.56 176.908 163.567C176.69 163.832 176.472 164.097 176.255 164.361C174.909 165.988 173.563 167.615 172.217 169.242C172.217 169.25 172.217 169.257 172.217 169.265C172.217 169.421 172.209 169.561 172.178 169.693C171.804 173.344 167.976 175.329 164.669 175.796C161.285 176.271 157.052 175.617 154.679 172.908C153.893 172.013 153.458 171.001 153.31 169.973C153.053 169.911 152.788 169.857 152.532 169.81C152.508 169.81 152.493 169.81 152.477 169.802C152.345 169.787 152.213 169.771 152.08 169.763C151.824 169.748 151.567 169.732 151.302 169.732C150.789 169.732 150.275 169.771 149.762 169.833C149.661 169.849 149.559 169.864 149.458 169.88C148.984 173.414 145.226 175.344 141.966 175.804C138.581 176.278 134.348 175.625 131.975 172.916C130.956 171.756 130.513 170.386 130.575 169.047C130.326 168.962 130.085 168.829 129.89 168.658C129.641 168.432 129.392 168.214 129.143 167.989C127.517 166.541 125.883 165.085 124.257 163.637C123.798 163.886 123.23 163.918 122.646 163.544C121.028 162.501 119.347 163.264 118.569 164.898C117.807 166.51 117.807 168.526 118.126 170.246C118.772 173.756 121.246 176.045 124.592 177.142C125.121 177.314 125.728 177.765 125.813 178.364C126.98 186.211 127.416 195.396 134.971 199.996C141.312 203.857 148.571 205.982 155.94 204.285C159.768 203.405 163.463 201.685 166.467 199.132C169.493 196.563 170.94 193.014 171.905 189.246C172.738 185.969 173.15 182.599 173.952 179.322C174.208 178.287 174.885 177.96 175.741 177.485C176.994 176.784 178.348 176.06 179.359 175.033C181.88 172.488 183.07 167.701 181.032 164.533C180.394 163.536 179.421 163.077 178.246 163.201L178.254 163.194ZM151.684 173.85C153.94 173.85 153.94 177.353 151.684 177.353C149.427 177.353 149.427 173.85 151.684 173.85ZM136.939 193.971C136.084 193.52 135.873 192.383 136.309 191.574C137.943 188.553 139.616 185.51 141.569 182.677C142.121 181.867 143.07 181.579 143.965 182.046C144.759 182.467 145.117 183.689 144.595 184.444C142.65 187.277 140.977 190.32 139.336 193.341C138.869 194.197 137.756 194.399 136.939 193.971ZM157.324 191.192C156.64 191.939 155.558 191.768 154.85 191.192C154.85 191.192 154.85 191.192 154.842 191.184C154.757 191.122 154.671 191.068 154.586 191.013C154.407 190.896 154.22 190.787 154.033 190.686C153.994 190.663 153.644 190.499 153.621 190.484C153.489 190.429 153.364 190.383 153.232 190.336C152.82 190.196 152.392 190.095 151.964 190.025C151.878 190.025 151.668 189.994 151.66 189.994C151.427 189.978 151.201 189.97 150.968 189.978C150.75 189.978 150.524 189.994 150.306 190.017C150.26 190.017 150.127 190.04 150.057 190.048C149.645 190.118 149.24 190.211 148.844 190.344C148.797 190.359 148.532 190.461 148.447 190.484C148.369 190.523 148.12 190.647 148.081 190.663C147.894 190.764 147.715 190.873 147.537 190.99C147.482 191.021 147.435 191.06 147.381 191.099C147.381 191.099 147.342 191.138 147.272 191.192C146.533 191.83 145.537 191.869 144.798 191.192C144.136 190.585 144.105 189.316 144.798 188.717C148.322 185.673 153.784 185.821 157.34 188.717C158.095 189.332 157.931 190.554 157.34 191.192H157.324ZM164.568 193.496C163.837 193.963 162.537 193.714 162.172 192.866C161.347 190.966 160.234 189.207 159.036 187.526C158.795 187.184 158.546 186.849 158.289 186.506C158.235 186.436 158.18 186.366 158.126 186.296C158.126 186.288 158.103 186.265 158.087 186.249C158.025 186.172 157.916 186.032 157.885 185.993C157.706 185.767 157.527 185.541 157.34 185.323C156.71 184.576 156.655 183.595 157.34 182.848C157.939 182.194 159.223 182.147 159.814 182.848C161.915 185.331 163.884 188.118 165.191 191.107C165.58 192.01 165.44 192.936 164.56 193.504L164.568 193.496Z" fill="white"/>
<path d="M168.676 168.907C168.669 168.868 168.653 168.821 168.645 168.782C168.63 168.736 168.622 168.705 168.622 168.681C168.614 168.666 168.599 168.635 168.575 168.596C168.521 168.494 168.466 168.401 168.404 168.308C168.373 168.253 168.35 168.222 168.334 168.191C168.319 168.168 168.295 168.144 168.256 168.105C168.178 168.012 168.093 167.926 168.007 167.841C167.782 167.615 167.626 167.498 167.478 167.397C166.428 166.696 165.253 166.299 163.961 166.144C161.689 165.871 158.904 166.346 157.402 167.833C157.286 167.95 157.177 168.066 157.076 168.199C157.06 168.222 157.044 168.245 157.013 168.292C156.959 168.378 156.811 168.697 156.803 168.689C156.772 168.806 156.725 169 156.71 169.039C156.694 169.187 156.694 169.335 156.71 169.483C156.733 169.46 156.85 169.88 156.819 169.864C156.904 170.043 156.998 170.215 157.115 170.37C156.99 170.191 157.325 170.604 157.41 170.69C157.457 170.736 157.893 171.11 157.776 171.016C159.674 172.441 162.491 172.744 164.817 172.231C165.883 171.997 167.066 171.522 167.743 170.939C167.945 170.76 168.147 170.565 168.319 170.363C168.326 170.347 168.319 170.363 168.334 170.347C168.334 170.339 168.334 170.339 168.357 170.3C168.42 170.207 168.474 170.114 168.529 170.012C168.7 169.717 168.715 169.615 168.723 169.265C168.723 169.226 168.715 169.164 168.708 169.102C168.692 169.032 168.684 168.969 168.676 168.899V168.907Z" fill="white"/>
<path d="M172.162 159.559C170.411 156.118 169.05 152.374 168.35 148.576C167.953 146.388 167.875 144.256 168.015 142.045C168.077 141.08 168.163 140.115 168.186 139.149C168.194 138.706 168.326 137.709 168.031 137.312C167.758 136.947 166.467 136.76 165.992 136.62C164.942 136.316 163.868 136.075 162.794 135.865C160.802 135.483 158.787 135.265 156.764 135.149C154.71 135.024 152.633 134.977 150.571 135.11C145.778 135.896 140.837 136.55 136.192 134.969C133.158 135.974 131.944 138.589 131.664 141.64C131.353 145.026 131.882 148.28 130.52 151.518C129.525 153.884 127.502 155.846 126.801 158.321C126.591 159.076 126.475 159.963 126.039 160.555C126.117 160.602 126.187 160.656 126.257 160.718C126.506 160.944 126.755 161.162 127.011 161.388C128.638 162.836 130.271 164.291 131.898 165.739C132.139 165.451 132.411 165.179 132.722 164.93C135.562 162.61 139.663 162.127 143.156 162.945C145.28 163.443 147.482 164.634 148.657 166.471C149.536 166.331 150.423 166.222 151.31 166.222C152.22 166.222 153.139 166.338 154.033 166.541C154.383 165.957 154.835 165.404 155.418 164.93C158.258 162.61 162.359 162.127 165.852 162.945C167.626 163.357 169.447 164.26 170.692 165.615C171.796 164.276 172.901 162.937 174.014 161.598C173.026 161.31 172.637 160.485 172.162 159.551V159.559ZM140.402 161.372C138.145 161.372 138.145 157.87 140.402 157.87C142.658 157.87 142.658 161.372 140.402 161.372ZM145.171 152.374C145.07 152.756 144.743 153.254 144.37 153.417C144.09 153.542 143.81 153.666 143.53 153.791C141.561 154.663 139.6 155.542 137.632 156.414C137.181 156.616 136.768 156.702 136.286 156.593C135.842 156.492 135.484 156.165 135.243 155.791C135.002 155.418 134.948 154.865 135.064 154.445C135.165 154.063 135.492 153.565 135.866 153.402C136.146 153.277 136.426 153.153 136.706 153.028C138.674 152.156 140.635 151.277 142.604 150.405C143.055 150.202 143.467 150.117 143.95 150.226C144.393 150.327 144.751 150.654 144.992 151.028C145.233 151.401 145.288 151.954 145.171 152.374ZM161.3 161.372C159.044 161.372 159.044 157.87 161.3 157.87C163.557 157.87 163.557 161.372 161.3 161.372ZM167.245 155.791C167.042 156.173 166.607 156.484 166.202 156.593C165.72 156.725 165.292 156.616 164.856 156.414C164.553 156.282 164.257 156.142 163.954 156.009C161.853 155.06 159.76 154.118 157.659 153.176C156.764 152.771 156.624 151.541 157.029 150.778C157.231 150.397 157.667 150.086 158.071 149.977C158.554 149.844 158.982 149.953 159.417 150.156C159.721 150.288 160.017 150.428 160.32 150.561C162.421 151.51 164.514 152.452 166.615 153.394C167.509 153.799 167.649 155.028 167.245 155.791Z" fill="white"/>
<path d="M165.152 210.768C162.296 211.757 159.441 212.746 156.585 213.742C156.624 213.828 156.663 213.913 156.694 214.007C157.558 216.918 158.429 219.829 159.293 222.732C159.55 222.631 159.814 222.522 160.071 222.421C165.517 220.241 170.956 218.062 176.402 215.882C176.768 215.735 177.165 215.781 177.515 215.945C176.402 213.174 175.29 210.403 174.185 207.632C171.174 208.675 168.163 209.718 165.16 210.761L165.152 210.768Z" fill="white"/>
<path d="M153.302 214.863C151.987 215.268 150.765 215.19 149.536 214.902C148.766 217.354 147.988 219.806 147.218 222.258C147.381 222.444 147.505 222.662 147.583 222.896C147.98 224.079 148.377 225.262 148.774 226.445C150.306 226.461 151.839 226.484 153.372 226.5C153.932 224.912 154.492 223.324 155.053 221.736C155.099 221.596 155.169 221.471 155.239 221.355C154.601 219.214 153.963 217.074 153.325 214.933C153.318 214.91 153.318 214.879 153.31 214.855L153.302 214.863Z" fill="#78C8E6"/>
<path d="M129.719 130.455C129.493 130.268 129.268 130.089 129.042 129.902C127.346 130.54 126.257 131.794 125.346 133.459C124.117 135.717 123.207 138.169 122.903 140.729C122.545 143.687 123.02 146.552 123.238 149.494C123.409 151.759 123.463 153.993 123.876 156.196C124.957 153.721 126.926 151.712 127.688 149.082C128.669 145.688 127.743 142.029 128.653 138.573C129.276 136.215 130.575 134.323 132.411 133.016C131.415 132.284 130.528 131.42 129.711 130.455H129.719Z" fill="#C8C8C8"/>
<path d="M145.942 168.782C145.926 168.736 145.918 168.705 145.918 168.681C145.91 168.666 145.895 168.642 145.872 168.596C145.817 168.494 145.763 168.401 145.7 168.308C145.669 168.253 145.646 168.222 145.63 168.191C145.607 168.168 145.591 168.144 145.553 168.105C145.475 168.012 145.389 167.926 145.304 167.841C145.078 167.615 144.922 167.498 144.774 167.397C143.724 166.696 142.549 166.299 141.258 166.144C138.986 165.871 136.2 166.346 134.699 167.833C134.582 167.95 134.473 168.066 134.372 168.199C134.356 168.222 134.341 168.245 134.31 168.292C134.255 168.378 134.107 168.697 134.1 168.689C134.068 168.806 134.022 169 134.006 169.039C133.991 169.187 133.991 169.335 134.006 169.483C134.03 169.46 134.146 169.88 134.115 169.864C134.201 170.043 134.294 170.215 134.411 170.37C134.286 170.191 134.621 170.604 134.706 170.69C134.753 170.736 135.189 171.11 135.072 171.016C136.971 172.441 139.787 172.744 142.114 172.231C143.179 171.997 144.362 171.522 145.039 170.939C145.241 170.76 145.444 170.565 145.615 170.363C145.623 170.347 145.615 170.363 145.63 170.347C145.63 170.339 145.63 170.339 145.654 170.3C145.716 170.207 145.77 170.114 145.825 170.012C145.996 169.717 146.012 169.615 146.019 169.265C146.019 169.179 145.988 168.993 145.988 168.985C145.973 168.915 145.957 168.845 145.934 168.782H145.942Z" fill="white"/>
<path d="M175.811 158.866C175.859 158.913 175.874 158.921 175.811 158.866V158.866Z" fill="#78C8E6"/>
<path d="M176.006 131.148C174.784 127.832 172.131 125.193 169.112 123.465C165.704 121.511 162.094 120.951 158.204 120.974C155.854 120.99 153.551 120.927 151.248 120.406C149.396 119.986 147.607 119.347 145.809 118.748C142.378 117.596 139.235 116.747 135.663 117.736C133.174 118.429 129.33 120.289 129.719 123.442C129.906 124.991 130.902 126.516 131.96 127.8C133.353 128.937 134.745 130.073 136.13 131.218C136.41 131.35 136.69 131.482 136.986 131.591C138.939 132.315 140.97 132.533 143.016 132.486C142.269 131.809 141.569 131.078 140.923 130.307C139.546 128.672 138.371 126.929 137.57 124.944C137.204 124.033 137.974 123.052 138.791 122.788C139.211 122.655 139.764 122.741 140.137 122.967C140.542 123.208 140.744 123.543 140.915 123.955C140.915 123.971 140.931 123.979 140.939 124.01C140.985 124.119 141.04 124.22 141.086 124.329C141.172 124.508 141.265 124.687 141.359 124.866C141.569 125.255 141.794 125.629 142.036 126.002C142.285 126.392 142.549 126.765 142.829 127.131C142.853 127.162 142.969 127.31 142.985 127.333C143.016 127.372 143.047 127.411 143.047 127.419C143.187 127.59 143.327 127.769 143.475 127.933C144.074 128.633 144.712 129.303 145.397 129.925C145.708 130.213 146.035 130.486 146.369 130.751C146.447 130.805 146.517 130.86 146.595 130.914C146.759 131.031 146.93 131.148 147.101 131.257C147.412 131.459 147.645 131.731 147.786 132.027C148.525 131.918 149.256 131.801 149.98 131.677C150.034 131.669 150.081 131.677 150.135 131.669C150.236 131.646 150.338 131.622 150.446 131.615C150.758 131.591 151.069 131.583 151.38 131.576C149.84 129.933 148.634 128.003 147.77 125.878C147.404 124.967 148.175 123.986 148.992 123.722C149.412 123.589 149.964 123.675 150.338 123.901C150.765 124.15 150.968 124.508 151.139 124.944C151.147 124.967 151.147 124.975 151.155 124.983C151.186 125.061 151.225 125.138 151.263 125.216C151.341 125.395 151.427 125.567 151.512 125.738C151.684 126.08 151.87 126.423 152.073 126.757C152.259 127.069 152.462 127.38 152.664 127.676C152.773 127.832 152.89 127.987 152.999 128.143C152.999 128.143 152.999 128.143 153.006 128.159C153.053 128.221 153.1 128.275 153.154 128.338C153.637 128.929 154.166 129.482 154.734 129.988C154.874 130.112 155.014 130.237 155.162 130.361C155.232 130.424 155.309 130.478 155.379 130.54C155.496 130.634 155.496 130.642 155.473 130.634C155.597 130.719 155.761 130.821 155.792 130.844C155.947 130.953 156.103 131.054 156.259 131.155C156.469 131.295 156.648 131.459 156.78 131.646C156.897 131.646 157.013 131.654 157.13 131.661C160.872 131.91 164.669 132.447 168.241 133.654C169.75 134.16 170.909 134.806 171.392 136.425C171.828 137.865 171.664 139.476 171.563 140.947C171.438 142.839 171.283 144.746 171.532 146.63C171.804 148.661 172.357 150.669 173.002 152.608C173.524 154.172 174.138 155.698 174.854 157.185C175.025 157.535 175.204 157.877 175.391 158.228C175.687 158.235 175.975 158.251 176.27 158.259C177.453 151.821 177.679 145.05 177.251 138.55C177.087 136.075 176.854 133.483 175.982 131.132L176.006 131.148Z" fill="#C8C8C8"/>
<path d="M111.45 237.226C111.442 237.195 111.427 237.156 111.419 237.109C111.419 237.148 111.435 237.187 111.442 237.226H111.45Z" fill="#78C8E6"/>
<path d="M152.804 249.649C152.547 249.851 152.252 249.999 151.94 250.077H168.809C170.925 244.994 172.434 239.584 173.913 234.346C174.784 231.264 175.726 227.987 176.519 224.725C173.158 228.687 169.758 232.61 166.257 236.448C162.047 241.056 157.745 245.804 152.796 249.649H152.804Z" fill="#EBEBEB"/>
<path d="M188.47 237.49C188.563 237.529 188.657 237.561 188.385 237.413C188.47 237.459 187.964 237.117 188.019 237.148C187.054 236.533 185.654 236.432 184.549 236.261C183.179 236.043 181.802 235.848 180.487 235.381C178.371 234.642 179.289 231.256 181.421 232.003C182.487 232.377 183.646 232.548 184.813 232.719C184.813 232.68 184.813 232.649 184.813 232.61C184.86 232.369 184.899 232.127 184.938 231.878C184.938 231.855 184.938 231.847 184.946 231.824C184.946 231.808 184.946 231.808 184.946 231.785C184.961 231.645 184.977 231.505 184.992 231.365C185.054 230.781 185.101 230.205 185.14 229.621C185.218 228.36 185.257 227.099 185.265 225.83C185.288 223.869 185.241 221.915 185.156 219.953C183.864 219.502 182.588 219.027 181.32 218.521C180.456 224.18 178.838 229.792 177.282 235.272C175.889 240.199 174.45 245.251 172.559 250.077H183.864C185.342 246.948 186.813 243.811 187.855 240.518C188.019 240.005 188.174 239.483 188.291 238.954C188.33 238.767 188.369 238.58 188.408 238.393C188.462 238.113 188.439 238.463 188.455 238.028C188.455 237.88 188.455 237.74 188.462 237.592C188.462 237.576 188.462 237.568 188.462 237.561C188.462 237.529 188.447 237.506 188.439 237.475C188.377 237.444 188.33 237.42 188.439 237.459C188.439 237.459 188.439 237.467 188.439 237.475C188.439 237.475 188.447 237.475 188.455 237.475C188.455 237.452 188.455 237.459 188.455 237.475L188.47 237.49Z" fill="#78C8E6"/>
<path d="M213.049 236.315C212.535 234.953 211.952 233.591 211.158 232.361C210.894 231.948 210.536 231.489 210.264 231.263C209.532 230.641 208.031 229.839 207.011 229.24C202.008 226.329 196.679 224.056 191.248 222.086C190.408 221.783 189.559 221.487 188.719 221.191C188.774 222.81 188.797 224.429 188.781 226.041C188.75 228.5 188.672 230.991 188.221 233.412C188.914 233.638 189.575 233.941 190.174 234.377C192.275 235.895 192.158 238.121 191.567 240.386C190.688 243.725 189.272 246.925 187.77 250.077H216.784C216.558 248.987 216.317 247.898 216.068 246.816C215.251 243.266 214.325 239.717 213.049 236.307V236.315Z" fill="#78C8E6"/>
<path d="M143.296 243.741C136.636 237.195 130.536 230.003 124.716 222.655C125.587 226.422 126.506 230.182 127.502 233.91C128.949 239.335 130.427 244.846 132.52 250.077H151.092C150.96 250.038 150.82 249.999 150.688 249.921C147.964 248.232 145.576 245.975 143.296 243.733V243.741Z" fill="#EBEBEB"/>
<path d="M120.094 218.062C119.363 218.303 118.624 218.545 117.893 218.778C117.068 223.332 116.072 227.73 115.994 232.345C117.332 232.135 118.671 231.941 119.97 231.59C122.156 231.007 123.074 234.385 120.904 234.969C118.647 235.576 116.282 235.708 114.01 236.268C113.069 236.494 112.306 236.704 111.606 237.164C111.614 237.164 111.536 237.195 111.458 237.249C111.489 237.358 111.52 237.358 111.458 237.249C111.738 238.759 112.205 240.23 112.672 241.686C113.559 244.473 114.454 247.376 115.66 250.077H128.801C126.98 245.243 125.572 240.238 124.234 235.257C122.709 229.559 121.339 223.822 120.094 218.054V218.062Z" fill="#78C8E6"/>
<path d="M113.66 220.133C108.12 222.001 102.58 223.892 97.0718 225.861C94.9788 226.609 92.8858 227.364 90.824 228.181C89.8514 228.57 89.8125 228.5 88.8555 229.061C87.7351 229.714 86.8948 230.765 86.2179 231.863C84.3583 234.852 83.3857 238.355 82.5065 241.741C81.7907 244.504 81.1994 247.306 80.5847 250.093H111.948C111.668 249.369 111.396 248.653 111.131 247.937C110.291 245.679 109.505 243.399 108.82 241.094C108.393 239.662 107.677 237.864 108.074 236.354C108.587 234.424 110.68 233.552 112.508 233.054C112.501 232.968 112.485 232.883 112.485 232.797C112.501 228.461 113.325 224.235 114.127 220C113.971 220.055 113.816 220.101 113.66 220.148V220.133Z" fill="#78C8E6"/>
<path d="M81.495 126.376C78.056 129.902 74.3602 134.144 75.0293 139.453C75.5117 143.283 78.834 146.637 82.6854 146.342C84.2493 148.918 86.8947 150.553 90.007 150.848C90.5594 150.903 91.1274 150.887 91.6953 150.833C91.8432 151.066 91.991 151.292 92.1544 151.51C94.7453 154.912 99.2036 155.729 103.024 154.094C103.895 153.721 104.09 152.429 103.654 151.697C103.125 150.817 102.137 150.693 101.258 151.066C99.1958 151.946 96.815 151.354 95.3133 149.798C96.8539 148.98 98.1299 147.712 98.7368 146.015C99.3203 144.403 99.2036 142.411 97.8809 141.181C96.4648 139.858 94.2863 139.85 92.7068 140.893C90.5594 142.317 90.007 144.909 90.4116 147.377C89.19 147.299 87.984 146.894 87.0192 146.155C86.6458 145.867 86.3267 145.524 86.0389 145.158C88.801 143.43 91.1585 140.115 91.5086 137.102C91.7342 135.156 90.7695 133.016 88.7854 132.409C86.9181 131.84 84.9729 132.829 83.728 134.199C81.7051 136.433 80.9037 139.718 81.3627 142.714C80.9659 142.613 80.5613 142.434 80.1801 142.138C78.1494 140.558 78.1494 137.764 78.9663 135.545C79.9311 132.899 82.0396 130.836 83.9614 128.859C85.5331 127.24 83.0589 124.765 81.4872 126.384L81.495 126.376ZM93.8506 145.33C93.9439 144.816 94.6364 143.057 95.4534 143.695C95.9669 144.1 95.2199 145.376 94.9554 145.703C94.6597 146.077 94.2629 146.381 93.835 146.622C93.7883 146.186 93.7728 145.75 93.8506 145.33ZM84.7473 140.628C84.8018 139.523 85.1208 138.425 85.6732 137.468C85.9688 136.954 86.9181 135.514 87.6883 135.732C89.3301 136.199 86.07 140.496 85.5253 141.064C85.2919 141.305 85.0352 141.531 84.7784 141.741C84.7473 141.368 84.7239 141.002 84.7473 140.628Z" fill="#323232"/>
<path d="M144.79 188.709C144.098 189.309 144.129 190.577 144.79 191.184C145.529 191.862 146.525 191.823 147.264 191.184C147.334 191.122 147.365 191.099 147.373 191.091C147.428 191.052 147.474 191.021 147.529 190.982C147.7 190.865 147.887 190.756 148.073 190.655C148.112 190.632 148.361 190.515 148.439 190.476C148.525 190.445 148.789 190.344 148.836 190.336C149.233 190.204 149.637 190.118 150.05 190.04C150.127 190.032 150.252 190.009 150.299 190.009C150.516 189.986 150.742 189.978 150.96 189.97C151.193 189.97 151.419 189.97 151.652 189.986C151.66 189.986 151.87 190.009 151.956 190.017C152.384 190.087 152.812 190.188 153.224 190.328C153.356 190.375 153.489 190.422 153.613 190.476C153.644 190.499 153.987 190.655 154.026 190.679C154.212 190.78 154.399 190.889 154.578 191.005C154.664 191.06 154.749 191.122 154.835 191.177C154.835 191.177 154.835 191.177 154.842 191.184C155.551 191.76 156.632 191.932 157.317 191.184C157.908 190.546 158.071 189.324 157.317 188.709C153.761 185.814 148.299 185.666 144.774 188.709H144.79Z" fill="#323232"/>
<path d="M166.615 153.394C164.514 152.452 162.421 151.502 160.32 150.56C160.017 150.428 159.721 150.288 159.418 150.156C158.974 149.953 158.554 149.844 158.071 149.977C157.667 150.086 157.223 150.405 157.029 150.778C156.624 151.541 156.764 152.771 157.659 153.176C159.76 154.118 161.853 155.067 163.954 156.009C164.257 156.141 164.553 156.282 164.856 156.414C165.3 156.616 165.72 156.725 166.202 156.593C166.607 156.484 167.05 156.165 167.245 155.791C167.649 155.028 167.509 153.799 166.615 153.394Z" fill="#323232"/>
<path d="M143.942 150.218C143.452 150.109 143.047 150.195 142.596 150.397C140.627 151.269 138.667 152.148 136.698 153.02C136.418 153.145 136.138 153.269 135.858 153.394C135.484 153.557 135.158 154.063 135.057 154.437C134.94 154.857 134.994 155.418 135.235 155.784C135.477 156.157 135.835 156.484 136.278 156.585C136.768 156.694 137.173 156.609 137.624 156.406C139.593 155.534 141.553 154.655 143.522 153.783C143.802 153.659 144.082 153.534 144.362 153.409C144.736 153.246 145.062 152.74 145.163 152.366C145.28 151.946 145.226 151.386 144.985 151.02C144.743 150.646 144.385 150.319 143.942 150.218Z" fill="#323232"/>
<path d="M159.83 182.84C159.239 182.14 157.955 182.186 157.356 182.84C156.671 183.587 156.725 184.568 157.356 185.315C157.542 185.533 157.721 185.759 157.9 185.985C157.931 186.024 158.04 186.172 158.103 186.242C158.118 186.257 158.134 186.281 158.141 186.288C158.196 186.358 158.25 186.428 158.305 186.498C158.554 186.833 158.803 187.176 159.052 187.518C160.25 189.199 161.363 190.959 162.187 192.858C162.553 193.699 163.852 193.955 164.584 193.488C165.455 192.928 165.603 191.994 165.214 191.091C163.915 188.102 161.938 185.315 159.838 182.832L159.83 182.84Z" fill="#323232"/>
<path d="M143.965 182.046C143.078 181.579 142.129 181.867 141.569 182.677C139.624 185.51 137.951 188.553 136.309 191.574C135.874 192.375 136.084 193.52 136.939 193.971C137.756 194.399 138.869 194.205 139.336 193.341C140.97 190.32 142.643 187.277 144.596 184.444C145.117 183.689 144.759 182.466 143.965 182.046Z" fill="#323232"/>
<path d="M140.402 157.869C138.145 157.869 138.145 161.372 140.402 161.372C142.658 161.372 142.658 157.869 140.402 157.869Z" fill="#323232"/>
<path d="M151.691 173.85C149.435 173.85 149.435 177.353 151.691 177.353C153.948 177.353 153.948 173.85 151.691 173.85Z" fill="#323232"/>
<path d="M161.3 157.869C159.044 157.869 159.044 161.372 161.3 161.372C163.557 161.372 163.557 157.869 161.3 157.869Z" fill="#323232"/>
<path d="M151.948 250.085H151.092C151.38 250.17 151.668 250.163 151.948 250.085Z" fill="#323232"/>
<path d="M211.96 228.189C206.98 224.686 201.184 222.18 195.535 219.977C190.719 218.101 185.692 216.708 180.954 214.645C180.869 214.606 180.783 214.59 180.697 214.559C179.414 211.368 178.138 208.177 176.854 204.985C176.519 204.152 175.679 203.421 174.699 203.763C174.239 203.919 173.78 204.082 173.329 204.238C173.111 202.3 172.901 200.354 172.683 198.416C172.644 198.089 172.613 197.754 172.574 197.427C172.574 197.365 172.559 197.31 172.551 197.256C175.445 192.305 176.231 186.242 177.258 180.653C179.11 179.672 181.032 178.528 182.355 176.924C184.634 174.153 185.879 170.518 185.436 166.922C185.062 163.902 183.459 160.656 180.269 159.878C180.036 159.823 179.803 159.777 179.569 159.753C180.892 152.911 181.219 145.696 180.783 138.768C180.588 135.701 180.308 132.463 179.133 129.599C177.577 125.823 174.73 122.764 171.252 120.67C167.33 118.312 163.012 117.456 158.484 117.479C155.893 117.495 153.442 117.417 150.937 116.724C148.602 116.078 146.354 115.175 144.027 114.521C140.293 113.463 136.535 113.517 132.917 114.996C129.602 116.35 126.194 119.075 126.194 122.998C126.194 124.376 126.615 125.675 127.237 126.89C122.872 128.914 120.522 134.253 119.682 138.776C119.06 142.146 119.355 145.353 119.666 148.723C119.985 152.195 119.923 155.659 120.958 159.029C121.02 159.232 121.129 159.411 121.262 159.566C119.565 159.527 117.877 160.197 116.663 161.512C114.773 163.583 114.259 166.657 114.5 169.366C114.741 172.083 115.566 174.799 117.496 176.808C118.873 178.24 120.678 179.33 122.545 180.092C123.316 185.533 123.782 191.216 126.537 196.08C126.739 196.438 126.972 196.75 127.19 197.077C127.19 197.077 127.19 197.085 127.19 197.092C127.097 199.319 127.011 201.545 126.918 203.771C125.984 203.46 125.051 204.137 124.763 204.993C123.798 207.896 122.825 210.807 121.861 213.711C115.714 215.75 109.575 217.821 103.46 219.93C99.3281 221.355 95.1966 222.787 91.1196 224.336C89.7346 224.865 88.2407 225.332 86.9725 226.111C84.8484 227.403 83.3701 229.559 82.2886 231.754C79.472 237.467 78.3516 243.881 76.9978 250.093H80.5846C81.1993 247.298 81.7906 244.504 82.5065 241.741C83.3779 238.355 84.3582 234.86 86.2178 231.863C86.8947 230.773 87.7272 229.722 88.8554 229.061C89.8046 228.508 89.8435 228.57 90.8239 228.181C92.8935 227.364 94.9865 226.609 97.0717 225.861C102.58 223.892 108.112 222.008 113.66 220.133C113.815 220.078 113.971 220.031 114.127 219.985C113.325 224.219 112.501 228.446 112.485 232.781C112.485 232.875 112.501 232.96 112.508 233.038C110.68 233.536 108.587 234.408 108.073 236.339C107.677 237.849 108.392 239.647 108.82 241.079C109.505 243.383 110.291 245.664 111.131 247.921C111.396 248.637 111.668 249.361 111.948 250.077H115.659C114.454 247.376 113.559 244.473 112.672 241.686C112.205 240.23 111.738 238.752 111.458 237.249C111.497 237.358 111.52 237.358 111.458 237.249C111.528 237.195 111.614 237.156 111.606 237.164C112.306 236.704 113.069 236.502 114.01 236.268C116.282 235.716 118.647 235.576 120.904 234.969C123.074 234.385 122.156 231.007 119.97 231.59C118.663 231.941 117.325 232.135 115.994 232.345C116.064 227.73 117.06 223.332 117.893 218.778C118.632 218.545 119.363 218.303 120.094 218.062C121.339 223.83 122.709 229.567 124.234 235.264C125.572 240.246 126.98 245.243 128.801 250.085H132.512C130.427 244.854 128.941 239.335 127.494 233.918C126.498 230.182 125.588 226.422 124.708 222.662C130.52 230.002 136.628 237.195 143.288 243.749C145.568 245.991 147.957 248.248 150.68 249.937C150.812 250.023 150.952 250.054 151.084 250.093H151.94C152.244 250.007 152.539 249.867 152.804 249.665C157.752 245.819 162.047 241.079 166.264 236.463C169.766 232.626 173.174 228.703 176.527 224.741C175.733 228.002 174.792 231.279 173.92 234.361C172.434 239.608 170.933 245.018 168.816 250.093H172.574C174.465 245.274 175.897 240.223 177.297 235.288C178.846 229.816 180.472 224.196 181.335 218.537C182.604 219.035 183.88 219.518 185.171 219.969C185.257 221.923 185.296 223.884 185.28 225.846C185.265 227.107 185.233 228.376 185.156 229.637C185.117 230.22 185.07 230.804 185.008 231.38C184.992 231.52 184.977 231.66 184.961 231.801C184.961 231.824 184.961 231.832 184.961 231.839C184.961 231.855 184.961 231.871 184.953 231.894C184.914 232.135 184.876 232.377 184.829 232.626C184.829 232.665 184.829 232.696 184.829 232.735C183.662 232.563 182.502 232.392 181.437 232.018C179.305 231.271 178.387 234.657 180.503 235.397C181.818 235.856 183.195 236.058 184.564 236.276C185.669 236.448 187.07 236.549 188.034 237.164C187.98 237.125 188.486 237.475 188.4 237.428C188.672 237.576 188.579 237.545 188.486 237.506C188.486 237.483 188.486 237.483 188.486 237.506C188.486 237.506 188.478 237.506 188.47 237.506C188.478 237.537 188.486 237.561 188.493 237.592C188.493 237.607 188.493 237.607 188.493 237.623C188.493 237.771 188.493 237.911 188.486 238.059C188.47 238.495 188.493 238.144 188.439 238.425C188.408 238.611 188.369 238.798 188.322 238.985C188.206 239.514 188.05 240.036 187.887 240.55C186.844 243.842 185.381 246.979 183.895 250.108H187.778C189.279 246.956 190.695 243.757 191.575 240.417C192.174 238.144 192.29 235.926 190.182 234.408C189.583 233.972 188.921 233.676 188.229 233.443C188.68 231.022 188.758 228.524 188.789 226.072C188.812 224.453 188.789 222.834 188.727 221.222C189.575 221.518 190.415 221.806 191.256 222.117C196.686 224.095 202.016 226.36 207.019 229.271C208.046 229.87 209.54 230.672 210.271 231.295C210.536 231.52 210.894 231.98 211.166 232.392C211.96 233.622 212.543 234.976 213.057 236.346C214.341 239.756 215.259 243.305 216.076 246.855C216.325 247.936 216.566 249.026 216.791 250.116H220.355C219.445 245.329 218.285 240.542 216.644 235.973C215.648 233.217 214.473 229.971 211.975 228.22L211.96 228.189ZM111.458 237.234C111.458 237.195 111.442 237.156 111.435 237.117C111.442 237.164 111.458 237.203 111.466 237.234C111.466 237.234 111.466 237.234 111.466 237.241C111.466 237.241 111.466 237.241 111.466 237.234H111.458ZM135.671 117.728C139.242 116.74 142.386 117.588 145.817 118.74C147.614 119.339 149.404 119.985 151.256 120.398C153.559 120.92 155.862 120.974 158.211 120.966C162.094 120.951 165.704 121.511 169.12 123.457C172.139 125.185 174.792 127.824 176.013 131.14C176.885 133.49 177.118 136.075 177.282 138.558C177.71 145.049 177.484 151.829 176.301 158.266C176.006 158.251 175.718 158.243 175.422 158.235C175.243 157.893 175.056 157.543 174.885 157.192C174.169 155.706 173.555 154.18 173.033 152.615C172.38 150.677 171.835 148.669 171.563 146.637C171.306 144.754 171.47 142.847 171.594 140.955C171.695 139.476 171.851 137.873 171.423 136.433C170.941 134.814 169.781 134.168 168.272 133.662C164.708 132.455 160.911 131.918 157.161 131.669C157.044 131.661 156.928 131.653 156.811 131.653C156.679 131.467 156.5 131.295 156.29 131.163C156.134 131.062 155.978 130.961 155.823 130.852C155.784 130.828 155.621 130.727 155.504 130.642C155.527 130.657 155.527 130.642 155.41 130.548C155.34 130.486 155.263 130.431 155.193 130.369C155.045 130.245 154.905 130.12 154.765 129.995C154.197 129.49 153.675 128.937 153.185 128.345C153.139 128.283 153.092 128.229 153.037 128.166C153.037 128.166 153.037 128.166 153.03 128.151C152.913 127.995 152.804 127.847 152.695 127.684C152.485 127.38 152.29 127.077 152.104 126.765C151.909 126.43 151.722 126.096 151.544 125.746C151.458 125.574 151.372 125.395 151.295 125.224C151.256 125.146 151.225 125.068 151.186 124.99C151.186 124.975 151.178 124.967 151.17 124.952C150.991 124.508 150.789 124.15 150.369 123.909C149.995 123.691 149.443 123.597 149.023 123.729C148.206 123.994 147.435 124.975 147.801 125.886C148.657 128.011 149.871 129.941 151.411 131.583C151.1 131.599 150.789 131.607 150.478 131.622C150.369 131.622 150.268 131.653 150.166 131.677C150.112 131.677 150.065 131.677 150.011 131.685C149.287 131.801 148.556 131.918 147.817 132.035C147.677 131.731 147.443 131.467 147.132 131.264C146.961 131.155 146.797 131.039 146.626 130.922C146.548 130.867 146.478 130.813 146.401 130.758C146.074 130.486 145.747 130.221 145.428 129.933C144.743 129.311 144.105 128.641 143.506 127.941C143.358 127.769 143.218 127.598 143.078 127.427C143.078 127.427 143.047 127.388 143.016 127.341C143 127.318 142.884 127.17 142.86 127.139C142.588 126.773 142.324 126.392 142.067 126.01C141.826 125.637 141.6 125.263 141.39 124.874C141.297 124.695 141.203 124.516 141.118 124.337C141.063 124.235 141.016 124.126 140.97 124.017C140.954 123.986 140.946 123.979 140.946 123.963C140.775 123.55 140.573 123.208 140.168 122.974C139.795 122.757 139.242 122.663 138.822 122.795C138.005 123.06 137.227 124.041 137.601 124.952C138.41 126.936 139.577 128.68 140.954 130.315C141.6 131.077 142.3 131.817 143.047 132.494C141.001 132.533 138.962 132.323 137.017 131.599C136.722 131.49 136.441 131.358 136.161 131.225C134.769 130.089 133.376 128.952 131.991 127.808C130.933 126.524 129.937 124.998 129.75 123.449C129.369 120.297 133.205 118.436 135.694 117.744L135.671 117.728ZM157.41 170.697C157.324 170.612 156.99 170.199 157.114 170.378C157.005 170.222 156.904 170.043 156.819 169.872C156.85 169.888 156.733 169.475 156.71 169.491C156.694 169.343 156.694 169.195 156.71 169.047C156.725 169.008 156.772 168.814 156.803 168.697C156.811 168.712 156.967 168.385 157.013 168.3C157.044 168.253 157.06 168.23 157.076 168.206C157.177 168.082 157.293 167.957 157.402 167.841C158.904 166.354 161.689 165.879 163.961 166.152C165.253 166.307 166.428 166.704 167.478 167.405C167.626 167.498 167.782 167.623 168.007 167.848C168.093 167.934 168.178 168.02 168.256 168.113C168.287 168.152 168.311 168.175 168.334 168.199C168.35 168.222 168.365 168.261 168.404 168.315C168.466 168.409 168.521 168.502 168.575 168.603C168.599 168.642 168.614 168.673 168.622 168.689C168.622 168.712 168.637 168.744 168.645 168.79C168.653 168.829 168.669 168.876 168.676 168.915C168.684 168.985 168.692 169.047 168.707 169.117C168.715 169.179 168.723 169.242 168.723 169.281C168.715 169.631 168.7 169.732 168.529 170.028C168.474 170.121 168.412 170.222 168.357 170.316C168.334 170.347 168.334 170.347 168.334 170.363C168.334 170.37 168.334 170.363 168.318 170.378C168.147 170.588 167.953 170.783 167.743 170.954C167.066 171.538 165.883 172.005 164.817 172.246C162.491 172.76 159.674 172.456 157.776 171.032C157.892 171.125 157.457 170.752 157.41 170.705V170.697ZM165.86 162.96C162.366 162.143 158.266 162.633 155.426 164.945C154.842 165.42 154.391 165.965 154.041 166.556C153.146 166.354 152.228 166.237 151.318 166.237C150.431 166.237 149.544 166.346 148.665 166.486C147.49 164.649 145.288 163.458 143.164 162.96C139.67 162.143 135.57 162.633 132.73 164.945C132.419 165.194 132.147 165.467 131.905 165.755C130.279 164.307 128.645 162.851 127.019 161.403C126.77 161.178 126.521 160.96 126.264 160.734C126.194 160.672 126.124 160.625 126.047 160.57C126.482 159.979 126.591 159.099 126.809 158.337C127.502 155.861 129.524 153.9 130.528 151.533C131.89 148.295 131.361 145.042 131.672 141.656C131.952 138.604 133.158 135.981 136.2 134.985C140.845 136.557 145.786 135.903 150.579 135.125C152.633 134.993 154.718 135.039 156.772 135.164C158.795 135.281 160.81 135.506 162.802 135.88C163.876 136.082 164.949 136.332 166 136.635C166.474 136.767 167.758 136.962 168.038 137.328C168.342 137.725 168.202 138.721 168.194 139.165C168.178 140.13 168.085 141.095 168.023 142.06C167.883 144.271 167.961 146.412 168.357 148.591C169.058 152.39 170.419 156.134 172.17 159.574C172.644 160.508 173.041 161.333 174.022 161.621C172.917 162.96 171.812 164.299 170.699 165.638C169.462 164.283 167.642 163.388 165.86 162.968V162.96ZM134.706 170.697C134.621 170.612 134.286 170.199 134.411 170.378C134.302 170.222 134.201 170.043 134.115 169.872C134.146 169.888 134.029 169.475 134.006 169.491C133.991 169.343 133.991 169.195 134.006 169.047C134.022 169.008 134.068 168.814 134.099 168.697C134.107 168.712 134.263 168.385 134.31 168.3C134.341 168.253 134.356 168.23 134.372 168.206C134.473 168.082 134.59 167.957 134.699 167.841C136.2 166.354 138.986 165.879 141.258 166.152C142.549 166.307 143.724 166.704 144.774 167.405C144.922 167.498 145.078 167.623 145.303 167.848C145.389 167.934 145.475 168.02 145.552 168.113C145.584 168.152 145.607 168.175 145.63 168.199C145.646 168.222 145.661 168.261 145.7 168.315C145.763 168.409 145.817 168.502 145.871 168.603C145.895 168.642 145.91 168.673 145.918 168.689C145.918 168.712 145.934 168.744 145.942 168.79C145.957 168.86 145.98 168.93 145.996 168.993C145.996 169.008 146.027 169.195 146.027 169.273C146.019 169.623 146.004 169.724 145.833 170.02C145.778 170.113 145.716 170.215 145.661 170.308C145.638 170.339 145.638 170.339 145.638 170.355C145.638 170.363 145.638 170.355 145.623 170.37C145.451 170.581 145.257 170.775 145.047 170.946C144.37 171.53 143.187 171.997 142.121 172.238C139.795 172.752 136.978 172.449 135.08 171.024C135.197 171.118 134.761 170.744 134.714 170.697H134.706ZM122.903 140.737C123.214 138.176 124.117 135.724 125.346 133.467C126.249 131.801 127.346 130.548 129.042 129.91C129.268 130.097 129.493 130.276 129.719 130.463C130.536 131.428 131.423 132.284 132.419 133.023C130.583 134.331 129.283 136.223 128.661 138.581C127.743 142.037 128.676 145.696 127.696 149.089C126.941 151.72 124.965 153.721 123.884 156.204C123.463 154.001 123.409 151.767 123.246 149.502C123.028 146.56 122.553 143.695 122.911 140.737H122.903ZM125.821 178.357C125.728 177.757 125.128 177.306 124.599 177.135C121.246 176.037 118.78 173.749 118.134 170.238C117.815 168.518 117.815 166.502 118.577 164.891C119.347 163.256 121.036 162.493 122.654 163.536C123.238 163.91 123.814 163.886 124.265 163.63C125.891 165.077 127.525 166.533 129.151 167.981C129.4 168.206 129.649 168.424 129.898 168.65C130.1 168.829 130.334 168.954 130.583 169.039C130.52 170.378 130.964 171.74 131.983 172.908C134.364 175.617 138.589 176.271 141.973 175.796C145.233 175.336 148.991 173.414 149.466 169.872C149.567 169.857 149.668 169.841 149.77 169.825C150.283 169.771 150.797 169.724 151.31 169.724C151.567 169.724 151.824 169.732 152.088 169.755C152.22 169.763 152.353 169.779 152.485 169.794C152.501 169.794 152.516 169.794 152.539 169.802C152.804 169.849 153.061 169.903 153.317 169.966C153.458 170.993 153.901 172.013 154.687 172.9C157.068 175.609 161.293 176.263 164.677 175.788C167.984 175.321 171.812 173.336 172.185 169.685C172.209 169.553 172.224 169.413 172.224 169.257C172.224 169.249 172.224 169.242 172.224 169.234C173.57 167.607 174.916 165.98 176.262 164.353C176.48 164.089 176.698 163.824 176.916 163.559C176.924 163.552 176.932 163.536 176.939 163.528C176.963 163.528 176.978 163.513 177.017 163.505C177.422 163.373 177.834 163.233 178.262 163.186C179.437 163.061 180.402 163.521 181.047 164.517C183.086 167.685 181.896 172.472 179.375 175.017C178.363 176.045 177.002 176.769 175.757 177.469C174.909 177.944 174.224 178.279 173.967 179.306C173.158 182.583 172.753 185.954 171.921 189.231C170.956 192.998 169.509 196.54 166.482 199.116C163.479 201.669 159.783 203.382 155.955 204.269C148.579 205.966 141.32 203.833 134.986 199.98C127.432 195.38 126.996 186.195 125.829 178.349L125.821 178.357ZM153.302 214.863C153.302 214.863 153.302 214.917 153.317 214.941C153.956 217.081 154.594 219.222 155.232 221.362C155.161 221.479 155.099 221.611 155.045 221.744C154.485 223.332 153.924 224.92 153.364 226.508C151.831 226.492 150.299 226.469 148.766 226.453C148.369 225.27 147.972 224.087 147.575 222.904C147.498 222.67 147.365 222.452 147.21 222.265C147.98 219.813 148.758 217.361 149.528 214.91C150.758 215.198 151.979 215.268 153.294 214.871L153.302 214.863ZM150.4 211.633C150.4 211.633 150.423 211.633 150.47 211.633C150.415 211.633 150.4 211.633 150.4 211.633ZM153.683 211.041C153.177 211.22 152.641 211.36 152.143 211.578C152.088 211.601 152.034 211.617 151.987 211.633H151.536C151.24 211.633 150.929 211.609 150.633 211.633C150.594 211.633 150.587 211.633 150.555 211.633C150.54 211.633 150.524 211.625 150.509 211.617C150.096 211.415 149.583 211.313 149.147 211.166C145.07 209.803 140.985 208.449 136.908 207.087C134.73 206.363 132.551 205.639 130.373 204.907C130.427 203.569 130.482 202.23 130.536 200.883C133.244 203.218 136.519 204.829 139.958 206.262C145.552 208.589 151.645 208.994 157.519 207.492C161.798 206.402 166.21 204.277 169.486 201.124C169.602 202.175 169.719 203.234 169.836 204.285C169.875 204.612 169.906 204.946 169.945 205.273C169.945 205.312 169.96 205.351 169.96 205.39C164.537 207.274 159.106 209.15 153.683 211.033V211.041ZM126.078 212.076C126.568 210.605 127.058 209.134 127.548 207.655C133.765 209.726 139.974 211.796 146.19 213.867C145.249 216.856 144.308 219.852 143.358 222.841C138.036 220.436 132.722 218.031 127.4 215.626C126.7 215.307 126 214.987 125.3 214.676C125.626 213.789 125.836 212.824 126.078 212.084V212.076ZM142.884 238.316C141.545 236.907 140.223 235.482 138.923 234.035C134.574 229.177 130.396 224.165 126.327 219.066C126.288 219.012 126.241 218.957 126.202 218.91C131.127 221.137 136.052 223.363 140.978 225.597C141.833 225.986 142.689 226.375 143.545 226.757C144.105 227.013 144.697 227.013 145.187 226.796C145.366 227.333 145.545 227.877 145.724 228.415C144.292 231.505 143.374 234.906 142.876 238.323L142.884 238.316ZM151.473 246.232C149.614 244.932 147.933 243.367 146.307 241.795C146.214 241.702 146.128 241.608 146.035 241.515C146.058 241.203 146.089 240.892 146.128 240.573C146.152 240.371 146.175 240.168 146.198 239.966C146.198 239.927 146.198 239.911 146.206 239.888C146.222 239.787 146.237 239.686 146.245 239.592C146.331 239.001 146.424 238.417 146.533 237.825C147.023 235.14 147.754 232.306 148.859 229.956C150.353 229.971 151.855 229.995 153.349 230.01C154.531 232.812 155.442 235.739 155.994 238.728C156.041 239.001 156.087 239.265 156.134 239.538C156.15 239.647 156.212 240.09 156.22 240.145C156.259 240.48 156.305 240.822 156.329 241.157C156.344 241.344 156.352 241.538 156.36 241.733C154.788 243.297 153.162 244.823 151.458 246.232H151.473ZM159.503 238.518C159.464 238.277 159.417 238.035 159.379 237.794C158.779 234.533 157.721 231.38 156.422 228.329C156.648 227.691 156.873 227.06 157.091 226.422C157.519 226.772 158.087 226.959 158.616 226.741C164.062 224.562 169.501 222.382 174.948 220.203C175.36 220.039 175.78 219.868 176.192 219.704C170.847 226.157 165.323 232.486 159.503 238.51V238.518ZM176.395 215.89C170.948 218.07 165.51 220.249 160.063 222.429C159.806 222.53 159.542 222.639 159.285 222.74C158.422 219.829 157.55 216.918 156.686 214.014C156.655 213.913 156.616 213.835 156.578 213.75C159.433 212.761 162.288 211.773 165.144 210.776C168.155 209.733 171.166 208.69 174.169 207.647C175.282 210.418 176.395 213.189 177.5 215.96C177.149 215.797 176.753 215.75 176.387 215.898L176.395 215.89Z" fill="#323232"/>
<path d="M188.448 237.483C188.448 237.483 188.448 237.475 188.448 237.467C188.345 237.428 188.392 237.452 188.448 237.483Z" fill="#323232"/>
</g>
<defs>
<clipPath id="clip0_108_224">
<rect width="145.388" height="136.358" fill="white" transform="translate(74.9515 113.782)"/>
</clipPath>
</defs>
</svg>
