<svg width="172" height="127" viewBox="0 0 172 127" fill="none" xmlns="http://www.w3.org/2000/svg">
<g filter="url(#filter0_d_230_164)">
<rect x="4" y="2" width="164" height="119" rx="5" fill="url(#paint0_linear_230_164)" shape-rendering="crispEdges"/>
<path d="M48.2542 82.1449C47.5809 82.142 47.0057 81.9645 46.5284 81.6122C46.0511 81.2599 45.6861 80.7472 45.4332 80.0739C45.1804 79.4006 45.0539 78.5895 45.0539 77.6406C45.0539 76.6946 45.1804 75.8864 45.4332 75.2159C45.6889 74.5455 46.0554 74.0341 46.5326 73.6818C47.0128 73.3295 47.5866 73.1534 48.2542 73.1534C48.9218 73.1534 49.4943 73.331 49.9716 73.6861C50.4488 74.0384 50.8139 74.5497 51.0667 75.2202C51.3224 75.8878 51.4503 76.6946 51.4503 77.6406C51.4503 78.5923 51.3238 79.4048 51.071 80.0781C50.8182 80.7486 50.4531 81.2614 49.9758 81.6165C49.4986 81.9688 48.9247 82.1449 48.2542 82.1449ZM48.2542 81.0071C48.8451 81.0071 49.3068 80.7188 49.6392 80.142C49.9744 79.5653 50.142 78.7315 50.142 77.6406C50.142 76.9162 50.0653 76.304 49.9119 75.804C49.7613 75.3011 49.544 74.9205 49.2599 74.6619C48.9787 74.4006 48.6434 74.2699 48.2542 74.2699C47.6662 74.2699 47.2045 74.5597 46.8693 75.1392C46.5341 75.7187 46.365 76.5526 46.3622 77.6406C46.3622 78.3679 46.4375 78.983 46.588 79.4858C46.7414 79.9858 46.9588 80.3651 47.24 80.6236C47.5213 80.8793 47.8593 81.0071 48.2542 81.0071ZM56.1411 73.2727V82H54.82V74.5938H54.7689L52.6808 75.9574V74.696L54.8584 73.2727H56.1411ZM58.3698 82V81.0455L61.323 77.9858C61.6383 77.6534 61.8983 77.3622 62.1028 77.1122C62.3102 76.8594 62.465 76.6193 62.5673 76.392C62.6696 76.1648 62.7207 75.9233 62.7207 75.6676C62.7207 75.3778 62.6525 75.1278 62.5162 74.9176C62.3798 74.7045 62.1937 74.5412 61.9579 74.4276C61.7221 74.3111 61.4565 74.2528 61.161 74.2528C60.8485 74.2528 60.5758 74.3168 60.3429 74.4446C60.1099 74.5724 59.9309 74.7528 59.8059 74.9858C59.6809 75.2187 59.6184 75.4915 59.6184 75.804H58.3613C58.3613 75.2727 58.4835 74.8082 58.7278 74.4105C58.9721 74.0128 59.3073 73.7045 59.7335 73.4858C60.1596 73.2642 60.644 73.1534 61.1866 73.1534C61.7349 73.1534 62.2179 73.2628 62.6355 73.4815C63.0559 73.6974 63.3841 73.9929 63.6198 74.3679C63.8556 74.7401 63.9735 75.1605 63.9735 75.6293C63.9735 75.9531 63.9125 76.2699 63.7903 76.5795C63.671 76.8892 63.4622 77.2344 63.1639 77.6151C62.8656 77.9929 62.4508 78.4517 61.9196 78.9915L60.1852 80.8068V80.8707H64.1142V82H58.3698ZM68.6356 82.1449C67.9623 82.142 67.387 81.9645 66.9097 81.6122C66.4325 81.2599 66.0674 80.7472 65.8146 80.0739C65.5617 79.4006 65.4353 78.5895 65.4353 77.6406C65.4353 76.6946 65.5617 75.8864 65.8146 75.2159C66.0702 74.5455 66.4367 74.0341 66.914 73.6818C67.3941 73.3295 67.968 73.1534 68.6356 73.1534C69.3032 73.1534 69.8756 73.331 70.3529 73.6861C70.8302 74.0384 71.1952 74.5497 71.4481 75.2202C71.7038 75.8878 71.8316 76.6946 71.8316 77.6406C71.8316 78.5923 71.7052 79.4048 71.4523 80.0781C71.1995 80.7486 70.8344 81.2614 70.3572 81.6165C69.8799 81.9688 69.306 82.1449 68.6356 82.1449ZM68.6356 81.0071C69.2265 81.0071 69.6881 80.7188 70.0205 80.142C70.3557 79.5653 70.5234 78.7315 70.5234 77.6406C70.5234 76.9162 70.4467 76.304 70.2932 75.804C70.1427 75.3011 69.9253 74.9205 69.6413 74.6619C69.36 74.4006 69.0248 74.2699 68.6356 74.2699C68.0475 74.2699 67.5859 74.5597 67.2506 75.1392C66.9154 75.7187 66.7464 76.5526 66.7435 77.6406C66.7435 78.3679 66.8188 78.983 66.9694 79.4858C67.1228 79.9858 67.3401 80.3651 67.6214 80.6236C67.9026 80.8793 68.2407 81.0071 68.6356 81.0071ZM77.0849 77.0824V78.1903H73.2156V77.0824H77.0849ZM81.5829 82.1193C80.9721 82.1193 80.4323 82.0142 79.9636 81.804C79.4976 81.5937 79.1326 81.304 78.8684 80.9347C78.6042 80.5653 78.4735 80.1449 78.4763 79.6733C78.4735 79.304 78.5488 78.9645 78.7022 78.6548C78.8584 78.3423 79.0701 78.0824 79.3371 77.875C79.6042 77.6648 79.9025 77.5312 80.232 77.4744V77.4233C79.7974 77.3182 79.4493 77.0852 79.188 76.7244C78.9266 76.3636 78.7974 75.9489 78.8002 75.4801C78.7974 75.0341 78.9153 74.6364 79.1539 74.2869C79.3954 73.9347 79.7263 73.6577 80.1468 73.456C80.5672 73.2543 81.0459 73.1534 81.5829 73.1534C82.1141 73.1534 82.5886 73.2557 83.0062 73.4602C83.4266 73.6619 83.7576 73.9389 83.9991 74.2912C84.2405 74.6406 84.3627 75.0369 84.3655 75.4801C84.3627 75.9489 84.2292 76.3636 83.965 76.7244C83.7008 77.0852 83.357 77.3182 82.9337 77.4233V77.4744C83.2604 77.5312 83.5545 77.6648 83.8158 77.875C84.08 78.0824 84.2903 78.3423 84.4465 78.6548C84.6056 78.9645 84.6866 79.304 84.6894 79.6733C84.6866 80.1449 84.553 80.5653 84.2888 80.9347C84.0246 81.304 83.6582 81.5937 83.1894 81.804C82.7235 82.0142 82.188 82.1193 81.5829 82.1193ZM81.5829 81.0412C81.9437 81.0412 82.2562 80.9815 82.5204 80.8622C82.7846 80.7401 82.9891 80.571 83.134 80.3551C83.2789 80.1364 83.3528 79.8807 83.3556 79.5881C83.3528 79.2841 83.2732 79.0156 83.117 78.7827C82.9636 78.5497 82.7547 78.3665 82.4905 78.233C82.2263 78.0994 81.9238 78.0327 81.5829 78.0327C81.2391 78.0327 80.9337 78.0994 80.6667 78.233C80.3996 78.3665 80.1894 78.5497 80.036 78.7827C79.8826 79.0156 79.8073 79.2841 79.8101 79.5881C79.8073 79.8807 79.8769 80.1364 80.0189 80.3551C80.1638 80.571 80.3698 80.7401 80.6368 80.8622C80.9039 80.9815 81.2192 81.0412 81.5829 81.0412ZM81.5829 76.9801C81.8726 76.9801 82.1297 76.9219 82.3542 76.8054C82.5786 76.6889 82.7547 76.527 82.8826 76.3196C83.0133 76.1122 83.08 75.8693 83.0829 75.5909C83.08 75.3182 83.0147 75.0795 82.8868 74.875C82.7618 74.6705 82.5871 74.5128 82.3627 74.402C82.1383 74.2884 81.8783 74.2315 81.5829 74.2315C81.2817 74.2315 81.0175 74.2884 80.7903 74.402C80.5658 74.5128 80.3911 74.6705 80.2661 74.875C80.1411 75.0795 80.08 75.3182 80.0829 75.5909C80.08 75.8693 80.1425 76.1122 80.2704 76.3196C80.3982 76.527 80.5743 76.6889 80.7988 76.8054C81.0261 76.9219 81.2874 76.9801 81.5829 76.9801ZM88.986 73.1534C89.3752 73.1562 89.7588 73.2273 90.1366 73.3665C90.5144 73.5057 90.8553 73.733 91.1593 74.0483C91.4661 74.3636 91.7105 74.7898 91.8923 75.3267C92.0769 75.8608 92.1707 76.5256 92.1735 77.321C92.1735 78.0852 92.0968 78.7656 91.9434 79.3622C91.79 79.956 91.5698 80.4574 91.2829 80.8665C90.9988 81.2756 90.6536 81.5866 90.2474 81.7997C89.8411 82.0128 89.3838 82.1193 88.8752 82.1193C88.3553 82.1193 87.8937 82.017 87.4903 81.8125C87.0869 81.608 86.7588 81.3253 86.5059 80.9645C86.2531 80.6009 86.0954 80.1832 86.0329 79.7116H87.3326C87.4178 80.0866 87.5911 80.3906 87.8525 80.6236C88.1167 80.8537 88.4576 80.9688 88.8752 80.9688C89.5144 80.9688 90.013 80.6903 90.371 80.1335C90.7289 79.5739 90.9093 78.7926 90.9122 77.7898H90.844C90.6963 78.0341 90.5116 78.2443 90.29 78.4205C90.0713 78.5966 89.8255 78.733 89.5528 78.8295C89.2801 78.9261 88.9889 78.9744 88.6792 78.9744C88.1764 78.9744 87.719 78.8509 87.307 78.6037C86.8951 78.3565 86.567 78.017 86.3227 77.5852C86.0784 77.1534 85.9562 76.6605 85.9562 76.1065C85.9562 75.5554 86.0812 75.0554 86.3312 74.6065C86.584 74.1577 86.9363 73.8026 87.388 73.5412C87.8426 73.277 88.3752 73.1477 88.986 73.1534ZM88.9903 74.2614C88.6579 74.2614 88.3582 74.3437 88.0911 74.5085C87.8269 74.6705 87.6181 74.8906 87.4647 75.169C87.3113 75.4446 87.2346 75.7514 87.2346 76.0895C87.2346 76.4276 87.3085 76.7344 87.4562 77.0099C87.6068 77.2827 87.8113 77.5 88.0698 77.6619C88.3312 77.821 88.6295 77.9006 88.9647 77.9006C89.2147 77.9006 89.4477 77.8523 89.6636 77.7557C89.8795 77.6591 90.0684 77.5256 90.2303 77.3551C90.3923 77.1818 90.5187 76.9858 90.6096 76.767C90.7005 76.5483 90.746 76.3182 90.746 76.0767C90.746 75.7557 90.6693 75.4574 90.5159 75.1818C90.3653 74.9062 90.1579 74.6847 89.8937 74.517C89.6295 74.3466 89.3284 74.2614 88.9903 74.2614ZM96.4829 73.1534C96.8721 73.1562 97.2557 73.2273 97.6335 73.3665C98.0113 73.5057 98.3523 73.733 98.6562 74.0483C98.963 74.3636 99.2074 74.7898 99.3892 75.3267C99.5738 75.8608 99.6676 76.5256 99.6704 77.321C99.6704 78.0852 99.5937 78.7656 99.4403 79.3622C99.2869 79.956 99.0667 80.4574 98.7798 80.8665C98.4957 81.2756 98.1505 81.5866 97.7443 81.7997C97.338 82.0128 96.8807 82.1193 96.3721 82.1193C95.8523 82.1193 95.3906 82.017 94.9872 81.8125C94.5838 81.608 94.2557 81.3253 94.0028 80.9645C93.75 80.6009 93.5923 80.1832 93.5298 79.7116H94.8295C94.9148 80.0866 95.088 80.3906 95.3494 80.6236C95.6136 80.8537 95.9545 80.9688 96.3721 80.9688C97.0113 80.9688 97.5099 80.6903 97.8679 80.1335C98.2258 79.5739 98.4062 78.7926 98.4091 77.7898H98.3409C98.1932 78.0341 98.0085 78.2443 97.7869 78.4205C97.5682 78.5966 97.3224 78.733 97.0497 78.8295C96.777 78.9261 96.4858 78.9744 96.1761 78.9744C95.6733 78.9744 95.2159 78.8509 94.804 78.6037C94.392 78.3565 94.0639 78.017 93.8196 77.5852C93.5753 77.1534 93.4531 76.6605 93.4531 76.1065C93.4531 75.5554 93.5781 75.0554 93.8281 74.6065C94.0809 74.1577 94.4332 73.8026 94.8849 73.5412C95.3395 73.277 95.8721 73.1477 96.4829 73.1534ZM96.4872 74.2614C96.1548 74.2614 95.8551 74.3437 95.588 74.5085C95.3238 74.6705 95.115 74.8906 94.9616 75.169C94.8082 75.4446 94.7315 75.7514 94.7315 76.0895C94.7315 76.4276 94.8054 76.7344 94.9531 77.0099C95.1037 77.2827 95.3082 77.5 95.5667 77.6619C95.8281 77.821 96.1264 77.9006 96.4616 77.9006C96.7116 77.9006 96.9446 77.8523 97.1605 77.7557C97.3764 77.6591 97.5653 77.5256 97.7273 77.3551C97.8892 77.1818 98.0156 76.9858 98.1065 76.767C98.1974 76.5483 98.2429 76.3182 98.2429 76.0767C98.2429 75.7557 98.1662 75.4574 98.0128 75.1818C97.8622 74.9062 97.6548 74.6847 97.3906 74.517C97.1264 74.3466 96.8253 74.2614 96.4872 74.2614ZM104.951 77.0824V78.1903H101.082V77.0824H104.951ZM109.539 82.1449C108.866 82.142 108.29 81.9645 107.813 81.6122C107.336 81.2599 106.971 80.7472 106.718 80.0739C106.465 79.4006 106.339 78.5895 106.339 77.6406C106.339 76.6946 106.465 75.8864 106.718 75.2159C106.974 74.5455 107.34 74.0341 107.817 73.6818C108.297 73.3295 108.871 73.1534 109.539 73.1534C110.207 73.1534 110.779 73.331 111.256 73.6861C111.733 74.0384 112.099 74.5497 112.351 75.2202C112.607 75.8878 112.735 76.6946 112.735 77.6406C112.735 78.5923 112.608 79.4048 112.356 80.0781C112.103 80.7486 111.738 81.2614 111.26 81.6165C110.783 81.9688 110.209 82.1449 109.539 82.1449ZM109.539 81.0071C110.13 81.0071 110.591 80.7188 110.924 80.142C111.259 79.5653 111.427 78.7315 111.427 77.6406C111.427 76.9162 111.35 76.304 111.197 75.804C111.046 75.3011 110.829 74.9205 110.545 74.6619C110.263 74.4006 109.928 74.2699 109.539 74.2699C108.951 74.2699 108.489 74.5597 108.154 75.1392C107.819 75.7187 107.65 76.5526 107.647 77.6406C107.647 78.3679 107.722 78.983 107.873 79.4858C108.026 79.9858 108.243 80.3651 108.525 80.6236C108.806 80.8793 109.144 81.0071 109.539 81.0071ZM113.931 80.2955V79.2301L117.703 73.2727H118.542V74.8409H118.01L115.312 79.1108V79.179H120.481V80.2955H113.931ZM118.069 82V79.9716L118.078 79.4858V73.2727H119.326V82H118.069ZM124.736 73.1534C125.125 73.1562 125.509 73.2273 125.887 73.3665C126.265 73.5057 126.606 73.733 126.909 74.0483C127.216 74.3636 127.461 74.7898 127.642 75.3267C127.827 75.8608 127.921 76.5256 127.924 77.321C127.924 78.0852 127.847 78.7656 127.694 79.3622C127.54 79.956 127.32 80.4574 127.033 80.8665C126.749 81.2756 126.404 81.5866 125.998 81.7997C125.591 82.0128 125.134 82.1193 124.625 82.1193C124.106 82.1193 123.644 82.017 123.24 81.8125C122.837 81.608 122.509 81.3253 122.256 80.9645C122.003 80.6009 121.846 80.1832 121.783 79.7116H123.083C123.168 80.0866 123.341 80.3906 123.603 80.6236C123.867 80.8537 124.208 80.9688 124.625 80.9688C125.265 80.9688 125.763 80.6903 126.121 80.1335C126.479 79.5739 126.659 78.7926 126.662 77.7898H126.594C126.446 78.0341 126.262 78.2443 126.04 78.4205C125.821 78.5966 125.576 78.733 125.303 78.8295C125.03 78.9261 124.739 78.9744 124.429 78.9744C123.927 78.9744 123.469 78.8509 123.057 78.6037C122.645 78.3565 122.317 78.017 122.073 77.5852C121.829 77.1534 121.706 76.6605 121.706 76.1065C121.706 75.5554 121.831 75.0554 122.081 74.6065C122.334 74.1577 122.686 73.8026 123.138 73.5412C123.593 73.277 124.125 73.1477 124.736 73.1534ZM124.74 74.2614C124.408 74.2614 124.108 74.3437 123.841 74.5085C123.577 74.6705 123.368 74.8906 123.215 75.169C123.061 75.4446 122.985 75.7514 122.985 76.0895C122.985 76.4276 123.059 76.7344 123.206 77.0099C123.357 77.2827 123.561 77.5 123.82 77.6619C124.081 77.821 124.38 77.9006 124.715 77.9006C124.965 77.9006 125.198 77.8523 125.414 77.7557C125.63 77.6591 125.819 77.5256 125.981 77.3551C126.142 77.1818 126.269 76.9858 126.36 76.767C126.451 76.5483 126.496 76.3182 126.496 76.0767C126.496 75.7557 126.419 75.4574 126.266 75.1818C126.115 74.9062 125.908 74.6847 125.644 74.517C125.38 74.3466 125.079 74.2614 124.74 74.2614Z" fill="white"/>
<path d="M52.343 48.384H49.859C49.913 48.708 49.985 49.59 49.985 49.968C49.985 50.274 49.985 50.796 49.967 51.426C49.607 51.444 49.247 51.462 48.923 51.462C48.275 51.462 47.501 51.444 46.439 51.318L46.475 53.496C47.087 53.568 47.789 53.586 48.995 53.586C49.283 53.586 49.607 53.568 49.949 53.55C49.949 54.054 49.949 54.558 49.949 55.062C49.949 55.476 49.949 55.908 49.967 56.34C47.753 57.294 45.953 58.932 45.953 60.498C45.953 62.406 48.419 63.918 50.165 63.918C51.353 63.918 52.145 63.324 52.145 61.092C52.145 60.48 52.109 59.076 52.073 57.654C53.171 57.33 54.341 57.15 55.457 57.15C57.023 57.15 58.103 57.87 58.103 59.094C58.103 60.408 56.951 61.128 55.493 61.398C54.863 61.506 54.089 61.524 53.279 61.524L54.107 63.846C54.845 63.792 55.637 63.738 56.465 63.558C59.327 62.838 60.443 61.236 60.443 59.112C60.443 56.628 58.265 55.188 55.493 55.188C54.503 55.188 53.261 55.35 52.037 55.656C52.037 55.422 52.037 55.206 52.037 54.99C52.037 54.468 52.037 53.91 52.055 53.37C53.225 53.226 54.467 53.046 55.493 52.812L55.439 50.58C54.503 50.85 53.315 51.084 52.127 51.228C52.145 50.778 52.163 50.346 52.181 49.95C52.217 49.482 52.289 48.708 52.343 48.384ZM57.473 50.328L56.483 52.074C57.599 52.614 59.957 53.964 60.821 54.702L61.901 52.866C60.947 52.182 58.859 50.994 57.473 50.328ZM48.167 60.408C48.167 59.778 48.905 59.04 50.003 58.446C50.039 59.418 50.057 60.246 50.057 60.696C50.057 61.308 49.805 61.452 49.481 61.452C49.013 61.452 48.167 60.966 48.167 60.408ZM65.303 52.074H70.199V55.818H72.287V52.074H77.237V54.306H79.217V50.652H72.287V49.968H77.903V48.384H64.637V49.968H70.199V50.652H63.413V54.306H65.303V52.074ZM72.971 55.638H76.895V54.468H72.971V55.638ZM72.971 52.686V53.838H76.481V52.686H72.971ZM69.551 52.686H66.005V53.838H69.551V52.686ZM65.663 55.638H69.551V54.468H65.663V55.638ZM67.103 60.606V59.832H70.091V60.606H67.103ZM70.091 57.744V58.536H67.103V57.744H70.091ZM75.401 58.536H72.143V57.744H75.401V58.536ZM72.143 60.606V59.832H75.401V60.606H72.143ZM73.439 62.874C72.341 62.874 72.143 62.766 72.143 62.1V62.046H77.525V56.304H65.069V62.838H67.103V62.046H70.091V62.1C70.091 63.99 70.775 64.512 73.241 64.512H77.021C78.983 64.512 79.559 63.918 79.811 61.758C79.271 61.65 78.461 61.38 78.029 61.074C77.903 62.604 77.741 62.874 76.841 62.874H73.439ZM86.957 48.312H81.647V49.932H86.957V48.312ZM85.211 60.102V62.154H83.285V60.102H85.211ZM87.029 58.41H81.485V64.548H83.285V63.846H87.029V58.41ZM81.539 57.492H86.939V55.872H81.539V57.492ZM86.939 53.37H81.539V54.972H86.939V53.37ZM80.693 52.488H87.533V50.796H80.693V52.488ZM94.715 61.776H90.629V59.256H94.715V61.776ZM97.577 54.954V52.956H93.707V50.454C94.931 50.256 96.083 50.022 97.109 49.716L95.597 47.934C93.689 48.546 90.665 49.014 87.965 49.248C88.199 49.716 88.469 50.526 88.541 51.048C89.495 50.976 90.521 50.886 91.529 50.76V52.956H87.659V54.954H91.529V57.33H88.595V64.566H90.629V63.702H94.715V64.494H96.857V57.33H93.707V54.954H97.577ZM99.143 50.652L99.377 53.118C101.465 52.668 105.137 52.272 106.829 52.092C105.605 53.01 104.147 55.062 104.147 57.654C104.147 61.56 107.711 63.576 111.491 63.828L112.337 61.362C109.277 61.2 106.505 60.138 106.505 57.168C106.505 55.026 108.143 52.704 110.321 52.128C111.275 51.894 112.823 51.894 113.795 51.876L113.777 49.572C112.499 49.626 110.537 49.734 108.683 49.896C105.389 50.166 102.419 50.436 100.907 50.562C100.565 50.598 99.863 50.634 99.143 50.652ZM111.221 53.64L109.889 54.198C110.465 55.008 110.843 55.71 111.293 56.7L112.661 56.088C112.319 55.386 111.671 54.288 111.221 53.64ZM113.237 52.812L111.923 53.424C112.499 54.216 112.913 54.882 113.399 55.854L114.749 55.206C114.371 54.504 113.687 53.442 113.237 52.812ZM121.193 53.46H123.443V51.444H121.193V47.754H119.141V51.444H116.567V53.46H118.889C118.313 55.602 117.269 58.05 116.099 59.472C116.441 60.012 116.909 60.876 117.107 61.488C117.881 60.498 118.565 59.022 119.141 57.438V64.548H121.193V57.06C121.697 57.87 122.219 58.716 122.489 59.292L123.713 57.546C123.353 57.096 121.823 55.242 121.193 54.558V53.46ZM126.125 61.434V59.13H130.355V61.434H126.125ZM130.355 54.9V57.186H126.125V54.9H130.355ZM130.355 50.742V52.974H126.125V50.742H130.355ZM124.073 48.726V64.404H126.125V63.378H130.355V64.296H132.515V48.726H124.073ZM148.661 48.708C148.391 49.59 147.833 50.85 147.365 51.642L148.949 52.254C149.453 51.498 150.101 50.4 150.695 49.356L148.661 48.708ZM150.857 54.486C149.885 53.676 148.067 52.56 146.591 51.696C146.879 50.562 146.987 49.266 147.041 47.772H144.971C144.827 51.336 144.539 53.388 140.795 54.558C141.245 54.936 141.767 55.728 141.983 56.25C143.927 55.584 145.097 54.684 145.835 53.496C147.203 54.36 148.679 55.386 149.435 56.106L150.857 54.486ZM142.307 60.642C143.189 59.778 143.747 58.356 143.981 56.97L142.109 56.592C141.875 57.816 141.335 59.076 140.543 59.76L142.307 60.642ZM142.325 48.816C142.127 49.932 141.641 51.138 140.975 51.786L142.649 52.506C143.423 51.696 143.891 50.364 144.071 49.176L142.325 48.816ZM140.291 48.312H134.999V49.932H140.291V48.312ZM140.939 50.724H134.099V52.416H140.939V50.724ZM140.345 53.226H134.945V54.864H140.345V53.226ZM134.945 57.294H140.345V55.692H134.945V57.294ZM138.545 59.868V61.938H136.691V59.868H138.545ZM140.363 58.176H134.891V64.314H136.691V63.612H140.363V58.176ZM148.967 60.21C149.525 59.436 150.227 58.248 150.857 57.114L148.751 56.466C148.427 57.42 147.833 58.716 147.329 59.58C147.077 59.004 146.987 58.464 146.987 58.068V55.35H144.809V58.068C144.809 59.274 143.891 61.632 140.453 62.838C140.831 63.27 141.407 64.098 141.623 64.584C144.107 63.684 145.547 61.74 145.907 60.624C146.231 61.74 147.527 63.738 149.795 64.584C150.083 64.062 150.641 63.252 151.019 62.766C148.895 61.974 147.815 60.714 147.329 59.616L148.967 60.21Z" fill="white"/>
<path d="M41.6834 92.2C41.6834 94.15 42.4734 95.74 43.6734 96.96L44.2734 96.65C43.1234 95.46 42.4134 93.98 42.4134 92.2C42.4134 90.42 43.1234 88.94 44.2734 87.75L43.6734 87.44C42.4734 88.66 41.6834 90.25 41.6834 92.2ZM54.1934 92.53H50.0934V89.04H53.6334V88.31H45.8134V89.04H49.3334V92.53H45.2934V93.26H49.3334V96.76H50.0934V93.26H54.1934V92.53ZM46.5134 89.73C46.8934 90.46 47.2734 91.43 47.4134 92.02L48.1134 91.78C47.9834 91.19 47.5734 90.25 47.1634 89.53L46.5134 89.73ZM51.8134 92.05C52.2034 91.45 52.6834 90.5 53.0434 89.7L52.2634 89.48C52.0134 90.2 51.5534 91.22 51.1834 91.84L51.8134 92.05ZM57.2834 95.27V92.48H62.2434V95.27H57.2834ZM62.2434 89.05V91.75H57.2834V89.05H62.2434ZM56.5334 88.32V96.65H57.2834V96H62.2434V96.61H63.0234V88.32H56.5334ZM70.4978 88.6278C70.8221 88.6302 71.1417 88.6894 71.4566 88.8054C71.7715 88.9214 72.0555 89.1108 72.3089 89.3736C72.5645 89.6364 72.7681 89.9915 72.9197 90.4389C73.0735 90.884 73.1517 91.438 73.154 92.1009C73.154 92.7377 73.0901 93.3047 72.9623 93.8018C72.8344 94.2966 72.651 94.7145 72.4118 95.0554C72.1751 95.3963 71.8875 95.6555 71.5489 95.8331C71.2104 96.0107 70.8292 96.0994 70.4055 96.0994C69.9722 96.0994 69.5875 96.0142 69.2513 95.8438C68.9152 95.6733 68.6417 95.4377 68.431 95.1371C68.2203 94.834 68.0889 94.486 68.0368 94.093H69.1199C69.191 94.4055 69.3354 94.6589 69.5532 94.853C69.7733 95.0447 70.0574 95.1406 70.4055 95.1406C70.9381 95.1406 71.3536 94.9086 71.6519 94.4446C71.9502 93.9782 72.1005 93.3272 72.1029 92.4915H72.0461C71.923 92.6951 71.7691 92.8703 71.5844 93.017C71.4021 93.1638 71.1974 93.2775 70.9701 93.358C70.7428 93.4384 70.5001 93.4787 70.2421 93.4787C69.8231 93.4787 69.4419 93.3757 69.0986 93.1697C68.7554 92.9638 68.4819 92.6809 68.2783 92.321C68.0747 91.9612 67.9729 91.5504 67.9729 91.0888C67.9729 90.6295 68.0771 90.2128 68.2854 89.8388C68.4961 89.4647 68.7897 89.1688 69.1661 88.951C69.5449 88.7308 69.9888 88.6231 70.4978 88.6278ZM70.5013 89.5511C70.2243 89.5511 69.9746 89.6198 69.752 89.7571C69.5319 89.892 69.3579 90.0755 69.23 90.3075C69.1022 90.5372 69.0383 90.7929 69.0383 91.0746C69.0383 91.3563 69.0998 91.612 69.2229 91.8416C69.3484 92.0689 69.5189 92.25 69.7343 92.3849C69.9521 92.5175 70.2007 92.5838 70.48 92.5838C70.6884 92.5838 70.8825 92.5436 71.0624 92.4631C71.2423 92.3826 71.3998 92.2713 71.5347 92.1293C71.6697 91.9848 71.775 91.8215 71.8508 91.6392C71.9265 91.4569 71.9644 91.2652 71.9644 91.0639C71.9644 90.7964 71.9005 90.5478 71.7726 90.3182C71.6472 90.0885 71.4743 89.9039 71.2542 89.7642C71.034 89.6222 70.7831 89.5511 70.5013 89.5511ZM75.1507 95.098C74.9565 95.098 74.7896 95.0294 74.6499 94.892C74.5103 94.7524 74.4404 94.5843 74.4404 94.3878C74.4404 94.1937 74.5103 94.0279 74.6499 93.8906C74.7896 93.7509 74.9565 93.6811 75.1507 93.6811C75.3448 93.6811 75.5117 93.7509 75.6514 93.8906C75.791 94.0279 75.8609 94.1937 75.8609 94.3878C75.8609 94.518 75.8277 94.6375 75.7615 94.7464C75.6975 94.853 75.6123 94.9382 75.5058 95.0021C75.3992 95.0661 75.2809 95.098 75.1507 95.098ZM75.1507 91.4545C74.9565 91.4545 74.7896 91.3859 74.6499 91.2486C74.5103 91.1089 74.4404 90.9408 74.4404 90.7443C74.4404 90.5502 74.5103 90.3845 74.6499 90.2472C74.7896 90.1075 74.9565 90.0376 75.1507 90.0376C75.3448 90.0376 75.5117 90.1075 75.6514 90.2472C75.791 90.3845 75.8609 90.5502 75.8609 90.7443C75.8609 90.8745 75.8277 90.9941 75.7615 91.103C75.6975 91.2095 75.6123 91.2947 75.5058 91.3587C75.3992 91.4226 75.2809 91.4545 75.1507 91.4545ZM79.8009 96.1207C79.2398 96.1184 78.7604 95.9704 78.3627 95.6768C77.9649 95.3833 77.6607 94.956 77.45 94.3949C77.2393 93.8338 77.134 93.1579 77.134 92.3672C77.134 91.5788 77.2393 90.9053 77.45 90.3466C77.6631 89.7879 77.9685 89.3617 78.3662 89.0682C78.7663 88.7746 79.2445 88.6278 79.8009 88.6278C80.3572 88.6278 80.8343 88.7758 81.232 89.0717C81.6297 89.3653 81.9339 89.7914 82.1446 90.3501C82.3577 90.9065 82.4642 91.5788 82.4642 92.3672C82.4642 93.1603 82.3589 93.8374 82.1482 94.3984C81.9375 94.9571 81.6333 95.3845 81.2355 95.6804C80.8378 95.974 80.3596 96.1207 79.8009 96.1207ZM79.8009 95.1726C80.2933 95.1726 80.678 94.9323 80.955 94.4517C81.2343 93.9711 81.374 93.2763 81.374 92.3672C81.374 91.7635 81.3101 91.2533 81.1823 90.8366C81.0568 90.4176 80.8757 90.1004 80.6389 89.8849C80.4046 89.6671 80.1252 89.5582 79.8009 89.5582C79.3108 89.5582 78.9261 89.7997 78.6468 90.2827C78.3674 90.7656 78.2265 91.4605 78.2242 92.3672C78.2242 92.9732 78.2869 93.4858 78.4124 93.9048C78.5402 94.3215 78.7213 94.6375 78.9557 94.853C79.1901 95.0661 79.4718 95.1726 79.8009 95.1726ZM86.2559 96.1207C85.6949 96.1184 85.2155 95.9704 84.8177 95.6768C84.42 95.3833 84.1158 94.956 83.9051 94.3949C83.6944 93.8338 83.589 93.1579 83.589 92.3672C83.589 91.5788 83.6944 90.9053 83.9051 90.3466C84.1182 89.7879 84.4236 89.3617 84.8213 89.0682C85.2214 88.7746 85.6996 88.6278 86.2559 88.6278C86.8123 88.6278 87.2893 88.7758 87.6871 89.0717C88.0848 89.3653 88.389 89.7914 88.5997 90.3501C88.8128 90.9065 88.9193 91.5788 88.9193 92.3672C88.9193 93.1603 88.814 93.8374 88.6032 94.3984C88.3925 94.9571 88.0883 95.3845 87.6906 95.6804C87.2929 95.974 86.8147 96.1207 86.2559 96.1207ZM86.2559 95.1726C86.7484 95.1726 87.1331 94.9323 87.4101 94.4517C87.6894 93.9711 87.8291 93.2763 87.8291 92.3672C87.8291 91.7635 87.7652 91.2533 87.6373 90.8366C87.5119 90.4176 87.3308 90.1004 87.094 89.8849C86.8596 89.6671 86.5803 89.5582 86.2559 89.5582C85.7659 89.5582 85.3812 89.7997 85.1018 90.2827C84.8225 90.7656 84.6816 91.4605 84.6792 92.3672C84.6792 92.9732 84.742 93.4858 84.8675 93.9048C84.9953 94.3215 85.1764 94.6375 85.4108 94.853C85.6452 95.0661 85.9269 95.1726 86.2559 95.1726ZM94.1995 92.48C94.8995 93.17 95.5395 93.55 96.4495 93.55C97.5095 93.55 98.4295 92.94 99.0595 91.8L98.3495 91.42C97.9395 92.21 97.2495 92.74 96.4595 92.74C95.7395 92.74 95.2995 92.43 94.7595 91.92C94.0595 91.22 93.4195 90.85 92.5095 90.85C91.4495 90.85 90.5295 91.46 89.8995 92.6L90.6095 92.98C91.0195 92.19 91.7095 91.66 92.4995 91.66C93.2295 91.66 93.6595 91.97 94.1995 92.48ZM102.938 88.7273V96H101.837V89.8281H101.795L100.055 90.9645V89.9134L101.869 88.7273H102.938ZM107.363 96.0994C106.854 96.0994 106.404 96.0118 106.014 95.8366C105.625 95.6615 105.321 95.42 105.101 95.1122C104.881 94.8045 104.772 94.4541 104.774 94.0611C104.772 93.7533 104.835 93.4704 104.962 93.2124C105.093 92.9519 105.269 92.7353 105.492 92.5625C105.714 92.3873 105.963 92.276 106.237 92.2287V92.1861C105.875 92.0985 105.585 91.9044 105.367 91.6037C105.149 91.303 105.042 90.9574 105.044 90.5668C105.042 90.1951 105.14 89.8636 105.339 89.5724C105.54 89.2789 105.816 89.0481 106.166 88.88C106.517 88.7119 106.916 88.6278 107.363 88.6278C107.806 88.6278 108.201 88.7131 108.549 88.8835C108.899 89.0516 109.175 89.2824 109.377 89.576C109.578 89.8672 109.68 90.1974 109.682 90.5668C109.68 90.9574 109.568 91.303 109.348 91.6037C109.128 91.9044 108.841 92.0985 108.489 92.1861V92.2287C108.761 92.276 109.006 92.3873 109.224 92.5625C109.444 92.7353 109.619 92.9519 109.749 93.2124C109.882 93.4704 109.949 93.7533 109.952 94.0611C109.949 94.4541 109.838 94.8045 109.618 95.1122C109.398 95.42 109.092 95.6615 108.702 95.8366C108.314 96.0118 107.867 96.0994 107.363 96.0994ZM107.363 95.201C107.664 95.201 107.924 95.1513 108.144 95.0518C108.364 94.95 108.535 94.8092 108.656 94.6293C108.776 94.447 108.838 94.2339 108.84 93.9901C108.838 93.7367 108.772 93.513 108.641 93.3189C108.514 93.1248 108.34 92.9721 108.119 92.8608C107.899 92.7495 107.647 92.6939 107.363 92.6939C107.077 92.6939 106.822 92.7495 106.6 92.8608C106.377 92.9721 106.202 93.1248 106.074 93.3189C105.946 93.513 105.883 93.7367 105.886 93.9901C105.883 94.2339 105.941 94.447 106.06 94.6293C106.18 94.8092 106.352 94.95 106.575 95.0518C106.797 95.1513 107.06 95.201 107.363 95.201ZM107.363 91.8168C107.604 91.8168 107.819 91.7682 108.006 91.6712C108.193 91.5741 108.34 91.4392 108.446 91.2663C108.555 91.0935 108.611 90.8911 108.613 90.6591C108.611 90.4318 108.556 90.233 108.45 90.0625C108.345 89.892 108.2 89.7607 108.013 89.6683C107.826 89.5736 107.609 89.5263 107.363 89.5263C107.112 89.5263 106.892 89.5736 106.703 89.6683C106.515 89.7607 106.37 89.892 106.266 90.0625C106.162 90.233 106.111 90.4318 106.113 90.6591C106.111 90.8911 106.163 91.0935 106.269 91.2663C106.376 91.4392 106.523 91.5741 106.71 91.6712C106.899 91.7682 107.117 91.8168 107.363 91.8168ZM111.938 95.098C111.744 95.098 111.577 95.0294 111.437 94.892C111.297 94.7524 111.228 94.5843 111.228 94.3878C111.228 94.1937 111.297 94.0279 111.437 93.8906C111.577 93.7509 111.744 93.6811 111.938 93.6811C112.132 93.6811 112.299 93.7509 112.438 93.8906C112.578 94.0279 112.648 94.1937 112.648 94.3878C112.648 94.518 112.615 94.6375 112.549 94.7464C112.485 94.853 112.399 94.9382 112.293 95.0021C112.186 95.0661 112.068 95.098 111.938 95.098ZM111.938 91.4545C111.744 91.4545 111.577 91.3859 111.437 91.2486C111.297 91.1089 111.228 90.9408 111.228 90.7443C111.228 90.5502 111.297 90.3845 111.437 90.2472C111.577 90.1075 111.744 90.0376 111.938 90.0376C112.132 90.0376 112.299 90.1075 112.438 90.2472C112.578 90.3845 112.648 90.5502 112.648 90.7443C112.648 90.8745 112.615 90.9941 112.549 91.103C112.485 91.2095 112.399 91.2947 112.293 91.3587C112.186 91.4226 112.068 91.4545 111.938 91.4545ZM116.588 96.1207C116.027 96.1184 115.547 95.9704 115.15 95.6768C114.752 95.3833 114.448 94.956 114.237 94.3949C114.026 93.8338 113.921 93.1579 113.921 92.3672C113.921 91.5788 114.026 90.9053 114.237 90.3466C114.45 89.7879 114.756 89.3617 115.153 89.0682C115.553 88.7746 116.032 88.6278 116.588 88.6278C117.144 88.6278 117.621 88.7758 118.019 89.0717C118.417 89.3653 118.721 89.7914 118.932 90.3501C119.145 90.9065 119.251 91.5788 119.251 92.3672C119.251 93.1603 119.146 93.8374 118.935 94.3984C118.725 94.9571 118.42 95.3845 118.023 95.6804C117.625 95.974 117.147 96.1207 116.588 96.1207ZM116.588 95.1726C117.08 95.1726 117.465 94.9323 117.742 94.4517C118.021 93.9711 118.161 93.2763 118.161 92.3672C118.161 91.7635 118.097 91.2533 117.969 90.8366C117.844 90.4176 117.663 90.1004 117.426 89.8849C117.192 89.6671 116.912 89.5582 116.588 89.5582C116.098 89.5582 115.713 89.7997 115.434 90.2827C115.155 90.7656 115.014 91.4605 115.011 92.3672C115.011 92.9732 115.074 93.4858 115.199 93.9048C115.327 94.3215 115.508 94.6375 115.743 94.853C115.977 95.0661 116.259 95.1726 116.588 95.1726ZM123.043 96.1207C122.482 96.1184 122.003 95.9704 121.605 95.6768C121.207 95.3833 120.903 94.956 120.692 94.3949C120.482 93.8338 120.376 93.1579 120.376 92.3672C120.376 91.5788 120.482 90.9053 120.692 90.3466C120.905 89.7879 121.211 89.3617 121.608 89.0682C122.008 88.7746 122.487 88.6278 123.043 88.6278C123.599 88.6278 124.076 88.7758 124.474 89.0717C124.872 89.3653 125.176 89.7914 125.387 90.3501C125.6 90.9065 125.706 91.5788 125.706 92.3672C125.706 93.1603 125.601 93.8374 125.39 94.3984C125.18 94.9571 124.875 95.3845 124.478 95.6804C124.08 95.974 123.602 96.1207 123.043 96.1207ZM123.043 95.1726C123.535 95.1726 123.92 94.9323 124.197 94.4517C124.477 93.9711 124.616 93.2763 124.616 92.3672C124.616 91.7635 124.552 91.2533 124.424 90.8366C124.299 90.4176 124.118 90.1004 123.881 89.8849C123.647 89.6671 123.367 89.5582 123.043 89.5582C122.553 89.5582 122.168 89.7997 121.889 90.2827C121.61 90.7656 121.469 91.4605 121.466 92.3672C121.466 92.9732 121.529 93.4858 121.655 93.9048C121.782 94.3215 121.964 94.6375 122.198 94.853C122.432 95.0661 122.714 95.1726 123.043 95.1726ZM129.317 92.2C129.317 90.25 128.527 88.66 127.327 87.44L126.727 87.75C127.877 88.94 128.587 90.42 128.587 92.2C128.587 93.98 127.877 95.46 126.727 96.65L127.327 96.96C128.527 95.74 129.317 94.15 129.317 92.2Z" fill="white"/>
<path d="M33 47.8334H26C24.5475 47.8334 23.375 48.95 23.375 50.3334V63.6667C23.375 65.05 24.5475 66.1667 26 66.1667H33C34.4525 66.1667 35.625 65.05 35.625 63.6667V50.3334C35.625 48.95 34.4525 47.8334 33 47.8334ZM31.25 64.5H27.75V63.6667H31.25V64.5ZM34.0938 62H24.9062V50.3334H34.0938V62Z" fill="white"/>
<rect x="55" y="16" width="63" height="21" rx="10.5" fill="white"/>
<path d="M81.853 25.182H80.215V22.816H81.853V25.182ZM81.853 28.5H80.215V26.106H81.853V28.5ZM75.259 26.106H76.813V28.5H75.259V26.106ZM79.319 26.106V28.5H77.695V26.106H79.319ZM77.695 25.182V22.816H79.319V25.182H77.695ZM75.259 22.816H76.813V25.182H75.259V22.816ZM74.321 25.182H72.375V26.106H74.321V28.5H72.599V29.438H84.597V28.5H82.833V26.106H84.793V25.182H82.833V22.816H84.275V21.892H75.441C75.721 21.472 75.973 21.024 76.183 20.576L75.189 20.282C74.531 21.696 73.411 23.054 72.207 23.936C72.459 24.076 72.865 24.426 73.061 24.622C73.481 24.272 73.915 23.838 74.321 23.376V25.182ZM73.257 33.078C74.013 32.42 74.643 31.314 74.979 30.264L74.013 30.026C73.663 31.034 73.005 32.098 72.277 32.672L73.257 33.078ZM76.435 30.376C76.603 31.216 76.715 32.294 76.729 32.938L77.723 32.798C77.709 32.168 77.555 31.104 77.387 30.278L76.435 30.376ZM79.263 30.39C79.613 31.216 79.977 32.294 80.117 32.952L81.125 32.742C80.985 32.084 80.607 31.006 80.229 30.208L79.263 30.39ZM82.105 30.292C82.791 31.16 83.589 32.35 83.925 33.092L84.961 32.714C84.583 31.958 83.757 30.81 83.057 29.97L82.105 30.292ZM95.377 22.984C94.929 22.466 93.963 21.752 93.179 21.276L92.647 21.976C93.445 22.494 94.397 23.25 94.845 23.782L95.377 22.984ZM94.775 26.33C94.285 25.826 93.249 25.196 92.423 24.762L91.933 25.49C92.773 25.938 93.767 26.652 94.257 27.17L94.775 26.33ZM90.729 21.122C90.519 22.06 90.127 23.446 89.805 24.272L90.477 24.496C90.855 23.712 91.289 22.396 91.625 21.346L90.729 21.122ZM87.817 24.244C87.719 23.404 87.397 22.144 86.991 21.178L86.235 21.36C86.599 22.34 86.921 23.628 86.991 24.468L87.817 24.244ZM89.343 25.938H91.625V24.958H89.343V20.338H88.377V24.958H86.137V25.938H88.097C87.607 27.506 86.725 29.312 85.913 30.292C86.081 30.544 86.333 31.006 86.445 31.3C87.145 30.362 87.859 28.808 88.377 27.31V33.064H89.343V27.324C89.847 28.108 90.505 29.186 90.757 29.704L91.443 28.892C91.135 28.416 89.735 26.568 89.343 26.134V25.938ZM98.891 28.808L98.737 27.856L97.085 28.15V20.296H96.105V28.332L91.597 29.13L91.765 30.096L96.105 29.312V33.064H97.085V29.13L98.891 28.808Z" fill="#ECA212"/>
</g>
<defs>
<filter id="filter0_d_230_164" x="0" y="0" width="172" height="127" filterUnits="userSpaceOnUse" color-interpolation-filters="sRGB">
<feFlood flood-opacity="0" result="BackgroundImageFix"/>
<feColorMatrix in="SourceAlpha" type="matrix" values="0 0 0 0 0 0 0 0 0 0 0 0 0 0 0 0 0 0 127 0" result="hardAlpha"/>
<feOffset dy="2"/>
<feGaussianBlur stdDeviation="2"/>
<feComposite in2="hardAlpha" operator="out"/>
<feColorMatrix type="matrix" values="0 0 0 0 0 0 0 0 0 0 0 0 0 0 0 0 0 0 0.1 0"/>
<feBlend mode="normal" in2="BackgroundImageFix" result="effect1_dropShadow_230_164"/>
<feBlend mode="normal" in="SourceGraphic" in2="effect1_dropShadow_230_164" result="shape"/>
</filter>
<linearGradient id="paint0_linear_230_164" x1="134.611" y1="-9.4633" x2="76.5387" y2="116.643" gradientUnits="userSpaceOnUse">
<stop stop-color="#E3CA99"/>
<stop offset="1" stop-color="#EC9C00"/>
</linearGradient>
</defs>
</svg>
