<svg width="438" height="180" viewBox="0 0 438 180" fill="none" xmlns="http://www.w3.org/2000/svg">
<path d="M31.1373 83.1907C29.8415 83.1907 28.7812 82.8668 27.9565 82.2188C27.1908 81.6298 26.749 80.6873 26.6312 79.3915C26.5723 78.2723 26.9257 77.3298 27.6915 76.5641C28.4572 75.8573 29.4586 75.5038 30.6956 75.5038C33.5229 75.4449 35.7024 75.0915 37.2338 74.4436C38.8242 73.7367 39.914 72.5881 40.503 70.9977C41.092 69.3484 41.3866 67.0806 41.3866 64.1944C41.3866 63.6642 41.3866 63.1341 41.3866 62.604C41.3866 62.0738 41.3571 61.5437 41.2982 61.0136C38.353 63.0752 34.8777 65.1957 30.8723 67.3751C26.8668 69.4957 22.6847 71.4689 18.3258 73.295C13.9669 75.121 9.75534 76.5936 5.691 77.7127C4.51292 78.0661 3.45266 78.0367 2.5102 77.6244C1.56775 77.2709 0.890356 76.5346 0.478031 75.4155C0.183513 74.3552 0.271868 73.3833 0.743097 72.4998C1.21433 71.6162 2.00952 71.0566 3.12869 70.821C5.95606 70.1142 9.01905 69.1423 12.3176 67.9053C15.6162 66.6683 18.9443 65.2841 22.3018 63.7526C25.6593 62.2211 28.8401 60.6012 31.8442 58.893C34.9072 57.1848 37.6167 55.5061 39.9729 53.8568C39.4427 51.9719 38.677 50.0575 37.6756 48.1137C35.025 50.0575 31.962 51.9424 28.4867 53.7684C25.0114 55.5355 21.3888 57.1848 17.619 58.7163C13.8491 60.1889 10.1971 61.4848 6.6629 62.604C5.42593 63.0163 4.36567 63.0163 3.48211 62.604C2.65746 62.1327 2.06843 61.4259 1.71501 60.4834C1.42049 59.541 1.47939 58.628 1.89172 57.7444C2.36294 56.8609 3.15814 56.3013 4.27731 56.0657C7.81152 55.1821 11.4341 54.0335 15.145 52.6198C18.8559 51.2061 22.3607 49.6746 25.6593 48.0253C29.0168 46.3171 31.9031 44.6384 34.3181 42.9891C33.788 42.3411 33.2284 41.6932 32.6394 41.0453C32.0503 40.3384 31.4318 39.6905 30.7839 39.1014C27.1319 41.0453 23.2148 42.8418 19.0327 44.4911C14.9094 46.0815 10.5211 47.4657 5.86771 48.6438C3.27595 49.2918 1.62665 48.5849 0.919807 46.5233C0.566386 45.5808 0.595838 44.6678 1.00816 43.7843C1.47939 42.9007 2.30404 42.3117 3.48211 42.0172C8.90124 40.8391 13.9964 39.2781 18.7676 37.3343C23.5977 35.3905 28.0743 33.2405 32.1976 30.8844H17.0005C15.9402 30.8844 15.0861 30.5604 14.4382 29.9125C13.8491 29.2056 13.5546 28.381 13.5546 27.4385C13.5546 26.4961 13.8491 25.7009 14.4382 25.0529C15.0861 24.405 15.9402 24.081 17.0005 24.081H60.7364C61.7966 24.081 62.6213 24.405 63.2103 25.0529C63.8583 25.7009 64.1822 26.4961 64.1822 27.4385C64.1822 28.381 63.8583 29.2056 63.2103 29.9125C62.6213 30.5604 61.7966 30.8844 60.7364 30.8844H43.5954C42.4763 31.709 41.3276 32.5337 40.1496 33.3583C38.9715 34.183 37.764 34.9782 36.527 35.7439C40.6503 39.2192 43.7132 43.2836 45.716 47.937C47.8365 46.7 50.0748 45.3452 52.431 43.8726C54.7871 42.4 57.0254 40.898 59.146 39.3665C61.2665 37.835 63.0336 36.4802 64.4473 35.3022C65.3898 34.4775 66.3911 34.1535 67.4514 34.3302C68.5705 34.4481 69.3952 34.8604 69.9253 35.5672C70.5733 36.5097 70.8089 37.4816 70.6322 38.483C70.5144 39.4254 70.0137 40.2206 69.1301 40.8685C66.6562 42.6946 63.7405 44.6384 60.3829 46.7C57.0254 48.7616 53.7858 50.6465 50.6639 52.3547C53.1378 54.5931 55.9357 56.802 59.0576 58.9814C62.2384 61.1608 65.4487 63.1341 68.6884 64.9012C71.9869 66.6683 74.991 68.082 77.7006 69.1423C78.7609 69.5546 79.4972 70.2614 79.9095 71.2628C80.3218 72.2052 80.2924 73.1477 79.8211 74.0902C79.2321 75.386 78.3485 76.1518 77.1705 76.3874C76.0513 76.623 74.9321 76.5052 73.813 76.034C71.1623 74.8559 68.3349 73.3833 65.3308 71.6162C62.3268 69.8491 59.3816 67.9053 56.4953 65.7847C53.609 63.6053 51.0467 61.367 48.8084 59.0697C48.9851 60.6601 49.0735 62.28 49.0735 63.9293C49.0735 70.8799 47.6598 75.8278 44.8324 78.773C42.005 81.7182 37.44 83.1907 31.1373 83.1907ZM5.51428 30.3543C4.39512 30.3543 3.45266 30.0008 2.68691 29.294C1.92117 28.5872 1.53829 27.6447 1.53829 26.4666V22.579C1.53829 18.3379 2.56911 15.3044 4.63073 13.4784C6.75126 11.5935 10.3444 10.651 15.4101 10.651H35.025V4.20108C35.025 3.02301 35.4373 2.0511 36.2619 1.28536C37.1455 0.519609 38.1469 0.136736 39.266 0.136736C40.4441 0.136736 41.4455 0.519609 42.2701 1.28536C43.0948 2.0511 43.5071 3.02301 43.5071 4.20108V10.651H62.9453C68.011 10.651 71.5746 11.5935 73.6362 13.4784C75.6979 15.3044 76.7287 18.3379 76.7287 22.579V26.4666C76.7287 27.6447 76.3458 28.5872 75.5801 29.294C74.8143 30.0008 73.9013 30.3543 72.8411 30.3543C71.7219 30.3543 70.7794 30.0303 70.0137 29.3823C69.2479 28.7344 68.8651 27.8214 68.8651 26.6433V23.0208C68.8651 21.077 68.3644 19.7222 67.363 18.9564C66.4206 18.1318 64.6535 17.7194 62.0617 17.7194H16.2053C13.6135 17.7194 11.817 18.1318 10.8156 18.9564C9.87315 19.7222 9.40192 21.077 9.40192 23.0208V26.6433C9.40192 27.8214 9.01905 28.7344 8.2533 29.3823C7.48755 30.0303 6.57455 30.3543 5.51428 30.3543ZM130.979 81.8654C129.86 82.2777 128.741 82.3661 127.621 82.1305C126.561 81.9538 125.766 81.3353 125.236 80.275C124.765 79.3326 124.706 78.3312 125.059 77.2709C125.412 76.2107 126.149 75.4744 127.268 75.0621C132.687 73.0004 136.928 70.5265 139.991 67.6402C143.054 64.695 145.145 61.1903 146.264 57.1259H131.597C130.655 57.1259 129.83 56.7725 129.123 56.0657C128.417 55.3588 128.063 54.5342 128.063 53.5917C128.063 52.5904 128.417 51.7657 129.123 51.1178C129.83 50.4109 130.655 50.0575 131.597 50.0575H147.236V39.8966H142.288C141.523 41.1925 140.698 42.4295 139.814 43.6076C138.931 44.7856 138.077 45.8753 137.252 46.8767C136.545 47.7014 135.662 48.202 134.601 48.3787C133.541 48.5555 132.569 48.3493 131.686 47.7603C130.92 47.2301 130.449 46.4938 130.272 45.5514C130.154 44.55 130.39 43.6665 130.979 42.9007C132.275 41.3692 133.6 39.6021 134.955 37.5994C136.31 35.5378 137.576 33.4172 138.754 31.2378C139.932 29.0584 140.904 27.0851 141.67 25.318C142.141 24.3755 142.877 23.7276 143.879 23.3742C144.88 22.9619 145.852 22.9913 146.794 23.4625C147.737 23.8749 148.385 24.5228 148.738 25.4064C149.092 26.231 149.033 27.1146 148.562 28.057C148.267 28.8228 147.914 29.618 147.501 30.4426C147.148 31.2084 146.765 32.0036 146.353 32.8282H166.763C167.764 32.8282 168.589 33.1816 169.237 33.8885C169.944 34.5364 170.297 35.3611 170.297 36.3624C170.297 37.3049 169.944 38.1295 169.237 38.8364C168.589 39.5432 167.764 39.8966 166.763 39.8966H154.658V50.0575H170.739C171.74 50.0575 172.565 50.4109 173.213 51.1178C173.92 51.7657 174.273 52.5904 174.273 53.5917C174.273 54.5342 173.92 55.3588 173.213 56.0657C172.565 56.7725 171.74 57.1259 170.739 57.1259H154.658C156.19 60.8368 158.487 64.1944 161.55 67.1984C164.672 70.1436 168.412 72.6176 172.771 74.6203C173.772 75.0326 174.42 75.7394 174.715 76.7408C175.009 77.8011 174.891 78.8319 174.361 79.8332C173.772 80.9524 172.83 81.6004 171.534 81.7771C170.297 81.9538 169.148 81.7476 168.088 81.1586C164.495 79.2737 161.255 76.9175 158.369 74.0902C155.483 71.2628 153.097 68.1114 151.212 64.6361C149.386 68.2881 146.824 71.5573 143.525 74.4436C140.227 77.3298 136.045 79.8038 130.979 81.8654ZM109.42 81.8654C108.183 81.8654 107.152 81.5415 106.328 80.8935C105.562 80.2456 105.15 79.362 105.091 78.2429C105.032 77.1237 105.385 76.2107 106.151 75.5038C106.917 74.797 107.889 74.4141 109.067 74.3552C110.539 74.2374 111.688 74.0607 112.513 73.8251C113.337 73.5895 113.956 73.0593 114.368 72.2347C114.839 71.3511 115.252 69.9964 115.605 68.1703C115.958 66.521 116.282 64.4594 116.577 61.9855C116.871 59.5115 117.137 56.9198 117.372 54.2102C117.608 51.4417 117.755 48.8794 117.814 46.5233C117.932 44.7562 117.667 43.6076 117.019 43.0774C116.43 42.4884 115.193 42.1939 113.308 42.1939H111.187C110.598 49.3212 109.391 56.0951 107.565 62.5156C105.798 68.8772 103.235 74.5614 99.8778 79.5682C99.2887 80.5106 98.4346 81.0997 97.3155 81.3353C96.2552 81.6298 95.2244 81.4825 94.223 80.8935C93.3395 80.4223 92.7799 79.6565 92.5443 78.5963C92.3087 77.5949 92.4854 76.6525 93.0744 75.7689C95.5484 72.1169 97.5805 68.1998 99.1709 64.0176C100.761 59.7766 101.91 55.0938 102.617 49.9691C103.383 44.7856 103.765 38.9542 103.765 32.4748V24.081H96.9621C96.0196 24.081 95.1949 23.7276 94.4881 23.0208C93.7813 22.3139 93.4278 21.4893 93.4278 20.5468C93.4278 19.5455 93.7813 18.7208 94.4881 18.0729C95.1949 17.366 96.0196 17.0126 96.9621 17.0126H107.3V4.81957C107.3 3.6415 107.683 2.69904 108.448 1.99219C109.214 1.22645 110.127 0.843575 111.187 0.843575C112.306 0.843575 113.249 1.22645 114.015 1.99219C114.78 2.69904 115.163 3.6415 115.163 4.81957V17.0126H124.794C125.795 17.0126 126.62 17.366 127.268 18.0729C127.975 18.7208 128.328 19.5455 128.328 20.5468C128.328 21.4893 127.975 22.3139 127.268 23.0208C126.62 23.7276 125.795 24.081 124.794 24.081H111.452V35.0371H113.485C116.489 35.0371 118.845 35.3611 120.553 36.009C122.32 36.598 123.557 37.6878 124.264 39.2781C124.971 40.8685 125.265 43.1069 125.147 45.9932C125.03 50.4698 124.765 54.7992 124.352 58.9814C123.94 63.1046 123.528 66.521 123.115 69.2306C122.408 74.0607 120.995 77.3298 118.874 79.038C116.813 80.8052 113.661 81.7476 109.42 81.8654ZM125.943 34.1535C125 33.6234 124.411 32.8577 124.175 31.8563C123.999 30.8549 124.205 29.9714 124.794 29.2056C126.443 26.7906 127.975 24.1105 129.388 21.1653C130.861 18.1612 132.186 15.1277 133.364 12.0647C134.543 9.00172 135.514 6.1449 136.28 3.49424C136.575 2.37507 137.193 1.60932 138.136 1.197C139.078 0.725771 140.109 0.666868 141.228 1.02029C142.288 1.31481 143.025 1.90384 143.437 2.78739C143.849 3.67095 143.908 4.6134 143.614 5.61476C143.26 6.91064 142.848 8.23597 142.377 9.59076C141.964 10.8866 141.523 12.212 141.051 13.5667H170.474C171.475 13.5667 172.329 13.9202 173.036 14.627C173.743 15.2749 174.096 16.0996 174.096 17.101C174.096 18.1023 173.743 18.9564 173.036 19.6633C172.329 20.3701 171.475 20.7235 170.474 20.7235H138.136C137.134 22.903 136.045 25.0235 134.866 27.0851C133.747 29.1467 132.569 31.0611 131.332 32.8282C130.743 33.7118 129.919 34.3008 128.858 34.5953C127.857 34.8309 126.885 34.6837 125.943 34.1535ZM236.298 80.4517C232.529 80.4517 229.583 80.0394 227.463 79.2148C225.342 78.3901 223.84 77.0648 222.957 75.2388C222.073 73.3539 221.631 70.821 221.631 67.6402C221.631 64.4594 222.073 61.956 222.957 60.13C223.84 58.2451 225.342 56.9198 227.463 56.154C229.583 55.3294 232.529 54.917 236.298 54.917H248.491C252.261 54.917 255.206 55.3294 257.327 56.154C259.448 56.9198 260.95 58.2451 261.833 60.13C262.717 61.956 263.158 64.4594 263.158 67.6402C263.158 70.821 262.717 73.3539 261.833 75.2388C260.95 77.0648 259.448 78.3901 257.327 79.2148C255.206 80.0394 252.261 80.4517 248.491 80.4517H236.298ZM206.081 83.014C205.021 83.014 204.108 82.6312 203.342 81.8654C202.576 81.1586 202.193 80.2161 202.193 79.038V33.0049C199.837 36.4213 197.422 39.5432 194.948 42.3706C194.241 43.1363 193.328 43.5487 192.209 43.6076C191.149 43.6665 190.177 43.3719 189.293 42.724C188.528 42.0761 188.115 41.2514 188.056 40.2501C187.997 39.1898 188.292 38.2768 188.94 37.511C190.884 35.3316 192.857 32.7988 194.86 29.9125C196.921 26.9673 198.865 23.9338 200.691 20.8119C202.576 17.6311 204.255 14.5387 205.727 11.5346C207.2 8.47159 208.349 5.76202 209.173 3.40588C209.586 2.28672 210.292 1.52097 211.294 1.10864C212.354 0.637413 213.414 0.607962 214.475 1.02029C215.476 1.37371 216.212 2.02165 216.684 2.96411C217.155 3.90656 217.155 4.93737 216.684 6.05654C215.859 8.29487 214.887 10.6216 213.768 13.0366C212.649 15.4517 211.412 17.8667 210.057 20.2817V79.038C210.057 80.2161 209.674 81.1586 208.908 81.8654C208.143 82.6312 207.2 83.014 206.081 83.014ZM217.302 24.5228C216.301 24.5228 215.447 24.1694 214.74 23.4625C214.033 22.7557 213.679 21.9016 213.679 20.9002C213.679 19.8989 214.033 19.0448 214.74 18.3379C215.447 17.6311 216.301 17.2777 217.302 17.2777H266.958C267.959 17.2777 268.813 17.6311 269.52 18.3379C270.227 19.0448 270.58 19.8989 270.58 20.9002C270.58 21.9016 270.227 22.7557 269.52 23.4625C268.813 24.1694 267.959 24.5228 266.958 24.5228H217.302ZM225.342 11.9764C224.341 11.9764 223.487 11.6229 222.78 10.9161C222.073 10.2092 221.72 9.35514 221.72 8.35378C221.72 7.35242 222.073 6.49832 222.78 5.79148C223.487 5.08463 224.341 4.73121 225.342 4.73121H258.917C259.919 4.73121 260.773 5.08463 261.48 5.79148C262.187 6.49832 262.54 7.35242 262.54 8.35378C262.54 9.35514 262.187 10.2092 261.48 10.9161C260.773 11.6229 259.919 11.9764 258.917 11.9764H225.342ZM225.342 49.6157C224.341 49.6157 223.487 49.2623 222.78 48.5555C222.073 47.8486 221.72 46.9945 221.72 45.9932C221.72 44.9918 222.073 44.1377 222.78 43.4308C223.487 42.724 224.341 42.3706 225.342 42.3706H258.917C259.919 42.3706 260.773 42.724 261.48 43.4308C262.187 44.1377 262.54 44.9918 262.54 45.9932C262.54 46.9945 262.187 47.8486 261.48 48.5555C260.773 49.2623 259.919 49.6157 258.917 49.6157H225.342ZM225.342 37.0693C224.341 37.0693 223.487 36.7158 222.78 36.009C222.073 35.3022 221.72 34.4481 221.72 33.4467C221.72 32.4453 222.073 31.5912 222.78 30.8844C223.487 30.1775 224.341 29.8241 225.342 29.8241H258.917C259.919 29.8241 260.773 30.1775 261.48 30.8844C262.187 31.5912 262.54 32.4453 262.54 33.4467C262.54 34.4481 262.187 35.3022 261.48 36.009C260.773 36.7158 259.919 37.0693 258.917 37.0693H225.342ZM236.652 73.0299H248.226C250.759 73.0299 252.467 72.7059 253.351 72.058C254.293 71.3511 254.765 69.8785 254.765 67.6402C254.765 65.4019 254.293 63.9587 253.351 63.3108C252.467 62.604 250.759 62.2505 248.226 62.2505H236.652C234.119 62.2505 232.381 62.604 231.439 63.3108C230.496 63.9587 230.025 65.4019 230.025 67.6402C230.025 69.8785 230.496 71.3511 231.439 72.058C232.381 72.7059 234.119 73.0299 236.652 73.0299ZM348.51 79.6565C344.622 79.6565 341.53 79.2737 339.232 78.5079C336.994 77.8011 335.404 76.5052 334.461 74.6203C333.519 72.7354 333.047 70.0847 333.047 66.6683V44.226L319.794 45.5514C318.734 45.6103 317.821 45.3452 317.055 44.7562C316.348 44.1082 315.936 43.313 315.818 42.3706C315.759 41.3692 315.995 40.4857 316.525 39.7199C317.114 38.8953 317.939 38.424 318.999 38.3062L333.047 36.8926V18.4263C331.339 18.8386 329.661 19.2215 328.011 19.5749C326.362 19.9283 324.742 20.2523 323.152 20.5468C321.267 20.7824 319.883 20.429 318.999 19.4866C319.294 19.9578 319.441 20.4879 319.441 21.0769C319.441 21.9605 319.117 22.7557 318.469 23.4625C317.821 24.1105 317.055 24.4344 316.172 24.4344H287.544C286.543 24.4344 285.748 24.1105 285.159 23.4625C284.57 22.7557 284.275 21.9605 284.275 21.0769C284.275 20.1934 284.57 19.4276 285.159 18.7797C285.748 18.0729 286.543 17.7194 287.544 17.7194H316.172C317.055 17.7194 317.85 18.0729 318.557 18.7797C318.322 18.3085 318.174 17.8667 318.115 17.4544C317.88 16.453 318.027 15.5695 318.557 14.8037C319.087 13.9791 320 13.4489 321.296 13.2133C324.772 12.6243 328.424 11.8585 332.252 10.9161C336.14 9.97363 339.91 8.94282 343.562 7.82365C347.273 6.64558 350.571 5.43805 353.458 4.20108C354.636 3.72985 355.725 3.6415 356.727 3.93601C357.728 4.17163 358.464 4.76066 358.936 5.70312C359.525 6.82229 359.642 7.8531 359.289 8.79556C358.995 9.73801 358.288 10.4449 357.169 10.9161C354.871 11.8585 352.309 12.801 349.482 13.7435C346.713 14.6859 343.827 15.5695 340.823 16.3941V36.0974L362.293 33.9768C363.412 33.859 364.325 34.1241 365.032 34.772C365.798 35.3611 366.24 36.1563 366.357 37.1576C366.475 38.159 366.24 39.072 365.651 39.8966C365.062 40.6624 364.207 41.1042 363.088 41.222L340.823 43.4308V65.608C340.823 68.2587 341.353 69.9669 342.413 70.7326C343.532 71.4984 345.712 71.8813 348.951 71.8813C350.954 71.8813 352.456 71.6751 353.458 71.2628C354.518 70.8505 355.284 70.1142 355.755 69.0539C356.285 67.9347 356.756 66.3738 357.169 64.3711C357.404 63.2519 358.023 62.4567 359.024 61.9855C360.025 61.4553 361.056 61.3375 362.116 61.632C363.294 61.9266 364.119 62.5156 364.59 63.3992C365.062 64.2238 365.209 65.1957 365.032 66.3149C364.443 69.6724 363.53 72.323 362.293 74.2669C361.115 76.2107 359.436 77.5949 357.257 78.4196C355.077 79.2442 352.162 79.6565 348.51 79.6565ZM302.388 80.3634C298.972 80.3634 296.292 79.9511 294.348 79.1264C292.404 78.3607 291.02 77.0353 290.195 75.1504C289.429 73.2655 289.047 70.7032 289.047 67.4635C289.047 64.2238 289.429 61.6615 290.195 59.7766C291.02 57.8917 292.404 56.5663 294.348 55.8006C296.292 54.9759 298.972 54.5636 302.388 54.5636C305.805 54.5636 308.455 54.9759 310.34 55.8006C312.284 56.5663 313.639 57.8917 314.405 59.7766C315.229 61.6615 315.641 64.2238 315.641 67.4635C315.641 70.7032 315.229 73.2655 314.405 75.1504C313.639 77.0353 312.284 78.3607 310.34 79.1264C308.455 79.9511 305.805 80.3634 302.388 80.3634ZM291.874 12.0647C290.873 12.0647 290.077 11.7407 289.488 11.0928C288.899 10.386 288.605 9.5613 288.605 8.61885C288.605 7.73529 288.899 6.94009 289.488 6.23325C290.077 5.52641 290.873 5.17299 291.874 5.17299H312.196C313.079 5.17299 313.845 5.52641 314.493 6.23325C315.141 6.94009 315.465 7.73529 315.465 8.61885C315.465 9.5613 315.141 10.386 314.493 11.0928C313.845 11.7407 313.079 12.0647 312.196 12.0647H291.874ZM291.786 49.1739C290.784 49.1739 289.989 48.85 289.4 48.202C288.811 47.4952 288.516 46.7 288.516 45.8164C288.516 44.9329 288.811 44.1671 289.4 43.5192C289.989 42.8124 290.784 42.4589 291.786 42.4589H312.196C313.138 42.4589 313.904 42.8124 314.493 43.5192C315.141 44.1671 315.465 44.9329 315.465 45.8164C315.465 46.7 315.141 47.4952 314.493 48.202C313.904 48.85 313.138 49.1739 312.196 49.1739H291.786ZM291.786 36.8042C290.784 36.8042 289.989 36.4802 289.4 35.8323C288.811 35.1254 288.516 34.3302 288.516 33.4467C288.516 32.5631 288.811 31.7974 289.4 31.1495C289.989 30.4426 290.784 30.0892 291.786 30.0892H312.196C313.138 30.0892 313.904 30.4426 314.493 31.1495C315.141 31.7974 315.465 32.5631 315.465 33.4467C315.465 34.3302 315.141 35.1254 314.493 35.8323C313.904 36.4802 313.138 36.8042 312.196 36.8042H291.786ZM302.388 73.7367C304.862 73.7367 306.482 73.3244 307.248 72.4998C308.013 71.6162 308.396 69.9374 308.396 67.4635C308.396 65.0485 308.013 63.3992 307.248 62.5156C306.482 61.632 304.862 61.1903 302.388 61.1903C299.855 61.1903 298.206 61.632 297.44 62.5156C296.675 63.3992 296.292 65.0485 296.292 67.4635C296.292 69.9374 296.675 71.6162 297.44 72.4998C298.206 73.3244 299.855 73.7367 302.388 73.7367Z" fill="#DEB650"/>
<path d="M427.115 77.2724C420.523 78.1606 415.123 78.4879 410.916 78.2541C406.708 78.0671 403.413 77.436 401.028 76.3608C398.691 75.2855 397.055 73.9531 396.12 72.3637C395.185 70.7274 394.717 68.9509 394.717 67.0342C394.717 63.5747 396.166 60.3723 399.065 57.4271C402.01 54.4351 406.124 51.8405 411.407 49.6432C410.565 48.4745 409.537 47.633 408.321 47.1187C406.638 46.3707 404.909 46.1837 403.132 46.5577C401.356 46.885 399.626 47.6096 397.943 48.7316C396.26 49.8536 394.694 51.2094 393.244 52.7988C392.637 53.4533 391.842 53.804 390.86 53.8507C389.925 53.8975 389.154 53.5936 388.546 52.9391C387.938 52.2846 387.658 51.5132 387.705 50.625C387.751 49.7367 388.102 49.0355 388.756 48.5212C391.374 46.4175 393.618 44.0566 395.488 41.4386C397.358 38.8206 398.925 36.1559 400.187 33.4444C397.896 33.4912 395.722 33.5379 393.665 33.5847C391.608 33.5847 389.855 33.5613 388.406 33.5145C387.518 33.4678 386.77 33.1639 386.162 32.6029C385.554 31.9952 385.274 31.2472 385.32 30.3589C385.367 29.4707 385.694 28.7461 386.302 28.1851C386.957 27.5773 387.728 27.3202 388.616 27.4137C390.252 27.4604 392.309 27.4838 394.787 27.4838C397.265 27.4838 399.86 27.4604 402.571 27.4137C402.945 26.2917 403.249 25.1931 403.483 24.1178C403.716 23.0426 403.927 22.0141 404.114 21.0323C404.207 20.1441 404.558 19.4428 405.166 18.9286C405.82 18.3676 406.592 18.1338 407.48 18.2273C408.368 18.2741 409.069 18.6481 409.584 19.3493C410.098 20.0506 410.285 20.822 410.145 21.6635C410.051 22.5517 409.887 23.4633 409.654 24.3983C409.467 25.2866 409.256 26.1982 409.023 27.1332C411.126 27.0397 413.137 26.9228 415.053 26.7826C416.97 26.6423 418.653 26.4787 420.102 26.2917C420.991 26.1982 421.762 26.4086 422.416 26.9228C423.118 27.3903 423.515 28.0682 423.609 28.9564C423.702 29.8447 423.468 30.616 422.907 31.2705C422.393 31.8783 421.715 32.2289 420.874 32.3224C419.004 32.5094 416.853 32.6964 414.422 32.8834C411.991 33.0237 409.467 33.1405 406.849 33.234C406.241 34.6833 405.563 36.1325 404.815 37.5818C404.067 38.9843 403.272 40.3634 402.431 41.7191C405.47 40.8776 408.204 40.9244 410.635 41.8594C411.757 42.2801 412.903 42.9113 414.072 43.7528C415.287 44.5942 416.386 45.8331 417.367 47.4694C419.798 46.7214 422.393 46.0435 425.151 45.4357C427.909 44.828 430.785 44.2904 433.777 43.8229C434.665 43.7294 435.46 43.9398 436.161 44.454C436.862 44.9215 437.259 45.576 437.353 46.4175C437.493 47.3057 437.283 48.0771 436.722 48.7316C436.208 49.3861 435.53 49.7835 434.688 49.9237C431.743 50.2977 429.008 50.7652 426.484 51.3262C424.006 51.8405 421.715 52.4015 419.611 53.0092C419.939 54.3182 420.196 55.7908 420.383 57.4271C420.57 59.0633 420.663 60.8632 420.663 62.8267C420.663 63.7149 420.359 64.4863 419.752 65.1408C419.144 65.7486 418.396 66.0524 417.508 66.0524C416.619 66.0524 415.871 65.7486 415.264 65.1408C414.656 64.4863 414.352 63.7149 414.352 62.8267C414.352 61.3307 414.282 59.9516 414.142 58.6893C414.048 57.3803 413.885 56.1648 413.651 55.0428C409.256 56.7726 406.054 58.6893 404.044 60.7931C402.033 62.8968 401.028 64.9772 401.028 67.0342C401.028 69.3249 403.015 70.891 406.989 71.7325C410.963 72.574 417.391 72.4104 426.273 71.2417C427.161 71.1014 427.956 71.2884 428.657 71.8027C429.359 72.2702 429.756 72.948 429.85 73.8363C429.943 74.6778 429.733 75.4258 429.218 76.0803C428.704 76.7815 428.003 77.1789 427.115 77.2724ZM47.8957 178.613C46.9237 178.937 45.9786 178.883 45.0606 178.451C44.1425 178.019 43.5215 177.317 43.1975 176.345C42.8735 175.427 42.9275 174.509 43.3595 173.591C43.7915 172.673 44.4936 172.052 45.4656 171.728C50.3259 170 53.8361 167.65 55.9962 164.68C58.2103 161.71 59.3173 158.578 59.3173 155.284C59.3173 151.936 58.2643 148.992 56.1582 146.454C54.0521 143.916 50.8389 142.215 46.5187 141.351C45.7086 145.779 44.4126 149.965 42.6305 153.907C40.9024 157.795 38.8503 161.251 36.4742 164.275C36.7442 164.707 37.0142 165.166 37.2842 165.652C37.5542 166.084 37.8242 166.516 38.0942 166.948C38.6343 167.758 38.7963 168.649 38.5803 169.622C38.3642 170.594 37.8242 171.377 36.9602 171.971C36.0961 172.511 35.1781 172.7 34.206 172.538C33.234 172.322 32.4779 171.782 31.9379 170.918C31.8299 170.702 31.6949 170.513 31.5329 170.351C31.4249 170.189 31.3169 170 31.2089 169.784C28.8868 171.782 26.4296 173.348 23.8375 174.482C21.2454 175.67 18.5992 176.264 15.8991 176.264C12.5509 176.264 9.71576 175.319 7.39364 173.429C5.07152 171.485 3.91046 168.298 3.91046 163.87C3.91046 159.766 4.74751 156.013 6.42159 152.611C8.09568 149.208 10.3908 146.238 13.3069 143.7C16.2231 141.108 19.4903 139.002 23.1085 137.382C23.1625 135.654 23.2165 133.899 23.2705 132.117C23.3785 130.28 23.5405 128.417 23.7565 126.527C18.3022 126.851 13.523 126.932 9.41875 126.77C8.39269 126.716 7.52865 126.338 6.82661 125.636C6.17858 124.88 5.88156 123.989 5.93557 122.963C5.98957 121.937 6.36759 121.1 7.06963 120.452C7.82566 119.75 8.71671 119.426 9.74276 119.48C14.117 119.642 19.1123 119.561 24.7285 119.237C24.9986 117.833 25.2416 116.456 25.4576 115.106C25.7276 113.702 26.0246 112.271 26.3486 110.812C26.5646 109.84 27.0777 109.084 27.8877 108.544C28.7518 107.95 29.6968 107.788 30.7229 108.058C31.6949 108.274 32.4509 108.814 32.991 109.678C33.585 110.488 33.747 111.38 33.477 112.352C33.261 113.432 33.045 114.512 32.829 115.592C32.667 116.618 32.4779 117.671 32.2619 118.751C34.8541 118.481 37.3382 118.211 39.7143 117.941C42.0904 117.617 44.2776 117.293 46.2757 116.969C47.3017 116.753 48.2198 116.942 49.0298 117.536C49.8398 118.13 50.3529 118.913 50.5689 119.885C50.7309 120.911 50.5149 121.829 49.9208 122.639C49.3808 123.449 48.5978 123.962 47.5717 124.178C45.2496 124.556 42.6845 124.907 39.8763 125.231C37.0682 125.501 34.179 125.771 31.2089 126.041C30.9929 127.553 30.8309 129.065 30.7229 130.578C30.6688 132.09 30.5878 133.548 30.4798 134.952C33.828 134.196 37.1222 133.818 40.3624 133.818C45.9246 133.818 50.6499 134.763 54.5381 136.653C58.4263 138.489 61.3964 141.027 63.4485 144.267C65.5547 147.453 66.6077 151.099 66.6077 155.203C66.6077 158.227 65.9597 161.251 64.6636 164.275C63.3675 167.245 61.3424 170 58.5883 172.538C55.8342 175.022 52.27 177.047 47.8957 178.613ZM15.8991 169.055C17.9512 169.055 20.0033 168.568 22.0554 167.596C24.1075 166.57 26.0516 165.166 27.8877 163.384C25.5116 157.768 24.0265 151.558 23.4325 144.753C19.6523 146.751 16.6551 149.424 14.441 152.773C12.2809 156.067 11.2008 159.793 11.2008 163.951C11.2008 167.353 12.7669 169.055 15.8991 169.055ZM33.234 156.904C34.7461 154.582 36.0691 152.071 37.2032 149.37C38.3372 146.616 39.2013 143.727 39.7953 140.703C36.5012 140.757 33.423 141.162 30.5608 141.918C30.8849 147.372 31.7759 152.368 33.234 156.904ZM80.2164 175.697C79.3524 175.103 78.8123 174.32 78.5963 173.348C78.4343 172.376 78.6233 171.458 79.1634 170.594C81.4315 167.029 83.4026 163.087 85.0767 158.767C86.8048 154.393 88.2628 149.884 89.4509 145.239C90.639 140.541 91.557 136.005 92.205 131.631C90.531 131.847 88.9109 132.036 87.3448 132.198C85.7787 132.306 84.2936 132.414 82.8896 132.522C81.8635 132.576 80.9455 132.279 80.1354 131.631C79.3794 130.929 78.9744 130.091 78.9204 129.119C78.8663 128.093 79.1634 127.202 79.8114 126.446C80.4594 125.69 81.2965 125.285 82.3225 125.231C83.8346 125.123 85.5087 125.015 87.3448 124.907C89.2349 124.799 91.179 124.637 93.1771 124.421C93.3931 122.207 93.5281 120.128 93.5821 118.184C93.6901 116.24 93.6901 114.458 93.5821 112.838C93.5281 111.812 93.8251 110.947 94.4732 110.245C95.1752 109.489 96.0392 109.084 97.0653 109.03C98.0913 108.922 98.9554 109.219 99.6574 109.921C100.413 110.623 100.818 111.488 100.872 112.514C100.98 114.026 100.98 115.7 100.872 117.536C100.818 119.372 100.683 121.343 100.467 123.449C102.196 123.179 103.816 122.936 105.328 122.72C106.894 122.45 108.271 122.153 109.459 121.829C110.431 121.559 111.322 121.721 112.132 122.315C112.996 122.909 113.536 123.692 113.752 124.664C113.968 125.69 113.806 126.635 113.266 127.499C112.726 128.309 111.943 128.822 110.917 129.038C109.405 129.308 107.677 129.605 105.733 129.929C103.789 130.199 101.737 130.469 99.5764 130.74C98.8744 135.654 97.8483 140.784 96.4983 146.13C95.2022 151.423 93.6091 156.526 91.719 161.44C89.8829 166.354 87.7498 170.729 85.3197 174.563C84.7797 175.427 83.9966 175.967 82.9706 176.183C81.9985 176.399 81.0805 176.237 80.2164 175.697ZM136.514 173.672C128.846 175.346 122.177 175.454 116.506 173.996C110.836 172.484 106.759 169.46 104.275 164.923C103.789 164.005 103.681 163.06 103.951 162.088C104.275 161.116 104.869 160.387 105.733 159.901C106.597 159.415 107.515 159.307 108.487 159.577C109.459 159.847 110.188 160.441 110.674 161.359C111.97 163.735 113.779 165.436 116.101 166.462C118.477 167.434 121.259 167.893 124.445 167.839C127.685 167.785 131.195 167.353 134.975 166.543C135.947 166.327 136.865 166.489 137.729 167.029C138.593 167.569 139.133 168.352 139.349 169.379C139.565 170.351 139.376 171.269 138.782 172.133C138.242 172.943 137.486 173.456 136.514 173.672ZM132.626 142.242C129.656 141.54 126.254 141.162 122.42 141.108C118.639 141.054 115.129 141.324 111.889 141.918C110.863 142.134 109.945 141.972 109.135 141.432C108.325 140.838 107.812 140.028 107.596 139.002C107.38 138.03 107.542 137.112 108.082 136.248C108.676 135.384 109.486 134.871 110.512 134.709C114.346 134.115 118.369 133.845 122.582 133.899C126.794 133.953 130.736 134.358 134.408 135.114C135.38 135.33 136.136 135.897 136.676 136.815C137.216 137.679 137.351 138.597 137.081 139.569C136.865 140.541 136.325 141.297 135.461 141.837C134.597 142.323 133.652 142.458 132.626 142.242ZM180.743 177.074C179.987 176.372 179.582 175.481 179.528 174.401C179.528 173.321 179.879 172.43 180.581 171.728C183.173 169.244 185.468 166.111 187.466 162.331C189.518 158.551 191.111 154.312 192.245 149.613C193.379 144.861 193.946 139.893 193.946 134.709C193.946 130.226 193.244 126.905 191.84 124.745C190.49 122.585 188.249 121.505 185.117 121.505C182.957 121.505 180.851 122.531 178.799 124.583C176.746 126.635 175.153 129.524 174.019 133.251C172.939 136.977 172.642 141.351 173.128 146.373C173.236 147.291 172.966 148.101 172.318 148.803C171.724 149.505 170.968 149.911 170.05 150.019C169.186 150.073 168.376 149.83 167.62 149.289C166.864 148.695 166.432 147.966 166.324 147.102C165.946 144.51 165.703 141.567 165.595 138.273C165.541 134.979 165.541 131.658 165.595 128.309C165.703 124.907 165.838 121.721 166 118.751C166.216 115.781 166.432 113.324 166.648 111.38C166.756 110.407 167.188 109.624 167.944 109.03C168.754 108.436 169.645 108.193 170.617 108.301C171.589 108.355 172.372 108.787 172.966 109.597C173.614 110.353 173.857 111.218 173.695 112.19C173.533 113.54 173.344 115.214 173.128 117.212C172.912 119.21 172.75 121.235 172.642 123.287C174.208 120.479 176.098 118.265 178.313 116.645C180.581 114.971 182.957 114.134 185.441 114.134C190.571 114.134 194.486 115.889 197.186 119.399C199.941 122.855 201.318 127.958 201.318 134.709C201.318 140.163 200.751 145.482 199.617 150.667C198.483 155.851 196.781 160.684 194.513 165.166C192.245 169.595 189.437 173.51 186.089 176.912C185.387 177.614 184.496 177.992 183.416 178.046C182.39 178.1 181.499 177.776 180.743 177.074ZM247.571 178.289C243.683 178.289 240.47 177.371 237.932 175.535C235.447 173.753 234.205 171.053 234.205 167.434C234.205 164.086 235.42 161.413 237.851 159.415C240.281 157.363 243.629 156.337 247.895 156.337C249.893 156.337 251.972 156.499 254.132 156.823C254.078 155.041 254.024 153.151 253.97 151.153C253.916 149.1 253.862 146.994 253.808 144.834C250.892 144.888 248.03 144.942 245.222 144.996C242.468 144.996 239.903 144.969 237.527 144.915C236.501 144.861 235.636 144.483 234.934 143.781C234.286 143.025 233.989 142.134 234.043 141.108C234.097 140.082 234.475 139.218 235.177 138.516C235.933 137.814 236.825 137.49 237.851 137.544C242.603 137.868 247.868 137.949 253.646 137.787C253.592 136.113 253.538 134.466 253.484 132.846C253.484 131.226 253.457 129.605 253.403 127.985C250.595 128.039 247.841 128.093 245.141 128.147C242.441 128.147 239.903 128.12 237.527 128.066C236.501 128.012 235.636 127.634 234.934 126.932C234.286 126.176 233.989 125.285 234.043 124.259C234.097 123.233 234.475 122.369 235.177 121.667C235.933 120.965 236.825 120.641 237.851 120.695C242.441 121.019 247.598 121.1 253.322 120.938C253.268 119.372 253.241 117.833 253.241 116.321C253.241 114.809 253.241 113.378 253.241 112.028C253.241 111.055 253.592 110.218 254.294 109.516C254.996 108.76 255.861 108.382 256.887 108.382C257.913 108.382 258.777 108.76 259.479 109.516C260.181 110.218 260.532 111.055 260.532 112.028C260.532 113.378 260.532 114.755 260.532 116.159C260.532 117.563 260.559 119.048 260.613 120.614C263.043 120.506 265.392 120.344 267.66 120.128C269.928 119.912 272.061 119.669 274.059 119.399C275.086 119.237 275.977 119.453 276.733 120.047C277.543 120.641 278.029 121.451 278.191 122.477C278.299 123.503 278.056 124.421 277.462 125.231C276.868 126.041 276.058 126.5 275.032 126.608C272.979 126.824 270.738 127.04 268.308 127.256C265.878 127.418 263.367 127.58 260.775 127.742C260.775 129.308 260.775 130.929 260.775 132.603C260.829 134.223 260.883 135.843 260.937 137.463C263.313 137.355 265.608 137.193 267.822 136.977C270.09 136.707 272.169 136.464 274.059 136.248C275.086 136.086 275.977 136.329 276.733 136.977C277.543 137.571 278.029 138.354 278.191 139.326C278.299 140.352 278.056 141.27 277.462 142.08C276.868 142.89 276.058 143.349 275.032 143.457C273.033 143.673 270.846 143.889 268.47 144.105C266.094 144.267 263.637 144.402 261.099 144.51C261.207 147.048 261.288 149.505 261.342 151.882C261.396 154.204 261.423 156.391 261.423 158.443C264.663 159.415 267.741 160.576 270.657 161.926C273.573 163.276 276.112 164.707 278.272 166.219C279.136 166.759 279.649 167.542 279.811 168.568C280.027 169.541 279.838 170.432 279.244 171.242C278.65 172.106 277.84 172.619 276.814 172.781C275.842 172.943 274.95 172.754 274.14 172.214C272.52 171.134 270.63 170.027 268.47 168.892C266.31 167.758 264.015 166.759 261.585 165.895C261.585 170.27 260.343 173.429 257.859 175.373C255.428 177.317 251.999 178.289 247.571 178.289ZM247.571 171.485C250.325 171.485 252.107 170.972 252.917 169.946C253.781 168.919 254.213 167.569 254.213 165.895V163.789C253.079 163.573 251.945 163.411 250.811 163.303C249.731 163.195 248.651 163.141 247.571 163.141C245.573 163.141 244.061 163.519 243.035 164.275C242.009 165.031 241.496 166.084 241.496 167.434C241.496 170.135 243.521 171.485 247.571 171.485ZM346.477 177.722C341.131 177.722 337.324 176.453 335.056 173.915C332.788 171.323 332.031 167.245 332.788 161.683C333.058 159.901 332.788 158.578 331.977 157.714C331.167 156.796 330.087 156.391 328.737 156.499C327.441 156.553 326.118 157.201 324.768 158.443C322.446 160.657 320.151 162.871 317.883 165.085C315.615 167.245 313.536 169.217 311.645 170.999C309.755 172.781 308.243 174.158 307.109 175.13C306.353 175.778 305.462 176.075 304.436 176.021C303.464 176.021 302.627 175.67 301.925 174.968C301.223 174.212 300.872 173.321 300.872 172.295C300.926 171.269 301.331 170.432 302.087 169.784C303.059 168.973 304.382 167.812 306.056 166.3C307.73 164.788 309.566 163.087 311.564 161.197C313.617 159.253 315.696 157.282 317.802 155.284C319.908 153.232 321.906 151.288 323.796 149.451C325.686 147.561 327.333 145.887 328.737 144.429C330.195 142.971 331.248 141.891 331.896 141.189C333.949 138.867 334.57 137.058 333.76 135.762C333.004 134.412 331.14 133.953 328.17 134.385C327.468 134.493 326.334 134.682 324.768 134.952C323.256 135.222 321.609 135.492 319.827 135.762C318.045 136.032 316.398 136.302 314.886 136.572C313.428 136.788 312.374 136.95 311.726 137.058C310.754 137.166 309.836 136.95 308.972 136.41C308.162 135.816 307.676 135.033 307.514 134.061C307.352 133.035 307.568 132.117 308.162 131.307C308.756 130.497 309.566 130.01 310.592 129.848C311.348 129.74 312.401 129.578 313.752 129.362C315.102 129.146 316.587 128.93 318.207 128.714C319.881 128.444 321.501 128.201 323.067 127.985C324.687 127.769 326.064 127.58 327.198 127.418C330.708 126.932 333.571 127.067 335.785 127.823C337.999 128.579 339.619 129.875 340.645 131.712C341.563 133.44 341.86 135.411 341.536 137.625C341.212 139.839 340.024 142.215 337.972 144.753C337.432 145.455 336.676 146.319 335.704 147.345C334.732 148.317 333.679 149.424 332.544 150.667C335.083 150.829 337.054 151.855 338.458 153.745C339.916 155.581 340.456 158.254 340.078 161.764C339.862 164.086 339.889 165.868 340.159 167.11C340.483 168.352 341.158 169.217 342.184 169.703C343.21 170.135 344.695 170.351 346.639 170.351C347.935 170.351 349.555 170.243 351.499 170.027C353.444 169.757 355.577 169.433 357.899 169.055C358.871 168.838 359.762 169.027 360.572 169.622C361.436 170.162 361.949 170.945 362.111 171.971C362.327 172.997 362.138 173.915 361.544 174.725C361.004 175.535 360.221 176.048 359.195 176.264C354.011 177.236 349.771 177.722 346.477 177.722ZM337 121.748C334.678 121.532 332.22 121.181 329.628 120.695C327.09 120.155 324.633 119.534 322.257 118.832C319.935 118.13 317.937 117.428 316.263 116.726C315.345 116.294 314.67 115.646 314.238 114.782C313.806 113.864 313.779 112.946 314.157 112.028C314.535 111.055 315.183 110.353 316.101 109.921C317.019 109.489 317.937 109.489 318.855 109.921C321.501 111.001 324.444 111.947 327.684 112.757C330.924 113.567 334.273 114.134 337.729 114.458C338.701 114.512 339.511 114.944 340.159 115.754C340.807 116.51 341.077 117.401 340.969 118.427C340.915 119.453 340.483 120.29 339.673 120.938C338.917 121.532 338.026 121.802 337 121.748ZM381.147 174.239C380.175 174.455 379.284 174.266 378.474 173.672C377.664 173.078 377.151 172.295 376.935 171.323C376.449 168.838 376.098 165.814 375.882 162.25C375.666 158.632 375.558 154.744 375.558 150.586C375.558 146.427 375.666 142.242 375.882 138.03C376.098 133.818 376.422 129.848 376.854 126.122C377.286 122.396 377.799 119.183 378.393 116.483C378.609 115.457 379.149 114.674 380.013 114.134C380.877 113.594 381.795 113.459 382.767 113.729C383.793 113.945 384.549 114.485 385.035 115.349C385.575 116.213 385.737 117.158 385.521 118.184C384.819 120.938 384.252 124.07 383.82 127.58C383.388 131.091 383.064 134.79 382.848 138.678C382.686 142.566 382.605 146.427 382.605 150.262C382.659 154.042 382.794 157.66 383.01 161.116C383.28 164.518 383.658 167.488 384.144 170.027C384.306 170.999 384.09 171.917 383.496 172.781C382.956 173.591 382.173 174.077 381.147 174.239ZM414.602 169.541C407.635 169.541 402.478 168.244 399.13 165.652C395.836 163.06 393.973 159.55 393.541 155.122C393.433 154.096 393.676 153.205 394.27 152.449C394.918 151.639 395.755 151.207 396.781 151.153C397.807 151.045 398.698 151.315 399.454 151.963C400.264 152.557 400.723 153.367 400.831 154.393C401.047 157.093 402.262 159.118 404.476 160.468C406.69 161.818 410.093 162.493 414.683 162.493C416.573 162.493 418.868 162.358 421.568 162.088C424.268 161.764 426.995 161.251 429.75 160.549C430.722 160.279 431.613 160.441 432.423 161.035C433.287 161.629 433.827 162.412 434.043 163.384C434.313 164.41 434.151 165.328 433.557 166.138C433.017 166.948 432.234 167.488 431.208 167.758C428.399 168.46 425.564 168.946 422.702 169.217C419.894 169.433 417.194 169.541 414.602 169.541ZM399.211 129.929C398.185 130.145 397.24 129.983 396.376 129.443C395.566 128.849 395.053 128.039 394.837 127.013C394.675 126.041 394.864 125.15 395.404 124.34C395.998 123.476 396.781 122.936 397.753 122.72C399.805 122.288 402.154 121.991 404.8 121.829C407.5 121.613 410.255 121.505 413.063 121.505C415.925 121.451 418.679 121.505 421.325 121.667C423.971 121.829 426.347 122.099 428.453 122.477C429.426 122.693 430.182 123.206 430.722 124.016C431.316 124.826 431.532 125.744 431.37 126.77C431.154 127.742 430.641 128.525 429.831 129.119C429.02 129.713 428.102 129.902 427.076 129.686C417.788 128.012 408.499 128.093 399.211 129.929Z" fill="#1EADAC"/>
</svg>
