<?xml version="1.0" encoding="UTF-8"?>
<svg id="_レイヤー_2" data-name="レイヤー 2" xmlns="http://www.w3.org/2000/svg" xmlns:xlink="http://www.w3.org/1999/xlink" viewBox="0 0 435 67">
  <defs>
    <style>
      .cls-1 {
        fill: #eca212;
      }

      .cls-2 {
        fill: #fff;
      }

      .cls-3 {
        fill: url(#_名称未設定グラデーション);
      }
    </style>
    <linearGradient id="_名称未設定グラデーション" data-name="名称未設定グラデーション" x1="222.59" y1="363.65" x2="214.26" y2="278.41" gradientTransform="translate(0 345.09) scale(1 -1)" gradientUnits="userSpaceOnUse">
      <stop offset="0" stop-color="#e3ca99"/>
      <stop offset="1" stop-color="#ec9c00"/>
    </linearGradient>
  </defs>
  <g id="_レイヤー_1-2" data-name="レイヤー 1">
    <g>
      <rect class="cls-3" x="0" width="435" height="67" rx="5" ry="5" shape-rendering="crispEdges"/>
      <path class="cls-2" d="M285.38,30.14c-.67,0-1.25-.18-1.73-.53-.48-.35-.84-.86-1.1-1.54-.25-.67-.38-1.48-.38-2.43s.13-1.75,.38-2.42c.26-.67,.62-1.18,1.1-1.53,.48-.35,1.05-.53,1.72-.53s1.24,.18,1.72,.53c.48,.35,.84,.86,1.1,1.53,.26,.67,.38,1.47,.38,2.42s-.13,1.76-.38,2.44c-.25,.67-.62,1.18-1.1,1.54-.48,.35-1.05,.53-1.72,.53Zm0-1.14c.59,0,1.05-.29,1.39-.87,.33-.58,.5-1.41,.5-2.5,0-.72-.08-1.34-.23-1.84-.15-.5-.37-.88-.65-1.14-.28-.26-.62-.39-1.01-.39-.59,0-1.05,.29-1.39,.87-.33,.58-.5,1.41-.51,2.5,0,.73,.08,1.34,.23,1.85,.15,.5,.37,.88,.65,1.14,.28,.26,.62,.38,1.01,.38Zm7.89-7.73v8.73h-1.32v-7.41h-.05l-2.09,1.36v-1.26l2.18-1.42h1.28Zm2.23,8.73v-.95l2.95-3.06c.32-.33,.58-.62,.78-.87,.21-.25,.36-.49,.46-.72,.1-.23,.15-.47,.15-.72,0-.29-.07-.54-.21-.75-.14-.21-.32-.38-.56-.49-.24-.12-.5-.17-.8-.17-.31,0-.59,.06-.82,.19s-.41,.31-.54,.54c-.12,.23-.19,.51-.19,.82h-1.26c0-.53,.12-1,.37-1.39,.24-.4,.58-.71,1.01-.92,.43-.22,.91-.33,1.45-.33s1.03,.11,1.45,.33c.42,.22,.75,.51,.98,.89,.24,.37,.35,.79,.35,1.26,0,.32-.06,.64-.18,.95-.12,.31-.33,.65-.63,1.04-.3,.38-.71,.84-1.24,1.38l-1.74,1.82v.06h3.93v1.13h-5.74Zm10.27,.14c-.67,0-1.25-.18-1.73-.53-.48-.35-.84-.86-1.1-1.54-.25-.67-.38-1.48-.38-2.43s.13-1.75,.38-2.42c.26-.67,.62-1.18,1.1-1.53,.48-.35,1.05-.53,1.72-.53s1.24,.18,1.72,.53c.48,.35,.84,.86,1.1,1.53,.26,.67,.38,1.47,.38,2.42s-.13,1.76-.38,2.44c-.25,.67-.62,1.18-1.1,1.54-.48,.35-1.05,.53-1.72,.53Zm0-1.14c.59,0,1.05-.29,1.39-.87,.33-.58,.5-1.41,.5-2.5,0-.72-.08-1.34-.23-1.84-.15-.5-.37-.88-.65-1.14-.28-.26-.62-.39-1.01-.39-.59,0-1.05,.29-1.38,.87-.34,.58-.51,1.41-.51,2.5,0,.73,.08,1.34,.23,1.85,.15,.5,.37,.88,.65,1.14,.28,.26,.62,.38,1.01,.38Zm8.45-3.92v1.11h-3.87v-1.11h3.87Zm4.5,5.04c-.61,0-1.15-.11-1.62-.32-.47-.21-.83-.5-1.1-.87-.26-.37-.4-.79-.39-1.26,0-.37,.07-.71,.23-1.02,.16-.31,.37-.57,.64-.78,.27-.21,.57-.34,.89-.4v-.05c-.43-.11-.78-.34-1.04-.7-.26-.36-.39-.78-.39-1.24,0-.45,.12-.84,.35-1.19,.24-.35,.57-.63,.99-.83,.42-.2,.9-.3,1.44-.3s1.01,.1,1.42,.31c.42,.2,.75,.48,.99,.83,.24,.35,.36,.75,.37,1.19,0,.47-.14,.88-.4,1.24s-.61,.59-1.03,.7v.05c.33,.06,.62,.19,.88,.4,.26,.21,.47,.47,.63,.78,.16,.31,.24,.65,.24,1.02,0,.47-.14,.89-.4,1.26-.26,.37-.63,.66-1.1,.87-.47,.21-1,.32-1.61,.32Zm0-1.08c.36,0,.67-.06,.94-.18,.27-.12,.47-.29,.61-.51,.14-.22,.22-.47,.22-.77,0-.3-.08-.57-.24-.81-.15-.23-.36-.42-.63-.55-.26-.13-.57-.2-.91-.2s-.65,.07-.92,.2c-.27,.13-.48,.32-.63,.55-.15,.23-.23,.5-.23,.81,0,.29,.07,.55,.21,.77,.14,.22,.35,.39,.62,.51,.27,.12,.58,.18,.95,.18Zm0-4.06c.29,0,.55-.06,.77-.17,.23-.12,.4-.28,.53-.49,.13-.21,.2-.45,.2-.73,0-.27-.07-.51-.2-.72-.12-.2-.3-.36-.52-.47-.23-.11-.49-.17-.78-.17s-.57,.06-.79,.17c-.22,.11-.4,.27-.52,.47s-.19,.44-.18,.72c0,.28,.06,.52,.19,.73,.13,.21,.3,.37,.53,.49,.23,.12,.49,.17,.78,.17Zm7.4-3.83c.39,0,.77,.07,1.15,.21,.38,.14,.72,.37,1.02,.68,.31,.32,.55,.74,.73,1.28,.18,.53,.28,1.2,.28,1.99,0,.76-.08,1.44-.23,2.04-.15,.59-.37,1.1-.66,1.5-.28,.41-.63,.72-1.04,.93-.41,.21-.86,.32-1.37,.32s-.98-.1-1.39-.31c-.4-.2-.73-.49-.98-.85-.25-.36-.41-.78-.47-1.25h1.3c.08,.38,.26,.68,.52,.91,.26,.23,.61,.35,1.02,.35,.64,0,1.14-.28,1.5-.84,.36-.56,.54-1.34,.54-2.34h-.07c-.15,.24-.33,.45-.55,.63-.22,.18-.46,.31-.74,.41-.27,.1-.56,.14-.87,.14-.5,0-.96-.12-1.37-.37-.41-.25-.74-.59-.98-1.02-.24-.43-.37-.92-.37-1.48s.12-1.05,.38-1.5c.25-.45,.61-.8,1.06-1.07,.45-.26,.99-.39,1.6-.39Zm0,1.11c-.33,0-.63,.08-.9,.25-.26,.16-.47,.38-.63,.66-.15,.28-.23,.58-.23,.92s.07,.64,.22,.92c.15,.27,.36,.49,.61,.65,.26,.16,.56,.24,.89,.24,.25,0,.48-.05,.7-.14,.21-.1,.4-.23,.57-.4,.16-.17,.29-.37,.38-.59,.09-.22,.14-.45,.14-.69,0-.32-.08-.62-.23-.89-.15-.28-.36-.5-.62-.66-.27-.17-.57-.26-.9-.26Zm7.49-1.11c.39,0,.77,.07,1.15,.21,.38,.14,.72,.37,1.02,.68,.31,.32,.55,.74,.73,1.28,.18,.53,.28,1.2,.28,1.99,0,.76-.08,1.44-.23,2.04-.15,.59-.37,1.1-.66,1.5-.28,.41-.63,.72-1.04,.93-.41,.21-.86,.32-1.37,.32s-.98-.1-1.39-.31c-.4-.2-.73-.49-.98-.85-.25-.36-.41-.78-.47-1.25h1.3c.09,.38,.26,.68,.52,.91,.27,.23,.61,.35,1.02,.35,.64,0,1.14-.28,1.5-.84,.36-.56,.54-1.34,.54-2.34h-.07c-.15,.24-.33,.45-.55,.63-.22,.18-.46,.31-.74,.41-.27,.1-.56,.14-.87,.14-.5,0-.96-.12-1.37-.37-.41-.25-.74-.59-.98-1.02-.24-.43-.37-.92-.37-1.48s.12-1.05,.38-1.5c.25-.45,.61-.8,1.06-1.07,.45-.26,.99-.39,1.6-.39Zm0,1.11c-.33,0-.63,.08-.9,.25-.26,.16-.47,.38-.63,.66-.15,.28-.23,.58-.23,.92s.07,.64,.22,.92c.15,.27,.36,.49,.61,.65,.26,.16,.56,.24,.9,.24,.25,0,.48-.05,.7-.14,.22-.1,.4-.23,.57-.4,.16-.17,.29-.37,.38-.59,.09-.22,.14-.45,.14-.69,0-.32-.08-.62-.23-.89-.15-.28-.36-.5-.62-.66-.26-.17-.57-.26-.9-.26Zm8.46,2.82v1.11h-3.87v-1.11h3.87Zm4.59,5.06c-.67,0-1.25-.18-1.73-.53-.48-.35-.84-.86-1.1-1.54-.25-.67-.38-1.48-.38-2.43s.13-1.75,.38-2.42c.26-.67,.62-1.18,1.1-1.53,.48-.35,1.05-.53,1.72-.53s1.24,.18,1.72,.53c.48,.35,.84,.86,1.1,1.53,.26,.67,.38,1.47,.38,2.42s-.13,1.76-.38,2.44c-.25,.67-.62,1.18-1.1,1.54-.48,.35-1.05,.53-1.72,.53Zm0-1.14c.59,0,1.05-.29,1.39-.87,.33-.58,.5-1.41,.5-2.5,0-.72-.08-1.34-.23-1.84-.15-.5-.37-.88-.65-1.14-.28-.26-.62-.39-1.01-.39-.59,0-1.05,.29-1.39,.87-.33,.58-.5,1.41-.51,2.5,0,.73,.07,1.34,.23,1.85,.15,.5,.37,.88,.65,1.14,.28,.26,.62,.38,1.01,.38Zm4.39-.71v-1.07l3.77-5.96h.84v1.57h-.53l-2.7,4.27v.07h5.17v1.12h-6.55Zm4.14,1.7v-2.51s0-6.21,0-6.21h1.25v8.73h-1.26Zm6.67-8.85c.39,0,.77,.07,1.15,.21,.38,.14,.72,.37,1.02,.68,.31,.32,.55,.74,.73,1.28,.18,.53,.28,1.2,.28,1.99,0,.76-.08,1.44-.23,2.04-.15,.59-.37,1.1-.66,1.5-.28,.41-.63,.72-1.04,.93-.41,.21-.86,.32-1.37,.32s-.98-.1-1.39-.31c-.4-.2-.73-.49-.98-.85-.25-.36-.41-.78-.47-1.25h1.3c.08,.38,.26,.68,.52,.91,.26,.23,.61,.35,1.02,.35,.64,0,1.14-.28,1.5-.84,.36-.56,.54-1.34,.54-2.34h-.07c-.15,.24-.33,.45-.55,.63-.22,.18-.46,.31-.74,.41-.27,.1-.56,.14-.87,.14-.5,0-.96-.12-1.37-.37-.41-.25-.74-.59-.98-1.02-.24-.43-.37-.92-.37-1.48s.12-1.05,.38-1.5c.25-.45,.61-.8,1.06-1.07,.45-.26,.99-.39,1.6-.39Zm0,1.11c-.33,0-.63,.08-.9,.25-.26,.16-.47,.38-.63,.66-.15,.28-.23,.58-.23,.92s.07,.64,.22,.92c.15,.27,.36,.49,.61,.65,.26,.16,.56,.24,.89,.24,.25,0,.48-.05,.7-.14,.22-.1,.4-.23,.57-.4,.16-.17,.29-.37,.38-.59,.09-.22,.14-.45,.14-.69,0-.32-.08-.62-.23-.89-.15-.28-.36-.5-.62-.66-.26-.17-.57-.26-.9-.26Z"/>
      <path class="cls-2" d="M164.72,25.38h-2.48c.05,.32,.13,1.21,.13,1.58,0,.31,0,.83-.02,1.46-.36,.02-.72,.04-1.04,.04-.65,0-1.42-.02-2.48-.14l.04,2.18c.61,.07,1.31,.09,2.52,.09,.29,0,.61-.02,.95-.04v1.51c0,.41,0,.85,.02,1.28-2.21,.95-4.01,2.59-4.01,4.16,0,1.91,2.47,3.42,4.21,3.42,1.19,0,1.98-.59,1.98-2.83,0-.61-.04-2.02-.07-3.44,1.1-.32,2.27-.5,3.38-.5,1.57,0,2.65,.72,2.65,1.94,0,1.31-1.15,2.03-2.61,2.3-.63,.11-1.4,.13-2.21,.13l.83,2.32c.74-.05,1.53-.11,2.36-.29,2.86-.72,3.98-2.32,3.98-4.45,0-2.48-2.18-3.92-4.95-3.92-.99,0-2.23,.16-3.46,.47v-.67c0-.52,0-1.08,.02-1.62,1.17-.14,2.41-.32,3.44-.56l-.05-2.23c-.94,.27-2.12,.5-3.31,.65,.02-.45,.04-.88,.05-1.28,.04-.47,.11-1.24,.16-1.57Zm5.13,1.94l-.99,1.75c1.12,.54,3.47,1.89,4.34,2.63l1.08-1.84c-.95-.68-3.04-1.87-4.43-2.54Zm-9.31,10.08c0-.63,.74-1.37,1.84-1.96,.04,.97,.05,1.8,.05,2.25,0,.61-.25,.76-.58,.76-.47,0-1.31-.49-1.31-1.04Zm17.14-8.33h4.9v3.74h2.09v-3.74h4.95v2.23h1.98v-3.65h-6.93v-.68h5.62v-1.58h-13.27v1.58h5.56v.68h-6.79v3.65h1.89v-2.23Zm7.67,3.56h3.92v-1.17h-3.92v1.17Zm0-2.95v1.15h3.51v-1.15h-3.51Zm-3.42,0h-3.55v1.15h3.55v-1.15Zm-3.89,2.95h3.89v-1.17h-3.89v1.17Zm1.44,4.97v-.77h2.99v.77h-2.99Zm2.99-2.86v.79h-2.99v-.79h2.99Zm5.31,.79h-3.26v-.79h3.26v.79Zm-3.26,2.07v-.77h3.26v.77h-3.26Zm1.3,2.27c-1.1,0-1.3-.11-1.3-.77v-.05h5.38v-5.74h-12.46v6.53h2.03v-.79h2.99v.05c0,1.89,.68,2.41,3.15,2.41h3.78c1.96,0,2.54-.59,2.79-2.75-.54-.11-1.35-.38-1.78-.68-.13,1.53-.29,1.8-1.19,1.8h-3.4Zm13.52-14.56h-5.31v1.62h5.31v-1.62Zm-1.75,11.79v2.05h-1.93v-2.05h1.93Zm1.82-1.69h-5.54v6.14h1.8v-.7h3.74v-5.44Zm-5.49-.92h5.4v-1.62h-5.4v1.62Zm5.4-4.12h-5.4v1.6h5.4v-1.6Zm-6.25-.88h6.84v-1.69h-6.84v1.69Zm14.02,9.29h-4.09v-2.52h4.09v2.52Zm2.86-6.82v-2h-3.87v-2.5c1.22-.2,2.38-.43,3.4-.74l-1.51-1.78c-1.91,.61-4.93,1.08-7.63,1.31,.23,.47,.5,1.28,.58,1.8,.95-.07,1.98-.16,2.99-.29v2.2h-3.87v2h3.87v2.38h-2.93v7.24h2.03v-.86h4.09v.79h2.14v-7.16h-3.15v-2.38h3.87Zm1.57-4.3l.23,2.47c2.09-.45,5.76-.85,7.45-1.03-1.22,.92-2.68,2.97-2.68,5.56,0,3.91,3.56,5.92,7.34,6.17l.85-2.47c-3.06-.16-5.83-1.22-5.83-4.19,0-2.14,1.64-4.46,3.82-5.04,.95-.23,2.5-.23,3.47-.25l-.02-2.3c-1.28,.05-3.24,.16-5.09,.32-3.29,.27-6.26,.54-7.78,.67-.34,.04-1.04,.07-1.76,.09Zm12.08,2.99l-1.33,.56c.58,.81,.95,1.51,1.4,2.5l1.37-.61c-.34-.7-.99-1.8-1.44-2.45Zm2.02-.83l-1.31,.61c.58,.79,.99,1.46,1.48,2.43l1.35-.65c-.38-.7-1.06-1.76-1.51-2.39Zm7.96,.65h2.25v-2.02h-2.25v-3.69h-2.05v3.69h-2.57v2.02h2.32c-.58,2.14-1.62,4.59-2.79,6.01,.34,.54,.81,1.4,1.01,2.02,.77-.99,1.46-2.47,2.03-4.05v7.11h2.05v-7.49c.5,.81,1.03,1.66,1.3,2.23l1.22-1.75c-.36-.45-1.89-2.3-2.52-2.99v-1.1Zm4.93,7.97v-2.3h4.23v2.3h-4.23Zm4.23-6.53v2.29h-4.23v-2.29h4.23Zm0-4.16v2.23h-4.23v-2.23h4.23Zm-6.28-2.02v15.68h2.05v-1.03h4.23v.92h2.16v-15.57h-8.44Zm24.59-.02c-.27,.88-.83,2.14-1.3,2.93l1.58,.61c.5-.76,1.15-1.85,1.75-2.9l-2.03-.65Zm2.2,5.78c-.97-.81-2.79-1.93-4.27-2.79,.29-1.13,.4-2.43,.45-3.92h-2.07c-.14,3.56-.43,5.62-4.18,6.79,.45,.38,.97,1.17,1.19,1.69,1.94-.67,3.11-1.57,3.85-2.75,1.37,.86,2.84,1.89,3.6,2.61l1.42-1.62Zm-8.55,6.16c.88-.86,1.44-2.29,1.67-3.67l-1.87-.38c-.23,1.22-.77,2.48-1.57,3.17l1.76,.88Zm.02-11.83c-.2,1.12-.68,2.32-1.35,2.97l1.67,.72c.77-.81,1.24-2.14,1.42-3.33l-1.75-.36Zm-2.03-.5h-5.29v1.62h5.29v-1.62Zm.65,2.41h-6.84v1.69h6.84v-1.69Zm-.59,2.5h-5.4v1.64h5.4v-1.64Zm-5.4,4.07h5.4v-1.6h-5.4v1.6Zm3.6,2.57v2.07h-1.85v-2.07h1.85Zm1.82-1.69h-5.47v6.14h1.8v-.7h3.67v-5.44Zm8.6,2.03c.56-.77,1.26-1.96,1.89-3.1l-2.11-.65c-.32,.95-.92,2.25-1.42,3.11-.25-.58-.34-1.12-.34-1.51v-2.72h-2.18v2.72c0,1.21-.92,3.56-4.36,4.77,.38,.43,.95,1.26,1.17,1.75,2.48-.9,3.92-2.84,4.28-3.96,.32,1.12,1.62,3.11,3.89,3.96,.29-.52,.85-1.33,1.22-1.82-2.12-.79-3.2-2.05-3.69-3.15l1.64,.59Z"/>
      <path class="cls-2" d="M278.81,40.2c0,1.95,.79,3.54,1.99,4.76l.6-.31c-1.15-1.19-1.86-2.67-1.86-4.45s.71-3.26,1.86-4.45l-.6-.31c-1.2,1.22-1.99,2.81-1.99,4.76Zm12.51,.33h-4.1v-3.49h3.54v-.73h-7.82v.73h3.52v3.49h-4.04v.73h4.04v3.5h.76v-3.5h4.1v-.73Zm-7.68-2.8c.38,.73,.76,1.7,.9,2.29l.7-.24c-.13-.59-.54-1.53-.95-2.25l-.65,.2Zm5.3,2.32c.39-.6,.87-1.55,1.23-2.35l-.78-.22c-.25,.72-.71,1.74-1.08,2.36l.63,.21Zm5.47,3.22v-2.79h4.96v2.79h-4.96Zm4.96-6.22v2.7h-4.96v-2.7h4.96Zm-5.71-.73v8.33h.75v-.65h4.96v.61h.78v-8.29h-6.49Zm13.96,.31c.32,0,.64,.06,.96,.18,.31,.12,.6,.31,.85,.57,.26,.26,.46,.62,.61,1.07,.15,.45,.23,1,.23,1.66,0,.64-.06,1.2-.19,1.7-.13,.49-.31,.91-.55,1.25-.24,.34-.52,.6-.86,.78-.34,.18-.72,.27-1.14,.27s-.82-.09-1.15-.26c-.34-.17-.61-.41-.82-.71-.21-.3-.34-.65-.39-1.04h1.08c.07,.31,.21,.57,.43,.76,.22,.19,.5,.29,.85,.29,.53,0,.95-.23,1.25-.7,.3-.47,.45-1.12,.45-1.95h-.06c-.12,.2-.28,.38-.46,.53-.18,.15-.39,.26-.61,.34-.23,.08-.47,.12-.73,.12-.42,0-.8-.1-1.14-.31-.34-.21-.62-.49-.82-.85-.2-.36-.31-.77-.31-1.23s.1-.88,.31-1.25c.21-.37,.51-.67,.88-.89,.38-.22,.82-.33,1.33-.32Zm0,.92c-.28,0-.53,.07-.75,.21-.22,.13-.39,.32-.52,.55-.13,.23-.19,.49-.19,.77s.06,.54,.18,.77c.12,.23,.3,.41,.51,.54,.22,.13,.47,.2,.75,.2,.21,0,.4-.04,.58-.12,.18-.08,.34-.19,.47-.33,.14-.14,.24-.31,.32-.49,.08-.18,.11-.37,.11-.58,0-.27-.06-.52-.19-.75-.13-.23-.3-.41-.52-.55-.22-.14-.47-.21-.75-.21Zm4.65,5.55c-.19,0-.36-.07-.5-.21-.14-.14-.21-.31-.21-.5s.07-.36,.21-.5c.14-.14,.31-.21,.5-.21s.36,.07,.5,.21c.14,.14,.21,.3,.21,.5,0,.13-.03,.25-.1,.36-.06,.11-.15,.19-.25,.26-.11,.06-.23,.1-.36,.1Zm0-3.64c-.19,0-.36-.07-.5-.21-.14-.14-.21-.31-.21-.5s.07-.36,.21-.5c.14-.14,.31-.21,.5-.21s.36,.07,.5,.21c.14,.14,.21,.3,.21,.5,0,.13-.03,.25-.1,.36-.06,.11-.15,.19-.25,.26-.11,.06-.23,.1-.36,.1Zm4.65,4.67c-.56,0-1.04-.15-1.44-.44-.4-.29-.7-.72-.91-1.28s-.32-1.24-.32-2.03,.11-1.46,.32-2.02c.21-.56,.52-.98,.92-1.28,.4-.29,.88-.44,1.43-.44s1.03,.15,1.43,.44c.4,.29,.7,.72,.91,1.28,.21,.56,.32,1.23,.32,2.02s-.1,1.47-.32,2.03c-.21,.56-.52,.99-.91,1.28-.4,.29-.88,.44-1.43,.44Zm0-.95c.49,0,.88-.24,1.15-.72,.28-.48,.42-1.18,.42-2.08,0-.6-.06-1.11-.19-1.53-.12-.42-.31-.74-.54-.95-.23-.22-.51-.33-.84-.33-.49,0-.88,.24-1.15,.72-.28,.48-.42,1.18-.42,2.08,0,.61,.06,1.12,.19,1.54,.13,.42,.31,.73,.54,.95,.23,.21,.52,.32,.85,.32Zm6.46,.95c-.56,0-1.04-.15-1.44-.44-.4-.29-.7-.72-.91-1.28s-.32-1.24-.32-2.03,.11-1.46,.32-2.02c.21-.56,.52-.98,.92-1.28,.4-.29,.88-.44,1.43-.44s1.03,.15,1.43,.44c.4,.29,.7,.72,.91,1.28,.21,.56,.32,1.23,.32,2.02s-.11,1.47-.32,2.03c-.21,.56-.51,.99-.91,1.28-.4,.29-.88,.44-1.43,.44Zm0-.95c.49,0,.88-.24,1.15-.72,.28-.48,.42-1.18,.42-2.08,0-.6-.06-1.11-.19-1.53-.12-.42-.31-.74-.54-.95-.23-.22-.51-.33-.84-.33-.49,0-.88,.24-1.15,.72-.28,.48-.42,1.18-.42,2.08,0,.61,.06,1.12,.19,1.54,.13,.42,.31,.73,.54,.95,.23,.21,.52,.32,.85,.32Zm7.94-2.69c.7,.69,1.34,1.07,2.25,1.07,1.06,0,1.98-.61,2.61-1.75l-.71-.38c-.41,.79-1.1,1.32-1.89,1.32-.72,0-1.16-.31-1.7-.82-.7-.7-1.34-1.07-2.25-1.07-1.06,0-1.98,.61-2.61,1.75l.71,.38c.41-.79,1.1-1.32,1.89-1.32,.73,0,1.16,.31,1.7,.82Zm8.74-3.75v7.27h-1.1v-6.17h-.04l-1.74,1.14v-1.05l1.81-1.19h1.07Zm4.43,7.37c-.51,0-.96-.09-1.35-.26-.39-.18-.69-.42-.91-.72-.22-.31-.33-.66-.33-1.05,0-.31,.06-.59,.19-.85,.13-.26,.31-.48,.53-.65,.22-.18,.47-.29,.74-.33v-.04c-.36-.09-.65-.28-.87-.58-.22-.3-.33-.65-.32-1.04,0-.37,.1-.7,.29-.99,.2-.29,.48-.52,.83-.69,.35-.17,.75-.25,1.2-.25s.84,.09,1.19,.26c.35,.17,.63,.4,.83,.69,.2,.29,.3,.62,.3,.99,0,.39-.11,.74-.33,1.04-.22,.3-.51,.49-.86,.58v.04c.27,.05,.52,.16,.73,.33,.22,.17,.39,.39,.52,.65,.13,.26,.2,.54,.2,.85,0,.39-.11,.74-.33,1.05-.22,.31-.53,.55-.92,.72-.39,.18-.83,.26-1.34,.26Zm0-.9c.3,0,.56-.05,.78-.15,.22-.1,.39-.24,.51-.42,.12-.18,.18-.4,.18-.64,0-.25-.07-.48-.2-.67-.13-.19-.3-.35-.52-.46-.22-.11-.47-.17-.76-.17s-.54,.06-.76,.17c-.22,.11-.4,.26-.53,.46s-.19,.42-.19,.67c0,.24,.06,.46,.17,.64,.12,.18,.29,.32,.52,.42,.22,.1,.48,.15,.79,.15Zm0-3.38c.24,0,.46-.05,.64-.15,.19-.1,.33-.23,.44-.4,.11-.17,.16-.38,.17-.61,0-.23-.06-.43-.16-.6-.11-.17-.25-.3-.44-.39-.19-.09-.4-.14-.65-.14s-.47,.05-.66,.14c-.19,.09-.33,.22-.44,.39s-.15,.37-.15,.6c0,.23,.05,.43,.16,.61,.11,.17,.25,.31,.44,.4,.19,.1,.41,.15,.65,.15Zm4.57,3.28c-.19,0-.36-.07-.5-.21-.14-.14-.21-.31-.21-.5s.07-.36,.21-.5c.14-.14,.31-.21,.5-.21s.36,.07,.5,.21c.14,.14,.21,.3,.21,.5,0,.13-.03,.25-.1,.36-.06,.11-.15,.19-.26,.26-.11,.06-.23,.1-.36,.1Zm0-3.64c-.19,0-.36-.07-.5-.21-.14-.14-.21-.31-.21-.5s.07-.36,.21-.5c.14-.14,.31-.21,.5-.21s.36,.07,.5,.21c.14,.14,.21,.3,.21,.5,0,.13-.03,.25-.1,.36-.06,.11-.15,.19-.26,.26-.11,.06-.23,.1-.36,.1Zm4.65,4.67c-.56,0-1.04-.15-1.44-.44-.4-.29-.7-.72-.91-1.28s-.32-1.24-.32-2.03,.11-1.46,.32-2.02c.21-.56,.52-.98,.92-1.28,.4-.29,.88-.44,1.43-.44s1.03,.15,1.43,.44c.4,.29,.7,.72,.91,1.28,.21,.56,.32,1.23,.32,2.02s-.11,1.47-.32,2.03c-.21,.56-.51,.99-.91,1.28-.4,.29-.88,.44-1.43,.44Zm0-.95c.49,0,.88-.24,1.15-.72,.28-.48,.42-1.18,.42-2.08,0-.6-.06-1.11-.19-1.53-.12-.42-.31-.74-.54-.95-.23-.22-.51-.33-.84-.33-.49,0-.88,.24-1.15,.72-.28,.48-.42,1.18-.42,2.08,0,.61,.06,1.12,.19,1.54,.13,.42,.31,.73,.54,.95,.23,.21,.52,.32,.85,.32Zm6.45,.95c-.56,0-1.04-.15-1.44-.44-.4-.29-.7-.72-.91-1.28-.21-.56-.32-1.24-.32-2.03s.11-1.46,.32-2.02c.21-.56,.52-.98,.92-1.28,.4-.29,.88-.44,1.43-.44s1.03,.15,1.43,.44c.4,.29,.7,.72,.91,1.28,.21,.56,.32,1.23,.32,2.02s-.1,1.47-.32,2.03c-.21,.56-.52,.99-.91,1.28-.4,.29-.88,.44-1.43,.44Zm0-.95c.49,0,.88-.24,1.15-.72,.28-.48,.42-1.18,.42-2.08,0-.6-.06-1.11-.19-1.53-.12-.42-.31-.74-.54-.95-.23-.22-.51-.33-.84-.33-.49,0-.88,.24-1.15,.72-.28,.48-.42,1.18-.42,2.08,0,.61,.06,1.12,.19,1.54,.13,.42,.31,.73,.54,.95,.23,.21,.52,.32,.85,.32Zm6.27-2.97c0-1.95-.79-3.54-1.99-4.76l-.6,.31c1.15,1.19,1.86,2.67,1.86,4.45s-.71,3.26-1.86,4.45l.6,.31c1.2-1.22,1.99-2.81,1.99-4.76Z"/>
      <path class="cls-2" d="M145.38,24.83h-7c-1.45,0-2.62,1.12-2.62,2.5v13.33c0,1.38,1.17,2.5,2.62,2.5h7c1.45,0,2.62-1.12,2.62-2.5v-13.33c0-1.38-1.17-2.5-2.62-2.5Zm-1.75,16.67h-3.5v-.83h3.5v.83Zm2.84-2.5h-9.19v-11.67h9.19v11.67Z"/>
      <path class="cls-2" d="M70.38,24h42c5.8,0,10.5,4.7,10.5,10.5h0c0,5.8-4.7,10.5-10.5,10.5h-42c-5.8,0-10.5-4.7-10.5-10.5h0c0-5.8,4.7-10.5,10.5-10.5Z"/>
      <path class="cls-1" d="M86.73,33.18h-1.64v-2.37h1.64v2.37Zm0,3.32h-1.64v-2.39h1.64v2.39Zm-6.59-2.39h1.55v2.39h-1.55v-2.39Zm4.06,0v2.39h-1.62v-2.39h1.62Zm-1.62-.92v-2.37h1.62v2.37h-1.62Zm-2.44-2.37h1.55v2.37h-1.55v-2.37Zm-.94,2.37h-1.95v.92h1.95v2.39h-1.72v.94h12v-.94h-1.76v-2.39h1.96v-.92h-1.96v-2.37h1.44v-.92h-8.83c.28-.42,.53-.87,.74-1.32l-.99-.29c-.66,1.41-1.78,2.77-2.98,3.65,.25,.14,.66,.49,.85,.69,.42-.35,.85-.78,1.26-1.25v1.81Zm-1.06,7.9c.76-.66,1.39-1.76,1.72-2.81l-.97-.24c-.35,1.01-1.01,2.07-1.74,2.65l.98,.41Zm3.18-2.7c.17,.84,.28,1.92,.29,2.56l.99-.14c-.01-.63-.17-1.69-.34-2.52l-.95,.1Zm2.83,.01c.35,.83,.71,1.9,.85,2.56l1.01-.21c-.14-.66-.52-1.74-.9-2.53l-.97,.18Zm2.84-.1c.69,.87,1.48,2.06,1.82,2.8l1.04-.38c-.38-.76-1.2-1.9-1.9-2.74l-.95,.32Zm13.27-7.31c-.45-.52-1.41-1.23-2.2-1.71l-.53,.7c.8,.52,1.75,1.27,2.2,1.81l.53-.8Zm-.6,3.35c-.49-.5-1.53-1.13-2.35-1.57l-.49,.73c.84,.45,1.83,1.16,2.32,1.68l.52-.84Zm-4.05-5.21c-.21,.94-.6,2.32-.92,3.15l.67,.22c.38-.78,.81-2.1,1.15-3.15l-.9-.22Zm-2.91,3.12c-.1-.84-.42-2.1-.83-3.07l-.76,.18c.36,.98,.69,2.27,.76,3.11l.83-.22Zm1.53,1.69h2.28v-.98h-2.28v-4.62h-.97v4.62h-2.24v.98h1.96c-.49,1.57-1.37,3.37-2.18,4.35,.17,.25,.42,.71,.53,1.01,.7-.94,1.41-2.49,1.93-3.99v5.75h.97v-5.74c.5,.78,1.16,1.86,1.41,2.38l.69-.81c-.31-.48-1.71-2.32-2.1-2.76v-.2Zm9.55,2.87l-.15-.95-1.65,.29v-7.85h-.98v8.04l-4.51,.8,.17,.97,4.34-.78v3.75h.98v-3.93l1.81-.32Z"/>
    </g>
  </g>
</svg>