<?xml version="1.0" encoding="UTF-8"?>
<svg xmlns="http://www.w3.org/2000/svg" width="869" height="644" viewBox="0 0 869 644" fill="none">
  <path d="M12.1637 370.621C11.1886 370.621 10.3176 370.453 9.55081 370.117C8.78871 369.78 8.18517 369.314 7.74022 368.718C7.3 368.117 7.06332 367.421 7.03018 366.63H9.2597C9.2881 367.061 9.43247 367.435 9.69282 367.752C9.9579 368.065 10.3034 368.306 10.7295 368.476C11.1555 368.647 11.6288 368.732 12.1495 368.732C12.7223 368.732 13.2288 368.633 13.669 368.434C14.114 368.235 14.4619 367.958 14.7128 367.603C14.9636 367.243 15.0891 366.829 15.0891 366.36C15.0891 365.873 14.9636 365.445 14.7128 365.075C14.4666 364.701 14.1045 364.408 13.6264 364.195C13.1531 363.982 12.5803 363.875 11.9081 363.875H10.6798V362.086H11.9081C12.4478 362.086 12.9211 361.989 13.3282 361.795C13.74 361.601 14.0619 361.331 14.2938 360.986C14.5258 360.635 14.6418 360.226 14.6418 359.757C14.6418 359.307 14.54 358.917 14.3364 358.586C14.1376 358.249 13.8536 357.987 13.4844 357.797C13.1199 357.608 12.6892 357.513 12.1921 357.513C11.7188 357.513 11.2762 357.601 10.8644 357.776C10.4573 357.947 10.1259 358.193 9.87033 358.515C9.61471 358.832 9.47744 359.213 9.45851 359.658H7.3355C7.35917 358.872 7.59111 358.181 8.03133 357.584C8.47629 356.988 9.06325 356.522 9.79222 356.186C10.5212 355.85 11.3306 355.682 12.2205 355.682C13.1531 355.682 13.9578 355.864 14.6347 356.228C15.3163 356.588 15.8417 357.068 16.2109 357.67C16.5849 358.271 16.7695 358.929 16.7648 359.644C16.7695 360.458 16.5423 361.149 16.0831 361.717C15.6287 362.285 15.0228 362.666 14.2654 362.86V362.974C15.2311 363.12 15.979 363.504 16.5092 364.124C17.0441 364.744 17.3091 365.513 17.3044 366.431C17.3091 367.231 17.0867 367.949 16.637 368.583C16.192 369.217 15.5837 369.717 14.8122 370.081C14.0406 370.441 13.1578 370.621 12.1637 370.621ZM24.8309 370.621C23.8558 370.621 22.9849 370.453 22.218 370.117C21.4559 369.78 20.8524 369.314 20.4074 368.718C19.9672 368.117 19.7305 367.421 19.6974 366.63H21.9269C21.9553 367.061 22.0997 367.435 22.36 367.752C22.6251 368.065 22.9707 368.306 23.3967 368.476C23.8227 368.647 24.2961 368.732 24.8167 368.732C25.3895 368.732 25.896 368.633 26.3362 368.434C26.7812 368.235 27.1291 367.958 27.38 367.603C27.6309 367.243 27.7563 366.829 27.7563 366.36C27.7563 365.873 27.6309 365.445 27.38 365.075C27.1338 364.701 26.7717 364.408 26.2936 364.195C25.8203 363.982 25.2475 363.875 24.5753 363.875H23.347V362.086H24.5753C25.115 362.086 25.5883 361.989 25.9954 361.795C26.4072 361.601 26.7291 361.331 26.9611 360.986C27.193 360.635 27.309 360.226 27.309 359.757C27.309 359.307 27.2072 358.917 27.0037 358.586C26.8048 358.249 26.5208 357.987 26.1516 357.797C25.7871 357.608 25.3564 357.513 24.8593 357.513C24.386 357.513 23.9434 357.601 23.5316 357.776C23.1245 357.947 22.7931 358.193 22.5375 358.515C22.2819 358.832 22.1446 359.213 22.1257 359.658H20.0027C20.0264 358.872 20.2583 358.181 20.6985 357.584C21.1435 356.988 21.7305 356.522 22.4594 356.186C23.1884 355.85 23.9978 355.682 24.8877 355.682C25.8203 355.682 26.625 355.864 27.3019 356.228C27.9835 356.588 28.5089 357.068 28.8781 357.67C29.2521 358.271 29.4367 358.929 29.432 359.644C29.4367 360.458 29.2095 361.149 28.7503 361.717C28.2959 362.285 27.69 362.666 26.9326 362.86V362.974C27.8983 363.12 28.6462 363.504 29.1764 364.124C29.7113 364.744 29.9763 365.513 29.9716 366.431C29.9763 367.231 29.7539 367.949 29.3042 368.583C28.8592 369.217 28.2509 369.717 27.4794 370.081C26.7078 370.441 25.825 370.621 24.8309 370.621ZM49.7318 356.646H39.2746C39.2346 357.965 39.1746 359.345 39.0347 360.724H47.9123C47.9123 360.724 47.9123 361.244 47.8923 361.444C47.5324 367.883 47.2125 370.262 46.4327 371.102C45.9728 371.602 45.4929 371.762 44.7331 371.821C43.9733 371.881 42.5937 371.841 41.2141 371.742C41.1941 371.302 40.9941 370.702 40.6942 370.282C42.1938 370.442 43.6334 370.442 44.1733 370.442C44.6332 370.442 44.8731 370.402 45.113 370.182C45.7129 369.642 46.0528 367.443 46.3327 362.164H38.8547C38.2749 366.083 36.7953 369.802 32.8563 372.001C32.6164 371.602 32.1765 371.122 31.7766 370.842C37.3151 367.903 37.5951 361.744 37.715 356.646H32.3365V355.206H49.7318V356.646Z" fill="black"></path>
  <path d="M12.7467 515.902C11.8567 515.902 11.0568 515.732 10.3467 515.391C9.64143 515.045 9.07814 514.572 8.65685 513.971C8.23556 513.369 8.01072 512.683 7.98232 511.912H10.1124C10.1645 512.536 10.4414 513.05 10.9432 513.452C11.4449 513.855 12.0461 514.056 12.7467 514.056C13.3052 514.056 13.7999 513.928 14.2306 513.672C14.6661 513.412 15.0069 513.055 15.2531 512.6C15.504 512.146 15.6294 511.628 15.6294 511.045C15.6294 510.454 15.5016 509.926 15.246 509.462C14.9904 508.998 14.6377 508.634 14.188 508.368C13.7431 508.103 13.2318 507.968 12.6544 507.964C12.2141 507.964 11.7715 508.039 11.3266 508.191C10.8816 508.342 10.5219 508.541 10.2473 508.787L8.23793 508.489L9.05447 501.162H17.0495V503.043H10.8793L10.4177 507.112H10.5029C10.787 506.837 11.1633 506.608 11.6319 506.423C12.1053 506.238 12.6117 506.146 13.1514 506.146C14.0366 506.146 14.8247 506.357 15.5158 506.778C16.2116 507.199 16.7584 507.774 17.156 508.503C17.5583 509.228 17.7571 510.061 17.7524 511.003C17.7571 511.945 17.5441 512.785 17.1134 513.523C16.6874 514.262 16.0957 514.844 15.3383 515.27C14.5856 515.691 13.7218 515.902 12.7467 515.902ZM21.0258 515.838C20.6377 515.838 20.304 515.701 20.0247 515.426C19.7454 515.147 19.6058 514.811 19.6058 514.418C19.6058 514.03 19.7454 513.698 20.0247 513.424C20.304 513.145 20.6377 513.005 21.0258 513.005C21.414 513.005 21.7477 513.145 22.027 513.424C22.3063 513.698 22.4459 514.03 22.4459 514.418C22.4459 514.678 22.3796 514.917 22.2471 515.135C22.1193 515.348 21.9489 515.519 21.7359 515.646C21.5229 515.774 21.2862 515.838 21.0258 515.838ZM29.6068 515.902C28.7169 515.902 27.9169 515.732 27.2069 515.391C26.5016 515.045 25.9383 514.572 25.517 513.971C25.0957 513.369 24.8709 512.683 24.8425 511.912H26.9726C27.0246 512.536 27.3015 513.05 27.8033 513.452C28.3051 513.855 28.9062 514.056 29.6068 514.056C30.1653 514.056 30.66 513.928 31.0908 513.672C31.5263 513.412 31.8671 513.055 32.1132 512.6C32.3641 512.146 32.4895 511.628 32.4895 511.045C32.4895 510.454 32.3617 509.926 32.1061 509.462C31.8505 508.998 31.4979 508.634 31.0482 508.368C30.6032 508.103 30.092 507.968 29.5145 507.964C29.0743 507.964 28.6317 508.039 28.1867 508.191C27.7418 508.342 27.382 508.541 27.1075 508.787L25.0981 508.489L25.9146 501.162H33.9096V503.043H27.7394L27.2779 507.112H27.3631C27.6471 506.837 28.0234 506.608 28.492 506.423C28.9654 506.238 29.4719 506.146 30.0115 506.146C30.8967 506.146 31.6848 506.357 32.3759 506.778C33.0718 507.199 33.6185 507.774 34.0161 508.503C34.4185 509.228 34.6173 510.061 34.6125 511.003C34.6173 511.945 34.4043 512.785 33.9735 513.523C33.5475 514.262 32.9558 514.844 32.1984 515.27C31.4458 515.691 30.5819 515.902 29.6068 515.902ZM54.2822 501.927H43.825C43.785 503.246 43.725 504.626 43.5851 506.006H52.4627C52.4627 506.006 52.4627 506.526 52.4427 506.726C52.0828 513.164 51.7629 515.543 50.9831 516.383C50.5232 516.883 50.0433 517.043 49.2835 517.103C48.5237 517.163 47.1441 517.123 45.7645 517.023C45.7445 516.583 45.5445 515.983 45.2446 515.563C46.7442 515.723 48.1838 515.723 48.7237 515.723C49.1836 515.723 49.4235 515.683 49.6634 515.463C50.2633 514.923 50.6032 512.724 50.8831 507.445H43.4051C42.8253 511.364 41.3457 515.083 37.4067 517.283C37.1668 516.883 36.7269 516.403 36.327 516.123C41.8655 513.184 42.1455 507.025 42.2654 501.927H36.8869V500.487H54.2822V501.927Z" fill="black"></path>
  <path d="M12.4843 283.621C11.5944 283.621 10.7945 283.45 10.0844 283.109C9.37913 282.764 8.81583 282.291 8.39454 281.689C7.97326 281.088 7.74841 280.402 7.72001 279.63H9.85012C9.90219 280.255 10.1791 280.769 10.6809 281.171C11.1826 281.573 11.7838 281.775 12.4843 281.775C13.0429 281.775 13.5376 281.647 13.9683 281.391C14.4038 281.131 14.7446 280.773 14.9908 280.319C15.2417 279.865 15.3671 279.346 15.3671 278.764C15.3671 278.172 15.2393 277.645 14.9837 277.181C14.7281 276.717 14.3754 276.352 13.9257 276.087C13.4808 275.822 12.9695 275.687 12.392 275.682C11.9518 275.682 11.5092 275.758 11.0643 275.91C10.6193 276.061 10.2596 276.26 9.98502 276.506L7.97562 276.208L8.79216 268.88H16.7872V270.762H10.617L10.1554 274.83H10.2406C10.5247 274.556 10.901 274.326 11.3696 274.142C11.8429 273.957 12.3494 273.865 12.8891 273.865C13.7742 273.865 14.5624 274.075 15.2535 274.497C15.9493 274.918 16.496 275.493 16.8937 276.222C17.296 276.946 17.4948 277.779 17.4901 278.721C17.4948 279.663 17.2818 280.504 16.8511 281.242C16.425 281.981 15.8333 282.563 15.076 282.989C14.3233 283.41 13.4595 283.621 12.4843 283.621ZM24.9261 283.663C23.8043 283.659 22.8457 283.363 22.0505 282.776C21.2552 282.189 20.647 281.334 20.2257 280.213C19.8044 279.091 19.5938 277.739 19.5938 276.158C19.5938 274.582 19.8044 273.235 20.2257 272.118C20.6517 271.001 21.2623 270.149 22.0576 269.562C22.8575 268.975 23.8137 268.682 24.9261 268.682C26.0385 268.682 26.9923 268.977 27.7876 269.569C28.5828 270.156 29.1911 271.008 29.6124 272.125C30.0384 273.238 30.2514 274.582 30.2514 276.158C30.2514 277.744 30.0407 279.098 29.6195 280.22C29.1982 281.337 28.5899 282.191 27.7947 282.783C26.9994 283.37 26.0432 283.663 24.9261 283.663ZM24.9261 281.767C25.9107 281.767 26.6799 281.287 27.2337 280.326C27.7923 279.365 28.0716 277.976 28.0716 276.158C28.0716 274.951 27.9438 273.931 27.6882 273.098C27.4373 272.26 27.0752 271.626 26.6018 271.195C26.1332 270.76 25.5746 270.542 24.9261 270.542C23.9463 270.542 23.1771 271.025 22.6185 271.99C22.0599 272.956 21.7783 274.345 21.7736 276.158C21.7736 277.37 21.899 278.395 22.1499 279.233C22.4055 280.066 22.7676 280.698 23.2362 281.128C23.7049 281.554 24.2682 281.767 24.9261 281.767ZM49.8465 269.646H39.3893C39.3493 270.965 39.2893 272.345 39.1494 273.724H48.027C48.027 273.724 48.027 274.244 48.007 274.444C47.6471 280.883 47.3272 283.262 46.5474 284.102C46.0875 284.602 45.6076 284.762 44.8478 284.821C44.088 284.881 42.7084 284.841 41.3288 284.742C41.3088 284.302 41.1088 283.702 40.8089 283.282C42.3085 283.442 43.7481 283.442 44.288 283.442C44.7479 283.442 44.9878 283.402 45.2277 283.182C45.8276 282.642 46.1675 280.443 46.4474 275.164H38.9694C38.3896 279.083 36.91 282.802 32.971 285.001C32.7311 284.602 32.2912 284.122 31.8913 283.842C37.4298 280.903 37.7098 274.744 37.8297 269.646H32.4512V268.206H49.8465V269.646Z" fill="black"></path>
  <path d="M11.9971 69.2597C12.6456 69.2644 13.2846 69.3827 13.9142 69.6147C14.5437 69.8466 15.1117 70.2253 15.6182 70.7507C16.1295 71.2762 16.5365 71.9862 16.8395 72.8808C17.1472 73.7708 17.3034 74.8784 17.3081 76.2038C17.3081 77.4771 17.1803 78.6108 16.9247 79.6049C16.6691 80.5942 16.3022 81.4297 15.8241 82.1113C15.3508 82.7929 14.7757 83.3113 14.0988 83.6663C13.4219 84.0213 12.6598 84.1988 11.8124 84.1988C10.9462 84.1988 10.177 84.0284 9.50483 83.6876C8.83266 83.3468 8.28594 82.8758 7.86465 82.2746C7.44336 81.6687 7.18065 80.9729 7.07651 80.1871H9.24212C9.38412 80.8119 9.67287 81.3184 10.1084 81.7066C10.5486 82.09 11.1166 82.2817 11.8124 82.2817C12.8775 82.2817 13.7082 81.8178 14.3047 80.89C14.9011 79.9575 15.2017 78.6558 15.2064 76.9848H15.0928C14.8467 77.3919 14.539 77.7422 14.1698 78.0357C13.8053 78.3292 13.3958 78.5564 12.9414 78.7173C12.487 78.8783 12.0018 78.9587 11.4858 78.9587C10.648 78.9587 9.88588 78.7528 9.19952 78.341C8.51315 77.9292 7.96642 77.3635 7.55933 76.644C7.15225 75.9245 6.9487 75.1033 6.9487 74.1802C6.9487 73.2619 7.15698 72.4288 7.57353 71.6809C7.99482 70.933 8.58178 70.3413 9.33442 69.9058C10.0918 69.4656 10.9793 69.2502 11.9971 69.2597ZM12.0042 71.1058C11.4503 71.1058 10.9509 71.243 10.506 71.5176C10.0658 71.7874 9.71784 72.1542 9.46223 72.6181C9.20662 73.0773 9.07881 73.5885 9.07881 74.1518C9.07881 74.7151 9.20188 75.2263 9.44803 75.6855C9.69891 76.1399 10.0397 76.502 10.4705 76.7718C10.906 77.0369 11.403 77.1695 11.9616 77.1695C12.3781 77.1695 12.7663 77.089 13.126 76.928C13.4858 76.7671 13.8005 76.5446 14.0704 76.2606C14.3402 75.9719 14.5508 75.6452 14.7023 75.2808C14.8538 74.9163 14.9295 74.5329 14.9295 74.1305C14.9295 73.5956 14.8017 73.0986 14.5461 72.6394C14.2952 72.1803 13.9497 71.8111 13.5094 71.5318C13.0692 71.2478 12.5675 71.1058 12.0042 71.1058ZM24.7157 84.2414C23.5939 84.2367 22.6353 83.9408 21.8401 83.3539C21.0449 82.7669 20.4366 81.9125 20.0153 80.7906C19.594 79.6688 19.3834 78.3173 19.3834 76.7363C19.3834 75.1601 19.594 73.8134 20.0153 72.6962C20.4413 71.5791 21.052 70.7271 21.8472 70.1401C22.6472 69.5531 23.6033 69.2597 24.7157 69.2597C25.8281 69.2597 26.7819 69.5555 27.5772 70.1472C28.3724 70.7342 28.9807 71.5862 29.402 72.7033C29.828 73.8157 30.041 75.1601 30.041 76.7363C30.041 78.3221 29.8304 79.6759 29.4091 80.7977C28.9878 81.9149 28.3795 82.7693 27.5843 83.361C26.789 83.9479 25.8329 84.2414 24.7157 84.2414ZM24.7157 82.3456C25.7003 82.3456 26.4695 81.8652 27.0234 80.9042C27.5819 79.9433 27.8612 78.554 27.8612 76.7363C27.8612 75.5293 27.7334 74.5092 27.4778 73.6761C27.2269 72.8382 26.8648 72.2039 26.3914 71.7732C25.9228 71.3377 25.3642 71.12 24.7157 71.12C23.7359 71.12 22.9667 71.6028 22.4081 72.5684C21.8496 73.5341 21.5679 74.9234 21.5632 76.7363C21.5632 77.9481 21.6886 78.9729 21.9395 79.8108C22.1951 80.6439 22.5572 81.2758 23.0259 81.7066C23.4945 82.1326 24.0578 82.3456 24.7157 82.3456ZM49.6361 70.2237H39.1789C39.1389 71.5434 39.0789 72.923 38.939 74.3026H47.8166C47.8166 74.3026 47.8166 74.8225 47.7966 75.0224C47.4367 81.4607 47.1168 83.84 46.337 84.6798C45.8771 85.1797 45.3972 85.3396 44.6374 85.3996C43.8776 85.4596 42.498 85.4196 41.1184 85.3196C41.0984 84.8798 40.8985 84.2799 40.5985 83.86C42.0981 84.02 43.5377 84.02 44.0776 84.02C44.5375 84.02 44.7774 83.98 45.0173 83.7601C45.6172 83.2202 45.9571 81.0208 46.237 75.7422H38.759C38.1792 79.6612 36.6996 83.3802 32.7607 85.5796C32.5207 85.1797 32.0808 84.6998 31.6809 84.4199C37.2194 81.4807 37.4994 75.3223 37.6193 70.2237H32.2408V68.7841H49.6361V70.2237Z" fill="black"></path>
  <path d="M299.273 567.199C298.297 567.199 297.427 567.031 296.66 566.695C295.898 566.359 295.294 565.892 294.849 565.296C294.409 564.695 294.172 563.999 294.139 563.208H296.369C296.397 563.639 296.541 564.013 296.802 564.33C297.067 564.643 297.412 564.884 297.838 565.055C298.264 565.225 298.738 565.31 299.258 565.31C299.831 565.31 300.338 565.211 300.778 565.012C301.223 564.813 301.571 564.536 301.822 564.181C302.073 563.821 302.198 563.407 302.198 562.939C302.198 562.451 302.073 562.023 301.822 561.653C301.575 561.279 301.213 560.986 300.735 560.773C300.262 560.56 299.689 560.453 299.017 560.453H297.789V558.664H299.017C299.557 558.664 300.03 558.567 300.437 558.373C300.849 558.179 301.171 557.909 301.403 557.564C301.635 557.213 301.751 556.804 301.751 556.335C301.751 555.886 301.649 555.495 301.445 555.164C301.246 554.828 300.962 554.565 300.593 554.376C300.229 554.186 299.798 554.092 299.301 554.092C298.828 554.092 298.385 554.179 297.973 554.354C297.566 554.525 297.235 554.771 296.979 555.093C296.724 555.41 296.586 555.791 296.567 556.236H294.444C294.468 555.45 294.7 554.759 295.14 554.163C295.585 553.566 296.172 553.1 296.901 552.764C297.63 552.428 298.439 552.26 299.329 552.26C300.262 552.26 301.067 552.442 301.744 552.806C302.425 553.166 302.951 553.647 303.32 554.248C303.694 554.849 303.878 555.507 303.874 556.222C303.878 557.036 303.651 557.727 303.192 558.295C302.738 558.863 302.132 559.244 301.374 559.438V559.552C302.34 559.698 303.088 560.082 303.618 560.702C304.153 561.322 304.418 562.091 304.413 563.01C304.418 563.81 304.196 564.527 303.746 565.161C303.301 565.795 302.693 566.295 301.921 566.659C301.149 567.019 300.267 567.199 299.273 567.199ZM309.238 565.012L309.132 565.786C309.061 566.354 308.94 566.946 308.769 567.561C308.604 568.181 308.431 568.756 308.251 569.286C308.076 569.816 307.932 570.238 307.818 570.55H306.313C306.374 570.257 306.46 569.859 306.568 569.357C306.677 568.86 306.784 568.304 306.888 567.689C306.992 567.073 307.07 566.446 307.122 565.807L307.193 565.012H309.238ZM316.523 567.241C315.401 567.237 314.443 566.941 313.648 566.354C312.852 565.767 312.244 564.912 311.823 563.791C311.402 562.669 311.191 561.317 311.191 559.736C311.191 558.16 311.402 556.813 311.823 555.696C312.249 554.579 312.859 553.727 313.655 553.14C314.455 552.553 315.411 552.26 316.523 552.26C317.636 552.26 318.589 552.556 319.385 553.147C320.18 553.734 320.788 554.586 321.209 555.703C321.636 556.816 321.849 558.16 321.849 559.736C321.849 561.322 321.638 562.676 321.217 563.798C320.795 564.915 320.187 565.769 319.392 566.361C318.597 566.948 317.64 567.241 316.523 567.241ZM316.523 565.346C317.508 565.346 318.277 564.865 318.831 563.904C319.389 562.943 319.669 561.554 319.669 559.736C319.669 558.529 319.541 557.509 319.285 556.676C319.034 555.838 318.672 555.204 318.199 554.773C317.73 554.338 317.172 554.12 316.523 554.12C315.543 554.12 314.774 554.603 314.216 555.568C313.657 556.534 313.375 557.923 313.371 559.736C313.371 560.948 313.496 561.973 313.747 562.811C314.003 563.644 314.365 564.276 314.833 564.707C315.302 565.133 315.865 565.346 316.523 565.346ZM329.21 567.241C328.088 567.237 327.13 566.941 326.334 566.354C325.539 565.767 324.931 564.912 324.51 563.791C324.088 562.669 323.878 561.317 323.878 559.736C323.878 558.16 324.088 556.813 324.51 555.696C324.936 554.579 325.546 553.727 326.341 553.14C327.141 552.553 328.098 552.26 329.21 552.26C330.322 552.26 331.276 552.556 332.071 553.147C332.867 553.734 333.475 554.586 333.896 555.703C334.322 556.816 334.535 558.16 334.535 559.736C334.535 561.322 334.325 562.676 333.903 563.798C333.482 564.915 332.874 565.769 332.079 566.361C331.283 566.948 330.327 567.241 329.21 567.241ZM329.21 565.346C330.195 565.346 330.964 564.865 331.518 563.904C332.076 562.943 332.355 561.554 332.355 559.736C332.355 558.529 332.228 557.509 331.972 556.676C331.721 555.838 331.359 555.204 330.886 554.773C330.417 554.338 329.858 554.12 329.21 554.12C328.23 554.12 327.461 554.603 326.902 555.568C326.344 556.534 326.062 557.923 326.057 559.736C326.057 560.948 326.183 561.973 326.434 562.811C326.689 563.644 327.051 564.276 327.52 564.707C327.989 565.133 328.552 565.346 329.21 565.346ZM341.897 567.241C340.775 567.237 339.816 566.941 339.021 566.354C338.226 565.767 337.618 564.912 337.196 563.791C336.775 562.669 336.564 561.317 336.564 559.736C336.564 558.16 336.775 556.813 337.196 555.696C337.622 554.579 338.233 553.727 339.028 553.14C339.828 552.553 340.784 552.26 341.897 552.26C343.009 552.26 343.963 552.556 344.758 553.147C345.553 553.734 346.162 554.586 346.583 555.703C347.009 556.816 347.222 558.16 347.222 559.736C347.222 561.322 347.011 562.676 346.59 563.798C346.169 564.915 345.56 565.769 344.765 566.361C343.97 566.948 343.014 567.241 341.897 567.241ZM341.897 565.346C342.881 565.346 343.651 564.865 344.204 563.904C344.763 562.943 345.042 561.554 345.042 559.736C345.042 558.529 344.914 557.509 344.659 556.676C344.408 555.838 344.046 555.204 343.572 554.773C343.104 554.338 342.545 554.12 341.897 554.12C340.917 554.12 340.148 554.603 339.589 555.568C339.031 556.534 338.749 557.923 338.744 559.736C338.744 560.948 338.87 561.973 339.12 562.811C339.376 563.644 339.738 564.276 340.207 564.707C340.675 565.133 341.239 565.346 341.897 565.346ZM366.817 553.224H356.36C356.32 554.543 356.26 555.923 356.12 557.303H364.998C364.998 557.303 364.998 557.822 364.978 558.022C364.618 564.461 364.298 566.84 363.518 567.68C363.058 568.18 362.578 568.34 361.818 568.4C361.059 568.46 359.679 568.42 358.299 568.32C358.279 567.88 358.079 567.28 357.78 566.86C359.279 567.02 360.719 567.02 361.259 567.02C361.718 567.02 361.958 566.98 362.198 566.76C362.798 566.22 363.138 564.021 363.418 558.742H355.94C355.36 562.661 353.881 566.38 349.942 568.58C349.702 568.18 349.262 567.7 348.862 567.42C354.4 564.481 354.68 558.322 354.8 553.224H349.422V551.784H366.817V553.224Z" fill="black"></path>
  <path d="M486.57 568.199C485.68 568.199 484.88 568.028 484.17 567.688C483.464 567.342 482.901 566.869 482.48 566.268C482.059 565.666 481.834 564.98 481.805 564.208H483.935C483.987 564.833 484.264 565.347 484.766 565.749C485.268 566.152 485.869 566.353 486.57 566.353C487.128 566.353 487.623 566.225 488.054 565.969C488.489 565.709 488.83 565.352 489.076 564.897C489.327 564.443 489.452 563.924 489.452 563.342C489.452 562.75 489.325 562.223 489.069 561.759C488.813 561.295 488.461 560.93 488.011 560.665C487.566 560.4 487.055 560.265 486.477 560.261C486.037 560.261 485.594 560.336 485.15 560.488C484.705 560.639 484.345 560.838 484.07 561.084L482.061 560.786L482.877 553.458H490.872V555.34H484.702L484.241 559.409H484.326C484.61 559.134 484.986 558.904 485.455 558.72C485.928 558.535 486.435 558.443 486.974 558.443C487.859 558.443 488.648 558.654 489.339 559.075C490.035 559.496 490.581 560.071 490.979 560.8C491.381 561.524 491.58 562.358 491.575 563.3C491.58 564.242 491.367 565.082 490.936 565.82C490.51 566.559 489.919 567.141 489.161 567.567C488.409 567.988 487.545 568.199 486.57 568.199ZM496.212 566.012L496.106 566.786C496.035 567.354 495.914 567.946 495.743 568.561C495.578 569.181 495.405 569.756 495.225 570.286C495.05 570.816 494.906 571.238 494.792 571.55H493.287C493.348 571.257 493.433 570.859 493.542 570.357C493.651 569.86 493.758 569.304 493.862 568.689C493.966 568.073 494.044 567.446 494.096 566.807L494.167 566.012H496.212ZM503.497 568.241C502.375 568.237 501.417 567.941 500.622 567.354C499.826 566.767 499.218 565.912 498.797 564.791C498.375 563.669 498.165 562.317 498.165 560.736C498.165 559.16 498.375 557.813 498.797 556.696C499.223 555.579 499.833 554.727 500.629 554.14C501.429 553.553 502.385 553.26 503.497 553.26C504.61 553.26 505.563 553.556 506.359 554.147C507.154 554.734 507.762 555.586 508.183 556.703C508.609 557.816 508.822 559.16 508.822 560.736C508.822 562.322 508.612 563.676 508.191 564.798C507.769 565.915 507.161 566.769 506.366 567.361C505.57 567.948 504.614 568.241 503.497 568.241ZM503.497 566.346C504.482 566.346 505.251 565.865 505.805 564.904C506.363 563.943 506.643 562.554 506.643 560.736C506.643 559.529 506.515 558.509 506.259 557.676C506.008 556.838 505.646 556.204 505.173 555.773C504.704 555.338 504.146 555.12 503.497 555.12C502.517 555.12 501.748 555.603 501.19 556.568C500.631 557.534 500.349 558.923 500.345 560.736C500.345 561.948 500.47 562.973 500.721 563.811C500.977 564.644 501.339 565.276 501.807 565.707C502.276 566.133 502.839 566.346 503.497 566.346ZM516.184 568.241C515.062 568.237 514.104 567.941 513.308 567.354C512.513 566.767 511.905 565.912 511.483 564.791C511.062 563.669 510.852 562.317 510.852 560.736C510.852 559.16 511.062 557.813 511.483 556.696C511.91 555.579 512.52 554.727 513.315 554.14C514.115 553.553 515.072 553.26 516.184 553.26C517.296 553.26 518.25 553.556 519.045 554.147C519.841 554.734 520.449 555.586 520.87 556.703C521.296 557.816 521.509 559.16 521.509 560.736C521.509 562.322 521.299 563.676 520.877 564.798C520.456 565.915 519.848 566.769 519.052 567.361C518.257 567.948 517.301 568.241 516.184 568.241ZM516.184 566.346C517.169 566.346 517.938 565.865 518.492 564.904C519.05 563.943 519.329 562.554 519.329 560.736C519.329 559.529 519.202 558.509 518.946 557.676C518.695 556.838 518.333 556.204 517.86 555.773C517.391 555.338 516.832 555.12 516.184 555.12C515.204 555.12 514.435 555.603 513.876 556.568C513.318 557.534 513.036 558.923 513.031 560.736C513.031 561.948 513.157 562.973 513.408 563.811C513.663 564.644 514.025 565.276 514.494 565.707C514.963 566.133 515.526 566.346 516.184 566.346ZM528.871 568.241C527.749 568.237 526.79 567.941 525.995 567.354C525.2 566.767 524.592 565.912 524.17 564.791C523.749 563.669 523.538 562.317 523.538 560.736C523.538 559.16 523.749 557.813 524.17 556.696C524.596 555.579 525.207 554.727 526.002 554.14C526.802 553.553 527.758 553.26 528.871 553.26C529.983 553.26 530.937 553.556 531.732 554.147C532.527 554.734 533.136 555.586 533.557 556.703C533.983 557.816 534.196 559.16 534.196 560.736C534.196 562.322 533.985 563.676 533.564 564.798C533.143 565.915 532.534 566.769 531.739 567.361C530.944 567.948 529.988 568.241 528.871 568.241ZM528.871 566.346C529.855 566.346 530.624 565.865 531.178 564.904C531.737 563.943 532.016 562.554 532.016 560.736C532.016 559.529 531.888 558.509 531.633 557.676C531.382 556.838 531.02 556.204 530.546 555.773C530.078 555.338 529.519 555.12 528.871 555.12C527.891 555.12 527.122 555.603 526.563 556.568C526.004 557.534 525.723 558.923 525.718 560.736C525.718 561.948 525.844 562.973 526.094 563.811C526.35 564.644 526.712 565.276 527.181 565.707C527.649 566.133 528.213 566.346 528.871 566.346ZM553.791 554.224H543.334C543.294 555.543 543.234 556.923 543.094 558.303H551.971C551.971 558.303 551.971 558.822 551.952 559.022C551.592 565.461 551.272 567.84 550.492 568.68C550.032 569.18 549.552 569.34 548.792 569.4C548.033 569.46 546.653 569.42 545.273 569.32C545.253 568.88 545.053 568.28 544.753 567.86C546.253 568.02 547.693 568.02 548.233 568.02C548.692 568.02 548.932 567.98 549.172 567.76C549.772 567.22 550.112 565.021 550.392 559.742H542.914C542.334 563.661 540.854 567.38 536.916 569.58C536.676 569.18 536.236 568.7 535.836 568.42C541.374 565.481 541.654 559.322 541.774 554.224H536.396V552.784H553.791V554.224Z" fill="black"></path>
  <path d="M802.961 549.26C803.609 549.264 804.249 549.383 804.878 549.615C805.508 549.847 806.076 550.225 806.582 550.751C807.093 551.276 807.5 551.986 807.803 552.881C808.111 553.771 808.267 554.878 808.272 556.204C808.272 557.477 808.144 558.611 807.889 559.605C807.633 560.594 807.266 561.43 806.788 562.111C806.315 562.793 805.74 563.311 805.063 563.666C804.386 564.021 803.624 564.199 802.776 564.199C801.91 564.199 801.141 564.028 800.469 563.688C799.797 563.347 799.25 562.876 798.829 562.275C798.407 561.669 798.145 560.973 798.04 560.187H800.206C800.348 560.812 800.637 561.318 801.072 561.707C801.513 562.09 802.081 562.282 802.776 562.282C803.841 562.282 804.672 561.818 805.269 560.89C805.865 559.958 806.166 558.656 806.17 556.985H806.057C805.811 557.392 805.503 557.742 805.134 558.036C804.769 558.329 804.36 558.556 803.905 558.717C803.451 558.878 802.966 558.959 802.45 558.959C801.612 558.959 800.85 558.753 800.163 558.341C799.477 557.929 798.93 557.364 798.523 556.644C798.116 555.925 797.913 555.103 797.913 554.18C797.913 553.262 798.121 552.429 798.537 551.681C798.959 550.933 799.546 550.341 800.298 549.906C801.056 549.466 801.943 549.25 802.961 549.26ZM802.968 551.106C802.414 551.106 801.915 551.243 801.47 551.518C801.03 551.787 800.682 552.154 800.426 552.618C800.171 553.077 800.043 553.589 800.043 554.152C800.043 554.715 800.166 555.226 800.412 555.685C800.663 556.14 801.004 556.502 801.434 556.772C801.87 557.037 802.367 557.169 802.925 557.169C803.342 557.169 803.73 557.089 804.09 556.928C804.45 556.767 804.764 556.545 805.034 556.261C805.304 555.972 805.515 555.645 805.666 555.281C805.818 554.916 805.893 554.533 805.893 554.131C805.893 553.596 805.766 553.099 805.51 552.639C805.259 552.18 804.914 551.811 804.473 551.532C804.033 551.248 803.531 551.106 802.968 551.106ZM815.68 564.241C814.558 564.237 813.599 563.941 812.804 563.354C812.009 562.767 811.401 561.912 810.979 560.791C810.558 559.669 810.347 558.317 810.347 556.736C810.347 555.16 810.558 553.813 810.979 552.696C811.405 551.579 812.016 550.727 812.811 550.14C813.611 549.553 814.567 549.26 815.68 549.26C816.792 549.26 817.746 549.556 818.541 550.147C819.336 550.734 819.945 551.586 820.366 552.703C820.792 553.816 821.005 555.16 821.005 556.736C821.005 558.322 820.794 559.676 820.373 560.798C819.952 561.915 819.343 562.769 818.548 563.361C817.753 563.948 816.797 564.241 815.68 564.241ZM815.68 562.346C816.664 562.346 817.433 561.865 817.987 560.904C818.546 559.943 818.825 558.554 818.825 556.736C818.825 555.529 818.697 554.509 818.442 553.676C818.191 552.838 817.829 552.204 817.355 551.773C816.887 551.338 816.328 551.12 815.68 551.12C814.7 551.12 813.931 551.603 813.372 552.568C812.813 553.534 812.532 554.923 812.527 556.736C812.527 557.948 812.653 558.973 812.903 559.811C813.159 560.644 813.521 561.276 813.99 561.707C814.458 562.133 815.022 562.346 815.68 562.346ZM828.366 564.241C827.245 564.237 826.286 563.941 825.491 563.354C824.696 562.767 824.087 561.912 823.666 560.791C823.245 559.669 823.034 558.317 823.034 556.736C823.034 555.16 823.245 553.813 823.666 552.696C824.092 551.579 824.703 550.727 825.498 550.14C826.298 549.553 827.254 549.26 828.366 549.26C829.479 549.26 830.433 549.556 831.228 550.147C832.023 550.734 832.631 551.586 833.053 552.703C833.479 553.816 833.692 555.16 833.692 556.736C833.692 558.322 833.481 559.676 833.06 560.798C832.638 561.915 832.03 562.769 831.235 563.361C830.44 563.948 829.484 564.241 828.366 564.241ZM828.366 562.346C829.351 562.346 830.12 561.865 830.674 560.904C831.233 559.943 831.512 558.554 831.512 556.736C831.512 555.529 831.384 554.509 831.128 553.676C830.878 552.838 830.515 552.204 830.042 551.773C829.573 551.338 829.015 551.12 828.366 551.12C827.387 551.12 826.617 551.603 826.059 552.568C825.5 553.534 825.219 554.923 825.214 556.736C825.214 557.948 825.339 558.973 825.59 559.811C825.846 560.644 826.208 561.276 826.677 561.707C827.145 562.133 827.708 562.346 828.366 562.346ZM841.053 564.241C839.931 564.237 838.973 563.941 838.177 563.354C837.382 562.767 836.774 561.912 836.353 560.791C835.931 559.669 835.721 558.317 835.721 556.736C835.721 555.16 835.931 553.813 836.353 552.696C836.779 551.579 837.389 550.727 838.185 550.14C838.985 549.553 839.941 549.26 841.053 549.26C842.166 549.26 843.119 549.556 843.915 550.147C844.71 550.734 845.318 551.586 845.739 552.703C846.165 553.816 846.378 555.16 846.378 556.736C846.378 558.322 846.168 559.676 845.746 560.798C845.325 561.915 844.717 562.769 843.922 563.361C843.126 563.948 842.17 564.241 841.053 564.241ZM841.053 562.346C842.038 562.346 842.807 561.865 843.361 560.904C843.919 559.943 844.199 558.554 844.199 556.736C844.199 555.529 844.071 554.509 843.815 553.676C843.564 552.838 843.202 552.204 842.729 551.773C842.26 551.338 841.702 551.12 841.053 551.12C840.073 551.12 839.304 551.603 838.746 552.568C838.187 553.534 837.905 554.923 837.901 556.736C837.901 557.948 838.026 558.973 838.277 559.811C838.532 560.644 838.895 561.276 839.363 561.707C839.832 562.133 840.395 562.346 841.053 562.346ZM865.973 550.224H855.516C855.476 551.543 855.416 552.923 855.276 554.303H864.154C864.154 554.303 864.154 554.822 864.134 555.022C863.774 561.461 863.454 563.84 862.674 564.68C862.214 565.18 861.735 565.34 860.975 565.4C860.215 565.46 858.835 565.42 857.456 565.32C857.436 564.88 857.236 564.28 856.936 563.86C858.436 564.02 859.875 564.02 860.415 564.02C860.875 564.02 861.115 563.98 861.355 563.76C861.955 563.22 862.294 561.021 862.574 555.742H855.096C854.517 559.661 853.037 563.38 849.098 565.58C848.858 565.18 848.418 564.7 848.018 564.42C853.557 561.481 853.837 555.322 853.957 550.224H848.578V548.784H865.973V550.224Z" fill="black"></path>
  <path d="M24.123 625.164H70.5267" stroke="#1EADAC" stroke-width="4.99865"></path>
  <path d="M124.553 615.704C124.413 615.984 124.333 616.323 124.253 616.703C123.833 618.803 122.853 622.022 121.273 624.081C119.454 626.421 117.075 628.28 113.396 629.44L112.036 627.94C115.915 626.961 118.154 625.261 119.834 623.122C121.253 621.302 122.173 618.523 122.453 616.603H112.236C111.436 616.603 110.756 616.643 110.236 616.663V614.904C110.796 614.964 111.576 615.024 112.236 615.024H122.273C122.573 615.024 122.953 615.024 123.333 614.924L124.553 615.704ZM144.407 618.903C144.287 619.043 144.107 619.283 144.007 619.443C143.427 620.382 141.748 622.882 139.948 624.121L138.649 623.222C140.068 622.362 141.508 620.602 142.088 619.623C140.968 619.623 133.31 619.603 132.53 619.603C131.931 619.603 131.271 619.643 130.651 619.683V618.023C131.211 618.103 131.931 618.163 132.53 618.163H142.408C142.708 618.163 143.247 618.123 143.507 618.063L144.407 618.903ZM137.689 620.962C137.649 625.221 137.249 628.24 133.03 630.58L131.611 629.46C132.05 629.3 132.53 629.1 132.99 628.78C135.69 626.961 136.069 624.761 136.069 622.142C136.069 621.762 136.009 621.362 135.949 620.962H137.689ZM152.625 613.864C155.224 614.184 160.603 615.304 163.122 616.183L162.482 617.723C160.043 616.843 154.804 615.704 152.045 615.344L152.625 613.864ZM151.725 619.143C154.464 619.603 159.303 620.622 161.802 621.542L161.163 623.082C158.843 622.162 153.965 621.062 151.125 620.642L151.725 619.143ZM150.625 624.961C153.985 625.481 159.783 626.861 162.522 627.96L161.842 629.5C159.183 628.34 153.245 627.001 150.006 626.481L150.625 624.961ZM173.399 627.24V615.604C173.399 615.044 173.359 614.144 173.239 613.524H175.199C175.139 614.144 175.059 615.004 175.059 615.604C175.059 616.443 175.059 617.603 175.059 618.863C177.698 619.663 181.497 621.102 183.597 622.162L182.917 623.861C180.737 622.682 177.278 621.342 175.059 620.642C175.079 623.641 175.079 626.661 175.079 627.24C175.079 627.86 175.119 628.94 175.199 629.6H173.259C173.359 628.96 173.399 627.98 173.399 627.24ZM191.055 614.104C191.574 614.184 192.214 614.204 192.854 614.204H200.712C201.352 614.204 202.052 614.184 202.531 614.104V615.764C202.052 615.724 201.372 615.704 200.692 615.704H192.854C192.234 615.704 191.594 615.724 191.055 615.764V614.104ZM203.991 619.383C203.891 619.563 203.771 619.822 203.731 619.962C203.191 621.942 202.292 624.021 200.812 625.641C198.712 627.94 196.213 629.12 193.654 629.82L192.414 628.4C195.253 627.82 197.753 626.541 199.452 624.741C200.672 623.461 201.472 621.762 201.832 620.322H191.215C190.735 620.322 189.975 620.342 189.255 620.382V618.703C189.995 618.783 190.675 618.823 191.215 618.823H201.752C202.212 618.823 202.631 618.783 202.851 618.663L203.991 619.383Z" fill="black"></path>
  <path d="M270.264 625.164H316.667" stroke="#D7E8E9" stroke-width="4.99865"></path>
  <path d="M351.351 629H349.023L354.255 614.458H356.79L362.023 629H359.694L355.583 617.1H355.47L351.351 629ZM351.742 623.306H359.297V625.152H351.742V623.306ZM371.523 623.581L370.603 624.781C370.084 624.201 368.984 623.082 368.084 622.242V630.52H366.625V622.762C365.625 623.761 364.585 624.601 363.565 625.261C363.405 624.881 363.025 624.201 362.786 623.921C365.165 622.542 367.664 620.022 369.044 617.363H363.485V616.004H366.625V612.285H368.084V616.004H369.824L370.084 615.944L370.923 616.503C370.304 618.043 369.384 619.523 368.324 620.862C369.264 621.602 371.023 623.142 371.523 623.581ZM376.962 628.5H381.62V629.96H370.423V628.5H375.482V620.202H371.203V618.763H375.482V612.424H376.962V618.763H381.221V620.202H376.962V628.5Z" fill="black"></path>
  <g clip-path="url(#clip0_540_857)">
    <rect width="802" height="462" transform="translate(67 72)" fill="white"></rect>
    <path d="M67 72L67 526" stroke="#CACACA"></path>
    <path d="M156.111 72L156.111 537" stroke="#CACACA"></path>
    <path d="M245.223 72L245.223 537" stroke="#CACACA"></path>
    <path d="M334.333 72L334.333 537" stroke="#CACACA"></path>
    <path d="M423.444 72L423.444 537" stroke="#CACACA"></path>
    <path d="M512.556 72L512.556 537" stroke="#CACACA"></path>
    <path d="M601.667 72L601.667 537" stroke="#CACACA"></path>
    <path d="M690.777 72L690.777 537" stroke="#CACACA"></path>
    <path d="M779.889 72L779.889 537" stroke="#CACACA"></path>
    <path d="M869 72L869 537" stroke="#CACACA"></path>
    <line x1="67" y1="121.611" x2="872.002" y2="121.611" stroke="#333333" stroke-opacity="0.3" stroke-width="1.66622"></line>
    <line x1="67" y1="173.056" x2="872.002" y2="173.056" stroke="#333333" stroke-opacity="0.3" stroke-width="1.66622"></line>
    <line x1="67" y1="224.5" x2="872.002" y2="224.5" stroke="#333333" stroke-opacity="0.3" stroke-width="1.66622"></line>
    <line x1="67" y1="275.945" x2="872.002" y2="275.945" stroke="#333333" stroke-opacity="0.3" stroke-width="1.66622"></line>
    <line x1="67" y1="327.389" x2="872.002" y2="327.389" stroke="#333333" stroke-opacity="0.3" stroke-width="1.66622"></line>
    <line x1="67" y1="378.833" x2="872.002" y2="378.833" stroke="#333333" stroke-opacity="0.3" stroke-width="1.66622"></line>
    <line x1="67" y1="430.278" x2="872.002" y2="430.278" stroke="#333333" stroke-opacity="0.3" stroke-width="1.66622"></line>
    <line x1="67" y1="481.723" x2="872.002" y2="481.723" stroke="#333333" stroke-opacity="0.3" stroke-width="1.66622"></line>
    <line x1="67" y1="533.167" x2="872.002" y2="533.167" stroke="#333333" stroke-opacity="0.3" stroke-width="1.66622"></line>
    <path d="M66 366H338L869 77" stroke="#B9BABE" stroke-width="11.2861"></path>
    <path d="M334 110H511.215V220.439H457.28L479.111 265.384L412.334 220.439H334V110Z" fill="#B9BABE"></path>
    <path d="M402.926 175.836L400.813 168.929H390.249L388.136 175.836H381.514L391.752 146.704H399.269L409.548 175.836H402.926ZM399.35 163.769L397.238 157.024C397.102 156.564 396.926 155.981 396.709 155.277C396.493 154.573 396.276 153.855 396.059 153.124C395.843 152.392 395.666 151.756 395.531 151.214C395.396 151.756 395.206 152.433 394.962 153.246C394.746 154.031 394.529 154.79 394.312 155.521C394.123 156.225 393.974 156.726 393.865 157.024L391.793 163.769H399.35ZM428.865 164.378L425.94 168.319C425.087 167.182 423.705 165.557 422.324 164.053V179.371H417.529V165.353C415.904 166.857 414.198 168.197 412.491 169.254C412.085 167.954 410.947 165.597 410.216 164.663C414.645 162.265 418.911 157.999 421.552 153.327H411.76V148.939H417.529V141.463H422.324V148.939H424.152L425.005 148.736L427.728 150.483C426.509 153.571 424.883 156.496 422.933 159.178C424.883 160.762 428.012 163.566 428.865 164.378ZM440.567 173.479H449.221V178.192H426.224V173.479H435.61V158.609H427.89V153.936H435.61V141.788H440.567V153.936H448.246V158.609H440.567V173.479Z" fill="black"></path>
    <path d="M66 506H870" stroke="#1EADAC" stroke-width="11.2861"></path>
    <path d="M532 277H822.222V387.438H697.658L614.187 487.604L652.712 387.438H532V277Z" fill="#1EADAC"></path>
    <path d="M613.94 322.784C613.575 323.597 613.25 324.775 613.047 325.628C612.112 329.61 610.324 335.908 606.952 340.418C603.255 345.293 597.851 349.316 590.619 351.631L586.19 346.796C594.235 344.887 598.826 341.352 602.117 337.248C604.799 333.876 606.343 329.244 606.871 325.791H587.937C586.109 325.791 584.159 325.872 583.102 325.953V320.224C584.321 320.346 586.637 320.549 587.978 320.549H606.749C607.562 320.549 608.862 320.509 609.959 320.224L613.94 322.784ZM654.571 329.569C654.205 330.016 653.595 330.788 653.352 331.195C651.93 333.47 648.151 338.589 645.266 340.824L641.203 337.98C643.519 336.395 646.079 333.51 647.054 331.804H629.42C628.08 331.804 626.698 331.885 625.195 332.048V326.807C626.454 327.01 628.08 327.132 629.42 327.132H648.273C649.167 327.132 650.914 327.05 651.564 326.847L654.571 329.569ZM640.634 333.836C640.391 341.433 640.391 348.544 630.883 353.785L626.576 350.331C627.633 349.925 628.649 349.437 629.867 348.584C634.459 345.456 635.312 341.84 635.312 336.72C635.312 335.745 635.19 334.689 635.027 333.836H640.634ZM670.66 318.03C675.983 318.68 687.684 321.037 692.803 322.825L690.731 327.904C686.018 326.156 674.479 323.556 668.75 322.825L670.66 318.03ZM668.791 328.96C674.601 329.935 684.921 332.129 690.041 333.917L688.05 338.996C683.377 337.208 672.976 334.851 666.922 333.876L668.791 328.96ZM666.719 340.58C673.667 341.677 686.181 344.602 691.747 346.675L689.512 351.753C684.027 349.478 671.188 346.675 664.687 345.699L666.719 340.58ZM712.468 345.943V322.581C712.468 321.159 712.346 319.127 712.062 317.705H718.4C718.238 319.127 718.035 320.915 718.035 322.581V328.594C723.479 330.179 731.28 333.064 735.018 334.892L732.702 340.499C728.517 338.305 722.423 335.948 718.035 334.445V345.943C718.035 347.122 718.238 349.966 718.4 351.631H712.062C712.306 350.006 712.468 347.568 712.468 345.943ZM749.401 318.68C750.539 318.843 752.245 318.884 753.627 318.884H769.269C770.529 318.884 772.52 318.843 773.657 318.68V323.922C772.56 323.841 770.651 323.8 769.188 323.8H753.627C752.326 323.8 750.579 323.841 749.401 323.922V318.68ZM777.07 330.463C776.786 330.991 776.461 331.723 776.298 332.17C775.079 336.111 773.332 340.052 770.285 343.424C766.181 347.975 760.981 350.738 755.78 352.2L751.758 347.609C757.852 346.35 762.728 343.668 765.816 340.499C768.01 338.264 769.269 335.745 770.001 333.47H750.376C749.401 333.47 747.37 333.51 745.663 333.673V328.391C747.37 328.513 749.117 328.635 750.376 328.635H770.488C771.788 328.635 772.885 328.472 773.454 328.229L777.07 330.463Z" fill="#F9F9F9"></path>
  </g>
  <path d="M703.147 607.536V610.055H690.741V607.536H703.147ZM686.191 606.534L689.17 607.509C688.466 609.242 687.626 611.03 686.651 612.736V631.697H683.591V617.395C682.859 618.343 682.101 619.183 681.342 619.942C681.044 619.183 680.205 617.422 679.663 616.664C682.236 614.226 684.728 610.38 686.191 606.534ZM700.764 625.494H692.963V628.149H700.764V625.494ZM689.875 631.751V623.002H704.014V631.67H700.764V630.668H692.963V631.751H689.875ZM690.308 621.675V619.156H703.526V621.675H690.308ZM703.635 615.31V617.802H690.308V615.31H703.635ZM688.168 611.382H705.504V613.982H688.168V611.382ZM716.988 607.319V609.757H708.402V607.319H716.988ZM718.018 610.949V613.495H706.939V610.949H718.018ZM714.036 624.709H710.948V627.824H714.036V624.709ZM716.853 622.163V630.343H710.948V631.399H708.158V622.163H716.853ZM708.239 620.835V618.425H716.934V620.835H708.239ZM708.239 617.179V614.714H716.934V617.179H708.239ZM726.577 628.42H728.663C729.34 628.42 729.503 627.661 729.611 624.492C730.342 625.061 731.669 625.603 732.536 625.819C732.211 630.018 731.426 631.48 728.988 631.48H726.035C723.273 631.48 722.487 630.478 722.487 626.984V620.808L718.072 621.513L717.53 618.398L722.487 617.639V611.897C721.268 612.141 720.049 612.33 718.885 612.52C718.749 611.761 718.262 610.515 717.882 609.811C721.81 609.134 726.09 607.996 728.717 606.75L731.371 609.351C729.692 610.055 727.769 610.651 725.765 611.165V617.125L731.778 616.204L732.292 619.237L725.765 620.294V626.984C725.765 628.23 725.873 628.42 726.577 628.42ZM742.044 612.547V610.082H738.197V612.547H742.044ZM742.044 617.45V614.93H738.197V617.45H742.044ZM742.044 622.352V619.833H738.197V622.352H742.044ZM745.186 607.536V624.925H735.164V607.536H745.186ZM736.843 625.142L739.904 625.901C739.037 628.149 737.52 630.424 736.03 631.806C735.462 631.264 734.189 630.397 733.457 629.991C734.893 628.799 736.166 626.957 736.843 625.142ZM740.5 626.226L743.1 625.088C744.292 626.415 745.511 628.176 746.08 629.422L743.371 630.803C742.856 629.53 741.637 627.634 740.5 626.226ZM759.054 612.845V615.824H756.129V628.122C756.129 629.747 755.804 630.614 754.883 631.128C753.935 631.643 752.607 631.806 750.63 631.806C750.495 630.912 750.007 629.503 749.547 628.636C750.793 628.691 751.984 628.691 752.391 628.691C752.797 628.663 752.96 628.528 752.96 628.122V619.86C751.361 622.948 749.384 625.657 747.244 627.526C746.703 626.794 745.727 625.711 745.05 625.169C747.759 623.138 750.278 619.508 751.849 615.824H745.89V612.845H752.96V606.561H756.129V612.845H759.054ZM768.399 623.734H774.033V621.702H769.943C769.455 622.461 768.914 623.165 768.399 623.734ZM777.202 626.199V628.582H785.247V631.237H766.259V628.582H774.033V626.199H768.345V623.788L768.182 623.95C767.586 623.463 766.368 622.731 765.636 622.406C767.126 621.106 768.372 619.102 769.049 617.125L771.893 617.775C771.731 618.262 771.514 618.75 771.297 619.237H774.033V617.233H777.202V619.237H783.784V621.702H777.202V623.734H782.999V626.199H777.202ZM776.877 611.193H769.835C770.295 612.086 770.674 613.116 770.837 613.847L770.024 614.064H776.39L775.902 613.928C776.254 613.143 776.606 612.113 776.877 611.193ZM778.99 614.064H785.409V616.827H765.772V618.452C765.772 622.244 765.284 627.986 762.738 631.697C762.25 631.128 760.896 630.018 760.246 629.666C762.467 626.361 762.684 621.648 762.684 618.425V614.064H767.586C767.37 613.224 766.991 612.195 766.557 611.355L767.153 611.193H762.467V608.457H771.622V606.479H774.846V608.457H784.082V611.193H780.723C780.1 612.222 779.505 613.251 778.99 614.064ZM796.867 607.319V609.757H788.687V607.319H796.867ZM797.896 610.949V613.495H787.306V610.949H797.896ZM794.104 624.709H791.233V627.824H794.104V624.709ZM796.894 622.163V630.343H791.233V631.399H788.497V622.163H796.894ZM788.579 620.835V618.425H796.921V620.835H788.579ZM788.579 617.179V614.714H796.921V617.179H788.579ZM812.605 619.508V622.569H806.618V631.751H803.449V622.569H797.463V619.508H803.449V610.813H798.411V607.807H812.117V610.813H806.618V619.508H812.605ZM798.628 612.466L801.228 611.924C801.824 613.928 802.339 616.474 802.447 618.154L799.738 618.804C799.657 617.097 799.197 614.497 798.628 612.466ZM809.896 618.75L807.431 618.127C808.027 616.393 808.65 613.657 808.921 611.707L811.982 612.303C811.304 614.578 810.573 617.125 809.896 618.75ZM819.485 606.534L822.383 607.455C821.706 609.242 820.866 611.057 819.945 612.791V631.751H816.911V617.612C816.37 618.343 815.828 619.021 815.259 619.616C814.961 618.858 814.121 617.152 813.607 616.366C815.936 614.01 818.157 610.272 819.485 606.534ZM831.24 615.391V612.005H829.452V615.391H831.24ZM835.764 626.876V618.181H833.949V626.876H835.764ZM825.037 618.181V626.876H826.717V618.181H825.037ZM831.24 618.181H829.425V626.876H831.24V618.181ZM838.987 612.005H834.274V615.391H838.852V631.02H835.764V629.639H825.037V631.183H822.058V615.391H826.419V612.005H821.787V609.134H838.987V612.005ZM862.146 616.176V614.524H856.783V616.176H862.146ZM862.146 620.05V618.398H856.783V620.05H862.146ZM862.146 624.005V622.325H856.783V624.005H862.146ZM853.885 612.113H857.298C857.406 611.518 857.514 610.867 857.623 610.272H853.072V607.536H865.722V610.272H861.036C860.819 610.922 860.602 611.545 860.385 612.113H865.18V626.388H853.885V612.113ZM843.836 611.22V613.089H841.235V608.728H845.569V606.534H848.576V608.728H852.991V613.089H850.309V611.22H843.836ZM848.711 627.715V625.223H845.434V627.715H848.711ZM845.488 622.731H850.065C849.388 622.19 848.576 621.594 847.763 620.971C847.032 621.621 846.273 622.217 845.488 622.731ZM848.738 615.526H846.111C845.921 615.77 845.732 615.987 845.542 616.231L847.411 617.45C847.926 616.854 848.359 616.204 848.738 615.526ZM851.447 623.869V629.476C853.235 628.745 855.131 627.499 856.106 626.497L858.706 628.122C857.298 629.503 854.914 630.939 852.937 631.724C852.585 631.291 851.989 630.695 851.447 630.18H845.434V631.264H842.725V624.248L842.156 624.492C841.804 623.788 841.1 622.704 840.531 622.19C842.319 621.567 844.025 620.592 845.515 619.346L843.727 618.1C843.348 618.425 842.969 618.75 842.562 619.021C842.129 618.506 841.127 617.531 840.531 617.152C842.644 615.824 844.513 613.766 845.488 611.49L848.115 612.141C847.926 612.574 847.736 612.98 847.492 613.387H850.011L850.499 613.251L852.314 614.091C851.691 615.933 850.77 617.558 849.632 618.966C851.095 619.942 852.422 620.917 853.316 621.675L851.501 623.923L851.447 623.869ZM859.898 628.095L862.227 626.632C863.663 627.634 865.64 629.124 866.615 630.153L864.123 631.806C863.257 630.776 861.361 629.178 859.898 628.095Z" fill="black"></path>
  <path d="M16.5242 23.9586L14.5482 26.4635C14.0194 25.6563 13.1009 24.4874 12.1825 23.4298V33.4213H8.92619V24.3482C8.03558 25.2945 7.14497 26.1016 6.25436 26.7974C5.94821 25.9903 5.08543 24.3761 4.55663 23.7916C7.2563 21.8991 9.98379 18.6428 11.6815 15.3308H5.33592V12.3528H8.92619V7.45447H12.1825V12.3528H13.3792L13.908 12.2137L15.7728 13.4383C14.9378 15.7205 13.7411 17.9748 12.3495 20.0344C12.5721 20.2292 12.8226 20.4518 13.1009 20.7023C13.8246 19.756 14.6317 18.5036 15.1048 17.613L17.22 19.3664C16.2459 20.3127 15.3831 21.3146 14.6317 22.0939C15.4666 22.901 16.2181 23.6246 16.5242 23.9586ZM15.5223 9.56967H30.3565C30.3565 9.56967 30.3565 10.7943 30.3287 11.2396C30.0782 25.1554 29.8277 29.9981 28.7423 31.501C28.0187 32.6142 27.3229 32.976 26.2653 33.1709C25.2633 33.3657 23.7326 33.3379 22.2297 33.31C22.174 32.3359 21.7844 30.8608 21.1999 29.8867C22.6472 29.9981 23.9553 29.9981 24.6232 29.9981C25.0685 29.9981 25.3468 29.8867 25.653 29.4693C26.4323 28.5508 26.7384 24.0699 26.9332 12.6868H22.8977C22.675 20.7301 21.9235 28.7456 15.7171 33.4492C15.1605 32.5586 14.1307 31.4731 13.2679 30.833C18.9734 26.8253 19.3909 19.7839 19.53 12.6868H15.5223V9.56967ZM37.9267 22.0382V23.9308H41.3778V22.0382H37.9267ZM41.3778 13.6053H37.9267V15.2195H41.3778V13.6053ZM37.9267 17.7522V19.5056H41.3778V17.7522H37.9267ZM46.1092 23.9308V26.8253H32.4439V23.9308H34.9487V13.6053H32.7779V10.7108H34.9487V7.76062H37.9267V10.7108H41.3778V7.76062H44.4115V10.7108H46.304V13.6053H44.4115V23.9308H46.1092ZM35.895 27.0201L38.9843 27.9385C38.0102 29.9702 36.3681 32.1411 34.8652 33.5048C34.2529 32.9204 32.9727 31.9741 32.2212 31.5288C33.6685 30.4434 35.1157 28.69 35.895 27.0201ZM50.3118 21.2589H54.3473V17.8357H50.3396V18.8654C50.3396 19.589 50.3396 20.3962 50.3118 21.2589ZM54.3473 11.657H50.3396V14.9133H54.3473V11.657ZM57.548 8.65123V29.7476C57.548 31.3896 57.2418 32.2524 56.2677 32.7812C55.2936 33.31 53.8742 33.3935 51.8147 33.3657C51.7033 32.5029 51.2859 31.0557 50.8684 30.2207C52.0652 30.3042 53.4011 30.2764 53.7907 30.2764C54.2082 30.2764 54.3473 30.1372 54.3473 29.6919V24.2091H50.1169C49.8108 27.4932 49.115 30.9722 47.6121 33.477C47.0833 32.8925 45.7196 31.8906 44.9959 31.6123C45.0794 31.4453 45.1908 31.3061 45.2743 31.1392L42.9642 32.4472C42.4076 31.3618 41.0717 29.5249 39.9862 28.2447L42.4911 26.8809C43.493 27.9942 44.8011 29.5249 45.4969 30.666C47.1111 27.1871 47.2503 22.4835 47.2503 18.8654V8.65123H57.548ZM67.122 26.1573V27.2984H79.0896V26.1573H67.122ZM74.4696 16.6667H70.768C70.4618 17.3347 70.0165 17.947 69.4042 18.5036H74.4696V16.6667ZM65.5078 13.6331L65.146 14.7185H68.1797C68.291 14.3845 68.3466 14.0227 68.3466 13.6331H65.5078ZM71.3803 10.5994V11.7127H74.4696V10.5994H71.3803ZM80.509 10.5994H77.6146V11.7127H80.509V10.5994ZM74.4696 14.7185V13.6331H71.3803C71.3525 13.9949 71.3246 14.3567 71.2968 14.7185H74.4696ZM82.0676 16.6667H77.6146V18.5036H80.0359C79.9524 18.1696 79.8133 17.8357 79.7019 17.5852C80.3421 17.6687 80.9265 17.6965 81.2327 17.6687C81.4832 17.6687 81.6501 17.6687 81.8171 17.4738C81.9285 17.3347 82.012 17.0842 82.0676 16.6667ZM79.0896 21.4816V20.3962H67.122V21.4816H79.0896ZM79.0896 24.3761V23.2628H67.122V24.3761H79.0896ZM82.4573 29.1909H78.2547C80.9265 30.0537 83.8488 31.1113 85.6022 31.8628L81.9285 33.4492C80.2864 32.6142 77.3919 31.4453 74.4974 30.499L76.6126 29.1909H69.1816L71.3803 30.1929C69.0703 31.5566 65.5356 32.8091 62.6968 33.5048C62.168 32.8647 60.9991 31.6958 60.3033 31.1392C62.8916 30.6939 65.7305 29.9981 67.6787 29.1909H63.8936V20.925C63.2535 21.0641 62.5855 21.1754 61.834 21.2868C61.5557 20.591 60.7764 19.3386 60.2755 18.7263C63.7266 18.281 65.7305 17.5852 66.8716 16.6667H64.4224L64.3389 16.9172L61.3331 16.7224C61.9454 15.3586 62.6133 13.3548 63.0865 11.7127H68.3745V10.5994H62.0567V8.65123H68.3745V7.45447H71.3803V8.65123H74.4696V7.45447H77.6146V8.65123H83.5149V13.6331H77.6146V14.7185H85.3239C85.3239 14.7185 85.2961 15.2752 85.2682 15.5813C85.1291 17.3904 84.9621 18.3923 84.489 18.8933C84.0715 19.3107 83.4592 19.5334 82.8747 19.5612C82.7634 19.5612 82.6242 19.589 82.4573 19.589V29.1909ZM102.44 22.1774H108.313V18.7541H102.44V22.1774ZM93.7847 22.1774H99.1005V18.7541H93.8682V19.2551C93.8682 20.1457 93.8404 21.1476 93.7847 22.1774ZM99.1005 12.4363H93.8682V15.6648H99.1005V12.4363ZM108.313 15.6648V12.4363H102.44V15.6648H108.313ZM111.597 9.29136V29.4971C111.597 31.2783 111.207 32.1689 110.094 32.6699C108.953 33.2265 107.255 33.2822 104.75 33.2544C104.639 32.3637 104.11 30.9443 103.693 30.0816C105.251 30.1651 107.088 30.1372 107.589 30.1372C108.118 30.1372 108.313 29.9702 108.313 29.4693V25.2945H102.44V33.0595H99.1005V25.2945H93.4229C92.9219 28.3282 91.92 31.3896 89.9161 33.5605C89.3873 32.9482 88.0514 31.8071 87.3 31.4175C90.3336 28.0777 90.5841 23.1237 90.5841 19.2272V9.29136H111.597Z" fill="black"></path>
  <defs>
    <clipPath id="clip0_540_857">
      <rect width="802" height="462" fill="white" transform="translate(67 72)"></rect>
    </clipPath>
  </defs>
</svg>
