<svg width="166" height="196" viewBox="0 0 166 196" fill="none" xmlns="http://www.w3.org/2000/svg">
<rect width="166" height="196" rx="6" fill="white"/>
<path d="M50.26 45.46C50.34 44.62 50.38 43.78 50.4 43.02H58.42V45.46H50.26ZM58.42 38.32V40.76H50.4V38.32H58.42ZM60.94 36H47.94V42.58C47.94 45.62 47.66 49.44 44.64 52.02C45.16 52.36 46.12 53.24 46.48 53.74C48.34 52.18 49.34 50 49.86 47.76H58.42V50.66C58.42 51.08 58.26 51.24 57.78 51.24C57.34 51.24 55.66 51.26 54.26 51.18C54.64 51.84 55.12 52.98 55.26 53.68C57.32 53.68 58.72 53.64 59.68 53.22C60.6 52.82 60.94 52.14 60.94 50.7V36ZM80.08 42.22H76.12V41H80.08V42.22ZM80.08 45.08H76.12V43.86H80.08V45.08ZM80.08 48H76.12V46.76H80.08V48ZM73.98 39.22V49.76H82.32V39.22H78.78C78.94 38.8 79.1 38.34 79.26 37.86H82.72V35.84H73.38V37.86H76.74C76.66 38.3 76.58 38.78 76.5 39.22H73.98ZM66.56 38.56H71.34V39.94H73.32V36.72H70.06V35.1H67.84V36.72H64.64V39.94H66.56V38.56ZM70.16 50.74H67.74V48.9H70.16V50.74ZM67.78 47.06C68.36 46.68 68.92 46.24 69.46 45.76C70.06 46.22 70.66 46.66 71.16 47.06H67.78ZM70.18 41.74C69.9 42.24 69.58 42.72 69.2 43.16L67.82 42.26C67.96 42.08 68.1 41.92 68.24 41.74H70.18ZM72.18 47.9L72.22 47.94L73.56 46.28C72.9 45.72 71.92 45 70.84 44.28C71.68 43.24 72.36 42.04 72.82 40.68L71.48 40.06L71.12 40.16H69.26C69.44 39.86 69.58 39.56 69.72 39.24L67.78 38.76C67.06 40.44 65.68 41.96 64.12 42.94C64.56 43.22 65.3 43.94 65.62 44.32C65.92 44.12 66.2 43.88 66.48 43.64L67.8 44.56C66.7 45.48 65.44 46.2 64.12 46.66C64.54 47.04 65.06 47.84 65.32 48.36L65.74 48.18V53.36H67.74V52.56H72.18C72.58 52.94 73.02 53.38 73.28 53.7C74.74 53.12 76.5 52.06 77.54 51.04L75.62 49.84C74.9 50.58 73.5 51.5 72.18 52.04V47.9ZM78.42 51.02C79.5 51.82 80.9 53 81.54 53.76L83.38 52.54C82.66 51.78 81.2 50.68 80.14 49.94L78.42 51.02ZM89.08 48.52H97.68V49.34H89.08V48.52ZM94.36 41.7V43.02H90.72C91.16 42.62 91.48 42.18 91.7 41.7H94.36ZM87.92 39.52H89.96C89.96 39.8 89.92 40.06 89.84 40.3H87.66L87.92 39.52ZM92.14 37.34H94.36V38.14H92.14V37.34ZM98.7 37.34V38.14H96.62V37.34H98.7ZM94.36 40.3H92.08C92.1 40.04 92.12 39.78 92.14 39.52H94.36V40.3ZM99.82 41.7C99.78 42 99.72 42.18 99.64 42.28C99.52 42.42 99.4 42.42 99.22 42.42C99 42.44 98.58 42.42 98.12 42.36C98.2 42.54 98.3 42.78 98.36 43.02H96.62V41.7H99.82ZM97.68 45.16H89.08V44.38H97.68V45.16ZM97.68 47.24H89.08V46.44H97.68V47.24ZM100.1 50.7V43.8C100.22 43.8 100.32 43.78 100.4 43.78C100.82 43.76 101.26 43.6 101.56 43.3C101.9 42.94 102.02 42.22 102.12 40.92C102.14 40.7 102.16 40.3 102.16 40.3H96.62V39.52H100.86V35.94H96.62V35.08H94.36V35.94H92.14V35.08H89.98V35.94H85.44V37.34H89.98V38.14H86.18C85.84 39.32 85.36 40.76 84.92 41.74L87.08 41.88L87.14 41.7H88.9C88.08 42.36 86.64 42.86 84.16 43.18C84.52 43.62 85.08 44.52 85.28 45.02C85.82 44.94 86.3 44.86 86.76 44.76V50.7H89.48C88.08 51.28 86.04 51.78 84.18 52.1C84.68 52.5 85.52 53.34 85.9 53.8C87.94 53.3 90.48 52.4 92.14 51.42L90.56 50.7H95.9L94.38 51.64C96.46 52.32 98.54 53.16 99.72 53.76L102.36 52.62C101.1 52.08 99 51.32 97.08 50.7H100.1ZM114.24 45.66V43.2H118.46V45.66H114.24ZM108.02 45.66C108.06 44.92 108.08 44.2 108.08 43.56V43.2H111.84V45.66H108.02ZM111.84 38.66V40.98H108.08V38.66H111.84ZM118.46 40.98H114.24V38.66H118.46V40.98ZM120.82 36.4H105.72V43.54C105.72 46.34 105.54 49.9 103.36 52.3C103.9 52.58 104.86 53.4 105.24 53.84C106.68 52.28 107.4 50.08 107.76 47.9H111.84V53.48H114.24V47.9H118.46V50.9C118.46 51.26 118.32 51.38 117.94 51.38C117.58 51.38 116.26 51.4 115.14 51.34C115.44 51.96 115.82 52.98 115.9 53.62C117.7 53.64 118.92 53.6 119.74 53.2C120.54 52.84 120.82 52.2 120.82 50.92V36.4Z" fill="#1EADAC"/>
<path d="M46.5942 106.44C46.5942 108.78 47.5422 110.688 48.9822 112.152L49.7022 111.78C48.3222 110.352 47.4702 108.576 47.4702 106.44C47.4702 104.304 48.3222 102.528 49.7022 101.1L48.9822 100.728C47.5422 102.192 46.5942 104.1 46.5942 106.44ZM60.0582 100.956C59.8182 101.58 59.3502 102.468 58.9782 103.032L59.7222 103.332C60.1062 102.804 60.5622 102 60.9582 101.268L60.0582 100.956ZM57.4542 102.984C57.2862 102.444 56.8182 101.604 56.3862 100.98L55.6422 101.292C56.0742 101.94 56.5062 102.804 56.6742 103.356L57.4542 102.984ZM55.1982 107.532C54.9582 107.256 53.9382 106.2 53.5662 105.888V105.156H55.0662V104.316H53.5662V102.288C54.1302 102.156 54.6582 101.988 55.0902 101.808L54.4662 101.136C53.5902 101.532 52.0182 101.88 50.6742 102.096C50.7822 102.3 50.9022 102.588 50.9502 102.792C51.5022 102.708 52.1142 102.612 52.7022 102.492V104.316H50.7462V105.156H52.5822C52.1022 106.524 51.2742 108.072 50.5182 108.912C50.6622 109.128 50.8782 109.476 50.9622 109.728C51.5742 108.996 52.2102 107.796 52.7022 106.584V111.888H53.5662V106.752C53.9742 107.244 54.4662 107.904 54.6582 108.24L55.1982 107.532ZM56.3622 104.148H60.1182V106.488H56.3622V104.148ZM59.7822 110.964C59.5182 110.964 59.4822 110.916 59.4822 110.616V107.28H61.0062V103.368H55.5102V107.28H56.7342C56.5422 108.984 56.0622 110.484 54.1902 111.24C54.3822 111.408 54.6342 111.732 54.7302 111.924C56.8062 111.012 57.3942 109.296 57.6102 107.28H58.6302V110.616C58.6302 111.504 58.8222 111.768 59.6502 111.768H60.6702C61.3782 111.768 61.6062 111.36 61.6902 109.824C61.4502 109.764 61.0902 109.62 60.9102 109.464C60.8862 110.772 60.8262 110.964 60.5742 110.964H59.7822ZM66.8622 101.568V102.408H69.0462C69.1062 102.936 69.1662 103.44 69.2502 103.932L68.8662 103.872C68.3862 106.32 67.3782 108.192 65.6262 109.308C65.8302 109.452 66.1782 109.8 66.3222 109.968C67.8582 108.888 68.8782 107.256 69.5022 105.108C70.0422 107.292 71.0142 108.984 72.6942 109.968C72.8742 109.752 73.1862 109.44 73.4022 109.296C71.0022 108.06 70.0662 105.228 69.7782 101.568H66.8622ZM65.4942 103.104C65.0742 102.528 64.1742 101.76 63.4062 101.256L62.7462 101.796C63.5262 102.324 64.4142 103.116 64.7862 103.692L65.4942 103.104ZM65.1582 105.66H62.6142V106.5H64.2822V109.536C63.6822 110.04 63.0102 110.544 62.4582 110.904L62.9382 111.804C63.5742 111.288 64.1742 110.772 64.7502 110.268C65.5182 111.192 66.5862 111.624 68.1462 111.684C69.4662 111.732 71.9262 111.708 73.2342 111.66C73.2702 111.384 73.4262 110.964 73.5222 110.748C72.1182 110.844 69.4542 110.88 68.1462 110.832C66.7662 110.772 65.7222 110.364 65.1582 109.488V105.66ZM78.1182 111H77.0862V105.012C77.0862 104.668 77.0902 104.392 77.0982 104.184C77.1062 103.976 77.1182 103.76 77.1342 103.536C77.0062 103.664 76.8862 103.772 76.7742 103.86C76.6702 103.948 76.5422 104.06 76.3902 104.196L75.4782 104.94L74.9262 104.232L77.2422 102.432H78.1182V111ZM82.8133 109.608L82.8973 109.74C82.7853 110.164 82.6333 110.628 82.4413 111.132C82.2493 111.644 82.0573 112.116 81.8653 112.548H81.0853C81.1973 112.092 81.3093 111.592 81.4213 111.048C81.5413 110.504 81.6293 110.024 81.6853 109.608H82.8133ZM89.9483 106.704C89.9483 107.632 89.8523 108.424 89.6603 109.08C89.4683 109.736 89.1603 110.24 88.7363 110.592C88.3203 110.944 87.7723 111.12 87.0923 111.12C86.1243 111.12 85.4083 110.732 84.9443 109.956C84.4883 109.172 84.2603 108.088 84.2603 106.704C84.2603 105.776 84.3523 104.984 84.5363 104.328C84.7283 103.672 85.0323 103.172 85.4483 102.828C85.8643 102.476 86.4123 102.3 87.0923 102.3C88.0523 102.3 88.7683 102.688 89.2403 103.464C89.7123 104.232 89.9483 105.312 89.9483 106.704ZM85.3163 106.704C85.3163 107.88 85.4483 108.76 85.7123 109.344C85.9843 109.928 86.4443 110.22 87.0923 110.22C87.7323 110.22 88.1883 109.932 88.4603 109.356C88.7403 108.772 88.8803 107.888 88.8803 106.704C88.8803 105.536 88.7403 104.66 88.4603 104.076C88.1883 103.492 87.7323 103.2 87.0923 103.2C86.4443 103.2 85.9843 103.492 85.7123 104.076C85.4483 104.66 85.3163 105.536 85.3163 106.704ZM92.0395 111L95.5555 103.392H90.9355V102.432H96.6835V103.248L93.2035 111H92.0395ZM100.563 102.312C101.315 102.312 101.931 102.488 102.411 102.84C102.891 103.192 103.131 103.7 103.131 104.364C103.131 104.708 103.055 105.008 102.903 105.264C102.759 105.52 102.563 105.748 102.315 105.948C102.067 106.14 101.795 106.312 101.499 106.464C101.851 106.64 102.171 106.832 102.459 107.04C102.747 107.248 102.975 107.492 103.143 107.772C103.319 108.052 103.407 108.388 103.407 108.78C103.407 109.5 103.151 110.072 102.639 110.496C102.127 110.912 101.447 111.12 100.599 111.12C99.6707 111.12 98.9587 110.92 98.4627 110.52C97.9747 110.112 97.7307 109.544 97.7307 108.816C97.7307 108.432 97.8107 108.096 97.9707 107.808C98.1387 107.512 98.3587 107.26 98.6307 107.052C98.9027 106.844 99.1947 106.668 99.5067 106.524C99.0827 106.284 98.7267 105.996 98.4387 105.66C98.1507 105.316 98.0067 104.88 98.0067 104.352C98.0067 103.92 98.1187 103.552 98.3427 103.248C98.5667 102.944 98.8707 102.712 99.2547 102.552C99.6387 102.392 100.075 102.312 100.563 102.312ZM100.551 103.164C100.103 103.164 99.7387 103.272 99.4587 103.488C99.1787 103.696 99.0387 104 99.0387 104.4C99.0387 104.696 99.1067 104.944 99.2427 105.144C99.3867 105.344 99.5787 105.516 99.8187 105.66C100.059 105.796 100.323 105.928 100.611 106.056C101.027 105.88 101.375 105.668 101.655 105.42C101.943 105.172 102.087 104.832 102.087 104.4C102.087 104 101.947 103.696 101.667 103.488C101.387 103.272 101.015 103.164 100.551 103.164ZM98.7627 108.828C98.7627 109.244 98.9107 109.592 99.2067 109.872C99.5027 110.144 99.9587 110.28 100.575 110.28C101.159 110.28 101.603 110.144 101.907 109.872C102.219 109.592 102.375 109.232 102.375 108.792C102.375 108.376 102.211 108.032 101.883 107.76C101.555 107.48 101.119 107.236 100.575 107.028L100.383 106.956C99.8547 107.188 99.4507 107.448 99.1707 107.736C98.8987 108.024 98.7627 108.388 98.7627 108.828ZM110.286 106.164V102.648H113.934V106.164H110.286ZM105.894 102.648H109.41V106.164H105.894V102.648ZM114.834 101.784H105.006V111.924H105.894V107.052H113.934V110.724C113.934 110.952 113.85 111.024 113.634 111.024C113.406 111.036 112.626 111.048 111.81 111.012C111.942 111.252 112.098 111.66 112.146 111.9C113.214 111.9 113.886 111.888 114.282 111.744C114.69 111.588 114.834 111.3 114.834 110.724V101.784ZM119.406 106.44C119.406 104.1 118.458 102.192 117.018 100.728L116.298 101.1C117.678 102.528 118.53 104.304 118.53 106.44C118.53 108.576 117.678 110.352 116.298 111.78L117.018 112.152C118.458 110.688 119.406 108.78 119.406 106.44Z" fill="#1EADAC"/>
<path d="M37.1137 64.358C38.1611 64.358 39.1687 64.5336 40.1365 64.8849C41.1109 65.2363 41.9793 65.7964 42.7416 66.5653C43.5105 67.3343 44.1171 68.3551 44.5612 69.6278C45.0119 70.8939 45.2406 72.4484 45.2473 74.2912C45.2473 76.0213 45.0517 77.5658 44.6606 78.9247C44.2762 80.277 43.7226 81.4271 43.0001 82.375C42.2776 83.3229 41.4059 84.0455 40.3851 84.5426C39.3642 85.0331 38.2241 85.2784 36.9646 85.2784C35.6057 85.2784 34.4059 85.0166 33.3652 84.4929C32.3244 83.9626 31.4859 83.2434 30.8495 82.3352C30.2198 81.4205 29.8387 80.393 29.7061 79.2528H33.9518C34.1175 79.9953 34.4655 80.572 34.9958 80.983C35.5262 81.3873 36.1824 81.5895 36.9646 81.5895C38.2904 81.5895 39.2979 81.0128 39.9873 79.8594C40.6767 78.6993 41.0247 77.1117 41.0314 75.0966H40.8922C40.5872 75.6932 40.1762 76.2069 39.6592 76.6378C39.1422 77.062 38.5489 77.3902 37.8794 77.6222C37.2165 77.8542 36.5105 77.9702 35.7615 77.9702C34.5617 77.9702 33.4911 77.6884 32.5498 77.125C31.6085 76.5616 30.8661 75.786 30.3226 74.7983C29.779 73.8106 29.5072 72.6837 29.5072 71.4176C29.5006 70.0521 29.8155 68.8357 30.4518 67.7685C31.0882 66.7012 31.9764 65.866 33.1166 65.2628C34.2634 64.6529 35.5958 64.3513 37.1137 64.358ZM37.1436 67.7386C36.4741 67.7386 35.8775 67.8977 35.3538 68.2159C34.8368 68.5341 34.4258 68.9616 34.1208 69.4986C33.8226 70.0355 33.6767 70.6354 33.6833 71.2983C33.6833 71.9678 33.8292 72.571 34.1208 73.108C34.4191 73.6383 34.8235 74.0625 35.3339 74.3807C35.851 74.6922 36.4409 74.848 37.1038 74.848C37.601 74.848 38.0617 74.7552 38.4859 74.5696C38.9101 74.384 39.278 74.1288 39.5896 73.804C39.9078 73.4725 40.1564 73.0914 40.3353 72.6605C40.5143 72.2296 40.6038 71.7723 40.6038 71.2884C40.5972 70.6454 40.4447 70.0554 40.1464 69.5185C39.8481 68.9815 39.4371 68.5507 38.9135 68.2259C38.3898 67.901 37.7998 67.7386 37.1436 67.7386ZM55.2108 85.2784C53.6796 85.2784 52.3173 85.0298 51.1242 84.5327C49.9376 84.0289 49.0063 83.3428 48.3301 82.4744C47.654 81.6061 47.3159 80.6217 47.3159 79.5213C47.3159 78.6728 47.5082 77.8939 47.8926 77.1847C48.2837 76.4688 48.814 75.8755 49.4835 75.4048C50.153 74.9276 50.9021 74.6226 51.7307 74.4901V74.3509C50.6436 74.1321 49.762 73.6051 49.0858 72.7699C48.4097 71.928 48.0716 70.9503 48.0716 69.8366C48.0716 68.7827 48.3798 67.8447 48.9963 67.0227C49.6128 66.1941 50.458 65.5445 51.5318 65.0739C52.6123 64.5966 53.8387 64.358 55.2108 64.358C56.583 64.358 57.806 64.5966 58.8798 65.0739C59.9603 65.5511 60.8088 66.2041 61.4253 67.0327C62.0418 67.8546 62.3533 68.7893 62.36 69.8366C62.3533 70.9569 62.0086 71.9347 61.3259 72.7699C60.6431 73.6051 59.7681 74.1321 58.7009 74.3509V74.4901C59.5162 74.6226 60.2553 74.9276 60.9182 75.4048C61.5877 75.8755 62.118 76.4688 62.5091 77.1847C62.9068 77.8939 63.109 78.6728 63.1156 79.5213C63.109 80.6217 62.7676 81.6061 62.0915 82.4744C61.4154 83.3428 60.4807 84.0289 59.2875 84.5327C58.101 85.0298 56.7421 85.2784 55.2108 85.2784ZM55.2108 82.1165C55.8936 82.1165 56.4902 81.9938 57.0006 81.7486C57.511 81.4967 57.9087 81.152 58.1938 80.7145C58.4854 80.2704 58.6313 79.7599 58.6313 79.1832C58.6313 78.5933 58.4821 78.0729 58.1838 77.6222C57.8855 77.1648 57.4812 76.8068 56.9708 76.5483C56.4603 76.2831 55.8737 76.1506 55.2108 76.1506C54.5546 76.1506 53.9679 76.2831 53.4509 76.5483C52.9338 76.8068 52.5262 77.1648 52.2279 77.6222C51.9362 78.0729 51.7904 78.5933 51.7904 79.1832C51.7904 79.7599 51.9329 80.2704 52.2179 80.7145C52.503 81.152 52.904 81.4967 53.421 81.7486C53.9381 81.9938 54.5347 82.1165 55.2108 82.1165ZM55.2108 73.0185C55.7809 73.0185 56.288 72.9025 56.7321 72.6705C57.1763 72.4384 57.5243 72.117 57.7762 71.706C58.028 71.295 58.154 70.821 58.154 70.2841C58.154 69.7538 58.028 69.2898 57.7762 68.892C57.5243 68.4877 57.1796 68.1728 56.7421 67.9474C56.3046 67.7154 55.7941 67.5994 55.2108 67.5994C54.6341 67.5994 54.1237 67.7154 53.6796 67.9474C53.2354 68.1728 52.8874 68.4877 52.6355 68.892C52.3903 69.2898 52.2676 69.7538 52.2676 70.2841C52.2676 70.821 52.3936 71.295 52.6455 71.706C52.8974 72.117 53.2454 72.4384 53.6895 72.6705C54.1336 72.9025 54.6407 73.0185 55.2108 73.0185ZM73.4943 85.4474C71.7841 85.4408 70.3125 85.0199 69.0795 84.1847C67.8532 83.3494 66.9086 82.1397 66.2457 80.5554C65.5895 78.9711 65.2647 77.0653 65.2713 74.8381C65.2713 72.6174 65.5994 70.7249 66.2557 69.1605C66.9186 67.5961 67.8632 66.4062 69.0895 65.5909C70.3224 64.7689 71.7907 64.358 73.4943 64.358C75.1979 64.358 76.6629 64.7689 77.8892 65.5909C79.1222 66.4129 80.0701 67.6061 80.733 69.1705C81.3958 70.7282 81.724 72.6174 81.7173 74.8381C81.7173 77.072 81.3859 78.9811 80.723 80.5653C80.0668 82.1496 79.1255 83.3594 77.8991 84.1946C76.6728 85.0298 75.2045 85.4474 73.4943 85.4474ZM73.4943 81.8778C74.661 81.8778 75.5923 81.2912 76.2884 80.1179C76.9844 78.9446 77.3291 77.1847 77.3224 74.8381C77.3224 73.2936 77.1634 72.0076 76.8452 70.9801C76.5336 69.9527 76.0895 69.1804 75.5128 68.6634C74.9427 68.1463 74.2699 67.8878 73.4943 67.8878C72.3343 67.8878 71.4063 68.4678 70.7102 69.6278C70.0142 70.7879 69.6629 72.5246 69.6562 74.8381C69.6562 76.4025 69.812 77.7083 70.1236 78.7557C70.4418 79.7964 70.8892 80.5786 71.4659 81.1023C72.0426 81.6193 72.7188 81.8778 73.4943 81.8778ZM98.0887 73.408V66.352H105.089V73.408H98.0887ZM88.1767 66.352H94.7847V73.408H88.1767V66.352ZM108.449 63.048H84.8167V87.408H88.1767V76.712H105.089V83.488C105.089 83.964 104.893 84.132 104.361 84.16C103.801 84.16 101.981 84.188 100.385 84.076C100.861 84.944 101.421 86.484 101.589 87.408C104.081 87.408 105.761 87.352 106.881 86.792C108.057 86.26 108.449 85.336 108.449 83.516V63.048ZM122.645 75.564C124.549 77.636 126.593 78.644 129.253 78.644C132.249 78.644 134.993 76.964 136.869 73.492L133.789 71.812C132.725 73.8 131.129 75.172 129.337 75.172C127.405 75.172 126.369 74.444 125.165 73.156C123.261 71.084 121.217 70.076 118.557 70.076C115.561 70.076 112.817 71.756 110.941 75.228L114.021 76.908C115.085 74.92 116.681 73.548 118.473 73.548C120.433 73.548 121.441 74.304 122.645 75.564Z" fill="#1EADAC"/>
<path d="M30.7955 129.954H24.3835V130.808H30.7955V129.954ZM22.6055 129.324C21.7935 131.438 20.4355 133.51 19.0215 134.84C19.2035 135.078 19.5115 135.624 19.6095 135.848C20.1415 135.316 20.6595 134.7 21.1635 134V142.022H22.1435V132.502C22.6895 131.592 23.1795 130.598 23.5715 129.618L22.6055 129.324ZM30.1375 138.494V140.552H25.0695V138.494H30.1375ZM24.0615 142.064H25.0695V141.406H30.1375V142.022H31.1735V137.654H24.0615V142.064ZM24.2155 136.576H31.0195V135.736H24.2155V136.576ZM31.0475 133.804H24.2155V134.658H31.0475V133.804ZM23.0675 131.872V132.74H32.1115V131.872H23.0675ZM37.9775 129.772H33.7075V130.612H37.9775V129.772ZM38.4955 131.606H32.9795V132.46H38.4955V131.606ZM36.9975 138.074V140.426H34.5475V138.074H36.9975ZM37.9355 137.22H33.6235V141.91H34.5475V141.266H37.9355V137.22ZM33.6375 136.184H37.9775V135.344H33.6375V136.184ZM33.6375 134.322H37.9775V133.496H33.6375V134.322ZM42.7515 140.93C42.2895 140.93 42.1915 140.818 42.1915 140.23V135.946L45.8455 135.386L45.6635 134.406L42.1915 134.938V131.186C43.2975 130.92 44.3475 130.612 45.1875 130.262L44.3195 129.45C43.0035 130.052 40.6375 130.612 38.5935 130.962C38.7195 131.214 38.8875 131.606 38.9295 131.844C39.6435 131.732 40.3995 131.592 41.1555 131.424V135.106L38.3135 135.54L38.4675 136.52L41.1555 136.1V140.216C41.1555 141.56 41.4775 141.91 42.6115 141.91H44.4455C45.5235 141.91 45.7895 141.224 45.9015 139.208C45.6075 139.152 45.2015 138.956 44.9495 138.76C44.8935 140.496 44.8095 140.93 44.3755 140.93H42.7515ZM59.2155 132.292V131.382H55.1975C55.4215 130.794 55.6035 130.164 55.7575 129.534L54.8335 129.338C54.4695 130.962 53.8255 132.516 52.9295 133.538C53.1675 133.678 53.5455 133.958 53.7135 134.112C54.1195 133.608 54.4835 132.992 54.8195 132.292H59.2155ZM58.8795 135.722V134.826H54.1755V135.722H58.8795ZM48.1975 134.378H49.8775V135.498H48.1975V134.378ZM49.8775 130.64V131.676H48.1975V130.64H49.8775ZM51.9355 133.664H48.1975V132.404H51.9355V133.664ZM53.1955 135.498H50.7315V134.378H52.8035V131.676H50.7315V130.64H53.0695V129.814H47.2455V136.338H53.1955V135.498ZM49.3035 138.172H51.1795V140.748H49.3035V138.172ZM54.0215 138.172V140.748H52.1175V138.172H54.0215ZM56.8915 138.172V140.748H54.9735V138.172H56.8915ZM57.9135 140.748V137.318H48.3235V140.748H46.7695V141.672H59.4115V140.748H57.9135ZM61.7775 132.936C61.4835 133.706 60.9795 134.476 60.4055 135.036C60.6155 135.134 60.9655 135.372 61.1475 135.498C61.6935 134.924 62.2815 134 62.6175 133.146L61.7775 132.936ZM64.3115 132.628H67.1255V131.83H64.2415V130.906H66.6355V130.136H64.2415V129.282H63.2895V131.83H60.5875V132.628H63.4015V134.77C63.4015 134.91 63.3595 134.938 63.2055 134.952C63.0655 134.952 62.6175 134.952 62.0575 134.938C62.1975 135.162 62.3095 135.498 62.3515 135.75C63.0935 135.75 63.5835 135.75 63.9055 135.61C64.2415 135.47 64.3115 135.232 64.3115 134.798V132.628ZM66.8735 134.546C66.6495 134.084 66.1035 133.398 65.6275 132.922L64.8855 133.258C65.3615 133.762 65.8795 134.476 66.1035 134.952L66.8735 134.546ZM69.8555 136.702V137.612H63.6255V136.702H69.8555ZM63.6255 139.194V138.284H69.8555V139.194H63.6255ZM63.6255 140.818V139.88H69.8555V140.818H63.6255ZM62.6175 142.078H63.6255V141.616H69.8555V142.036H70.8915V135.904H62.6175V142.078ZM71.2835 130.78C70.9335 131.634 70.4295 132.376 69.7995 132.992C69.2255 132.348 68.7495 131.592 68.4415 130.78H71.2835ZM71.8995 129.898L71.7175 129.926H67.0695V130.78H68.2035L67.5875 130.948C67.9515 131.942 68.4695 132.824 69.1135 133.594C68.3435 134.182 67.4615 134.616 66.5515 134.882C66.7475 135.064 67.0135 135.428 67.1115 135.666C68.0635 135.344 68.9595 134.882 69.7575 134.266C70.5555 135.022 71.5075 135.61 72.5855 135.988C72.7255 135.736 73.0195 135.344 73.2435 135.134C72.1935 134.826 71.2555 134.322 70.4855 133.65C71.3955 132.754 72.1235 131.606 72.5295 130.15L71.8995 129.898ZM79.7535 129.716C79.6555 131.564 79.6555 138.242 73.9855 141.14C74.3075 141.35 74.6435 141.686 74.8255 141.938C78.3675 140.02 79.8095 136.646 80.4255 133.846C81.0975 136.646 82.6375 140.23 86.2495 141.938C86.4035 141.658 86.7255 141.308 87.0195 141.084C81.7555 138.676 80.9995 132.208 80.8735 130.36C80.8875 130.122 80.8875 129.898 80.9015 129.716H79.7535ZM97.2395 134.574V134.07H98.7795C99.3955 134.07 99.9135 134.098 100.067 134.112V132.936C99.8715 132.964 99.3955 133.006 98.7795 133.006H97.2395V131.256C97.2395 130.71 97.2955 130.248 97.3095 130.108H96.0495C96.0775 130.248 96.1195 130.71 96.1195 131.256V133.006H92.1295V131.214C92.1295 130.724 92.1855 130.332 92.1995 130.192H90.9535C90.9955 130.514 91.0095 130.92 91.0095 131.214V133.006H89.4975C88.9095 133.006 88.2235 132.936 88.0975 132.908V134.126C88.2655 134.112 88.8955 134.07 89.4975 134.07H91.0095V136.338C91.0095 136.87 90.9675 137.472 90.9535 137.612H92.1855C92.1715 137.472 92.1295 136.856 92.1295 136.338V134.07H96.1195V134.658C96.1195 138.578 94.8455 139.782 92.2975 140.762L93.2355 141.644C96.4415 140.216 97.2395 138.298 97.2395 134.574ZM102.279 134.938V136.31C102.713 136.268 103.455 136.24 104.225 136.24H111.911C112.541 136.24 113.129 136.296 113.409 136.31V134.938C113.101 134.966 112.597 135.008 111.897 135.008H104.225C103.441 135.008 102.699 134.966 102.279 134.938ZM124.735 130.024L123.993 130.346C124.371 130.878 124.847 131.718 125.127 132.292L125.883 131.942C125.589 131.382 125.085 130.528 124.735 130.024ZM126.275 129.464L125.533 129.786C125.925 130.318 126.387 131.102 126.695 131.718L127.451 131.368C127.185 130.85 126.639 129.982 126.275 129.464ZM118.449 130.5H117.147C117.203 130.822 117.231 131.298 117.231 131.634V139.334C117.231 140.468 117.833 140.958 118.911 141.154C119.485 141.252 120.325 141.294 121.151 141.294C122.677 141.294 124.777 141.182 125.995 141V139.726C124.833 140.034 122.691 140.174 121.207 140.174C120.521 140.174 119.793 140.132 119.359 140.062C118.673 139.922 118.379 139.74 118.379 139.026V135.946C120.115 135.498 122.537 134.756 124.105 134.126C124.525 133.972 125.029 133.748 125.421 133.58L124.931 132.46C124.539 132.698 124.119 132.908 123.699 133.09C122.243 133.72 120.031 134.392 118.379 134.798V131.634C118.379 131.242 118.407 130.822 118.449 130.5ZM139.435 131.634L138.721 131.088C138.497 131.158 138.133 131.2 137.671 131.2H132.267C131.847 131.2 131.049 131.144 130.853 131.116V132.39C131.007 132.376 131.777 132.32 132.267 132.32H137.727C137.377 133.482 136.355 135.134 135.403 136.212C133.961 137.822 131.889 139.488 129.635 140.37L130.531 141.308C132.603 140.37 134.493 138.83 135.991 137.22C137.419 138.494 138.903 140.146 139.841 141.378L140.821 140.538C139.911 139.432 138.203 137.612 136.733 136.352C137.727 135.092 138.609 133.454 139.085 132.25C139.169 132.054 139.351 131.746 139.435 131.634ZM147.191 131.004L143.467 141H142.053L145.777 131.004H147.191ZM24.13 160.474C24.928 161.034 25.866 161.874 26.3 162.448L27.126 161.818C26.65 161.244 25.712 160.446 24.9 159.914L24.13 160.474ZM24.354 155.882H27.686V157.016H24.354V155.882ZM24.354 154.006H27.686V155.14H24.354V154.006ZM32.124 154.006V155.14H28.694V154.006H32.124ZM32.124 157.016H28.694V155.882H32.124V157.016ZM34.476 158.864H31.312V157.8H33.146V153.25H28.694V152.298H34.154V151.402H28.694V150.31H27.686V151.402H22.352V152.298H27.686V153.25H23.374V157.8H30.304V158.864H22.002V159.76H30.304V161.944C30.304 162.14 30.22 162.196 29.982 162.21C29.758 162.224 28.89 162.224 27.966 162.196C28.106 162.462 28.26 162.84 28.316 163.106C29.506 163.106 30.262 163.106 30.724 162.952C31.186 162.812 31.312 162.546 31.312 161.972V159.76H34.476V158.864ZM40.244 151.822V153.04H37.276V151.822H40.244ZM37.276 155.182V153.838H40.244V155.182H37.276ZM41.224 150.94H36.254V163.064H37.276V156.05H41.224V150.94ZM43.52 155.196V153.838H46.628V155.196H43.52ZM46.628 151.822V153.04H43.52V151.822H46.628ZM47.678 150.94H42.526V156.064H46.628V161.636C46.628 161.916 46.53 161.986 46.278 162C45.984 162.014 45.032 162.028 44.08 161.972C44.234 162.266 44.402 162.756 44.458 163.05C45.718 163.05 46.544 163.022 47.034 162.854C47.496 162.686 47.678 162.35 47.678 161.636V150.94ZM50.898 152.494H60.376V154.286H61.44V151.528H56.12V150.296H55.084V151.528H49.876V154.286H50.898V152.494ZM60.46 155.266C59.802 155.854 58.794 156.582 57.926 157.128C57.562 156.4 57.254 155.616 57.03 154.79H59.494V153.894H51.668V154.79H54.65C53.334 155.644 51.486 156.316 49.792 156.736C49.96 156.918 50.254 157.352 50.366 157.548C51.486 157.212 52.704 156.764 53.796 156.218C54.034 156.428 54.244 156.638 54.44 156.848C53.362 157.674 51.388 158.584 49.89 159.004C50.086 159.214 50.324 159.578 50.45 159.816C51.878 159.298 53.74 158.346 54.916 157.478C55.112 157.772 55.28 158.066 55.406 158.374C54.034 159.662 51.5 160.978 49.4 161.552C49.596 161.776 49.82 162.168 49.946 162.42C51.878 161.776 54.188 160.544 55.714 159.284C55.994 160.474 55.756 161.496 55.252 161.874C54.972 162.112 54.664 162.14 54.286 162.14C53.978 162.14 53.502 162.126 52.984 162.07C53.166 162.35 53.25 162.784 53.278 163.064C53.726 163.092 54.16 163.106 54.496 163.092C55.126 163.092 55.518 162.994 55.98 162.63C57.352 161.678 57.324 158.08 54.65 155.77C55.168 155.476 55.658 155.14 56.078 154.79H56.106C56.974 158.108 58.598 160.768 61.244 161.972C61.412 161.692 61.72 161.286 61.958 161.076C60.446 160.488 59.256 159.368 58.36 157.926C59.298 157.38 60.418 156.652 61.258 155.952L60.46 155.266ZM66.326 154.258H68.328V153.278H66.326V150.282H65.346V153.278H63.078V154.258H65.22C64.73 156.19 63.736 158.36 62.77 159.522C62.938 159.774 63.204 160.18 63.316 160.474C64.072 159.522 64.8 157.968 65.346 156.358V163.05H66.326V156.68C66.858 157.366 67.488 158.248 67.754 158.71L68.398 157.856C68.104 157.478 66.816 155.994 66.326 155.49V154.258ZM69.938 161.16V158.738H74.18V161.16H69.938ZM74.18 152.088V154.426H69.938V152.088H74.18ZM69.938 155.378H74.18V157.786H69.938V155.378ZM68.944 151.108V162.966H69.938V162.126H74.18V162.924H75.202V151.108H68.944ZM88.096 151.15C87.83 151.836 87.312 152.802 86.906 153.404L87.676 153.726C88.11 153.166 88.628 152.284 89.076 151.5L88.096 151.15ZM83.126 151.234C82.986 152.116 82.608 153.04 82.02 153.516L82.818 153.908C83.476 153.334 83.854 152.326 83.994 151.402L83.126 151.234ZM89.356 155.714C88.558 155.042 87.032 154.048 85.8 153.306C86.038 152.466 86.136 151.472 86.192 150.296H85.184C85.044 153.264 84.652 154.916 81.782 155.798C81.992 155.994 82.258 156.358 82.37 156.61C83.994 156.064 84.918 155.28 85.464 154.188C86.64 154.93 87.97 155.868 88.67 156.498L89.356 155.714ZM87.718 159.872C88.194 159.256 88.768 158.29 89.244 157.45L88.236 157.1C87.942 157.828 87.382 158.892 86.934 159.536L87.718 159.872ZM82.51 160.124C83.266 159.508 83.714 158.444 83.91 157.394L82.986 157.198C82.79 158.178 82.356 159.144 81.684 159.634L82.51 160.124ZM81.264 150.772H77.288V151.612H81.264V150.772ZM81.768 152.606H76.588V153.46H81.768V152.606ZM81.292 154.496H77.232V155.322H81.292V154.496ZM77.232 157.184H81.292V156.344H77.232V157.184ZM80.41 159.074V161.426H78.128V159.074H80.41ZM81.306 158.22H77.218V162.91H78.128V162.266H81.306V158.22ZM86.122 156.064H85.086V158.066C85.086 158.864 84.596 161.118 81.348 162.238C81.558 162.448 81.838 162.854 81.964 163.078C84.414 162.182 85.394 160.432 85.604 159.578C85.814 160.418 86.752 162.224 88.88 163.078C89.02 162.84 89.314 162.434 89.51 162.196C86.612 161.118 86.122 158.836 86.122 158.066V156.064ZM99.772 155.574V155.07H101.312C101.928 155.07 102.446 155.098 102.6 155.112V153.936C102.404 153.964 101.928 154.006 101.312 154.006H99.772V152.256C99.772 151.71 99.828 151.248 99.842 151.108H98.582C98.61 151.248 98.652 151.71 98.652 152.256V154.006H94.662V152.214C94.662 151.724 94.718 151.332 94.732 151.192H93.486C93.528 151.514 93.542 151.92 93.542 152.214V154.006H92.03C91.442 154.006 90.756 153.936 90.63 153.908V155.126C90.798 155.112 91.428 155.07 92.03 155.07H93.542V157.338C93.542 157.87 93.5 158.472 93.486 158.612H94.718C94.704 158.472 94.662 157.856 94.662 157.338V155.07H98.652V155.658C98.652 159.578 97.378 160.782 94.83 161.762L95.768 162.644C98.974 161.216 99.772 159.298 99.772 155.574ZM104.812 155.938V157.31C105.246 157.268 105.988 157.24 106.758 157.24H114.444C115.074 157.24 115.662 157.296 115.942 157.31V155.938C115.634 155.966 115.13 156.008 114.43 156.008H106.758C105.974 156.008 105.232 155.966 104.812 155.938ZM127.268 151.024L126.526 151.346C126.904 151.878 127.38 152.718 127.66 153.292L128.416 152.942C128.122 152.382 127.618 151.528 127.268 151.024ZM128.808 150.464L128.066 150.786C128.458 151.318 128.92 152.102 129.228 152.718L129.984 152.368C129.718 151.85 129.172 150.982 128.808 150.464ZM120.982 151.5H119.68C119.736 151.822 119.764 152.298 119.764 152.634V160.334C119.764 161.468 120.366 161.958 121.444 162.154C122.018 162.252 122.858 162.294 123.684 162.294C125.21 162.294 127.31 162.182 128.528 162V160.726C127.366 161.034 125.224 161.174 123.74 161.174C123.054 161.174 122.326 161.132 121.892 161.062C121.206 160.922 120.912 160.74 120.912 160.026V156.946C122.648 156.498 125.07 155.756 126.638 155.126C127.058 154.972 127.562 154.748 127.954 154.58L127.464 153.46C127.072 153.698 126.652 153.908 126.232 154.09C124.776 154.72 122.564 155.392 120.912 155.798V152.634C120.912 152.242 120.94 151.822 120.982 151.5ZM141.968 152.634L141.254 152.088C141.03 152.158 140.666 152.2 140.204 152.2H134.8C134.38 152.2 133.582 152.144 133.386 152.116V153.39C133.54 153.376 134.31 153.32 134.8 153.32H140.26C139.91 154.482 138.888 156.134 137.936 157.212C136.494 158.822 134.422 160.488 132.168 161.37L133.064 162.308C135.136 161.37 137.026 159.83 138.524 158.22C139.952 159.494 141.436 161.146 142.374 162.378L143.354 161.538C142.444 160.432 140.736 158.612 139.266 157.352C140.26 156.092 141.142 154.454 141.618 153.25C141.702 153.054 141.884 152.746 141.968 152.634Z" fill="#1EADAC"/>
</svg>
